<svg width="39" height="39" viewBox="0 0 39 39" fill="none" xmlns="http://www.w3.org/2000/svg">
<mask id="path-1-inside-1_208_2737" fill="white">
<path fill-rule="evenodd" clip-rule="evenodd" d="M38.7981 14.9394C38.5511 13.0875 38.1903 10.9402 37.3864 9.05524C35.9662 5.72553 33.8319 5.02658 32.2914 5.02658C30.089 5.02658 28.2094 6.18577 27.6142 7.91129C27.5377 8.13331 27.4623 8.35645 27.3868 8.5803L27.3865 8.58104C26.7232 10.5457 26.0416 12.5647 24.3694 14.3569C24.2937 13.9603 24.1319 13.594 23.9042 13.2778C24.2273 12.8291 24.4184 12.2797 24.4184 11.6861V9.8574C24.4184 9.56475 24.3624 9.2823 24.2598 9.02073C24.8382 8.30446 24.8818 7.68297 24.9256 7.05907C24.9481 6.73976 24.9705 6.41982 25.0647 6.08621C25.1938 5.62972 25.4687 5.12411 26.0049 4.13803L26.0049 4.13799C26.1572 3.85795 26.3306 3.53915 26.5276 3.17172C27.2859 1.75767 26.3006 0 24.7075 0H22.4932C21.7177 0 21.0119 0.439131 20.6504 1.14806L20.0094 2.41114C19.7764 2.86962 19.2242 2.87084 18.9908 2.41175L18.3485 1.14608C17.9881 0.439131 17.2823 0 16.5068 0H14.2925C12.7009 0 11.7134 1.75637 12.4724 3.1718C12.6696 3.53958 12.8431 3.85869 12.9956 4.13901L12.9957 4.13923L12.9959 4.13966L12.9961 4.13998C13.5311 5.12397 13.8062 5.62988 13.9352 6.08598C14.031 6.42525 14.0532 6.74731 14.0753 7.06738C14.1181 7.68885 14.1604 8.30285 14.7403 9.02081C14.6377 9.2823 14.5817 9.56475 14.5817 9.85733V11.6853C14.5817 12.279 14.7728 12.8286 15.0961 13.2774C14.8682 13.5939 14.7062 13.9606 14.6306 14.3575C12.9592 12.5666 12.2772 10.5466 11.6136 8.58114C11.5379 8.35693 11.4625 8.13343 11.3858 7.91106C10.7907 6.18569 8.91113 5.02651 6.70869 5.02651C5.16827 5.02651 3.03386 5.72546 1.61371 9.05516C0.809716 10.9402 0.448814 13.0875 0.201941 14.9391C-0.360436 19.1484 0.249015 23.218 2.06511 27.3808C3.54604 30.7737 5.31597 33.9734 9.03598 33.9734C11.2179 33.9734 13.0918 32.8263 13.6989 31.1187C14.0313 30.1835 14.4961 29.0475 15.0969 27.9696C15.1451 28.0568 15.1984 28.1409 15.2556 28.2219C14.9459 28.6604 14.7632 29.1946 14.7632 29.7711V31.4903C14.7632 32.0668 14.946 32.6011 15.2558 33.0396C14.946 33.4781 14.7632 34.0124 14.7632 34.589V36.3082C14.7632 37.7924 15.9707 39.0001 17.4549 39.0001H21.5449C23.0292 39.0001 24.2367 37.7924 24.2367 36.3082V34.589C24.2367 34.0124 24.0539 33.4781 23.7441 33.0396C24.0539 32.6011 24.2367 32.0668 24.2367 31.4903V29.7711C24.2367 29.1946 24.0539 28.6604 23.7442 28.2219C23.8015 28.1409 23.8548 28.0568 23.903 27.9695C24.5039 29.0473 24.9687 30.1831 25.301 31.1189C25.8473 32.6554 27.5121 33.9734 30.1359 33.9734C34.0572 33.9734 35.9291 29.6848 36.9348 27.3808L36.9348 27.3807C38.751 23.218 39.3604 19.1483 38.7981 14.9394ZM16.8666 16.1447V14.8697C16.8666 14.6219 17.0708 14.4202 17.3217 14.4202H21.6781C21.9291 14.4202 22.1333 14.6219 22.1333 14.8697V16.1447C20.575 16.9294 18.4841 16.9553 16.8666 16.1447ZM16.8666 11.6854L16.8677 10.103C16.9894 10.109 17.1584 10.1063 17.2992 10.0925C19.2387 9.89863 20.6417 10.0062 21.462 10.0692C21.7673 10.0926 21.9919 10.1098 22.1334 10.103V11.6861C22.1334 11.9316 21.9319 12.135 21.6782 12.135H17.3218C17.0708 12.1349 16.8666 11.9332 16.8666 11.6854ZM16.3642 2.28516L16.9535 3.44647C18.0319 5.56839 20.9681 5.56832 22.0468 3.44586L22.6358 2.28516H24.41C24.2669 2.55074 24.1358 2.7919 24.0155 3.01317L24.0153 3.01359L24.0149 3.01418L24.0149 3.0142L24.0149 3.01422L24.0149 3.01424L24.0149 3.01426L24.0149 3.01428L24.0149 3.01431L24.0148 3.01438C23.3973 4.15009 23.0647 4.76178 22.8659 5.46472C22.7013 6.04738 22.6733 6.49933 22.6518 6.84726C22.6212 7.34173 22.6036 7.62608 22.2253 7.77684C22.0721 7.83789 21.9448 7.82518 21.6333 7.79407C21.2743 7.75822 20.6705 7.69793 19.5001 7.69793C18.3056 7.69793 17.7047 7.75951 17.3523 7.79562C17.049 7.82669 16.9298 7.83891 16.7748 7.77684H16.7747C16.3978 7.62663 16.3797 7.33998 16.3484 6.84406C16.3265 6.49579 16.298 6.04432 16.1341 5.46442C15.9355 4.76193 15.6029 4.15026 14.9862 3.01602L14.986 3.01573L14.986 3.01566L14.9859 3.01548C14.8652 2.79357 14.7337 2.55166 14.5901 2.28516H16.3642ZM21.9442 25.3861L21.9515 26.6774C21.9503 26.899 21.7673 27.079 21.5423 27.079H17.4576C17.2321 27.079 17.0485 26.8979 17.0485 26.6753V25.3924C18.5887 24.006 20.306 23.9215 21.9442 25.3861ZM21.545 29.3643C21.7692 29.3643 21.9518 29.5468 21.9518 29.771V31.4902C21.9518 31.7145 21.7693 31.897 21.545 31.897H17.455C17.2308 31.897 17.0483 31.7145 17.0483 31.4902V29.771C17.0483 29.5468 17.2307 29.3643 17.455 29.3643H17.4577H21.5424H21.545ZM21.9518 36.3081C21.9518 36.5323 21.7693 36.7148 21.545 36.7148H17.455C17.2308 36.7148 17.0483 36.5323 17.0483 36.3081V34.5889C17.0483 34.3646 17.2307 34.1821 17.455 34.1821H21.545C21.7692 34.1821 21.9518 34.3646 21.9518 34.5889V36.3081ZM34.8405 26.4668L34.8406 26.4667C33.7379 28.993 32.3741 31.6883 30.136 31.6883C28.529 31.6883 27.6806 30.9901 27.4543 30.3537C26.7889 28.4804 25.6325 25.8749 23.9021 24.0999C22.5703 22.7338 21.0892 22.0411 19.5 22.0411C17.7703 22.0411 16.3025 22.8605 15.0868 24.111L15.0866 24.1111C13.3632 25.8849 12.2099 28.4847 11.5458 30.3533C11.3214 30.9847 10.4797 31.6882 8.86398 31.6882C6.6259 31.6882 5.26204 28.9929 4.15945 26.4668C2.51498 22.6974 1.96136 19.0256 2.46691 15.2414C2.92082 11.8373 3.85446 7.31174 6.70854 7.31174C7.89827 7.31174 8.95676 7.87716 9.22549 8.65617C9.30171 8.87718 9.37744 9.10137 9.45406 9.32819L9.45407 9.3282L9.45407 9.3282L9.45407 9.32821L9.45407 9.32822L9.45408 9.32823L9.45408 9.32824L9.45408 9.32825C10.3654 12.0261 11.4025 15.0962 14.8899 17.6114C17.5039 19.519 21.5619 19.4733 24.1047 17.6152C27.5973 15.0963 28.6342 12.027 29.5461 9.3276L29.5462 9.32716L29.5466 9.32617C29.623 9.10009 29.6985 8.8766 29.7745 8.65625C30.0432 7.87716 31.1018 7.31174 32.2914 7.31174C35.1456 7.31174 36.0791 11.8373 36.5331 15.2417C37.0387 19.0257 36.485 22.6975 34.8405 26.4668ZM6.12388 14.6232C6.71338 14.3982 7.00885 13.7378 6.78383 13.1483C6.70149 12.9323 6.91767 12.7279 7.13247 12.8094C7.72258 13.0329 8.38215 12.736 8.60579 12.1459C8.82943 11.5558 8.53244 10.8962 7.94233 10.6725C7.00466 10.317 5.94031 10.5443 5.23084 11.2514C4.51932 11.9605 4.29088 13.0249 4.64896 13.9631C4.87413 14.5529 5.53462 14.8481 6.12388 14.6232ZM12.0219 20.5133C11.7969 19.9237 12.0924 19.2634 12.6819 19.0383C13.2714 18.8133 13.9318 19.1088 14.1568 19.6984C14.5149 20.6366 14.2864 21.701 13.5749 22.4101C12.8634 23.1193 11.7982 23.3433 10.8634 22.989C10.2733 22.7654 9.97633 22.1057 10.2 21.5156C10.4236 20.9256 11.0832 20.6287 11.6733 20.8521C11.8882 20.9334 12.1043 20.7293 12.0219 20.5133ZM8.2955 19.8056C8.07186 19.2156 7.41229 18.9186 6.82219 19.1422C6.60715 19.2241 6.39128 19.0189 6.47347 18.8033C6.69848 18.2137 6.40301 17.5534 5.81352 17.3284C5.22402 17.1033 4.56369 17.3988 4.33868 17.9884C3.98059 18.9265 4.20896 19.991 4.92055 20.7002C5.63253 21.4097 6.69757 21.6332 7.63204 21.2791C8.22207 21.0554 8.51914 20.3957 8.2955 19.8056ZM7.4806 26.0405C8.19006 25.3333 9.25441 25.1061 10.1921 25.4615C10.7821 25.6852 11.0792 26.3448 10.8555 26.9349C10.6318 27.525 9.97218 27.822 9.38215 27.5984C9.16727 27.5169 8.95117 27.7213 9.03351 27.9373C9.25853 28.5269 8.96305 29.1872 8.37356 29.4122C7.78429 29.6371 7.12381 29.342 6.89872 28.7522C6.54064 27.814 6.76908 26.7495 7.4806 26.0405ZM30.4459 15.3317C30.74 15.4432 31.0466 15.4974 31.3508 15.4973C32.0163 15.4973 32.6705 15.238 33.1574 14.7528C33.869 14.0437 34.0974 12.9793 33.7393 12.0411C33.5144 11.4515 32.8541 11.1561 32.2645 11.3811C31.675 11.6061 31.3795 12.2664 31.6045 12.856C31.6337 12.9324 31.6332 13.0457 31.5445 13.1342C31.4532 13.2252 31.3319 13.2239 31.2558 13.1949C30.6656 12.9714 30.0061 13.2682 29.7825 13.8583C29.5588 14.4484 29.8558 15.1081 30.4459 15.3317ZM23.6246 20.3958C24.0361 19.482 24.9505 18.8916 25.9539 18.8916C26.9573 18.8916 27.8717 19.482 28.2833 20.3958C28.5425 20.9711 28.2862 21.6477 27.7109 21.9068C27.5586 21.9754 27.3991 22.0079 27.2423 22.0079C26.8066 22.0079 26.3904 21.7574 26.1999 21.3344C26.1051 21.1241 25.8025 21.1243 25.7079 21.3344C25.4488 21.9098 24.7722 22.1659 24.197 21.9069C23.6217 21.6477 23.3653 20.9712 23.6246 20.3958ZM33.1941 18.9426C32.6046 19.1676 32.3091 19.828 32.5341 20.4175C32.6165 20.6335 32.4004 20.8377 32.1855 20.7564C31.5953 20.5328 30.9358 20.8298 30.7122 21.4199C30.4885 22.01 30.7855 22.6695 31.3756 22.8933C32.3104 23.2476 33.3756 23.0235 34.0871 22.3144C34.7986 21.6053 35.0271 20.5408 34.669 19.6026C34.4439 19.0131 33.7837 18.7176 33.1941 18.9426ZM29.2016 26.307C29.9111 25.5999 30.9753 25.3728 31.913 25.7281C32.5031 25.9517 32.8002 26.6114 32.5765 27.2015C32.3528 27.7916 31.6933 28.0888 31.1032 27.865C30.8879 27.7834 30.6722 27.9884 30.7545 28.2039C30.9796 28.7934 30.6841 29.4538 30.0946 29.6788C29.5056 29.9037 28.8449 29.6087 28.6197 29.0188C28.2616 28.0806 28.49 27.0161 29.2016 26.307Z"/>
</mask>
<path fill-rule="evenodd" clip-rule="evenodd" d="M38.7981 14.9394C38.5511 13.0875 38.1903 10.9402 37.3864 9.05524C35.9662 5.72553 33.8319 5.02658 32.2914 5.02658C30.089 5.02658 28.2094 6.18577 27.6142 7.91129C27.5377 8.13331 27.4623 8.35645 27.3868 8.5803L27.3865 8.58104C26.7232 10.5457 26.0416 12.5647 24.3694 14.3569C24.2937 13.9603 24.1319 13.594 23.9042 13.2778C24.2273 12.8291 24.4184 12.2797 24.4184 11.6861V9.8574C24.4184 9.56475 24.3624 9.2823 24.2598 9.02073C24.8382 8.30446 24.8818 7.68297 24.9256 7.05907C24.9481 6.73976 24.9705 6.41982 25.0647 6.08621C25.1938 5.62972 25.4687 5.12411 26.0049 4.13803L26.0049 4.13799C26.1572 3.85795 26.3306 3.53915 26.5276 3.17172C27.2859 1.75767 26.3006 0 24.7075 0H22.4932C21.7177 0 21.0119 0.439131 20.6504 1.14806L20.0094 2.41114C19.7764 2.86962 19.2242 2.87084 18.9908 2.41175L18.3485 1.14608C17.9881 0.439131 17.2823 0 16.5068 0H14.2925C12.7009 0 11.7134 1.75637 12.4724 3.1718C12.6696 3.53958 12.8431 3.85869 12.9956 4.13901L12.9957 4.13923L12.9959 4.13966L12.9961 4.13998C13.5311 5.12397 13.8062 5.62988 13.9352 6.08598C14.031 6.42525 14.0532 6.74731 14.0753 7.06738C14.1181 7.68885 14.1604 8.30285 14.7403 9.02081C14.6377 9.2823 14.5817 9.56475 14.5817 9.85733V11.6853C14.5817 12.279 14.7728 12.8286 15.0961 13.2774C14.8682 13.5939 14.7062 13.9606 14.6306 14.3575C12.9592 12.5666 12.2772 10.5466 11.6136 8.58114C11.5379 8.35693 11.4625 8.13343 11.3858 7.91106C10.7907 6.18569 8.91113 5.02651 6.70869 5.02651C5.16827 5.02651 3.03386 5.72546 1.61371 9.05516C0.809716 10.9402 0.448814 13.0875 0.201941 14.9391C-0.360436 19.1484 0.249015 23.218 2.06511 27.3808C3.54604 30.7737 5.31597 33.9734 9.03598 33.9734C11.2179 33.9734 13.0918 32.8263 13.6989 31.1187C14.0313 30.1835 14.4961 29.0475 15.0969 27.9696C15.1451 28.0568 15.1984 28.1409 15.2556 28.2219C14.9459 28.6604 14.7632 29.1946 14.7632 29.7711V31.4903C14.7632 32.0668 14.946 32.6011 15.2558 33.0396C14.946 33.4781 14.7632 34.0124 14.7632 34.589V36.3082C14.7632 37.7924 15.9707 39.0001 17.4549 39.0001H21.5449C23.0292 39.0001 24.2367 37.7924 24.2367 36.3082V34.589C24.2367 34.0124 24.0539 33.4781 23.7441 33.0396C24.0539 32.6011 24.2367 32.0668 24.2367 31.4903V29.7711C24.2367 29.1946 24.0539 28.6604 23.7442 28.2219C23.8015 28.1409 23.8548 28.0568 23.903 27.9695C24.5039 29.0473 24.9687 30.1831 25.301 31.1189C25.8473 32.6554 27.5121 33.9734 30.1359 33.9734C34.0572 33.9734 35.9291 29.6848 36.9348 27.3808L36.9348 27.3807C38.751 23.218 39.3604 19.1483 38.7981 14.9394ZM16.8666 16.1447V14.8697C16.8666 14.6219 17.0708 14.4202 17.3217 14.4202H21.6781C21.9291 14.4202 22.1333 14.6219 22.1333 14.8697V16.1447C20.575 16.9294 18.4841 16.9553 16.8666 16.1447ZM16.8666 11.6854L16.8677 10.103C16.9894 10.109 17.1584 10.1063 17.2992 10.0925C19.2387 9.89863 20.6417 10.0062 21.462 10.0692C21.7673 10.0926 21.9919 10.1098 22.1334 10.103V11.6861C22.1334 11.9316 21.9319 12.135 21.6782 12.135H17.3218C17.0708 12.1349 16.8666 11.9332 16.8666 11.6854ZM16.3642 2.28516L16.9535 3.44647C18.0319 5.56839 20.9681 5.56832 22.0468 3.44586L22.6358 2.28516H24.41C24.2669 2.55074 24.1358 2.7919 24.0155 3.01317L24.0153 3.01359L24.0149 3.01418L24.0149 3.0142L24.0149 3.01422L24.0149 3.01424L24.0149 3.01426L24.0149 3.01428L24.0149 3.01431L24.0148 3.01438C23.3973 4.15009 23.0647 4.76178 22.8659 5.46472C22.7013 6.04738 22.6733 6.49933 22.6518 6.84726C22.6212 7.34173 22.6036 7.62608 22.2253 7.77684C22.0721 7.83789 21.9448 7.82518 21.6333 7.79407C21.2743 7.75822 20.6705 7.69793 19.5001 7.69793C18.3056 7.69793 17.7047 7.75951 17.3523 7.79562C17.049 7.82669 16.9298 7.83891 16.7748 7.77684H16.7747C16.3978 7.62663 16.3797 7.33998 16.3484 6.84406C16.3265 6.49579 16.298 6.04432 16.1341 5.46442C15.9355 4.76193 15.6029 4.15026 14.9862 3.01602L14.986 3.01573L14.986 3.01566L14.9859 3.01548C14.8652 2.79357 14.7337 2.55166 14.5901 2.28516H16.3642ZM21.9442 25.3861L21.9515 26.6774C21.9503 26.899 21.7673 27.079 21.5423 27.079H17.4576C17.2321 27.079 17.0485 26.8979 17.0485 26.6753V25.3924C18.5887 24.006 20.306 23.9215 21.9442 25.3861ZM21.545 29.3643C21.7692 29.3643 21.9518 29.5468 21.9518 29.771V31.4902C21.9518 31.7145 21.7693 31.897 21.545 31.897H17.455C17.2308 31.897 17.0483 31.7145 17.0483 31.4902V29.771C17.0483 29.5468 17.2307 29.3643 17.455 29.3643H17.4577H21.5424H21.545ZM21.9518 36.3081C21.9518 36.5323 21.7693 36.7148 21.545 36.7148H17.455C17.2308 36.7148 17.0483 36.5323 17.0483 36.3081V34.5889C17.0483 34.3646 17.2307 34.1821 17.455 34.1821H21.545C21.7692 34.1821 21.9518 34.3646 21.9518 34.5889V36.3081ZM34.8405 26.4668L34.8406 26.4667C33.7379 28.993 32.3741 31.6883 30.136 31.6883C28.529 31.6883 27.6806 30.9901 27.4543 30.3537C26.7889 28.4804 25.6325 25.8749 23.9021 24.0999C22.5703 22.7338 21.0892 22.0411 19.5 22.0411C17.7703 22.0411 16.3025 22.8605 15.0868 24.111L15.0866 24.1111C13.3632 25.8849 12.2099 28.4847 11.5458 30.3533C11.3214 30.9847 10.4797 31.6882 8.86398 31.6882C6.6259 31.6882 5.26204 28.9929 4.15945 26.4668C2.51498 22.6974 1.96136 19.0256 2.46691 15.2414C2.92082 11.8373 3.85446 7.31174 6.70854 7.31174C7.89827 7.31174 8.95676 7.87716 9.22549 8.65617C9.30171 8.87718 9.37744 9.10137 9.45406 9.32819L9.45407 9.3282L9.45407 9.3282L9.45407 9.32821L9.45407 9.32822L9.45408 9.32823L9.45408 9.32824L9.45408 9.32825C10.3654 12.0261 11.4025 15.0962 14.8899 17.6114C17.5039 19.519 21.5619 19.4733 24.1047 17.6152C27.5973 15.0963 28.6342 12.027 29.5461 9.3276L29.5462 9.32716L29.5466 9.32617C29.623 9.10009 29.6985 8.8766 29.7745 8.65625C30.0432 7.87716 31.1018 7.31174 32.2914 7.31174C35.1456 7.31174 36.0791 11.8373 36.5331 15.2417C37.0387 19.0257 36.485 22.6975 34.8405 26.4668ZM6.12388 14.6232C6.71338 14.3982 7.00885 13.7378 6.78383 13.1483C6.70149 12.9323 6.91767 12.7279 7.13247 12.8094C7.72258 13.0329 8.38215 12.736 8.60579 12.1459C8.82943 11.5558 8.53244 10.8962 7.94233 10.6725C7.00466 10.317 5.94031 10.5443 5.23084 11.2514C4.51932 11.9605 4.29088 13.0249 4.64896 13.9631C4.87413 14.5529 5.53462 14.8481 6.12388 14.6232ZM12.0219 20.5133C11.7969 19.9237 12.0924 19.2634 12.6819 19.0383C13.2714 18.8133 13.9318 19.1088 14.1568 19.6984C14.5149 20.6366 14.2864 21.701 13.5749 22.4101C12.8634 23.1193 11.7982 23.3433 10.8634 22.989C10.2733 22.7654 9.97633 22.1057 10.2 21.5156C10.4236 20.9256 11.0832 20.6287 11.6733 20.8521C11.8882 20.9334 12.1043 20.7293 12.0219 20.5133ZM8.2955 19.8056C8.07186 19.2156 7.41229 18.9186 6.82219 19.1422C6.60715 19.2241 6.39128 19.0189 6.47347 18.8033C6.69848 18.2137 6.40301 17.5534 5.81352 17.3284C5.22402 17.1033 4.56369 17.3988 4.33868 17.9884C3.98059 18.9265 4.20896 19.991 4.92055 20.7002C5.63253 21.4097 6.69757 21.6332 7.63204 21.2791C8.22207 21.0554 8.51914 20.3957 8.2955 19.8056ZM7.4806 26.0405C8.19006 25.3333 9.25441 25.1061 10.1921 25.4615C10.7821 25.6852 11.0792 26.3448 10.8555 26.9349C10.6318 27.525 9.97218 27.822 9.38215 27.5984C9.16727 27.5169 8.95117 27.7213 9.03351 27.9373C9.25853 28.5269 8.96305 29.1872 8.37356 29.4122C7.78429 29.6371 7.12381 29.342 6.89872 28.7522C6.54064 27.814 6.76908 26.7495 7.4806 26.0405ZM30.4459 15.3317C30.74 15.4432 31.0466 15.4974 31.3508 15.4973C32.0163 15.4973 32.6705 15.238 33.1574 14.7528C33.869 14.0437 34.0974 12.9793 33.7393 12.0411C33.5144 11.4515 32.8541 11.1561 32.2645 11.3811C31.675 11.6061 31.3795 12.2664 31.6045 12.856C31.6337 12.9324 31.6332 13.0457 31.5445 13.1342C31.4532 13.2252 31.3319 13.2239 31.2558 13.1949C30.6656 12.9714 30.0061 13.2682 29.7825 13.8583C29.5588 14.4484 29.8558 15.1081 30.4459 15.3317ZM23.6246 20.3958C24.0361 19.482 24.9505 18.8916 25.9539 18.8916C26.9573 18.8916 27.8717 19.482 28.2833 20.3958C28.5425 20.9711 28.2862 21.6477 27.7109 21.9068C27.5586 21.9754 27.3991 22.0079 27.2423 22.0079C26.8066 22.0079 26.3904 21.7574 26.1999 21.3344C26.1051 21.1241 25.8025 21.1243 25.7079 21.3344C25.4488 21.9098 24.7722 22.1659 24.197 21.9069C23.6217 21.6477 23.3653 20.9712 23.6246 20.3958ZM33.1941 18.9426C32.6046 19.1676 32.3091 19.828 32.5341 20.4175C32.6165 20.6335 32.4004 20.8377 32.1855 20.7564C31.5953 20.5328 30.9358 20.8298 30.7122 21.4199C30.4885 22.01 30.7855 22.6695 31.3756 22.8933C32.3104 23.2476 33.3756 23.0235 34.0871 22.3144C34.7986 21.6053 35.0271 20.5408 34.669 19.6026C34.4439 19.0131 33.7837 18.7176 33.1941 18.9426ZM29.2016 26.307C29.9111 25.5999 30.9753 25.3728 31.913 25.7281C32.5031 25.9517 32.8002 26.6114 32.5765 27.2015C32.3528 27.7916 31.6933 28.0888 31.1032 27.865C30.8879 27.7834 30.6722 27.9884 30.7545 28.2039C30.9796 28.7934 30.6841 29.4538 30.0946 29.6788C29.5056 29.9037 28.8449 29.6087 28.6197 29.0188C28.2616 28.0806 28.49 27.0161 29.2016 26.307Z" fill="#AAC0D9"/>
<path d="M37.3864 9.05524L37.6623 8.93754L37.6623 8.93754L37.3864 9.05524ZM38.7981 14.9394L38.5007 14.979L38.5007 14.9791L38.7981 14.9394ZM27.6142 7.91129L27.3306 7.81347L27.3306 7.81351L27.6142 7.91129ZM27.3868 8.5803L27.6707 8.67715L27.671 8.67626L27.3868 8.5803ZM27.3865 8.58104L27.1026 8.48419L27.1023 8.48508L27.3865 8.58104ZM24.3694 14.3569L24.0747 14.4131L24.1855 14.9936L24.5887 14.5615L24.3694 14.3569ZM23.9042 13.2778L23.6607 13.1025L23.5345 13.2778L23.6607 13.4531L23.9042 13.2778ZM24.2598 9.02073L24.0264 8.83225L23.9168 8.96793L23.9805 9.13028L24.2598 9.02073ZM24.9256 7.05907L24.6264 7.03805V7.03806L24.9256 7.05907ZM25.0647 6.08621L24.7761 6.00461L24.776 6.00467L25.0647 6.08621ZM26.0049 4.13803L26.2685 4.28135L26.2696 4.27921L26.0049 4.13803ZM26.0049 4.13799L25.7414 3.99467L25.7402 3.99682L26.0049 4.13799ZM26.5276 3.17172L26.792 3.31352L26.792 3.3135L26.5276 3.17172ZM20.6504 1.14806L20.3831 1.01175L20.3828 1.0123L20.6504 1.14806ZM20.0094 2.41114L20.2768 2.54707L20.2769 2.54691L20.0094 2.41114ZM18.9908 2.41175L18.7233 2.54751L18.7234 2.54771L18.9908 2.41175ZM18.3485 1.14608L18.616 1.01032L18.6158 1.00981L18.3485 1.14608ZM12.4724 3.1718L12.208 3.31357L12.208 3.31357L12.4724 3.1718ZM12.9956 4.13901L12.732 4.28232L12.7324 4.28313L12.9956 4.13901ZM12.9957 4.13923L13.2595 3.99632L13.2588 3.99511L12.9957 4.13923ZM12.9959 4.13966L12.7321 4.28257L12.7325 4.28315L12.9959 4.13966ZM12.9961 4.13998L13.2596 3.99667L13.2595 3.99649L12.9961 4.13998ZM13.9352 6.08598L14.2239 6.00443L14.2239 6.00435L13.9352 6.08598ZM14.0753 7.06738L13.776 7.088L14.0753 7.06738ZM14.7403 9.02081L15.0196 9.13031L15.0832 8.96796L14.9736 8.8323L14.7403 9.02081ZM15.0961 13.2774L15.3395 13.4528L15.4658 13.2774L15.3395 13.1021L15.0961 13.2774ZM14.6306 14.3575L14.4112 14.5622L14.8146 14.9944L14.9253 14.4136L14.6306 14.3575ZM11.6136 8.58114L11.3294 8.6771L11.3294 8.6771L11.6136 8.58114ZM11.3858 7.91106L11.6694 7.81328L11.6694 7.81324L11.3858 7.91106ZM1.61371 9.05516L1.88966 9.17286L1.88966 9.17285L1.61371 9.05516ZM0.201941 14.9391L0.499299 14.9789L0.49931 14.9788L0.201941 14.9391ZM2.06511 27.3808L1.79013 27.5008L1.79015 27.5008L2.06511 27.3808ZM13.6989 31.1187L13.9816 31.2192L13.9816 31.2192L13.6989 31.1187ZM15.0969 27.9696L15.3594 27.8245L15.098 27.3515L14.8348 27.8236L15.0969 27.9696ZM15.2556 28.2219L15.5007 28.395L15.623 28.2219L15.5006 28.0488L15.2556 28.2219ZM15.2558 33.0396L15.5008 33.2127L15.6231 33.0396L15.5008 32.8665L15.2558 33.0396ZM23.7441 33.0396L23.4991 32.8665L23.3768 33.0396L23.4991 33.2127L23.7441 33.0396ZM23.7442 28.2219L23.4992 28.0488L23.3769 28.2219L23.4992 28.395L23.7442 28.2219ZM23.903 27.9695L24.1651 27.8234L23.9018 27.3512L23.6404 27.8244L23.903 27.9695ZM25.301 31.1189L25.0183 31.2193L25.0184 31.2194L25.301 31.1189ZM36.9348 27.3808L36.6671 27.2453L36.6632 27.253L36.6598 27.2608L36.9348 27.3808ZM36.9348 27.3807L37.2025 27.5162L37.2064 27.5085L37.2098 27.5006L36.9348 27.3807ZM16.8666 16.1447H16.5666V16.3299L16.7322 16.4129L16.8666 16.1447ZM22.1333 16.1447L22.2682 16.4126L22.4333 16.3295V16.1447H22.1333ZM16.8677 10.103L16.8825 9.80335L16.5679 9.78779L16.5677 10.1028L16.8677 10.103ZM16.8666 11.6854L16.5666 11.6852V11.6854H16.8666ZM17.2992 10.0925L17.3286 10.391L17.329 10.391L17.2992 10.0925ZM21.462 10.0692L21.4849 9.77003L21.462 10.0692ZM22.1334 10.103H22.4334V9.78817L22.1189 9.80333L22.1334 10.103ZM17.3218 12.135L17.3217 12.435H17.3218V12.135ZM16.9535 3.44647L16.686 3.58223L16.6861 3.5824L16.9535 3.44647ZM16.3642 2.28516L16.6317 2.14939L16.5483 1.98516H16.3642V2.28516ZM22.0468 3.44586L22.3143 3.58179L22.3143 3.58161L22.0468 3.44586ZM22.6358 2.28516V1.98516H22.4516L22.3682 2.14941L22.6358 2.28516ZM24.41 2.28516L24.6741 2.42742L24.9123 1.98516H24.41V2.28516ZM24.0155 3.01317L23.7519 2.86986L23.7519 2.86995L24.0155 3.01317ZM24.0153 3.01359L23.7516 2.87037L23.7514 2.87083L24.0153 3.01359ZM24.0149 3.01418L24.2635 3.1822L24.2717 3.16995L24.2788 3.15694L24.0149 3.01418ZM24.0149 3.0142L23.7664 2.84618L23.7588 2.85741L23.7522 2.86927L24.0149 3.0142ZM24.0149 3.01422L23.7522 2.86929L23.7478 2.87725L23.744 2.88545L24.0149 3.01422ZM24.0149 3.01424L24.273 3.16718L24.28 3.15539L24.2859 3.14301L24.0149 3.01424ZM24.0149 3.01426L23.7568 2.8613L23.7544 2.86542L24.0149 3.01426ZM24.0149 3.01428L24.2688 3.17464L24.2753 3.16312L24.0149 3.01428ZM24.0149 3.01431L23.7612 2.85411L23.7536 2.86623L23.7471 2.87902L24.0149 3.01431ZM24.0148 3.01438L24.2785 3.15775L24.2826 3.14967L24.0148 3.01438ZM22.8659 5.46472L22.5772 5.38309L22.5772 5.38316L22.8659 5.46472ZM22.6518 6.84726L22.9512 6.86579V6.86579L22.6518 6.84726ZM22.2253 7.77684L22.3363 8.05554L22.3364 8.05553L22.2253 7.77684ZM21.6333 7.79407L21.6035 8.09259L21.6035 8.09259L21.6333 7.79407ZM17.3523 7.79562L17.3828 8.09406L17.3523 7.79562ZM16.7748 7.77684L16.8863 7.49834L16.8326 7.47684H16.7748V7.77684ZM16.7747 7.77684L16.6637 8.05553L16.7172 8.07684H16.7747V7.77684ZM16.3484 6.84406L16.049 6.86294L16.3484 6.84406ZM16.1341 5.46442L16.4228 5.38285L16.4228 5.3828L16.1341 5.46442ZM14.9862 3.01602L14.7224 3.15895L14.7226 3.15933L14.9862 3.01602ZM14.986 3.01573L15.2498 2.8728L15.2484 2.87026L14.986 3.01573ZM14.986 3.01566L14.7228 3.15961L14.7236 3.16113L14.986 3.01566ZM14.9859 3.01548L14.7223 3.15879L14.7227 3.15942L14.9859 3.01548ZM14.5901 2.28516V1.98516H14.0878L14.326 2.42741L14.5901 2.28516ZM21.9515 26.6774L22.2515 26.6789L22.2514 26.6757L21.9515 26.6774ZM21.9442 25.3861L22.2442 25.3844L22.2435 25.2512L22.1442 25.1624L21.9442 25.3861ZM17.0485 25.3924L16.8478 25.1695L16.7485 25.2588V25.3924H17.0485ZM34.8406 26.4667L35.1155 26.5867L34.5716 26.3338L34.8406 26.4667ZM34.8405 26.4668L34.5655 26.3469L35.1095 26.5997L34.8405 26.4668ZM27.4543 30.3537L27.1716 30.4541L27.1716 30.4542L27.4543 30.3537ZM23.9021 24.0999L24.1169 23.8905L23.9021 24.0999ZM15.0868 24.111L15.2996 24.3225L15.3019 24.3201L15.0868 24.111ZM15.0866 24.1111L14.8738 23.8997L14.8714 23.9021L15.0866 24.1111ZM11.5458 30.3533L11.8285 30.4538L11.8285 30.4537L11.5458 30.3533ZM4.15945 26.4668L3.88448 26.5867L3.8845 26.5868L4.15945 26.4668ZM2.46691 15.2414L2.76427 15.2811L2.76428 15.281L2.46691 15.2414ZM9.22549 8.65617L9.5091 8.55836L9.50909 8.55834L9.22549 8.65617ZM9.45406 9.32819L9.73867 9.23332L9.73829 9.23218L9.45406 9.32819ZM9.45408 9.32825L9.16948 9.42312L9.16986 9.42426L9.45408 9.32825ZM14.8899 17.6114L15.0668 17.3691L15.0654 17.3681L14.8899 17.6114ZM24.1047 17.6152L23.9292 17.3719L23.9277 17.373L24.1047 17.6152ZM29.5461 9.3276L29.2621 9.23106L29.2619 9.23158L29.5461 9.3276ZM29.5462 9.32716L29.2622 9.23058L29.2622 9.23063L29.5462 9.32716ZM29.5466 9.32617L29.8306 9.42276L29.8308 9.42219L29.5466 9.32617ZM29.7745 8.65625L29.4909 8.55842L29.4909 8.55843L29.7745 8.65625ZM36.5331 15.2417L36.2357 15.2813L36.2358 15.2814L36.5331 15.2417ZM6.78383 13.1483L6.50352 13.2551L6.50355 13.2552L6.78383 13.1483ZM6.12388 14.6232L6.0169 14.3429L6.01689 14.3429L6.12388 14.6232ZM7.13247 12.8094L7.02605 13.0899L7.02619 13.0899L7.13247 12.8094ZM8.60579 12.1459L8.88632 12.2522L8.60579 12.1459ZM7.94233 10.6725L7.83598 10.953L7.83601 10.953L7.94233 10.6725ZM5.23084 11.2514L5.44261 11.4639L5.44262 11.4639L5.23084 11.2514ZM4.64896 13.9631L4.36869 14.0701L4.36869 14.0701L4.64896 13.9631ZM12.6819 19.0383L12.7889 19.3186L12.7889 19.3186L12.6819 19.0383ZM12.0219 20.5133L12.3022 20.4064L12.3022 20.4063L12.0219 20.5133ZM14.1568 19.6984L13.8765 19.8053L13.8765 19.8053L14.1568 19.6984ZM13.5749 22.4101L13.3631 22.1976L13.3631 22.1976L13.5749 22.4101ZM10.8634 22.989L10.9698 22.7085L10.9697 22.7085L10.8634 22.989ZM10.2 21.5156L9.91944 21.4093L9.91944 21.4093L10.2 21.5156ZM11.6733 20.8521L11.567 21.1327L11.5672 21.1327L11.6733 20.8521ZM6.82219 19.1422L6.7159 18.8616L6.71542 18.8618L6.82219 19.1422ZM8.2955 19.8056L8.57603 19.6993L8.57603 19.6993L8.2955 19.8056ZM6.47347 18.8033L6.19319 18.6963L6.19315 18.6964L6.47347 18.8033ZM5.81352 17.3284L5.7065 17.6086L5.70653 17.6087L5.81352 17.3284ZM4.33868 17.9884L4.61895 18.0954L4.61896 18.0954L4.33868 17.9884ZM4.92055 20.7002L4.70878 20.9127L4.70879 20.9127L4.92055 20.7002ZM7.63204 21.2791L7.73835 21.5596L7.73841 21.5596L7.63204 21.2791ZM10.1921 25.4615L10.0858 25.7421H10.0858L10.1921 25.4615ZM7.4806 26.0405L7.69237 26.2529L7.69238 26.2529L7.4806 26.0405ZM9.38215 27.5984L9.27576 27.8789L9.27586 27.8789L9.38215 27.5984ZM9.03351 27.9373L8.7532 28.0442L8.75323 28.0443L9.03351 27.9373ZM8.37356 29.4122L8.26658 29.1319H8.26657L8.37356 29.4122ZM6.89872 28.7522L7.179 28.6452L7.179 28.6452L6.89872 28.7522ZM31.3508 15.4973V15.1973H31.3507L31.3508 15.4973ZM30.4459 15.3317L30.5522 15.0512L30.5522 15.0512L30.4459 15.3317ZM33.1574 14.7528L33.3692 14.9653V14.9653L33.1574 14.7528ZM33.7393 12.0411L33.459 12.148L33.459 12.1481L33.7393 12.0411ZM32.2645 11.3811L32.1575 11.1008L32.1575 11.1008L32.2645 11.3811ZM31.6045 12.856L31.8848 12.749L31.8848 12.749L31.6045 12.856ZM31.5445 13.1342L31.3327 12.9217L31.3327 12.9217L31.5445 13.1342ZM31.2558 13.1949L31.3627 12.9146L31.362 12.9143L31.2558 13.1949ZM29.7825 13.8583L29.502 13.752L29.7825 13.8583ZM23.6246 20.3958L23.8981 20.5191L23.8981 20.519L23.6246 20.3958ZM28.2833 20.3958L28.0098 20.519L28.0098 20.519L28.2833 20.3958ZM27.7109 21.9068L27.5877 21.6333L27.5876 21.6333L27.7109 21.9068ZM26.1999 21.3344L26.4734 21.2111L26.4734 21.2111L26.1999 21.3344ZM25.7079 21.3344L25.4344 21.2111L25.4344 21.2112L25.7079 21.3344ZM24.197 21.9069L24.0738 22.1804H24.0738L24.197 21.9069ZM32.5341 20.4175L32.8145 20.3107L32.8144 20.3106L32.5341 20.4175ZM33.1941 18.9426L33.0871 18.6623L33.0871 18.6623L33.1941 18.9426ZM32.1855 20.7564L32.0792 21.0369L32.0794 21.037L32.1855 20.7564ZM30.7122 21.4199L30.4317 21.3135L30.4316 21.3136L30.7122 21.4199ZM31.3756 22.8933L31.2693 23.1738L31.2693 23.1738L31.3756 22.8933ZM34.0871 22.3144L33.8754 22.1019L33.8753 22.1019L34.0871 22.3144ZM34.669 19.6026L34.9493 19.4957L34.9493 19.4956L34.669 19.6026ZM31.913 25.7281L32.0193 25.4475L32.0193 25.4475L31.913 25.7281ZM29.2016 26.307L29.4134 26.5196L29.4134 26.5195L29.2016 26.307ZM32.5765 27.2015L32.2959 27.0951L32.2959 27.0951L32.5765 27.2015ZM31.1032 27.865L31.2096 27.5845L31.2095 27.5844L31.1032 27.865ZM30.7545 28.2039L30.4742 28.3109L30.4742 28.3109L30.7545 28.2039ZM30.0946 29.6788L29.9876 29.3985L29.9875 29.3985L30.0946 29.6788ZM28.6197 29.0188L28.9 28.9118L28.9 28.9118L28.6197 29.0188ZM37.1104 9.17293C37.8972 11.0177 38.2541 13.13 38.5007 14.979L39.0955 14.8997C38.8481 13.045 38.4834 10.8627 37.6623 8.93754L37.1104 9.17293ZM32.2914 5.32658C33.0155 5.32658 33.8743 5.49039 34.7198 6.04335C35.5651 6.59611 36.4191 7.55208 37.1104 9.17293L37.6623 8.93754C36.9335 7.22869 36.0103 6.17033 35.0482 5.54119C34.0865 4.91225 33.1078 4.72658 32.2914 4.72658V5.32658ZM27.8978 8.0091C28.4411 6.43407 30.1827 5.32658 32.2914 5.32658V4.72658C29.9953 4.72658 27.9776 5.93746 27.3306 7.81347L27.8978 8.0091ZM27.671 8.67626C27.7466 8.45226 27.8217 8.23003 27.8978 8.00906L27.3306 7.81351C27.2537 8.03659 27.1781 8.26064 27.1025 8.48434L27.671 8.67626ZM27.6705 8.67789L27.6707 8.67715L27.1028 8.48346L27.1026 8.48419L27.6705 8.67789ZM24.5887 14.5615C26.3107 12.7161 27.009 10.6372 27.6708 8.677L27.1023 8.48508C26.4375 10.4543 25.7724 12.4134 24.15 14.1522L24.5887 14.5615ZM23.6607 13.4531C23.8636 13.7348 24.0074 14.0607 24.0747 14.4131L24.6641 14.3006C24.5799 13.86 24.4002 13.4532 24.1476 13.1025L23.6607 13.4531ZM24.1184 11.6861C24.1184 12.2142 23.9486 12.7027 23.6607 13.1025L24.1476 13.4531C24.506 12.9555 24.7184 12.3452 24.7184 11.6861H24.1184ZM24.1184 9.8574V11.6861H24.7184V9.8574H24.1184ZM23.9805 9.13028C24.0698 9.35797 24.1184 9.60332 24.1184 9.8574H24.7184C24.7184 9.52618 24.6549 9.20664 24.539 8.91118L23.9805 9.13028ZM24.6264 7.03806C24.5832 7.6528 24.5429 8.19258 24.0264 8.83225L24.4932 9.20921C25.1334 8.41634 25.1804 7.71314 25.2249 7.08008L24.6264 7.03806ZM24.776 6.00467C24.6722 6.37234 24.6486 6.7222 24.6264 7.03805L25.2249 7.08008C25.2476 6.75732 25.2689 6.46729 25.3535 6.16775L24.776 6.00467ZM25.7414 3.99472C25.2131 4.96613 24.9165 5.50765 24.7761 6.00461L25.3534 6.16781C25.471 5.75178 25.7243 5.28209 26.2685 4.28135L25.7414 3.99472ZM25.7402 3.99682L25.7402 3.99686L26.2696 4.27921L26.2696 4.27917L25.7402 3.99682ZM26.2633 3.02993C26.0666 3.39651 25.8937 3.71461 25.7414 3.99468L26.2685 4.28131C26.4208 4.00128 26.5945 3.68179 26.792 3.31352L26.2633 3.02993ZM24.7075 0.3C26.0569 0.3 26.9225 1.80063 26.2632 3.02994L26.792 3.3135C27.6494 1.71471 26.5443 -0.3 24.7075 -0.3V0.3ZM22.4932 0.3H24.7075V-0.3H22.4932V0.3ZM20.9176 1.28437C21.2295 0.67277 21.8339 0.3 22.4932 0.3V-0.3C21.6014 -0.3 20.7943 0.205491 20.3831 1.01175L20.9176 1.28437ZM20.2769 2.54691L20.9179 1.28382L20.3828 1.0123L19.7418 2.27538L20.2769 2.54691ZM18.7234 2.54771C18.8856 2.86682 19.1792 3.05591 19.5006 3.05554C19.8218 3.05516 20.1149 2.86564 20.2768 2.54707L19.7419 2.27522C19.6708 2.41513 19.5714 2.45545 19.4999 2.45554C19.4286 2.45562 19.3294 2.41577 19.2582 2.2758L18.7234 2.54771ZM18.081 1.28184L18.7233 2.54751L19.2583 2.276L18.616 1.01032L18.081 1.28184ZM16.5068 0.3C17.1663 0.3 17.7705 0.672935 18.0813 1.28235L18.6158 1.00981C18.2056 0.205326 17.3984 -0.3 16.5068 -0.3V0.3ZM14.2925 0.3H16.5068V-0.3H14.2925V0.3ZM12.7368 3.03003C12.077 1.79964 12.9443 0.3 14.2925 0.3V-0.3C12.4575 -0.3 11.3498 1.7131 12.208 3.31357L12.7368 3.03003ZM13.2591 3.9957C13.1067 3.71536 12.9335 3.39695 12.7368 3.03002L12.208 3.31357C12.4057 3.68222 12.5796 4.00202 12.732 4.28232L13.2591 3.9957ZM13.2588 3.99511L13.2587 3.99488L12.7324 4.28313L12.7326 4.28336L13.2588 3.99511ZM13.2597 3.99675L13.2595 3.99632L12.7319 4.28215L12.7321 4.28257L13.2597 3.99675ZM13.2595 3.99649L13.2594 3.99617L12.7325 4.28315L12.7326 4.28347L13.2595 3.99649ZM14.2239 6.00435C14.0835 5.50781 13.7867 4.966 13.2596 3.99667L12.7325 4.28329C13.2755 5.28194 13.529 5.75195 13.6465 6.16761L14.2239 6.00435ZM14.3746 7.04677C14.3527 6.7299 14.3294 6.3779 14.2239 6.00443L13.6465 6.16753C13.7327 6.4726 13.7537 6.76472 13.776 7.088L14.3746 7.04677ZM14.9736 8.8323C14.4555 8.19077 14.4167 7.65816 14.3746 7.04677L13.776 7.088C13.8195 7.71955 13.8652 8.41492 14.5069 9.20931L14.9736 8.8323ZM14.8817 9.85733C14.8817 9.60332 14.9303 9.35795 15.0196 9.13031L14.461 8.9113C14.3452 9.20666 14.2817 9.52618 14.2817 9.85733H14.8817ZM14.8817 11.6853V9.85733H14.2817V11.6853H14.8817ZM15.3395 13.1021C15.0515 12.7023 14.8817 12.2135 14.8817 11.6853H14.2817C14.2817 12.3445 14.4941 12.955 14.8526 13.4528L15.3395 13.1021ZM14.9253 14.4136C14.9925 14.0609 15.1364 13.7348 15.3395 13.4528L14.8526 13.1021C14.5999 13.4531 14.4199 13.8602 14.3359 14.3013L14.9253 14.4136ZM11.3294 8.6771C11.9914 10.638 12.6901 12.7179 14.4112 14.5622L14.8499 14.1528C13.2284 12.4153 12.563 10.4552 11.8979 8.48517L11.3294 8.6771ZM11.1022 8.00883C11.1785 8.23015 11.2536 8.45274 11.3294 8.6771L11.8979 8.48518C11.8222 8.26112 11.7464 8.03671 11.6694 7.81328L11.1022 8.00883ZM6.70869 5.32651C8.81741 5.32651 10.559 6.434 11.1022 8.00888L11.6694 7.81324C11.0224 5.93738 9.00484 4.72651 6.70869 4.72651V5.32651ZM1.88966 9.17285C2.58097 7.552 3.43501 6.59604 4.28029 6.04327C5.12587 5.49031 5.98462 5.32651 6.70869 5.32651V4.72651C5.89234 4.72651 4.91368 4.91217 3.95191 5.54111C2.98984 6.17025 2.0666 7.22862 1.33776 8.93746L1.88966 9.17285ZM0.49931 14.9788C0.745802 13.13 1.10282 11.0177 1.88966 9.17286L1.33776 8.93746C0.516613 10.8627 0.151827 13.045 -0.0954276 14.8995L0.49931 14.9788ZM2.34008 27.2609C0.544301 23.1446 -0.05532 19.1301 0.499299 14.9789L-0.0954167 14.8994C-0.665552 19.1667 -0.0462701 23.2914 1.79013 27.5008L2.34008 27.2609ZM9.03598 33.6734C7.27783 33.6734 5.98229 32.9233 4.9347 31.7497C3.87681 30.5645 3.0799 28.9558 2.34006 27.2608L1.79015 27.5008C2.53125 29.1987 3.35977 30.8863 4.48708 32.1492C5.62469 33.4237 7.07411 34.2734 9.03598 34.2734V33.6734ZM13.4162 31.0182C12.8619 32.5775 11.1244 33.6734 9.03598 33.6734V34.2734C11.3115 34.2734 13.3218 33.0751 13.9816 31.2192L13.4162 31.0182ZM14.8348 27.8236C14.2233 28.9208 13.752 30.0734 13.4162 31.0183L13.9816 31.2192C14.3105 30.2936 14.769 29.1742 15.3589 28.1157L14.8348 27.8236ZM15.5006 28.0488C15.4492 27.9759 15.4019 27.9013 15.3594 27.8245L14.8343 28.1148C14.8883 28.2124 14.9475 28.3058 15.0107 28.3951L15.5006 28.0488ZM15.0632 29.7711C15.0632 29.2591 15.2253 28.7848 15.5007 28.395L15.0106 28.0488C14.6666 28.5359 14.4632 29.1302 14.4632 29.7711H15.0632ZM15.0632 31.4903V29.7711H14.4632V31.4903H15.0632ZM15.5008 32.8665C15.2253 32.4766 15.0632 32.0024 15.0632 31.4903H14.4632C14.4632 32.1313 14.6667 32.7256 15.0108 33.2127L15.5008 32.8665ZM15.0632 34.589C15.0632 34.0769 15.2253 33.6027 15.5008 33.2127L15.0108 32.8665C14.6667 33.3536 14.4632 33.9479 14.4632 34.589H15.0632ZM15.0632 36.3082V34.589H14.4632V36.3082H15.0632ZM17.4549 38.7001C16.1364 38.7001 15.0632 37.6268 15.0632 36.3082H14.4632C14.4632 37.9581 15.805 39.3001 17.4549 39.3001V38.7001ZM21.5449 38.7001H17.4549V39.3001H21.5449V38.7001ZM23.9367 36.3082C23.9367 37.6268 22.8635 38.7001 21.5449 38.7001V39.3001C23.1949 39.3001 24.5367 37.9581 24.5367 36.3082H23.9367ZM23.9367 34.589V36.3082H24.5367V34.589H23.9367ZM23.4991 33.2127C23.7745 33.6027 23.9367 34.0769 23.9367 34.589H24.5367C24.5367 33.9479 24.3332 33.3536 23.9891 32.8665L23.4991 33.2127ZM23.9367 31.4903C23.9367 32.0024 23.7745 32.4766 23.4991 32.8665L23.9891 33.2127C24.3332 32.7256 24.5367 32.1313 24.5367 31.4903H23.9367ZM23.9367 29.7711V31.4903H24.5367V29.7711H23.9367ZM23.4992 28.395C23.7746 28.7848 23.9367 29.2591 23.9367 29.7711H24.5367C24.5367 29.1302 24.3333 28.5359 23.9893 28.0488L23.4992 28.395ZM23.6404 27.8244C23.5981 27.9012 23.5507 27.9759 23.4992 28.0488L23.9892 28.3951C24.0523 28.3058 24.1116 28.2124 24.1657 28.1145L23.6404 27.8244ZM25.5837 31.0185C25.248 30.073 24.7767 28.9206 24.1651 27.8234L23.641 28.1155C24.2311 29.174 24.6894 30.2932 25.0183 31.2193L25.5837 31.0185ZM30.1359 33.6734C27.6169 33.6734 26.0805 32.4157 25.5837 31.0184L25.0184 31.2194C25.6142 32.8951 27.4074 34.2734 30.1359 34.2734V33.6734ZM36.6598 27.2608C36.1551 28.4171 35.4497 30.0294 34.3941 31.3541C33.3419 32.6745 31.9712 33.6734 30.1359 33.6734V34.2734C32.2219 34.2734 33.7478 33.128 34.8633 31.7281C35.9754 30.3325 36.7088 28.6485 37.2097 27.5008L36.6598 27.2608ZM36.6672 27.2451L36.6671 27.2453L37.2024 27.5163L37.2025 27.5162L36.6672 27.2451ZM38.5007 14.9791C39.0553 19.13 38.4557 23.1446 36.6599 27.2607L37.2098 27.5006C39.0463 23.2914 39.6655 19.1667 39.0954 14.8996L38.5007 14.9791ZM16.5666 14.8697V16.1447H17.1666V14.8697H16.5666ZM17.3217 14.1202C16.9086 14.1202 16.5666 14.4527 16.5666 14.8697H17.1666C17.1666 14.791 17.233 14.7202 17.3217 14.7202V14.1202ZM21.6781 14.1202H17.3217V14.7202H21.6781V14.1202ZM22.4333 14.8697C22.4333 14.4528 22.0914 14.1202 21.6781 14.1202V14.7202C21.7669 14.7202 21.8333 14.791 21.8333 14.8697H22.4333ZM22.4333 16.1447V14.8697H21.8333V16.1447H22.4333ZM16.7322 16.4129C18.4355 17.2665 20.6263 17.2395 22.2682 16.4126L21.9983 15.8768C20.5238 16.6193 18.5327 16.6441 17.001 15.8765L16.7322 16.4129ZM16.5677 10.1028L16.5666 11.6852L17.1666 11.6856L17.1677 10.1032L16.5677 10.1028ZM17.2698 9.79391C17.1447 9.80623 16.9904 9.80868 16.8825 9.80335L16.8528 10.4026C16.9883 10.4093 17.1722 10.4064 17.3286 10.391L17.2698 9.79391ZM21.4849 9.77003C20.6594 9.70671 19.2355 9.59746 17.2693 9.79396L17.329 10.391C19.242 10.1998 20.624 10.3058 21.439 10.3683L21.4849 9.77003ZM22.1189 9.80333C22.0011 9.809 21.8007 9.79425 21.4849 9.77003L21.439 10.3683C21.7339 10.3909 21.9826 10.4106 22.1478 10.4026L22.1189 9.80333ZM22.4334 11.6861V10.103H21.8334V11.6861H22.4334ZM21.6782 12.435C22.0957 12.435 22.4334 12.0992 22.4334 11.6861H21.8334C21.8334 11.7641 21.7681 11.835 21.6782 11.835V12.435ZM17.3218 12.435H21.6782V11.835H17.3218V12.435ZM16.5666 11.6854C16.5666 12.1024 16.9087 12.4349 17.3217 12.435L17.3219 11.835C17.233 11.835 17.1666 11.764 17.1666 11.6854H16.5666ZM17.221 3.31071L16.6317 2.14939L16.0966 2.42092L16.686 3.58223L17.221 3.31071ZM21.7794 3.30994C20.8118 5.2137 18.1882 5.21363 17.2209 3.31055L16.6861 3.5824C17.8757 5.92315 21.1244 5.92294 22.3143 3.58179L21.7794 3.30994ZM22.3682 2.14941L21.7793 3.31011L22.3143 3.58161L22.9033 2.42091L22.3682 2.14941ZM24.41 1.98516H22.6358V2.58516H24.41V1.98516ZM24.279 3.15648C24.3993 2.93524 24.5307 2.6936 24.6741 2.42742L24.1459 2.14289C24.0031 2.40789 23.8723 2.64855 23.7519 2.86986L24.279 3.15648ZM24.2789 3.1568L24.2791 3.15638L23.7519 2.86995L23.7516 2.87037L24.2789 3.1568ZM24.2788 3.15694L24.2791 3.15635L23.7514 2.87083L23.7511 2.87142L24.2788 3.15694ZM24.2635 3.18222L24.2635 3.1822L23.7664 2.84616L23.7664 2.84618L24.2635 3.18222ZM24.2776 3.15914L24.2776 3.15912L23.7522 2.86927L23.7522 2.86929L24.2776 3.15914ZM24.2859 3.14301L24.2859 3.14299L23.744 2.88545L23.7439 2.88547L24.2859 3.14301ZM24.273 3.1672L24.273 3.16718L23.7568 2.8613L23.7568 2.86132L24.273 3.1672ZM24.2753 3.16312L24.2754 3.1631L23.7544 2.86542L23.7544 2.86544L24.2753 3.16312ZM24.2685 3.17451L24.2685 3.17448L23.7612 2.85408L23.7612 2.85411L24.2685 3.17451ZM24.2826 3.14967L24.2826 3.1496L23.7471 2.87902L23.7471 2.87909L24.2826 3.14967ZM23.1546 5.54636C23.3423 4.88248 23.6557 4.30283 24.2784 3.15768L23.7513 2.87107C23.1389 3.99734 22.7871 4.64108 22.5772 5.38309L23.1546 5.54636ZM22.9512 6.86579C22.9725 6.52158 22.9992 6.09643 23.1546 5.54628L22.5772 5.38316C22.4034 5.99833 22.3741 6.47709 22.3524 6.82873L22.9512 6.86579ZM22.3364 8.05553C22.5999 7.95051 22.7641 7.78075 22.8507 7.54401C22.9245 7.34206 22.9369 7.09672 22.9512 6.86579L22.3524 6.82873C22.3361 7.09227 22.3243 7.23634 22.2872 7.33787C22.2628 7.40462 22.229 7.45241 22.1142 7.49816L22.3364 8.05553ZM21.6035 8.09259C21.8934 8.12154 22.1014 8.14911 22.3363 8.05554L22.1143 7.49815C22.0427 7.52666 21.9963 7.52882 21.6631 7.49556L21.6035 8.09259ZM19.5001 7.99793C20.6579 7.99793 21.2513 8.05741 21.6035 8.09259L21.6631 7.49556C21.2974 7.45903 20.6832 7.39793 19.5001 7.39793V7.99793ZM17.3828 8.09406C17.728 8.05869 18.3184 7.99793 19.5001 7.99793V7.39793C18.2928 7.39793 17.6813 7.46033 17.3217 7.49719L17.3828 8.09406ZM16.6633 8.05534C16.8998 8.15006 17.0985 8.1232 17.3828 8.09406L17.3217 7.49719C16.9996 7.53019 16.9598 7.52777 16.8863 7.49834L16.6633 8.05534ZM16.7747 8.07684H16.7748V7.47684H16.7747V8.07684ZM16.049 6.86294C16.0636 7.09474 16.0764 7.34058 16.1501 7.54281C16.2364 7.77958 16.3999 7.9504 16.6637 8.05553L16.8858 7.49816C16.7726 7.45307 16.7386 7.40546 16.7138 7.33737C16.6764 7.23475 16.6645 7.08929 16.6478 6.82517L16.049 6.86294ZM15.8454 5.54599C16.0001 6.09351 16.0273 6.51827 16.049 6.86294L16.6478 6.82517C16.6256 6.47332 16.5958 5.99514 16.4228 5.38285L15.8454 5.54599ZM14.7226 3.15933C15.3445 4.30301 15.6579 4.88263 15.8454 5.54604L16.4228 5.3828C16.2131 4.64123 15.8613 3.99751 15.2497 2.87271L14.7226 3.15933ZM14.7222 3.15866L14.7224 3.15895L15.2499 2.8731L15.2498 2.87281L14.7222 3.15866ZM14.7236 3.16113L14.7236 3.16121L15.2484 2.87026L15.2483 2.87019L14.7236 3.16113ZM14.7227 3.15942L14.7228 3.15961L15.2492 2.87172L15.2491 2.87153L14.7227 3.15942ZM14.326 2.42741C14.4699 2.69451 14.6017 2.93692 14.7223 3.15879L15.2494 2.87217C15.1287 2.65022 14.9975 2.4088 14.8543 2.1429L14.326 2.42741ZM16.3642 1.98516H14.5901V2.58516H16.3642V1.98516ZM22.2514 26.6757L22.2442 25.3844L21.6442 25.3878L21.6515 26.6791L22.2514 26.6757ZM21.5423 27.379C21.9287 27.379 22.2494 27.0692 22.2514 26.6789L21.6515 26.6758C21.6512 26.7288 21.6058 26.779 21.5423 26.779V27.379ZM17.4576 27.379H21.5423V26.779H17.4576V27.379ZM16.7485 26.6753C16.7485 27.0673 17.0702 27.379 17.4576 27.379V26.779C17.394 26.779 17.3485 26.7284 17.3485 26.6753H16.7485ZM16.7485 25.3924V26.6753H17.3485V25.3924H16.7485ZM22.1442 25.1624C21.2837 24.3932 20.3749 24.0076 19.4555 24.0202C18.5375 24.0328 17.6562 24.4418 16.8478 25.1695L17.2492 25.6154C17.981 24.9567 18.7284 24.6302 19.4637 24.6201C20.1975 24.6101 20.9665 24.9144 21.7443 25.6098L22.1442 25.1624ZM22.2518 29.771C22.2518 29.3811 21.9349 29.0643 21.545 29.0643V29.6643C21.6036 29.6643 21.6518 29.7125 21.6518 29.771H22.2518ZM22.2518 31.4902V29.771H21.6518V31.4902H22.2518ZM21.545 32.197C21.935 32.197 22.2518 31.8801 22.2518 31.4902H21.6518C21.6518 31.5488 21.6036 31.597 21.545 31.597V32.197ZM17.455 32.197H21.545V31.597H17.455V32.197ZM16.7483 31.4902C16.7483 31.8801 17.0651 32.197 17.455 32.197V31.597C17.3965 31.597 17.3483 31.5488 17.3483 31.4902H16.7483ZM16.7483 29.771V31.4902H17.3483V29.771H16.7483ZM17.455 29.0643C17.065 29.0643 16.7483 29.3811 16.7483 29.771H17.3483C17.3483 29.7124 17.3964 29.6643 17.455 29.6643V29.0643ZM17.4577 29.0643H17.455V29.6643H17.4577V29.0643ZM21.5424 29.0643H17.4577V29.6643H21.5424V29.0643ZM21.545 29.0643H21.5424V29.6643H21.545V29.0643ZM21.545 37.0148C21.935 37.0148 22.2518 36.698 22.2518 36.3081H21.6518C21.6518 36.3667 21.6036 36.4148 21.545 36.4148V37.0148ZM17.455 37.0148H21.545V36.4148H17.455V37.0148ZM16.7483 36.3081C16.7483 36.698 17.0651 37.0148 17.455 37.0148V36.4148C17.3965 36.4148 17.3483 36.3667 17.3483 36.3081H16.7483ZM16.7483 34.5889V36.3081H17.3483V34.5889H16.7483ZM17.455 33.8821C17.065 33.8821 16.7483 34.199 16.7483 34.5889H17.3483C17.3483 34.5303 17.3964 34.4821 17.455 34.4821V33.8821ZM21.545 33.8821H17.455V34.4821H21.545V33.8821ZM22.2518 34.5889C22.2518 34.1989 21.9349 33.8821 21.545 33.8821V34.4821C21.6036 34.4821 21.6518 34.5303 21.6518 34.5889H22.2518ZM22.2518 36.3081V34.5889H21.6518V36.3081H22.2518ZM34.5716 26.3338L34.5715 26.334L35.1095 26.5997L35.1096 26.5995L34.5716 26.3338ZM30.136 31.9883C31.391 31.9883 32.3691 31.2288 33.1521 30.2073C33.9354 29.1856 34.5644 27.8493 35.1155 26.5867L34.5656 26.3467C34.0141 27.6103 33.4099 28.8849 32.676 29.8423C31.9418 30.8 31.119 31.3883 30.136 31.3883V31.9883ZM27.1716 30.4542C27.4545 31.2499 28.4501 31.9883 30.136 31.9883V31.3883C28.608 31.3883 27.9066 30.7304 27.7369 30.2532L27.1716 30.4542ZM23.6873 24.3094C25.371 26.0364 26.5099 28.5911 27.1716 30.4541L27.737 30.2532C27.0679 28.3697 25.8941 25.7134 24.1169 23.8905L23.6873 24.3094ZM19.5 22.3411C20.9924 22.3411 22.3998 22.9887 23.6873 24.3094L24.1169 23.8905C22.7408 22.4789 21.186 21.7411 19.5 21.7411V22.3411ZM15.3019 24.3201C16.4795 23.1088 17.8744 22.3411 19.5 22.3411V21.7411C17.6662 21.7411 16.1255 22.6122 14.8717 23.9019L15.3019 24.3201ZM15.2994 24.3226L15.2996 24.3225L14.874 23.8995L14.8738 23.8997L15.2994 24.3226ZM11.8285 30.4537C12.4889 28.5954 13.6248 26.0461 15.3018 24.3202L14.8714 23.9021C13.1016 25.7236 11.9309 28.374 11.2632 30.2528L11.8285 30.4537ZM8.86398 31.9882C10.5598 31.9882 11.5477 31.2437 11.8285 30.4538L11.2632 30.2528C11.095 30.7258 10.3997 31.3882 8.86398 31.3882V31.9882ZM3.8845 26.5868C4.43557 27.8493 5.06461 29.1856 5.84781 30.2073C6.6308 31.2288 7.60894 31.9882 8.86398 31.9882V31.3882C7.88094 31.3882 7.05811 30.8 6.324 29.8423C5.5901 28.8848 4.98592 27.6103 4.4344 26.3467L3.8845 26.5868ZM2.16955 15.2017C1.65619 19.0443 2.21986 22.7712 3.88448 26.5867L4.43442 26.3468C2.81009 22.6236 2.26653 19.0069 2.76427 15.2811L2.16955 15.2017ZM6.70854 7.01174C5.08656 7.01174 4.06703 8.30517 3.41062 9.88493C2.74746 11.481 2.39682 13.4973 2.16954 15.2017L2.76428 15.281C2.99091 13.5814 3.33404 11.6329 3.9647 10.1152C4.60211 8.58111 5.47644 7.61174 6.70854 7.61174V7.01174ZM9.50909 8.55834C9.34259 8.07569 8.94409 7.68914 8.45374 7.42721C7.96009 7.16352 7.34892 7.01174 6.70854 7.01174V7.61174C7.2579 7.61174 7.77084 7.74267 8.17104 7.95644C8.57454 8.17198 8.83965 8.45764 8.94189 8.754L9.50909 8.55834ZM9.73829 9.23218C9.66172 9.00552 9.58568 8.78042 9.5091 8.55836L8.94188 8.75399C9.01774 8.97394 9.09317 9.19722 9.16984 9.4242L9.73829 9.23218ZM9.73867 9.23333L9.73867 9.23332L9.16946 9.42306L9.16946 9.42306L9.73867 9.23333ZM9.73867 9.23334L9.73867 9.23333L9.16946 9.42306L9.16946 9.42307L9.73867 9.23334ZM9.73868 9.23334L9.73867 9.23334L9.16946 9.42307L9.16947 9.42308L9.73868 9.23334ZM9.73868 9.23335L9.73868 9.23334L9.16947 9.42308L9.16947 9.42309L9.73868 9.23335ZM9.73868 9.23336L9.73868 9.23335L9.16947 9.42309L9.16947 9.4231L9.73868 9.23336ZM9.73869 9.23337L9.73868 9.23336L9.16947 9.4231L9.16948 9.42311L9.73869 9.23337ZM9.73869 9.23338L9.73869 9.23337L9.16948 9.42311L9.16948 9.42312L9.73869 9.23338ZM15.0654 17.3681C11.6613 14.913 10.6483 11.9262 9.73831 9.23224L9.16986 9.42426C10.0825 12.126 11.1436 15.2794 14.7144 17.8547L15.0654 17.3681ZM23.9277 17.373C21.4891 19.1549 17.5742 19.1989 15.0668 17.3691L14.7131 17.8537C17.4336 19.8391 21.6347 19.7917 24.2817 17.8574L23.9277 17.373ZM29.2619 9.23158C28.3513 11.927 27.3385 14.9131 23.9292 17.3719L24.2802 17.8585C27.8561 15.2796 28.917 12.1271 29.8303 9.42362L29.2619 9.23158ZM29.2622 9.23063L29.2621 9.23106L29.8301 9.42414L29.8303 9.4237L29.2622 9.23063ZM29.2626 9.22958L29.2622 9.23058L29.8303 9.42375L29.8306 9.42276L29.2626 9.22958ZM29.4909 8.55843C29.4145 8.77984 29.3387 9.00423 29.2624 9.23015L29.8308 9.42219C29.9072 9.19594 29.9824 8.97336 30.0581 8.75406L29.4909 8.55843ZM32.2914 7.01174C31.6511 7.01174 31.0399 7.16352 30.5462 7.42722C30.0559 7.68916 29.6574 8.07573 29.4909 8.55842L30.0581 8.75407C30.1603 8.45768 30.4254 8.17199 30.8289 7.95645C31.2292 7.74266 31.7421 7.61174 32.2914 7.61174V7.01174ZM36.8305 15.202C36.6032 13.4974 36.2525 11.481 35.5894 9.88497C34.933 8.30517 33.9134 7.01174 32.2914 7.01174V7.61174C33.5235 7.61174 34.3979 8.58111 35.0353 10.1152C35.6659 11.633 36.0091 13.5816 36.2357 15.2813L36.8305 15.202ZM35.1155 26.5868C36.7801 22.7713 37.3438 19.0444 36.8305 15.202L36.2358 15.2814C36.7335 19.0069 36.1899 22.6237 34.5655 26.3469L35.1155 26.5868ZM6.50355 13.2552C6.6695 13.69 6.45158 14.177 6.0169 14.3429L6.23086 14.9034C6.97517 14.6193 7.34819 13.7856 7.06411 13.0413L6.50355 13.2552ZM7.2389 12.5289C6.80057 12.3626 6.32194 12.7789 6.50352 13.2551L7.06415 13.0414C7.06551 13.0449 7.06719 13.0543 7.06444 13.0654C7.06207 13.0749 7.05773 13.0806 7.0547 13.0835C7.05172 13.0863 7.04757 13.0889 7.04172 13.0902C7.03461 13.0918 7.0284 13.0907 7.02605 13.0899L7.2389 12.5289ZM8.32526 12.0396C8.16035 12.4747 7.674 12.6937 7.23876 12.5288L7.02619 13.0899C7.77116 13.3721 8.60394 12.9973 8.88632 12.2522L8.32526 12.0396ZM7.83601 10.953C8.27116 11.118 8.49019 11.6044 8.32526 12.0396L8.88632 12.2522C9.16866 11.5072 8.79371 10.6744 8.04865 10.392L7.83601 10.953ZM5.44262 11.4639C6.0685 10.8401 7.00836 10.6393 7.83598 10.953L8.04868 10.392C7.00095 9.99478 5.81211 10.2485 5.01906 11.0389L5.44262 11.4639ZM4.92924 13.8562C4.61342 13.0287 4.81495 12.0894 5.44261 11.4639L5.01907 11.0389C4.22369 11.8316 3.96834 13.0212 4.36869 14.0701L4.92924 13.8562ZM6.01689 14.3429C5.58236 14.5088 5.09529 14.2911 4.92924 13.8561L4.36869 14.0701C4.65297 14.8148 5.48687 15.1874 6.23087 14.9034L6.01689 14.3429ZM12.5749 18.7581C11.8306 19.0422 11.4576 19.8759 11.7416 20.6202L12.3022 20.4063C12.1363 19.9715 12.3542 19.4845 12.7889 19.3186L12.5749 18.7581ZM14.4371 19.5914C14.153 18.847 13.3193 18.4739 12.5749 18.7581L12.7889 19.3186C13.2236 19.1526 13.7106 19.3706 13.8765 19.8053L14.4371 19.5914ZM13.7867 22.6226C14.5821 21.8299 14.8374 20.6403 14.4371 19.5914L13.8765 19.8053C14.1923 20.6328 13.9908 21.5721 13.3631 22.1976L13.7867 22.6226ZM10.7571 23.2695C11.8015 23.6654 12.9913 23.4153 13.7867 22.6226L13.3631 22.1976C12.7355 22.8232 11.7949 23.0213 10.9698 22.7085L10.7571 23.2695ZM9.91944 21.4093C9.63709 22.1543 10.012 22.9872 10.7571 23.2695L10.9697 22.7085C10.5346 22.5436 10.3156 22.0571 10.4805 21.6219L9.91944 21.4093ZM11.7795 20.5716C11.0346 20.2895 10.2018 20.6643 9.91944 21.4093L10.4805 21.6219C10.6454 21.1869 11.1318 20.9679 11.567 21.1327L11.7795 20.5716ZM11.7416 20.6201C11.7403 20.6166 11.7386 20.6072 11.7413 20.5962C11.7437 20.5866 11.7481 20.5809 11.7511 20.5779C11.7541 20.575 11.7583 20.5725 11.764 20.5712C11.7711 20.5696 11.7772 20.5707 11.7794 20.5715L11.5672 21.1327C12.0049 21.2983 12.484 20.8831 12.3022 20.4064L11.7416 20.6201ZM6.92847 19.4227C7.36369 19.2578 7.85007 19.4769 8.01498 19.912L8.57603 19.6993C8.29366 18.9543 7.46089 18.5794 6.7159 18.8616L6.92847 19.4227ZM6.19315 18.6964C6.01219 19.1711 6.48896 19.5901 6.92895 19.4225L6.71542 18.8618C6.7178 18.8609 6.72412 18.8598 6.73141 18.8614C6.7374 18.8628 6.74159 18.8654 6.74455 18.8683C6.74753 18.8712 6.7518 18.8768 6.75413 18.8861C6.75685 18.897 6.75522 18.9064 6.75379 18.9102L6.19315 18.6964ZM5.70653 17.6087C6.14121 17.7746 6.35914 18.2615 6.19319 18.6963L6.75375 18.9103C7.03783 18.1659 6.66481 17.3322 5.9205 17.0481L5.70653 17.6087ZM4.61896 18.0954C4.7849 17.6606 5.27185 17.4427 5.7065 17.6086L5.92053 17.0481C5.17619 16.7639 4.34248 17.1371 4.0584 17.8814L4.61896 18.0954ZM5.13233 20.4877C4.50459 19.8621 4.30314 18.9228 4.61895 18.0954L4.0584 17.8814C3.65805 18.9303 3.91332 20.1199 4.70878 20.9127L5.13233 20.4877ZM7.52574 20.9986C6.70084 21.3112 5.76038 21.1136 5.13232 20.4877L4.70879 20.9127C5.50469 21.7059 6.6943 21.9553 7.73835 21.5596L7.52574 20.9986ZM8.01497 19.912C8.1799 20.3471 7.96083 20.8336 7.52568 20.9986L7.73841 21.5596C8.48332 21.2772 8.85839 20.4444 8.57603 19.6993L8.01497 19.912ZM10.2984 25.181C9.25071 24.7839 8.06188 25.0375 7.26882 25.828L7.69238 26.2529C8.31825 25.6291 9.25811 25.4284 10.0858 25.7421L10.2984 25.181ZM11.136 27.0413C11.4184 26.2962 11.0434 25.4634 10.2984 25.181L10.0858 25.7421C10.5209 25.907 10.7399 26.3934 10.575 26.8286L11.136 27.0413ZM9.27586 27.8789C10.0208 28.1612 10.8535 27.7863 11.136 27.0413L10.575 26.8286C10.41 27.2638 9.92358 27.4827 9.48845 27.3179L9.27586 27.8789ZM9.31383 27.8304C9.31518 27.8339 9.31687 27.8433 9.31412 27.8544C9.31175 27.8639 9.30741 27.8696 9.30437 27.8725C9.30137 27.8754 9.29722 27.8779 9.29136 27.8793C9.28425 27.8809 9.27807 27.8798 9.27576 27.8789L9.48855 27.3179C9.05013 27.1516 8.57163 27.568 8.7532 28.0442L9.31383 27.8304ZM8.48054 29.6925C9.22485 29.4084 9.59787 28.5746 9.3138 27.8303L8.75323 28.0443C8.91918 28.4791 8.70126 28.966 8.26658 29.1319L8.48054 29.6925ZM6.61844 28.8591C6.90264 29.6038 7.73656 29.9765 8.48055 29.6925L8.26657 29.1319C7.83203 29.2978 7.34498 29.0801 7.179 28.6452L6.61844 28.8591ZM7.26883 25.828C6.47344 26.6206 6.21809 27.8102 6.61844 28.8591L7.179 28.6452C6.86318 27.8177 7.06471 26.8785 7.69237 26.2529L7.26883 25.828ZM31.3507 15.1973C31.0822 15.1974 30.8118 15.1496 30.5522 15.0512L30.3395 15.6122C30.6683 15.7369 31.0109 15.7974 31.3509 15.7973L31.3507 15.1973ZM32.9457 14.5403C32.5164 14.9681 31.9389 15.1973 31.3508 15.1973V15.7973C32.0937 15.7973 32.8247 15.5079 33.3692 14.9653L32.9457 14.5403ZM33.459 12.1481C33.7749 12.9755 33.5733 13.9148 32.9457 14.5403L33.3692 14.9653C34.1646 14.1726 34.4199 12.9831 34.0196 11.9341L33.459 12.1481ZM32.3714 11.6614C32.8063 11.4954 33.2932 11.7133 33.459 12.148L34.0196 11.9341C33.7356 11.1897 32.9019 10.8168 32.1575 11.1008L32.3714 11.6614ZM31.8848 12.749C31.7189 12.3142 31.9368 11.8272 32.3715 11.6613L32.1575 11.1008C31.4132 11.3849 31.0402 12.2186 31.3242 12.9629L31.8848 12.749ZM31.7563 13.3466C31.9476 13.1559 31.9459 12.9092 31.8848 12.749L31.3242 12.9629C31.3228 12.9591 31.3222 12.9564 31.322 12.9543C31.3217 12.952 31.3216 12.9488 31.3222 12.9448C31.3229 12.9405 31.3244 12.9355 31.3268 12.9305C31.3294 12.9253 31.332 12.9224 31.3327 12.9217L31.7563 13.3466ZM31.1489 13.4752C31.3046 13.5345 31.5603 13.542 31.7563 13.3466L31.3327 12.9217C31.334 12.9203 31.3371 12.9179 31.3415 12.9158C31.3456 12.9138 31.3491 12.913 31.3514 12.9126C31.3535 12.9123 31.3547 12.9124 31.3554 12.9125C31.3559 12.9126 31.3582 12.9128 31.3627 12.9146L31.1489 13.4752ZM30.063 13.9646C30.2279 13.5295 30.7142 13.3106 31.1496 13.4754L31.362 12.9143C30.6171 12.6322 29.7843 13.0069 29.502 13.752L30.063 13.9646ZM30.5522 15.0512C30.1171 14.8863 29.8981 14.3998 30.063 13.9646L29.502 13.752C29.2196 14.497 29.5946 15.3299 30.3395 15.6122L30.5522 15.0512ZM25.9539 18.5916C24.8327 18.5916 23.8111 19.251 23.351 20.2727L23.8981 20.519C24.2611 19.713 25.0683 19.1916 25.9539 19.1916V18.5916ZM28.5568 20.2725C28.0967 19.251 27.0751 18.5916 25.9539 18.5916V19.1916C26.8395 19.1916 27.6467 19.713 28.0098 20.519L28.5568 20.2725ZM27.8341 22.1803C28.5605 21.8531 28.8841 20.9989 28.5568 20.2725L28.0098 20.519C28.2009 20.9433 28.0119 21.4422 27.5877 21.6333L27.8341 22.1803ZM27.2423 22.3079C27.4408 22.3079 27.6424 22.2667 27.8342 22.1803L27.5876 21.6333C27.4748 21.6841 27.3574 21.7079 27.2423 21.7079V22.3079ZM25.9263 21.4576C26.1671 21.9921 26.6929 22.3079 27.2423 22.3079V21.7079C26.9202 21.7079 26.6137 21.5227 26.4734 21.2111L25.9263 21.4576ZM25.9815 21.4576C25.9797 21.4615 25.9748 21.4679 25.9674 21.4724C25.9613 21.4761 25.9566 21.4768 25.9539 21.4768C25.9513 21.4768 25.9465 21.4762 25.9404 21.4724C25.933 21.4679 25.9281 21.4614 25.9264 21.4576L26.4734 21.2111C26.2723 20.765 25.6351 20.7656 25.4344 21.2111L25.9815 21.4576ZM24.0738 22.1804C24.8 22.5075 25.6543 22.1841 25.9815 21.4575L25.4344 21.2112C25.2433 21.6354 24.7444 21.8244 24.3202 21.6333L24.0738 22.1804ZM23.351 20.2726C23.0238 20.999 23.3474 21.8532 24.0738 22.1804L24.3202 21.6333C23.896 21.4422 23.7069 20.9433 23.8981 20.5191L23.351 20.2726ZM32.8144 20.3106C32.6485 19.8757 32.8664 19.3888 33.3011 19.2229L33.0871 18.6623C32.3428 18.9464 31.9698 19.7802 32.2538 20.5245L32.8144 20.3106ZM32.0794 21.037C32.5171 21.2026 32.9962 20.7874 32.8145 20.3107L32.2538 20.5244C32.2525 20.5209 32.2508 20.5115 32.2535 20.5004C32.2559 20.4909 32.2603 20.4851 32.2633 20.4822C32.2663 20.4793 32.2705 20.4768 32.2763 20.4755C32.2833 20.4739 32.2894 20.475 32.2916 20.4758L32.0794 21.037ZM30.9927 21.5262C31.1576 21.0911 31.6439 20.872 32.0792 21.0369L32.2918 20.4759C31.5467 20.1935 30.714 20.5686 30.4317 21.3135L30.9927 21.5262ZM31.482 22.6127C31.0468 22.4478 30.8278 21.9614 30.9927 21.5262L30.4316 21.3136C30.1493 22.0586 30.5243 22.8913 31.2693 23.1738L31.482 22.6127ZM33.8753 22.1019C33.2477 22.7274 32.3071 22.9255 31.482 22.6127L31.2693 23.1738C32.3137 23.5697 33.5035 23.3196 34.2989 22.5268L33.8753 22.1019ZM34.3887 19.7096C34.7045 20.5371 34.503 21.4764 33.8754 22.1019L34.2989 22.5269C35.0943 21.7342 35.3496 20.5446 34.9493 19.4957L34.3887 19.7096ZM33.3011 19.2229C33.7358 19.057 34.2227 19.2748 34.3887 19.7096L34.9493 19.4956C34.6651 18.7513 33.8315 18.3782 33.0871 18.6623L33.3011 19.2229ZM32.0193 25.4475C30.9716 25.0506 29.783 25.3041 28.9898 26.0945L29.4134 26.5195C30.0393 25.8957 30.979 25.695 31.8067 26.0086L32.0193 25.4475ZM32.857 27.3078C33.1394 26.5627 32.7644 25.7299 32.0193 25.4475L31.8067 26.0086C32.2419 26.1735 32.4609 26.66 32.2959 27.0951L32.857 27.3078ZM30.9968 28.1455C31.7419 28.4281 32.5747 28.0527 32.857 27.3078L32.2959 27.0951C32.131 27.5304 31.6446 27.7495 31.2096 27.5845L30.9968 28.1455ZM31.0348 28.0969C31.0362 28.1006 31.0379 28.11 31.0351 28.121C31.0328 28.1305 31.0285 28.1361 31.0254 28.139C31.0225 28.1419 31.0183 28.1445 31.0124 28.1459C31.0052 28.1475 30.9991 28.1464 30.9969 28.1455L31.2095 27.5844C30.7702 27.418 30.2928 27.8356 30.4742 28.3109L31.0348 28.0969ZM30.2015 29.9591C30.9458 29.675 31.319 28.8412 31.0348 28.0969L30.4742 28.3109C30.6402 28.7456 30.4223 29.2326 29.9876 29.3985L30.2015 29.9591ZM28.3394 29.1257C28.6237 29.8706 29.4579 30.2431 30.2016 29.9591L29.9875 29.3985C29.5533 29.5644 29.066 29.3468 28.9 28.9118L28.3394 29.1257ZM28.9898 26.0945C28.1944 26.8872 27.939 28.0768 28.3394 29.1258L28.9 28.9118C28.5841 28.0843 28.7856 27.1451 29.4134 26.5196L28.9898 26.0945Z" fill="white" mask="url(#path-1-inside-1_208_2737)"/>
</svg>
