<svg width="37" height="35" viewBox="0 0 37 35" fill="none" xmlns="http://www.w3.org/2000/svg">
<mask id="path-1-inside-1_208_2655" fill="white">
<path fill-rule="evenodd" clip-rule="evenodd" d="M26.8461 2.36738C29.2974 2.18592 31.7623 3.35998 33.9771 5.7729C37.148 9.22526 37.8854 14.6122 35.8994 19.8317C33.1261 27.1205 26.0355 32.0214 16.9333 32.9403C13.1219 33.3243 8.44485 32.6209 6.13837 30.9973C5.85365 31.5968 5.76 32.3689 5.65999 33.3826L5.61128 33.861C5.54589 34.4676 5.03224 34.9184 4.43528 34.9184C4.39358 34.9184 4.35059 34.9158 4.30766 34.9113C3.65744 34.8414 3.18745 34.2579 3.25667 33.6077L3.3035 33.1479C3.46638 31.5071 3.65108 29.6475 5.31118 28.3247C5.58115 28.1093 5.93379 28.0252 6.26982 28.0874C6.60837 28.1522 6.90269 28.3612 7.07453 28.6601C7.69462 29.7366 12.1024 31.0512 16.6955 30.5843C24.8871 29.7571 31.2384 25.4225 33.6866 18.9891C35.3519 14.6135 34.7953 10.1621 32.233 7.37403C30.5504 5.54203 28.7043 4.60073 27.023 4.72835C25.5784 4.83674 24.2575 5.72225 23.2033 7.28746C22.7191 8.00366 21.9753 8.07361 21.4534 7.82799C19.8298 7.06236 19.9741 2.33081 20.3877 0.931008C20.573 0.303261 21.2322 -0.0551628 21.8586 0.13142C22.4857 0.316774 22.8435 0.974654 22.6582 1.6024C22.4492 2.30971 22.4396 3.45493 22.5216 4.41097C23.7714 3.18749 25.2405 2.48856 26.8461 2.36738ZM4.62714 25.9048C4.73741 26.3459 4.58544 26.8115 4.23533 27.102C3.30812 27.8727 2.604 29.2423 2.35202 30.7659C2.25648 31.3456 1.75505 31.7566 1.18562 31.7566C1.12145 31.7566 1.0567 31.7508 0.991307 31.7406C0.346217 31.6341 -0.0904673 31.025 0.0159758 30.3799C0.316083 28.5614 1.09645 26.923 2.19166 25.7765C1.72037 22.4852 3.84092 19.7433 7.87802 18.5211C15.188 16.3095 16.8936 11.4439 16.7737 9.18042C16.7545 8.81199 16.6853 8.33821 16.6051 7.78944L16.5974 7.73639L16.5967 7.73195C16.3596 6.11452 16.0349 3.90052 16.584 1.75506C16.7455 1.12218 17.3881 0.737451 18.0242 0.90221C18.657 1.06379 19.0392 1.70888 18.877 2.34241C18.4459 4.02723 18.7194 5.8899 18.9392 7.38767L18.9399 7.39206L18.9413 7.40156C19.0293 8.00079 19.1125 8.56746 19.1387 9.05475C19.3521 13.1009 16.1345 18.4981 8.56423 20.7872C6.75405 21.3355 3.83456 22.7295 4.62714 25.9048Z"/>
</mask>
<path fill-rule="evenodd" clip-rule="evenodd" d="M26.8461 2.36738C29.2974 2.18592 31.7623 3.35998 33.9771 5.7729C37.148 9.22526 37.8854 14.6122 35.8994 19.8317C33.1261 27.1205 26.0355 32.0214 16.9333 32.9403C13.1219 33.3243 8.44485 32.6209 6.13837 30.9973C5.85365 31.5968 5.76 32.3689 5.65999 33.3826L5.61128 33.861C5.54589 34.4676 5.03224 34.9184 4.43528 34.9184C4.39358 34.9184 4.35059 34.9158 4.30766 34.9113C3.65744 34.8414 3.18745 34.2579 3.25667 33.6077L3.3035 33.1479C3.46638 31.5071 3.65108 29.6475 5.31118 28.3247C5.58115 28.1093 5.93379 28.0252 6.26982 28.0874C6.60837 28.1522 6.90269 28.3612 7.07453 28.6601C7.69462 29.7366 12.1024 31.0512 16.6955 30.5843C24.8871 29.7571 31.2384 25.4225 33.6866 18.9891C35.3519 14.6135 34.7953 10.1621 32.233 7.37403C30.5504 5.54203 28.7043 4.60073 27.023 4.72835C25.5784 4.83674 24.2575 5.72225 23.2033 7.28746C22.7191 8.00366 21.9753 8.07361 21.4534 7.82799C19.8298 7.06236 19.9741 2.33081 20.3877 0.931008C20.573 0.303261 21.2322 -0.0551628 21.8586 0.13142C22.4857 0.316774 22.8435 0.974654 22.6582 1.6024C22.4492 2.30971 22.4396 3.45493 22.5216 4.41097C23.7714 3.18749 25.2405 2.48856 26.8461 2.36738ZM4.62714 25.9048C4.73741 26.3459 4.58544 26.8115 4.23533 27.102C3.30812 27.8727 2.604 29.2423 2.35202 30.7659C2.25648 31.3456 1.75505 31.7566 1.18562 31.7566C1.12145 31.7566 1.0567 31.7508 0.991307 31.7406C0.346217 31.6341 -0.0904673 31.025 0.0159758 30.3799C0.316083 28.5614 1.09645 26.923 2.19166 25.7765C1.72037 22.4852 3.84092 19.7433 7.87802 18.5211C15.188 16.3095 16.8936 11.4439 16.7737 9.18042C16.7545 8.81199 16.6853 8.33821 16.6051 7.78944L16.5974 7.73639L16.5967 7.73195C16.3596 6.11452 16.0349 3.90052 16.584 1.75506C16.7455 1.12218 17.3881 0.737451 18.0242 0.90221C18.657 1.06379 19.0392 1.70888 18.877 2.34241C18.4459 4.02723 18.7194 5.8899 18.9392 7.38767L18.9399 7.39206L18.9413 7.40156C19.0293 8.00079 19.1125 8.56746 19.1387 9.05475C19.3521 13.1009 16.1345 18.4981 8.56423 20.7872C6.75405 21.3355 3.83456 22.7295 4.62714 25.9048Z" fill="#AAC0D9"/>
<path d="M33.9771 5.7729L33.7561 5.97577L33.7562 5.97584L33.9771 5.7729ZM26.8461 2.36738L26.8239 2.06819L26.8235 2.06823L26.8461 2.36738ZM35.8994 19.8317L36.1798 19.9384V19.9384L35.8994 19.8317ZM16.9333 32.9403L16.9634 33.2387L16.9635 33.2387L16.9333 32.9403ZM6.13837 30.9973L6.31105 30.752L6.02005 30.5472L5.86738 30.8686L6.13837 30.9973ZM5.65999 33.3826L5.95845 33.413L5.95854 33.4121L5.65999 33.3826ZM5.61128 33.861L5.90956 33.8932L5.90974 33.8914L5.61128 33.861ZM4.30766 34.9113L4.27561 35.2096L4.27653 35.2097L4.30766 34.9113ZM3.25667 33.6077L3.55499 33.6394L3.55513 33.6381L3.25667 33.6077ZM3.3035 33.1479L3.60196 33.1783L3.60203 33.1776L3.3035 33.1479ZM5.31118 28.3247L5.49813 28.5593L5.49829 28.5592L5.31118 28.3247ZM6.26982 28.0874L6.32617 27.7928L6.32443 27.7925L6.26982 28.0874ZM7.07453 28.6601L6.81447 28.8096L6.81457 28.8098L7.07453 28.6601ZM16.6955 30.5843L16.6653 30.2859L16.6651 30.2859L16.6955 30.5843ZM33.6866 18.9891L33.4062 18.8824L33.4062 18.8824L33.6866 18.9891ZM32.233 7.37403L32.012 7.57696L32.0121 7.57703L32.233 7.37403ZM27.023 4.72835L27.0455 5.0275L27.0457 5.02749L27.023 4.72835ZM23.2033 7.28746L23.4518 7.45548L23.4521 7.45505L23.2033 7.28746ZM21.4534 7.82799L21.3254 8.09933L21.3256 8.09943L21.4534 7.82799ZM20.3877 0.931008L20.6754 1.01601L20.6754 1.01596L20.3877 0.931008ZM21.8586 0.13142L21.773 0.418938L21.7736 0.419116L21.8586 0.13142ZM22.6582 1.6024L22.9459 1.68743L22.946 1.68733L22.6582 1.6024ZM22.5216 4.41097L22.2227 4.43663L22.2771 5.07015L22.7315 4.62534L22.5216 4.41097ZM4.23533 27.102L4.04377 26.8711L4.04355 26.8713L4.23533 27.102ZM4.62714 25.9048L4.33607 25.9774L4.33609 25.9775L4.62714 25.9048ZM2.35202 30.7659L2.05604 30.7169L2.05601 30.7171L2.35202 30.7659ZM0.991307 31.7406L0.942464 32.0366L0.944803 32.037L0.991307 31.7406ZM0.0159758 30.3799L-0.280021 30.331L-0.280022 30.331L0.0159758 30.3799ZM2.19166 25.7765L2.40859 25.9837L2.5093 25.8783L2.48864 25.734L2.19166 25.7765ZM7.87802 18.5211L7.79115 18.234L7.7911 18.234L7.87802 18.5211ZM16.7737 9.18042L16.4741 9.19608L16.4741 9.19629L16.7737 9.18042ZM16.6051 7.78944L16.3083 7.83278V7.83279L16.6051 7.78944ZM16.5974 7.73639L16.8942 7.69305L16.8942 7.69279L16.5974 7.73639ZM16.5967 7.73195L16.2999 7.77548L16.2999 7.77556L16.5967 7.73195ZM16.584 1.75506L16.8746 1.82943L16.8746 1.82927L16.584 1.75506ZM18.0242 0.90221L17.9489 1.19263L17.9499 1.19289L18.0242 0.90221ZM18.877 2.34241L18.5864 2.26799L18.5864 2.26805L18.877 2.34241ZM18.9392 7.38767L18.6424 7.43124L18.6424 7.43138L18.9392 7.38767ZM18.9399 7.39206L19.2367 7.34842L19.2367 7.34835L18.9399 7.39206ZM18.9413 7.40156L19.2381 7.35796L19.2381 7.35791L18.9413 7.40156ZM19.1387 9.05475L19.4382 9.03895L19.4382 9.03867L19.1387 9.05475ZM8.56423 20.7872L8.4774 20.5L8.47727 20.5001L8.56423 20.7872ZM34.1981 5.57004C31.9432 3.11336 29.3949 1.87789 26.8239 2.06819L26.8682 2.66656C29.2 2.49396 31.5815 3.60659 33.7561 5.97577L34.1981 5.57004ZM36.1798 19.9384C38.1968 14.6373 37.4621 9.12376 34.1981 5.56997L33.7562 5.97584C36.8339 9.32677 37.574 14.587 35.6191 19.725L36.1798 19.9384ZM16.9635 33.2387C26.1547 32.3108 33.3583 27.3541 36.1798 19.9384L35.6191 19.725C32.894 26.8869 25.9163 31.7319 16.9032 32.6418L16.9635 33.2387ZM5.96568 31.2426C7.17137 32.0914 8.96753 32.6833 10.9209 33.0174C12.8806 33.3526 15.0299 33.4336 16.9634 33.2387L16.9033 32.6418C15.0254 32.831 12.9304 32.7524 11.0221 32.426C9.10747 32.0985 7.41185 31.5269 6.31105 30.752L5.96568 31.2426ZM5.95854 33.4121C6.05976 32.386 6.15123 31.6695 6.40936 31.126L5.86738 30.8686C5.55608 31.5241 5.46024 32.3517 5.36144 33.3532L5.95854 33.4121ZM5.90974 33.8914L5.95845 33.413L5.36153 33.3523L5.31283 33.8306L5.90974 33.8914ZM4.43528 35.2184C5.18386 35.2184 5.82756 34.6537 5.90956 33.8932L5.31301 33.8289C5.26421 34.2815 4.88062 34.6184 4.43528 34.6184V35.2184ZM4.27653 35.2097C4.32784 35.215 4.38139 35.2184 4.43528 35.2184V34.6184C4.40578 34.6184 4.37334 34.6165 4.3388 34.6129L4.27653 35.2097ZM2.95836 33.5759C2.87163 34.3905 3.46051 35.122 4.27561 35.2096L4.33972 34.613C3.85438 34.5608 3.50326 34.1253 3.55499 33.6394L2.95836 33.5759ZM3.00504 33.1175L2.95822 33.5773L3.55513 33.6381L3.60196 33.1783L3.00504 33.1175ZM5.12422 28.0901C3.35272 29.5017 3.16644 31.4916 3.00497 33.1183L3.60203 33.1776C3.76632 31.5225 3.94945 29.7934 5.49813 28.5593L5.12422 28.0901ZM6.32443 27.7925C5.90501 27.7148 5.46372 27.8192 5.12407 28.0902L5.49829 28.5592C5.69859 28.3994 5.96257 28.3357 6.2152 28.3824L6.32443 27.7925ZM7.3346 28.5105C7.11906 28.1357 6.7502 27.8739 6.32617 27.7928L6.21346 28.3821C6.46653 28.4305 6.68633 28.5868 6.81447 28.8096L7.3346 28.5105ZM16.6651 30.2859C14.404 30.5157 12.1868 30.3067 10.4626 29.9087C9.60028 29.7096 8.86873 29.4649 8.32049 29.2087C8.0463 29.0806 7.82341 28.9522 7.65464 28.8288C7.48288 28.7032 7.38281 28.5942 7.3345 28.5103L6.81457 28.8098C6.92128 28.995 7.09459 29.1626 7.30052 29.3132C7.50942 29.4659 7.76851 29.6131 8.06651 29.7523C8.66265 30.0309 9.43637 30.2875 10.3276 30.4933C12.1106 30.9049 14.3939 31.1198 16.7258 30.8828L16.6651 30.2859ZM33.4062 18.8824C31.0072 25.1866 24.7709 29.4674 16.6653 30.2859L16.7256 30.8828C25.0033 30.0469 31.4696 25.6585 33.967 19.0958L33.4062 18.8824ZM32.0121 7.57703C34.4778 10.26 35.0426 14.5827 33.4062 18.8824L33.967 19.0958C35.6612 14.6442 35.1127 10.0641 32.4539 7.17103L32.0121 7.57703ZM27.0457 5.02749C28.5977 4.90969 30.3606 5.77885 32.012 7.57696L32.4539 7.1711C30.7402 5.3052 28.8109 4.29177 27.0003 4.42921L27.0457 5.02749ZM23.4521 7.45505C24.4719 5.94096 25.7189 5.12704 27.0455 5.0275L27.0006 4.42919C25.4379 4.54644 24.0431 5.50354 22.9545 7.11988L23.4521 7.45505ZM21.3256 8.09943C21.9677 8.40159 22.8767 8.30625 23.4518 7.45548L22.9548 7.11945C22.5616 7.70107 21.9829 7.74563 21.5811 7.55654L21.3256 8.09943ZM20.0999 0.846007C19.8793 1.59294 19.7406 3.1655 19.8575 4.64101C19.9162 5.38196 20.0407 6.11845 20.2618 6.72667C20.4794 7.32532 20.8117 7.85707 21.3254 8.09933L21.5813 7.55664C21.2833 7.41609 21.0247 7.06928 20.8257 6.5217C20.6301 5.98367 20.5121 5.30624 20.4556 4.59362C20.3422 3.16199 20.4825 1.66888 20.6754 1.01601L20.0999 0.846007ZM21.9443 -0.156098C21.1583 -0.39019 20.3322 0.0595891 20.0999 0.846053L20.6754 1.01596C20.8139 0.546932 21.3061 0.279864 21.773 0.418938L21.9443 -0.156098ZM22.946 1.68733C23.1781 0.900846 22.7297 0.0760681 21.9437 -0.156276L21.7736 0.419116C22.2417 0.55748 22.5089 1.04846 22.3705 1.51748L22.946 1.68733ZM22.8205 4.3853C22.7391 3.43625 22.7536 2.33816 22.9459 1.68743L22.3705 1.51737C22.1447 2.28126 22.1401 3.47361 22.2227 4.43663L22.8205 4.3853ZM26.8235 2.06823C25.1403 2.19526 23.6067 2.92888 22.3118 4.19659L22.7315 4.62534C23.9361 3.44609 25.3406 2.78186 26.8686 2.66652L26.8235 2.06823ZM4.42689 27.3328C4.86598 26.9685 5.05637 26.3849 4.91818 25.832L4.33609 25.9775C4.41845 26.307 4.3049 26.6544 4.04377 26.8711L4.42689 27.3328ZM2.64799 30.8148C2.89159 29.3419 3.56944 28.0456 4.4271 27.3327L4.04355 26.8713C3.0468 27.6998 2.3164 29.1427 2.05604 30.7169L2.64799 30.8148ZM1.18562 32.0566C1.89939 32.0566 2.5282 31.5417 2.64802 30.8147L2.05601 30.7171C1.98476 31.1494 1.61072 31.4566 1.18562 31.4566V32.0566ZM0.944803 32.037C1.02302 32.0492 1.10348 32.0566 1.18562 32.0566V31.4566C1.13942 31.4566 1.09039 31.4525 1.03781 31.4442L0.944803 32.037ZM-0.280022 30.331C-0.413443 31.1396 0.133927 31.9032 0.942466 32.0366L1.04015 31.4446C0.558507 31.3651 0.232509 30.9103 0.311973 30.4287L-0.280022 30.331ZM1.97473 25.5693C0.832041 26.7655 0.0284526 28.4618 -0.280021 30.331L0.311972 30.4287C0.603714 28.6609 1.36086 27.0806 2.40859 25.9837L1.97473 25.5693ZM7.7911 18.234C5.72894 18.8583 4.13063 19.8784 3.10775 21.1882C2.08121 22.5028 1.64757 24.0933 1.89469 25.819L2.48864 25.734C2.26446 24.1684 2.65545 22.7423 3.58064 21.5575C4.50949 20.3681 5.99 19.4061 7.96495 18.8082L7.7911 18.234ZM16.4741 9.19629C16.586 11.3074 14.9833 16.058 7.79115 18.234L7.9649 18.8083C15.3927 16.561 17.2013 11.5804 17.0733 9.16455L16.4741 9.19629ZM16.3083 7.83279C16.3892 8.38695 16.4558 8.84477 16.4741 9.19608L17.0733 9.16476C17.0532 8.77921 16.9813 8.28947 16.902 7.74609L16.3083 7.83279ZM16.3005 7.77974L16.3083 7.83278L16.902 7.74609L16.8942 7.69305L16.3005 7.77974ZM16.2999 7.77556L16.3006 7.78L16.8942 7.69279L16.8936 7.68835L16.2999 7.77556ZM16.2933 1.68068C15.7272 3.89298 16.0638 6.16528 16.2999 7.77548L16.8936 7.68842C16.6553 6.06376 16.3426 3.90807 16.8746 1.82943L16.2933 1.68068ZM18.0994 0.611795C17.3012 0.405037 16.4956 0.888386 16.2933 1.68084L16.8746 1.82927C16.9955 1.35597 17.475 1.06986 17.9489 1.19262L18.0994 0.611795ZM19.1676 2.41683C19.3709 1.62291 18.8921 0.81417 18.0984 0.611534L17.9499 1.19289C18.422 1.31341 18.7075 1.79485 18.5864 2.26799L19.1676 2.41683ZM19.236 7.3441C19.0145 5.83477 18.7541 4.03328 19.1676 2.41677L18.5864 2.26805C18.1378 4.02118 18.4242 5.94504 18.6424 7.43124L19.236 7.3441ZM19.2367 7.34835L19.236 7.34396L18.6424 7.43138L18.6431 7.43577L19.2367 7.34835ZM19.2381 7.35791L19.2367 7.34842L18.6431 7.4357L18.6445 7.4452L19.2381 7.35791ZM19.4382 9.03867C19.4112 8.5347 19.3255 7.95311 19.2381 7.35796L18.6444 7.44515C18.7331 8.04847 18.8138 8.60022 18.8391 9.07084L19.4382 9.03867ZM8.65106 21.0744C16.3203 18.7553 19.6607 13.2549 19.4382 9.03895L18.8391 9.07056C19.0436 12.9469 15.9487 18.2408 8.4774 20.5L8.65106 21.0744ZM4.91821 25.8321C4.5515 24.363 5.03681 23.3281 5.82624 22.5784C6.63291 21.8123 7.76228 21.3435 8.65119 21.0743L8.47727 20.5001C7.556 20.7791 6.32054 21.2815 5.41306 22.1433C4.48834 23.0215 3.9102 24.2713 4.33607 25.9774L4.91821 25.8321Z" fill="white" mask="url(#path-1-inside-1_208_2655)"/>
</svg>
