<svg width="42" height="34" viewBox="0 0 42 34" fill="none" xmlns="http://www.w3.org/2000/svg">
<path d="M20.9503 18.9489C21.402 18.9489 21.7681 18.5828 21.7681 18.1311V14.161C21.8473 13.2177 22.3164 12.3669 23.0588 11.8237C24.8449 10.5168 25.8734 8.41359 25.8099 6.1976C25.8028 5.95055 25.6844 5.71994 25.4877 5.57029C24.1979 4.58896 22.5896 4.04883 20.9597 4.04883C20.9541 4.04883 20.9485 4.04883 20.9427 4.04883C19.311 4.04883 17.7026 4.58896 16.4129 5.57029C16.2162 5.71994 16.0978 5.95055 16.0907 6.1976C16.0272 8.41359 17.0556 10.5167 18.8418 11.8237C19.5842 12.3669 20.0533 13.2177 20.1325 14.161V18.1311C20.1326 18.5828 20.4987 18.9489 20.9503 18.9489ZM17.7297 6.64132C18.6751 6.0217 19.8014 5.68437 20.9447 5.68437H20.958C22.0996 5.68437 23.2258 6.02178 24.1711 6.64132C24.0963 8.17079 23.3378 9.59306 22.0931 10.5037C21.6418 10.8339 21.257 11.2379 20.9504 11.6946C20.6438 11.2379 20.2591 10.8339 19.8078 10.5037C18.563 9.59306 17.8045 8.17088 17.7297 6.64132Z" fill="#AAC0D9"/>
<path d="M20.9433 1.63554C21.1583 1.63554 21.3685 1.54804 21.5214 1.39593C21.6735 1.24383 21.761 1.03284 21.761 0.817769C21.761 0.602696 21.6735 0.391712 21.5214 0.239606C21.3685 0.0875014 21.1583 0 20.9433 0C20.7274 0 20.5172 0.0875014 20.3643 0.239606C20.2122 0.391712 20.1255 0.602696 20.1255 0.817769C20.1255 1.03284 20.2122 1.24383 20.3643 1.39593C20.5164 1.54804 20.7274 1.63554 20.9433 1.63554Z" fill="#AAC0D9"/>
<path d="M41.8853 4.78684C41.8853 2.53454 40.0281 0.702244 37.7453 0.702244C35.9265 0.702244 34.1902 1.58961 33.1008 3.0759C32.6053 3.75187 31.8101 4.15536 30.9735 4.15536C30.2654 4.15536 29.6009 3.87862 29.1002 3.37398C27.8839 2.15771 26.4528 1.24843 24.8465 0.671415C24.4213 0.518737 23.953 0.739535 23.8004 1.16453C23.6477 1.58961 23.8685 2.05794 24.2935 2.21062C25.6712 2.70553 26.8992 3.48601 27.9414 4.52818C28.0048 4.59205 28.0703 4.65289 28.137 4.71218C28.7803 8.15605 27.3954 11.6844 24.5626 13.7639C24.4386 13.8512 24.3387 13.9732 24.2781 14.1195C24.1515 14.425 24.2215 14.7768 24.4554 15.0107C25.7471 16.3023 25.7471 18.4042 24.4554 19.6958C23.3271 20.8241 22.7058 22.3242 22.7058 23.9199V31.411H19.2613V23.9199C19.2613 22.3243 18.64 20.8243 17.5117 19.6959C16.22 18.4043 16.22 16.3024 17.5117 15.0108C17.6805 14.842 17.7672 14.6078 17.7488 14.3697C17.7304 14.1317 17.609 13.9135 17.4163 13.7726C14.5503 11.6756 13.1618 8.09782 13.8484 4.6201C13.8797 4.59041 13.9113 4.56122 13.9417 4.53055C14.9861 3.48618 16.2142 2.7057 17.5919 2.21078C18.0168 2.05811 18.2376 1.58977 18.085 1.16469C17.9323 0.739698 17.464 0.518901 17.0389 0.671578C15.4325 1.2486 14.0014 2.15787 12.783 3.37635C12.2845 3.87879 11.6199 4.15544 10.9119 4.15544C10.0753 4.15544 9.28005 3.75187 8.78456 3.07598C7.69513 1.58961 5.95884 0.702244 4.14004 0.702244C1.85724 0.702244 0 2.53462 0 4.78684C0 5.88527 0.452226 6.95393 1.24064 7.71879L1.82968 8.29016C1.49284 8.76578 1.29404 9.34566 1.29404 9.9715C1.29404 11.5798 2.60255 12.8883 4.21086 12.8883C5.81917 12.8883 7.12768 11.5798 7.12768 9.9715C7.12768 8.36319 5.81917 7.05468 4.21086 7.05468C3.82634 7.05468 3.45933 7.13016 3.12282 7.26599L2.37938 6.5448C1.90671 6.08619 1.63554 5.44547 1.63554 4.78684C1.63554 3.45935 2.78246 2.33778 4.14004 2.33778C5.43972 2.33778 6.68281 2.97515 7.46542 4.04283C8.26781 5.13742 9.55621 5.7909 10.9119 5.7909C11.3078 5.7909 11.6948 5.73627 12.0657 5.63298C11.8281 9.00874 13.1947 12.3282 15.7731 14.5538C14.4505 16.4801 14.6445 19.1418 16.3551 20.8524C17.1745 21.6718 17.6257 22.7612 17.6257 23.9199V32.2288C17.6257 32.6805 17.9918 33.0466 18.4435 33.0466H23.5235C23.9751 33.0466 24.3412 32.6805 24.3412 32.2288V23.9199C24.3412 22.7612 24.7925 21.6718 25.6119 20.8524C27.3225 19.1418 27.5166 16.4802 26.194 14.5539C28.7665 12.3334 30.1328 9.02378 29.903 5.65605C30.2484 5.74477 30.6073 5.7909 30.9736 5.7909C32.3293 5.7909 33.6176 5.13742 34.42 4.04283C35.2026 2.97515 36.4457 2.33778 37.7455 2.33778C39.103 2.33778 40.25 3.45935 40.25 4.78684C40.25 5.44547 39.9789 6.08619 39.5061 6.5448L38.7671 7.26165C38.4336 7.12868 38.0704 7.05468 37.6901 7.05468C36.0818 7.05468 34.7733 8.36311 34.7733 9.9715C34.7733 11.5799 36.0818 12.8883 37.6901 12.8883C39.2984 12.8883 40.6069 11.5798 40.6069 9.9715C40.6069 9.34173 40.4057 8.7585 40.065 8.28117L40.6449 7.71871C41.4332 6.95393 41.8853 5.88527 41.8853 4.78684ZM5.4923 9.9715C5.4923 10.6781 4.91749 11.2528 4.21102 11.2528C3.50455 11.2528 2.92974 10.678 2.92974 9.9715C2.92974 9.26503 3.50455 8.69022 4.21102 8.69022C4.91749 8.69022 5.4923 9.26503 5.4923 9.9715ZM37.69 11.2529C36.9835 11.2529 36.4087 10.6781 36.4087 9.97158C36.4087 9.26511 36.9835 8.6903 37.69 8.6903C38.3965 8.6903 38.9713 9.26511 38.9713 9.97158C38.9713 10.6781 38.3965 11.2529 37.69 11.2529Z" fill="#AAC0D9"/>
</svg>
