<svg width="43" height="39" viewBox="0 0 43 39" fill="none" xmlns="http://www.w3.org/2000/svg">
<path d="M42.1602 18.4766H30.9203C31.2993 10.4831 32.2086 4.67585 33.6373 1.15573C33.784 0.794431 33.6627 0.3798 33.3445 0.15447C33.0264 -0.0709438 32.5948 -0.0475121 32.3028 0.21074C29.2556 2.90571 27.3467 8.97644 26.282 13.5946C25.902 15.2428 25.5844 16.8915 25.3249 18.4766H15.8026C16.1816 10.483 17.0908 4.67577 18.5196 1.15573C18.6662 0.794431 18.5449 0.3798 18.2267 0.15447C17.9085 -0.0709438 17.477 -0.0475121 17.1851 0.21074C15.5287 1.6756 14.0416 4.27827 12.765 7.94637C12.6126 8.38443 12.8441 8.86315 13.2821 9.01558C13.7208 9.16818 14.1989 8.93638 14.3513 8.4984C14.7251 7.42449 15.1135 6.45372 15.5155 5.58784C13.9202 13.4233 13.9201 23.8881 13.9201 27.8408C13.9201 28.6511 13.2607 29.3105 12.4503 29.3105C11.64 29.3105 10.9806 28.6511 10.9806 27.8408C10.9806 25.4989 11.3597 20.9115 12.4278 15.6902C12.5208 15.2358 12.2278 14.7921 11.7734 14.6991C11.3191 14.6062 10.8752 14.899 10.7823 15.3535C10.5632 16.4242 10.3729 17.4692 10.208 18.4765H0.839844C0.376082 18.4765 0 18.8525 0 19.3163V37.7929C0 38.2568 0.376082 38.6328 0.839844 38.6328H42.1602C42.6239 38.6328 43 38.2568 43 37.7929V19.3164C43 18.8526 42.6239 18.4766 42.1602 18.4766ZM41.3203 20.1563V26.0181C40.8235 25.8825 40.4622 25.6167 40.0397 25.3059C39.3521 24.8003 38.4964 24.1709 36.9854 24.1709C35.4744 24.1709 34.6187 24.8003 33.9311 25.3059C33.3169 25.7577 32.8318 26.1145 31.872 26.1145C31.3737 26.1145 31.0113 26.0149 30.7254 25.8859C30.7416 23.8733 30.783 21.9631 30.8497 20.1563H41.3203ZM29.0378 27.8408C29.0378 28.6512 28.3785 29.3106 27.5681 29.3106C26.7578 29.3106 26.0984 28.6512 26.0984 27.8408C26.0984 22.5596 27.6776 11.9734 30.6297 5.60573C29.0379 13.4394 29.0378 23.8912 29.0378 27.8408ZM25.0676 20.1563C24.8368 21.7768 24.6702 23.2985 24.5637 24.6448C24.17 24.8473 23.8427 25.0872 23.5451 25.306C22.9308 25.7577 22.4457 26.1145 21.4857 26.1145C20.5259 26.1145 20.0408 25.7577 19.4266 25.3059C18.7389 24.8003 17.8833 24.1709 16.3722 24.1709C16.1138 24.1709 15.8662 24.1895 15.6271 24.2262C15.6489 22.8158 15.6839 21.4593 15.732 20.1563H25.0676ZM9.95072 20.1563C9.65879 22.2074 9.47822 24.0467 9.38374 25.5435C9.27565 25.4684 9.16706 25.3889 9.05427 25.3059C8.36661 24.8003 7.51089 24.1709 5.99993 24.1709C4.48888 24.1709 3.63316 24.8003 2.94558 25.306C2.52743 25.6136 2.16881 25.8769 1.67977 26.0137V20.1563H9.95072ZM1.67969 36.9531V27.731C2.71622 27.5593 3.38381 27.0688 3.9408 26.6591C4.55498 26.2073 5.04007 25.8506 5.99993 25.8506C6.95979 25.8506 7.44488 26.2073 8.05914 26.659C8.41574 26.9213 8.80769 27.2089 9.3048 27.4293C9.30253 27.5725 9.30119 27.7107 9.30119 27.8408C9.30119 29.5774 10.714 30.9902 12.4506 30.9902C14.1872 30.9902 15.6 29.5774 15.6 27.8408C15.6 27.1984 15.6025 26.5662 15.6074 25.9434C15.8422 25.8808 16.0928 25.8506 16.3724 25.8506C17.3323 25.8506 17.8174 26.2073 18.4315 26.6591C19.1192 27.1648 19.9748 27.7941 21.4859 27.7941C22.925 27.7941 23.7693 27.2235 24.4406 26.7323C24.4264 27.1298 24.4189 27.5016 24.4189 27.8408C24.4189 29.5775 25.8317 30.9903 27.5683 30.9903C29.3049 30.9903 30.7177 29.5775 30.7177 27.8408C30.7177 27.7787 30.7179 27.7172 30.718 27.6552C31.0476 27.7391 31.4297 27.7942 31.8722 27.7942C33.3832 27.7942 34.2389 27.1649 34.9265 26.6591C35.5407 26.2074 36.0257 25.8507 36.9855 25.8507C37.9454 25.8507 38.4305 26.2074 39.0447 26.6592C39.6043 27.0708 40.2755 27.5641 41.3206 27.7336V36.9531H1.67969Z" fill="#AAC0D9"/>
<path d="M6.46567 30.8125H6.46508C6.00132 30.8125 5.62549 31.1885 5.62549 31.6523C5.62549 32.1162 6.00182 32.4922 6.46567 32.4922C6.92951 32.4922 7.30551 32.1162 7.30551 31.6523C7.30551 31.1885 6.92951 30.8125 6.46567 30.8125Z" fill="#AAC0D9"/>
<path d="M17.5516 31.9883H17.5509C17.0872 31.9883 16.7114 32.3643 16.7114 32.8281C16.7114 33.292 17.0878 33.668 17.5516 33.668C18.0155 33.668 18.3914 33.292 18.3914 32.8281C18.3914 32.3643 18.0155 31.9883 17.5516 31.9883Z" fill="#AAC0D9"/>
<path d="M29.4774 32.8281H29.4767C29.013 32.8281 28.6372 33.2041 28.6372 33.668C28.6372 34.1318 29.0135 34.5078 29.4774 34.5078C29.9412 34.5078 30.3172 34.1318 30.3172 33.668C30.3172 33.2041 29.9412 32.8281 29.4774 32.8281Z" fill="#AAC0D9"/>
<path d="M37.12 30.0547H37.1193C36.6555 30.0547 36.2798 30.4307 36.2798 30.8945C36.2798 31.3584 36.6561 31.7344 37.12 31.7344C37.5838 31.7344 37.9598 31.3584 37.9598 30.8945C37.9598 30.4307 37.5838 30.0547 37.12 30.0547Z" fill="#AAC0D9"/>
<path d="M12.4627 12.6797C12.9265 12.6797 13.3026 12.3037 13.3026 11.8398C13.3026 11.376 12.9265 11 12.4627 11H12.4621C11.9983 11 11.6226 11.376 11.6226 11.8398C11.6226 12.3037 11.9989 12.6797 12.4627 12.6797Z" fill="#AAC0D9"/>
</svg>
