<svg width="35" height="35" viewBox="0 0 35 35" fill="none" xmlns="http://www.w3.org/2000/svg">
<mask id="path-1-outside-1_208_2724" maskUnits="userSpaceOnUse" x="0" y="0" width="35" height="35" fill="black">
<rect fill="white" width="35" height="35"/>
<path fill-rule="evenodd" clip-rule="evenodd" d="M31.3114 34.0017C31.2771 34.0017 31.2427 33.999 31.2083 33.9935C30.8329 33.9371 30.5744 33.5865 30.6322 33.2111L32.5022 20.8691C33.1099 16.8541 31.4159 12.7621 28.0816 10.1881L17.7691 2.23236C17.4693 1.99999 17.4129 1.56824 17.6453 1.26711C17.8763 0.967361 18.3067 0.910986 18.6106 1.14336L28.9231 9.09911C32.6534 11.977 34.5468 16.5667 33.8634 21.074L31.9934 33.416C31.9398 33.7584 31.6469 34.0017 31.3114 34.0017ZM12.001 33.3145C12.001 33.694 12.309 34.002 12.6885 34.002C13.068 34.002 13.376 33.694 13.376 33.3145V30.3982C13.376 26.3543 11.9405 22.4218 9.33483 19.3267L2.21371 10.8704C1.96896 10.5817 1.53446 10.5418 1.24433 10.7879C0.954206 11.0327 0.917081 11.4672 1.16183 11.7573L8.28296 20.2135C10.681 23.0598 12.001 26.6761 12.001 30.3982V33.3145ZM27.1385 24.3771C26.3767 24.3771 25.6603 23.9687 25.2025 23.2661C24.0915 21.5625 24.0997 18.9005 25.2203 17.2051C25.6782 16.5121 26.3643 16.0914 27.1728 16.1271C27.9401 16.145 28.6235 16.5657 29.047 17.2807C30.1497 19.1342 30.158 20.9932 29.0745 23.13C28.7018 23.867 28.0198 24.3317 27.254 24.373C27.2155 24.3771 27.177 24.3771 27.1385 24.3771ZM27.1233 17.5021C26.8373 17.5021 26.5623 17.6699 26.3685 17.9641C25.5558 19.1947 25.5503 21.2792 26.3561 22.5154C26.5651 22.8357 26.8923 23.0172 27.1811 23.0007C27.4588 22.9856 27.6967 22.811 27.8493 22.5085C28.7115 20.8076 28.717 19.4134 27.8672 17.982C27.6871 17.6781 27.4286 17.5076 27.1412 17.5007C27.1343 17.5021 27.1275 17.5021 27.1233 17.5021ZM16.8135 34.0021H16.8094C16.4299 33.9994 16.1232 33.6886 16.126 33.3105C16.1274 33.107 16.1631 28.3179 16.2951 27.0446C16.4739 25.3341 17.3649 24.032 18.8045 23.3789C21.0787 22.3463 23.8177 23.5219 25.1707 26.1096C25.7537 27.2248 25.8981 28.4458 25.597 29.741C25.432 30.4491 25.256 30.9881 25.0415 31.4391C24.6017 32.3659 24.3862 33.3438 24.3641 33.4438L24.3622 33.4521C24.2866 33.8248 23.9195 34.0613 23.551 33.9884C23.1784 33.9128 22.9391 33.5498 23.0147 33.1785C23.0244 33.129 23.2622 31.9781 23.7985 30.8493C23.969 30.4904 24.1147 30.0394 24.2564 29.4289C24.4832 28.4513 24.3842 27.574 23.9511 26.7476C22.9405 24.8144 20.9715 23.9069 19.3696 24.6301C18.3796 25.0798 17.7884 25.9639 17.6605 27.1863C17.5367 28.3935 17.501 33.2706 17.501 33.3188C17.4982 33.6969 17.1902 34.0021 16.8135 34.0021ZM13.7113 20.8473C14.4236 21.3615 15.261 21.6269 16.1245 21.6269C16.581 21.6269 17.0457 21.5527 17.5022 21.4014C19.1137 20.8707 20.2426 19.2523 20.2508 17.5019C21.5406 17.5019 22.7327 16.9148 23.5192 15.8904C24.3071 14.866 24.5656 13.546 24.2273 12.2659C23.8863 10.9761 22.8977 9.9119 21.6478 9.48702C20.7073 9.16527 19.7311 9.17215 18.8263 9.50352C18.1485 9.75102 17.483 9.63827 17.0498 9.20515L9.04871 1.20402C8.78058 0.935898 8.34471 0.935898 8.07658 1.20402C7.80846 1.47215 7.80846 1.90802 8.07658 2.17615L16.0791 10.1759C16.889 10.9858 18.1237 11.2236 19.2993 10.7933C19.9071 10.5705 20.5657 10.5691 21.2078 10.7878C22.0273 11.0655 22.675 11.7654 22.9005 12.6165C23.1287 13.48 22.9582 14.3683 22.4316 15.0516C21.9063 15.735 21.1102 16.1269 20.2508 16.1269C20.0198 16.1269 19.8232 16.1035 19.65 16.0568C19.408 15.988 19.155 16.0568 18.9803 16.2328C18.8057 16.4074 18.7383 16.6631 18.8043 16.9024C18.8415 17.0385 18.8635 17.187 18.8717 17.3534C18.9308 18.5785 18.1732 19.7335 17.0705 20.0965C16.1781 20.3908 15.2458 20.2588 14.5171 19.7321C13.8021 19.2151 13.3758 18.3819 13.3758 17.5019C13.3758 17.2049 13.4226 16.9106 13.5161 16.6315C13.9382 15.3555 13.677 14.0823 12.819 13.2243L2.17371 2.57902C1.90558 2.3109 1.46971 2.3109 1.20158 2.57902C0.933457 2.84715 0.933457 3.28302 1.20158 3.55115L11.8468 14.195C12.3295 14.6776 12.467 15.4256 12.2112 16.197C12.071 16.6178 12.0008 17.0564 12.0008 17.5019C12.0008 18.8205 12.6402 20.0718 13.7113 20.8473Z"/>
</mask>
<path fill-rule="evenodd" clip-rule="evenodd" d="M31.3114 34.0017C31.2771 34.0017 31.2427 33.999 31.2083 33.9935C30.8329 33.9371 30.5744 33.5865 30.6322 33.2111L32.5022 20.8691C33.1099 16.8541 31.4159 12.7621 28.0816 10.1881L17.7691 2.23236C17.4693 1.99999 17.4129 1.56824 17.6453 1.26711C17.8763 0.967361 18.3067 0.910986 18.6106 1.14336L28.9231 9.09911C32.6534 11.977 34.5468 16.5667 33.8634 21.074L31.9934 33.416C31.9398 33.7584 31.6469 34.0017 31.3114 34.0017ZM12.001 33.3145C12.001 33.694 12.309 34.002 12.6885 34.002C13.068 34.002 13.376 33.694 13.376 33.3145V30.3982C13.376 26.3543 11.9405 22.4218 9.33483 19.3267L2.21371 10.8704C1.96896 10.5817 1.53446 10.5418 1.24433 10.7879C0.954206 11.0327 0.917081 11.4672 1.16183 11.7573L8.28296 20.2135C10.681 23.0598 12.001 26.6761 12.001 30.3982V33.3145ZM27.1385 24.3771C26.3767 24.3771 25.6603 23.9687 25.2025 23.2661C24.0915 21.5625 24.0997 18.9005 25.2203 17.2051C25.6782 16.5121 26.3643 16.0914 27.1728 16.1271C27.9401 16.145 28.6235 16.5657 29.047 17.2807C30.1497 19.1342 30.158 20.9932 29.0745 23.13C28.7018 23.867 28.0198 24.3317 27.254 24.373C27.2155 24.3771 27.177 24.3771 27.1385 24.3771ZM27.1233 17.5021C26.8373 17.5021 26.5623 17.6699 26.3685 17.9641C25.5558 19.1947 25.5503 21.2792 26.3561 22.5154C26.5651 22.8357 26.8923 23.0172 27.1811 23.0007C27.4588 22.9856 27.6967 22.811 27.8493 22.5085C28.7115 20.8076 28.717 19.4134 27.8672 17.982C27.6871 17.6781 27.4286 17.5076 27.1412 17.5007C27.1343 17.5021 27.1275 17.5021 27.1233 17.5021ZM16.8135 34.0021H16.8094C16.4299 33.9994 16.1232 33.6886 16.126 33.3105C16.1274 33.107 16.1631 28.3179 16.2951 27.0446C16.4739 25.3341 17.3649 24.032 18.8045 23.3789C21.0787 22.3463 23.8177 23.5219 25.1707 26.1096C25.7537 27.2248 25.8981 28.4458 25.597 29.741C25.432 30.4491 25.256 30.9881 25.0415 31.4391C24.6017 32.3659 24.3862 33.3438 24.3641 33.4438L24.3622 33.4521C24.2866 33.8248 23.9195 34.0613 23.551 33.9884C23.1784 33.9128 22.9391 33.5498 23.0147 33.1785C23.0244 33.129 23.2622 31.9781 23.7985 30.8493C23.969 30.4904 24.1147 30.0394 24.2564 29.4289C24.4832 28.4513 24.3842 27.574 23.9511 26.7476C22.9405 24.8144 20.9715 23.9069 19.3696 24.6301C18.3796 25.0798 17.7884 25.9639 17.6605 27.1863C17.5367 28.3935 17.501 33.2706 17.501 33.3188C17.4982 33.6969 17.1902 34.0021 16.8135 34.0021ZM13.7113 20.8473C14.4236 21.3615 15.261 21.6269 16.1245 21.6269C16.581 21.6269 17.0457 21.5527 17.5022 21.4014C19.1137 20.8707 20.2426 19.2523 20.2508 17.5019C21.5406 17.5019 22.7327 16.9148 23.5192 15.8904C24.3071 14.866 24.5656 13.546 24.2273 12.2659C23.8863 10.9761 22.8977 9.9119 21.6478 9.48702C20.7073 9.16527 19.7311 9.17215 18.8263 9.50352C18.1485 9.75102 17.483 9.63827 17.0498 9.20515L9.04871 1.20402C8.78058 0.935898 8.34471 0.935898 8.07658 1.20402C7.80846 1.47215 7.80846 1.90802 8.07658 2.17615L16.0791 10.1759C16.889 10.9858 18.1237 11.2236 19.2993 10.7933C19.9071 10.5705 20.5657 10.5691 21.2078 10.7878C22.0273 11.0655 22.675 11.7654 22.9005 12.6165C23.1287 13.48 22.9582 14.3683 22.4316 15.0516C21.9063 15.735 21.1102 16.1269 20.2508 16.1269C20.0198 16.1269 19.8232 16.1035 19.65 16.0568C19.408 15.988 19.155 16.0568 18.9803 16.2328C18.8057 16.4074 18.7383 16.6631 18.8043 16.9024C18.8415 17.0385 18.8635 17.187 18.8717 17.3534C18.9308 18.5785 18.1732 19.7335 17.0705 20.0965C16.1781 20.3908 15.2458 20.2588 14.5171 19.7321C13.8021 19.2151 13.3758 18.3819 13.3758 17.5019C13.3758 17.2049 13.4226 16.9106 13.5161 16.6315C13.9382 15.3555 13.677 14.0823 12.819 13.2243L2.17371 2.57902C1.90558 2.3109 1.46971 2.3109 1.20158 2.57902C0.933457 2.84715 0.933457 3.28302 1.20158 3.55115L11.8468 14.195C12.3295 14.6776 12.467 15.4256 12.2112 16.197C12.071 16.6178 12.0008 17.0564 12.0008 17.5019C12.0008 18.8205 12.6402 20.0718 13.7113 20.8473Z" fill="#AAC0D9"/>
<path d="M31.2083 33.9935L31.2557 33.6972L31.2529 33.6968L31.2083 33.9935ZM30.6322 33.2111L30.9287 33.2567L30.9288 33.2561L30.6322 33.2111ZM32.5022 20.8691L32.7988 20.9141L32.7988 20.914L32.5022 20.8691ZM28.0816 10.1881L28.2649 9.95064L28.2648 9.95058L28.0816 10.1881ZM17.7691 2.23236L17.5853 2.46946L17.5858 2.46989L17.7691 2.23236ZM17.6453 1.26711L17.8828 1.45039L17.8829 1.45024L17.6453 1.26711ZM18.6106 1.14336L18.7938 0.905828L18.7928 0.905054L18.6106 1.14336ZM28.9231 9.09911L29.1063 8.86158V8.86158L28.9231 9.09911ZM33.8634 21.074L33.5668 21.029L33.5668 21.029L33.8634 21.074ZM31.9934 33.416L32.2898 33.4624L32.2901 33.4609L31.9934 33.416ZM9.33483 19.3267L9.56433 19.1335L9.5643 19.1334L9.33483 19.3267ZM2.21371 10.8704L2.44318 10.6772L2.44256 10.6764L2.21371 10.8704ZM1.24433 10.7879L1.43777 11.0172L1.43841 11.0167L1.24433 10.7879ZM1.16183 11.7573L1.3913 11.5641L1.39114 11.5639L1.16183 11.7573ZM8.28296 20.2135L8.05348 20.4068L8.05353 20.4068L8.28296 20.2135ZM25.2025 23.2661L25.4538 23.1023L25.4537 23.1022L25.2025 23.2661ZM25.2203 17.2051L25.4706 17.3705L25.4706 17.3705L25.2203 17.2051ZM27.1728 16.1271L27.1596 16.4269L27.1658 16.427L27.1728 16.1271ZM29.047 17.2807L28.7888 17.4336L28.7891 17.4341L29.047 17.2807ZM29.0745 23.13L28.8069 22.9943L28.8067 22.9946L29.0745 23.13ZM27.254 24.373L27.2378 24.0734L27.2299 24.0738L27.222 24.0747L27.254 24.373ZM26.3685 17.9641L26.6188 18.1294L26.619 18.1292L26.3685 17.9641ZM26.3561 22.5154L26.1048 22.6792L26.1048 22.6793L26.3561 22.5154ZM27.1811 23.0007L27.1648 22.7012L27.164 22.7012L27.1811 23.0007ZM27.8493 22.5085L27.5817 22.3729L27.5815 22.3734L27.8493 22.5085ZM27.8672 17.982L27.6091 18.135L27.6092 18.1351L27.8672 17.982ZM27.1412 17.5007L27.1484 17.2008L27.1151 17.2L27.0824 17.2066L27.1412 17.5007ZM16.8094 34.0021L16.8072 34.3021H16.8094V34.0021ZM16.126 33.3105L16.426 33.3127L16.426 33.3125L16.126 33.3105ZM16.2951 27.0446L15.9967 27.0135L15.9967 27.0137L16.2951 27.0446ZM18.8045 23.3789L18.9284 23.6521L18.9285 23.6521L18.8045 23.3789ZM25.1707 26.1096L25.4366 25.9707L25.4366 25.9706L25.1707 26.1096ZM25.597 29.741L25.8892 29.8091L25.8892 29.809L25.597 29.741ZM25.0415 31.4391L24.7706 31.3103L24.7705 31.3105L25.0415 31.4391ZM24.3641 33.4438L24.6569 33.5094L24.6571 33.5084L24.3641 33.4438ZM24.3622 33.4521L24.0694 33.3866L24.0682 33.3925L24.3622 33.4521ZM23.551 33.9884L23.4913 34.2824L23.4928 34.2827L23.551 33.9884ZM23.0147 33.1785L23.3087 33.2384L23.3092 33.2358L23.0147 33.1785ZM23.7985 30.8493L23.5275 30.7205L23.5275 30.7205L23.7985 30.8493ZM24.2564 29.4289L23.9641 29.3611L23.9641 29.3611L24.2564 29.4289ZM23.9511 26.7476L23.6853 26.8866L23.6854 26.8869L23.9511 26.7476ZM19.3696 24.6301L19.2462 24.3567L19.2456 24.357L19.3696 24.6301ZM17.6605 27.1863L17.3621 27.1551L17.3621 27.1557L17.6605 27.1863ZM17.501 33.3188L17.801 33.321V33.3188H17.501ZM13.7113 20.8473L13.5354 21.0903L13.5357 21.0905L13.7113 20.8473ZM17.5022 21.4014L17.4084 21.1165L17.4079 21.1166L17.5022 21.4014ZM20.2508 17.5019V17.2019H19.9522L19.9508 17.5005L20.2508 17.5019ZM23.5192 15.8904L23.2814 15.7075L23.2813 15.7077L23.5192 15.8904ZM24.2273 12.2659L24.5174 12.1893L24.5174 12.1892L24.2273 12.2659ZM21.6478 9.48702L21.5507 9.77087L21.5513 9.77106L21.6478 9.48702ZM18.8263 9.50352L18.9292 9.78533L18.9295 9.78522L18.8263 9.50352ZM17.0498 9.20515L16.8377 9.41728L17.0498 9.20515ZM9.04871 1.20402L9.26084 0.991891V0.991891L9.04871 1.20402ZM8.07658 2.17615L7.86445 2.38828L7.86449 2.38832L8.07658 2.17615ZM16.0791 10.1759L16.2912 9.96377L16.2912 9.96373L16.0791 10.1759ZM19.2993 10.7933L19.4025 11.075L19.4026 11.075L19.2993 10.7933ZM21.2078 10.7878L21.1111 11.0718L21.1115 11.0719L21.2078 10.7878ZM22.9005 12.6165L23.1905 12.5399L23.1905 12.5397L22.9005 12.6165ZM22.4316 15.0516L22.194 14.8685L22.1937 14.8688L22.4316 15.0516ZM19.65 16.0568L19.568 16.3454L19.5718 16.3464L19.65 16.0568ZM18.9803 16.2328L19.1925 16.4449L19.1933 16.4441L18.9803 16.2328ZM18.8043 16.9024L19.0938 16.8235L19.0935 16.8226L18.8043 16.9024ZM18.8717 17.3534L19.1714 17.3389L19.1713 17.3385L18.8717 17.3534ZM17.0705 20.0965L16.9767 19.8116L16.9765 19.8116L17.0705 20.0965ZM14.5171 19.7321L14.3413 19.9753L14.3414 19.9753L14.5171 19.7321ZM13.5161 16.6315L13.8005 16.7268L13.8009 16.7257L13.5161 16.6315ZM12.819 13.2243L13.0311 13.0121L12.819 13.2243ZM2.17371 2.57902L1.96158 2.79116L1.96158 2.79116L2.17371 2.57902ZM1.20158 2.57902L1.41371 2.79116L1.41371 2.79116L1.20158 2.57902ZM1.20158 3.55115L0.98945 3.76328L0.989464 3.76329L1.20158 3.55115ZM11.8468 14.195L12.059 13.9829L12.059 13.9829L11.8468 14.195ZM12.2112 16.197L12.4958 16.2919L12.496 16.2914L12.2112 16.197ZM31.1609 34.2897C31.2108 34.2977 31.261 34.3017 31.3114 34.3017V33.7017C31.2931 33.7017 31.2746 33.7003 31.2557 33.6973L31.1609 34.2897ZM30.3357 33.1655C30.2526 33.7052 30.6243 34.2091 31.1638 34.2902L31.2529 33.6968C31.0416 33.6651 30.8962 33.4677 30.9287 33.2567L30.3357 33.1655ZM32.2056 20.8242L30.3356 33.1662L30.9288 33.2561L32.7988 20.9141L32.2056 20.8242ZM27.8982 10.4256C31.1504 12.9361 32.7963 16.9219 32.2056 20.8242L32.7988 20.914C33.4236 16.7864 31.6815 12.5881 28.2649 9.95064L27.8982 10.4256ZM17.5858 2.46989L27.8983 10.4256L28.2648 9.95058L17.9523 1.99483L17.5858 2.46989ZM17.4078 1.08383C17.074 1.51645 17.1553 2.13614 17.5853 2.46946L17.9529 1.99526C17.7833 1.86383 17.7519 1.62002 17.8828 1.45039L17.4078 1.08383ZM18.7928 0.905054C18.3587 0.573098 17.7404 0.652306 17.4077 1.08399L17.8829 1.45024C18.0123 1.28242 18.2547 1.24887 18.4283 1.38167L18.7928 0.905054ZM29.1063 8.86158L18.7938 0.905831L18.4273 1.38089L28.7398 9.33664L29.1063 8.86158ZM34.16 21.119C34.8604 16.4995 32.9194 11.8033 29.1063 8.86158L28.7398 9.33664C32.3875 12.1507 34.2332 16.6339 33.5668 21.029L34.16 21.119ZM32.2901 33.4609L34.1601 21.1189L33.5668 21.029L31.6968 33.371L32.2901 33.4609ZM31.3114 34.3017C31.7932 34.3017 32.2131 33.9523 32.2898 33.4624L31.6971 33.3696C31.6665 33.5644 31.5007 33.7017 31.3114 33.7017V34.3017ZM12.6885 33.702C12.4746 33.702 12.301 33.5284 12.301 33.3145H11.701C11.701 33.8597 12.1433 34.302 12.6885 34.302V33.702ZM13.076 33.3145C13.076 33.5284 12.9023 33.702 12.6885 33.702V34.302C13.2336 34.302 13.676 33.8597 13.676 33.3145H13.076ZM13.076 30.3982V33.3145H13.676V30.3982H13.076ZM9.10533 19.5199C11.6655 22.561 13.076 26.425 13.076 30.3982H13.676C13.676 26.2836 12.2155 22.2826 9.56433 19.1335L9.10533 19.5199ZM1.98423 11.0637L9.10536 19.5199L9.5643 19.1334L2.44318 10.6772L1.98423 11.0637ZM1.43841 11.0167C1.60005 10.8796 1.84548 10.9 1.98486 11.0644L2.44256 10.6764C2.09243 10.2634 1.46886 10.204 1.05026 10.5592L1.43841 11.0167ZM1.39114 11.5639C1.25336 11.4005 1.27413 11.1553 1.43777 11.0172L1.05089 10.5586C0.634286 10.9101 0.580806 11.5338 0.932527 11.9507L1.39114 11.5639ZM8.51243 20.0203L1.3913 11.5641L0.932359 11.9505L8.05348 20.4068L8.51243 20.0203ZM12.301 30.3982C12.301 26.6053 10.956 22.9206 8.51238 20.0203L8.05353 20.4068C10.4059 23.199 11.701 26.7468 11.701 30.3982H12.301ZM12.301 33.3145V30.3982H11.701V33.3145H12.301ZM24.9511 23.4299C25.4584 24.2083 26.2648 24.6771 27.1385 24.6771V24.0771C26.4886 24.0771 25.8623 23.7292 25.4538 23.1023L24.9511 23.4299ZM24.9701 17.0397C24.3717 17.9449 24.0779 19.0941 24.0745 20.2316C24.0711 21.3692 24.358 22.5205 24.9512 23.43L25.4537 23.1022C24.9359 22.3081 24.6714 21.2766 24.6745 20.2334C24.6777 19.1902 24.9483 18.1607 25.4706 17.3705L24.9701 17.0397ZM27.1861 15.8274C26.2523 15.7861 25.4741 16.2768 24.97 17.0397L25.4706 17.3705C25.8823 16.7475 26.4764 16.3966 27.1596 16.4268L27.1861 15.8274ZM29.3051 17.1278C28.8341 16.3327 28.0605 15.8477 27.1798 15.8272L27.1658 16.427C27.8197 16.4423 28.4128 16.7988 28.7888 17.4336L29.3051 17.1278ZM29.342 23.2657C29.8997 22.1658 30.1853 21.1199 30.1806 20.0978C30.1758 19.0736 29.8796 18.0936 29.3048 17.1273L28.7891 17.4341C29.317 18.3214 29.5764 19.1976 29.5806 20.1005C29.5848 21.0055 29.3327 21.9574 28.8069 22.9943L29.342 23.2657ZM27.2701 24.6726C28.1525 24.625 28.9255 24.0895 29.3422 23.2653L28.8067 22.9946C28.4782 23.6445 27.8872 24.0384 27.2378 24.0734L27.2701 24.6726ZM27.1385 24.6771C27.1743 24.6771 27.2289 24.6774 27.2859 24.6713L27.222 24.0747C27.2021 24.0768 27.1796 24.0771 27.1385 24.0771V24.6771ZM26.619 18.1292C26.7717 17.8974 26.9618 17.8021 27.1233 17.8021V17.2021C26.7129 17.2021 26.353 17.4424 26.1179 17.7991L26.619 18.1292ZM26.6074 22.3515C26.244 21.7941 26.0533 21.0251 26.0554 20.2385C26.0575 19.4518 26.2524 18.6843 26.6188 18.1294L26.1181 17.7988C25.6719 18.4746 25.4577 19.3646 25.4554 20.2369C25.453 21.1092 25.6624 22.0005 26.1048 22.6792L26.6074 22.3515ZM27.164 22.7012C27.0074 22.7102 26.7727 22.6049 26.6073 22.3514L26.1048 22.6793C26.3575 23.0666 26.7772 23.3243 27.1982 23.3002L27.164 22.7012ZM27.5815 22.3734C27.4651 22.604 27.3109 22.6932 27.1648 22.7012L27.1974 23.3003C27.6067 23.278 27.9283 23.018 28.1172 22.6436L27.5815 22.3734ZM27.6092 18.1351C28.0109 18.8116 28.2029 19.4653 28.2002 20.143C28.1975 20.8236 27.9983 21.5511 27.5817 22.3729L28.1169 22.6441C28.5625 21.765 28.7971 20.9449 28.8002 20.1454C28.8034 19.3429 28.5733 18.5837 28.1252 17.8288L27.6092 18.1351ZM27.134 17.8006C27.2942 17.8045 27.4683 17.8973 27.6091 18.135L28.1253 17.829C27.9059 17.4589 27.563 17.2107 27.1484 17.2008L27.134 17.8006ZM27.1233 17.8021C27.1261 17.8021 27.1605 17.8028 27.2 17.7949L27.0824 17.2066C27.097 17.2036 27.1085 17.2027 27.1146 17.2024C27.1207 17.2021 27.1255 17.2021 27.1233 17.2021V17.8021ZM16.8094 34.3021H16.8135V33.7021H16.8094V34.3021ZM15.826 33.3083C15.822 33.8527 16.2626 34.2982 16.8072 34.3021L16.8115 33.7022C16.5971 33.7006 16.4244 33.5246 16.426 33.3127L15.826 33.3083ZM15.9967 27.0137C15.8628 28.3056 15.8273 33.1155 15.826 33.3085L16.426 33.3125C16.4274 33.0986 16.4635 28.3302 16.5935 27.0756L15.9967 27.0137ZM18.6806 23.1057C17.134 23.8073 16.1854 25.2084 15.9967 27.0135L16.5935 27.0758C16.7624 25.4599 17.5958 24.2567 18.9284 23.6521L18.6806 23.1057ZM25.4366 25.9706C24.0294 23.2792 21.1352 21.9911 18.6805 23.1057L18.9285 23.6521C21.0223 22.7014 23.6061 23.7646 24.9049 26.2486L25.4366 25.9706ZM25.8892 29.809C26.2056 28.4478 26.0547 27.153 25.4366 25.9707L24.9049 26.2486C25.4528 27.2966 25.5906 28.4437 25.3048 29.6731L25.8892 29.809ZM25.3124 31.568C25.5394 31.0908 25.7213 30.5294 25.8892 29.8091L25.3048 29.6729C25.1427 30.3689 24.9726 30.8854 24.7706 31.3103L25.3124 31.568ZM24.6571 33.5084C24.6782 33.4124 24.888 32.4623 25.3125 31.5678L24.7705 31.3105C24.3153 32.2695 24.0941 33.2751 24.0711 33.3792L24.6571 33.5084ZM24.655 33.5177L24.6569 33.5094L24.0714 33.3783L24.0695 33.3866L24.655 33.5177ZM23.4928 34.2827C24.0192 34.3868 24.547 34.0502 24.6563 33.5118L24.0682 33.3925C24.0263 33.5993 23.8198 33.7357 23.6092 33.6941L23.4928 34.2827ZM22.7208 33.1186C22.6121 33.652 22.9559 34.1737 23.4913 34.2824L23.6107 33.6944C23.4008 33.6518 23.2661 33.4476 23.3087 33.2384L22.7208 33.1186ZM23.5275 30.7205C22.9756 31.8824 22.7319 33.0614 22.7203 33.1213L23.3092 33.2358C23.3092 33.2358 23.3092 33.2357 23.3093 33.2354C23.3093 33.2352 23.3094 33.2348 23.3095 33.2344C23.3097 33.2335 23.3099 33.2323 23.3102 33.2308C23.3109 33.2277 23.3117 33.2236 23.3128 33.2183C23.315 33.2079 23.3181 33.1934 23.3221 33.1751C23.3302 33.1386 23.3419 33.0871 23.3575 33.0229C23.3885 32.8945 23.4347 32.7154 23.497 32.5032C23.6219 32.0776 23.8103 31.5236 24.0695 30.978L23.5275 30.7205ZM23.9641 29.3611C23.825 29.9609 23.6851 30.3888 23.5275 30.7205L24.0695 30.978C24.2529 30.592 24.4045 30.1179 24.5486 29.4967L23.9641 29.3611ZM23.6854 26.8869C24.0824 27.6444 24.1762 28.4474 23.9641 29.3611L24.5486 29.4967C24.7903 28.4551 24.6861 27.5037 24.2168 26.6084L23.6854 26.8869ZM19.4931 24.9036C20.9026 24.2672 22.7215 25.043 23.6853 26.8866L24.217 26.6087C23.1595 24.5858 21.0404 23.5466 19.2462 24.3567L19.4931 24.9036ZM17.9589 27.2175C18.0774 26.0844 18.6148 25.3024 19.4937 24.9033L19.2456 24.357C18.1444 24.8571 17.4993 25.8433 17.3621 27.1551L17.9589 27.2175ZM17.801 33.3188C17.801 33.3191 17.801 33.3181 17.801 33.3147C17.801 33.3118 17.8011 33.3077 17.8011 33.3024C17.8012 33.2918 17.8013 33.2768 17.8014 33.2575C17.8017 33.219 17.8022 33.1636 17.8028 33.0936C17.804 32.9535 17.8059 32.7545 17.8085 32.5133C17.8138 32.0309 17.8221 31.3797 17.8343 30.6925C17.8588 29.3106 17.8987 27.8048 17.9589 27.2169L17.3621 27.1557C17.2364 28.382 17.201 33.2781 17.201 33.3188H17.801ZM16.8135 34.3021C17.3552 34.3021 17.797 33.8638 17.801 33.321L17.201 33.3166C17.1995 33.53 17.0253 33.7021 16.8135 33.7021V34.3021ZM16.1245 21.3269C15.3233 21.3269 14.5475 21.081 13.8869 20.604L13.5357 21.0905C14.2996 21.6421 15.1986 21.9269 16.1245 21.9269V21.3269ZM17.4079 21.1166C16.9813 21.258 16.5484 21.3269 16.1245 21.3269V21.9269C16.6135 21.9269 17.1101 21.8473 17.5966 21.6862L17.4079 21.1166ZM19.9508 17.5005C19.9432 19.1299 18.8899 20.6285 17.4084 21.1165L17.5961 21.6863C19.3376 21.1128 20.542 19.3747 20.5508 17.5033L19.9508 17.5005ZM23.2813 15.7077C22.5515 16.6581 21.4474 17.2019 20.2508 17.2019V17.8019C21.6338 17.8019 22.9139 17.1714 23.7572 16.0731L23.2813 15.7077ZM23.9373 12.3425C24.2524 13.5352 24.0111 14.7588 23.2814 15.7075L23.757 16.0733C24.6031 14.9732 24.8788 13.5569 24.5174 12.1893L23.9373 12.3425ZM21.5513 9.77106C22.7049 10.1632 23.6217 11.1489 23.9373 12.3426L24.5174 12.1892C24.151 10.8034 23.0905 9.66057 21.7444 9.20299L21.5513 9.77106ZM18.9295 9.78522C19.7679 9.47815 20.6734 9.47074 21.5507 9.77087L21.7449 9.20317C20.7413 8.85981 19.6943 8.86615 18.7232 9.22182L18.9295 9.78522ZM16.8377 9.41728C17.3697 9.9493 18.1653 10.0642 18.9292 9.78533L18.7234 9.22172C18.1316 9.4378 17.5962 9.32725 17.262 8.99302L16.8377 9.41728ZM8.83658 1.41616L16.8377 9.41728L17.262 8.99302L9.26084 0.991891L8.83658 1.41616ZM8.28871 1.41616C8.43968 1.26519 8.68561 1.26519 8.83658 1.41616L9.26084 0.991891C8.87556 0.606609 8.24973 0.606609 7.86445 0.991891L8.28871 1.41616ZM8.28871 1.96402C8.13775 1.81305 8.13775 1.56712 8.28871 1.41616L7.86445 0.991891C7.47917 1.37717 7.47917 2.003 7.86445 2.38828L8.28871 1.96402ZM16.2912 9.96373L8.28868 1.96398L7.86449 2.38832L15.867 10.3881L16.2912 9.96373ZM19.1962 10.5116C18.1177 10.9064 17.0095 10.682 16.2912 9.96377L15.867 10.388C16.7685 11.2895 18.1297 11.5409 19.4025 11.075L19.1962 10.5116ZM21.3045 10.5038C20.6011 10.2643 19.8718 10.264 19.1961 10.5116L19.4026 11.075C19.9424 10.8771 20.5303 10.874 21.1111 11.0718L21.3045 10.5038ZM23.1905 12.5397C22.9398 11.5935 22.2209 10.8144 21.3041 10.5036L21.1115 11.0719C21.8338 11.3167 22.4102 11.9373 22.6105 12.6934L23.1905 12.5397ZM22.6692 15.2348C23.2551 14.4745 23.4415 13.4895 23.1905 12.5399L22.6104 12.6932C22.8159 13.4706 22.6613 14.2621 22.194 14.8685L22.6692 15.2348ZM20.2508 16.4269C21.2035 16.4269 22.0875 15.9917 22.6694 15.2345L22.1937 14.8688C21.7252 15.4784 21.017 15.8269 20.2508 15.8269V16.4269ZM19.5718 16.3464C19.7761 16.4015 19.9999 16.4269 20.2508 16.4269V15.8269C20.0398 15.8269 19.8703 15.8055 19.7281 15.7671L19.5718 16.3464ZM19.1933 16.4441C19.292 16.3446 19.4324 16.3068 19.568 16.3454L19.7319 15.7682C19.3835 15.6692 19.0179 15.769 18.7674 16.0215L19.1933 16.4441ZM19.0935 16.8226C19.0561 16.687 19.0945 16.5429 19.1925 16.4449L18.7682 16.0206C18.5169 16.2719 18.4205 16.6393 18.5151 16.9822L19.0935 16.8226ZM19.1713 17.3385C19.1622 17.1547 19.1376 16.9842 19.0938 16.8235L18.5149 16.9813C18.5453 17.0929 18.5647 17.2194 18.5721 17.3683L19.1713 17.3385ZM17.1643 20.3815C18.4052 19.973 19.2365 18.6879 19.1714 17.3389L18.5721 17.3679C18.6252 18.4691 17.9412 19.4941 16.9767 19.8116L17.1643 20.3815ZM14.3414 19.9753C15.1525 20.5614 16.1859 20.7041 17.1644 20.3814L16.9765 19.8116C16.1703 20.0775 15.3392 19.9561 14.6928 19.489L14.3414 19.9753ZM13.0758 17.5019C13.0758 18.4784 13.5485 19.402 14.3413 19.9753L14.6929 19.489C14.0557 19.0283 13.6758 18.2854 13.6758 17.5019H13.0758ZM13.2316 16.5362C13.1275 16.847 13.0758 17.1735 13.0758 17.5019H13.6758C13.6758 17.2363 13.7176 16.9743 13.8005 16.7268L13.2316 16.5362ZM12.6068 13.4364C13.3746 14.2042 13.6225 15.3548 13.2313 16.5373L13.8009 16.7257C14.254 15.3563 13.9793 13.9604 13.0311 13.0121L12.6068 13.4364ZM1.96158 2.79116L12.6068 13.4364L13.0311 13.0121L2.38584 2.36689L1.96158 2.79116ZM1.41371 2.79116C1.56468 2.64019 1.81061 2.64019 1.96158 2.79116L2.38584 2.36689C2.00056 1.98161 1.37473 1.98161 0.98945 2.36689L1.41371 2.79116ZM1.41371 3.33902C1.26275 3.18805 1.26275 2.94212 1.41371 2.79116L0.98945 2.36689C0.604168 2.75217 0.604168 3.378 0.98945 3.76328L1.41371 3.33902ZM12.059 13.9829L1.4137 3.339L0.989464 3.76329L11.6347 14.4072L12.059 13.9829ZM12.496 16.2914C12.7794 15.4366 12.6384 14.5623 12.059 13.9829L11.6347 14.4072C12.0205 14.793 12.1545 15.4147 11.9265 16.1026L12.496 16.2914ZM12.3008 17.5019C12.3008 17.0881 12.3659 16.6815 12.4958 16.2919L11.9266 16.1022C11.776 16.554 11.7008 17.0247 11.7008 17.5019H12.3008ZM13.8873 20.6043C12.8939 19.8851 12.3008 18.7241 12.3008 17.5019H11.7008C11.7008 18.917 12.3865 20.2585 13.5354 21.0903L13.8873 20.6043Z" fill="#AAC0D9" mask="url(#path-1-outside-1_208_2724)"/>
</svg>
