<svg width="41" height="42" viewBox="0 0 41 42" fill="none" xmlns="http://www.w3.org/2000/svg">
<mask id="path-1-outside-1_208_2736" maskUnits="userSpaceOnUse" x="0" y="0" width="41" height="42" fill="black">
<rect fill="white" width="41" height="42"/>
<path d="M23.8505 13.7656C23.8505 11.8689 25.5328 11.754 25.8661 11.75H27.8629C27.8656 11.75 27.8683 11.7513 27.871 11.7513C28.5119 11.7513 28.8351 12.1404 29.3504 12.827C29.8893 13.5453 30.5598 14.4395 31.9036 14.4395C32.2751 14.4395 32.5754 14.1385 32.5754 13.7676C32.5754 13.3968 32.2751 13.0958 31.9036 13.0958C31.2633 13.0958 30.9401 12.7074 30.4254 12.0208C30.3589 11.9327 30.2911 11.8414 30.2198 11.75H30.5578C30.5591 11.75 30.5598 11.7507 30.5612 11.7507C30.5638 11.7507 30.5665 11.75 30.5692 11.75H33.9232C34.2948 11.75 34.5951 11.449 34.5951 11.0781C34.5951 10.7072 34.2948 10.4062 33.9232 10.4062H32.9107C32.9812 10.3155 33.0491 10.2248 33.115 10.1375C33.6303 9.45084 33.9528 9.0625 34.5931 9.0625C34.9646 9.0625 35.265 8.7615 35.265 8.39062C35.265 8.01975 34.9646 7.71875 34.5931 7.71875C33.2493 7.71875 32.5788 8.61302 32.04 9.33125C31.526 10.0166 31.2028 10.4042 30.5652 10.4062H25.8661C24.7044 10.4062 22.5067 11.1084 22.5067 13.7656C22.5067 15.1651 23.6113 16.9449 24.8892 19.0069C26.2921 21.2685 27.8817 23.831 27.8817 25.8594C27.8817 27.1413 27.4161 28.0651 26.5064 28.6288C26.2565 25.9541 23.6536 23.8424 20.4844 23.8424C17.3158 23.8424 14.713 25.9534 14.4624 28.6275C13.5573 28.0651 13.0938 27.1413 13.0938 25.8594C13.0938 23.831 14.6834 21.2685 16.0863 19.0069C17.3642 16.9449 18.4688 15.1651 18.4688 13.7656C18.4688 11.1084 16.271 10.4062 15.1094 10.4062H10.4029C9.76461 10.4042 9.44211 10.0166 8.92812 9.33125C8.38928 8.61302 7.71875 7.71875 6.375 7.71875C6.00413 7.71875 5.70312 8.01975 5.70312 8.39062C5.70312 8.7615 6.00413 9.0625 6.375 9.0625C7.01597 9.0625 7.33847 9.45084 7.85313 10.1375C7.91897 10.2248 7.98683 10.3155 8.05737 10.4062H7.04688C6.676 10.4062 6.375 10.7072 6.375 11.0781C6.375 11.449 6.676 11.75 7.04688 11.75H10.3989C10.4015 11.75 10.4042 11.7507 10.4069 11.7507C10.4083 11.7507 10.4089 11.75 10.4103 11.75H10.7482C10.677 11.8414 10.6085 11.9327 10.5426 12.0208C10.0273 12.7074 9.70481 13.0958 9.06452 13.0958C8.69364 13.0958 8.39264 13.3968 8.39264 13.7676C8.39264 14.1385 8.69364 14.4395 9.06452 14.4395C10.4083 14.4395 11.0788 13.5453 11.6176 12.827C12.133 12.1404 12.4555 11.7513 13.0964 11.7513C13.0991 11.7513 13.1018 11.75 13.1045 11.75H15.106C15.4433 11.754 17.125 11.8689 17.125 13.7656C17.125 14.7822 16.0164 16.5694 14.9441 18.2988C13.4472 20.7121 11.75 23.4487 11.75 25.8594C11.75 28.5711 13.3578 29.7032 14.5537 30.1715C14.9656 32.3759 16.4518 35.3449 18.4688 36.6336V40.64C18.4688 41.0115 18.7698 41.3118 19.1406 41.3118C19.5115 41.3118 19.8125 41.0115 19.8125 40.64V37.2073C20.0329 37.253 20.2566 37.2806 20.4844 37.2806C20.7121 37.2806 20.9359 37.253 21.1562 37.2073V40.64C21.1562 41.0115 21.4566 41.3118 21.8281 41.3118C22.1997 41.3118 22.5 41.0115 22.5 40.64V36.6336C24.5176 35.3456 26.0032 32.3766 26.415 30.1721C27.6136 29.7025 29.2255 28.5704 29.2255 25.8594C29.2255 23.4487 27.529 20.7121 26.0314 18.2988C24.9591 16.5694 23.8505 14.7822 23.8505 13.7656ZM20.4844 35.9362C18.0065 35.9362 15.7812 31.2586 15.7812 29.0494C15.7812 26.9189 17.8909 25.1862 20.4844 25.1862C23.0771 25.1862 25.1875 26.9189 25.1875 29.0494C25.1875 31.2586 22.9622 35.9362 20.4844 35.9362ZM8.05469 21.1562C4.16453 21.1562 1 16.6352 1 11.0781C1 5.52105 4.16453 1 8.05469 1C11.4241 1 14.2608 4.27539 14.9542 8.96441C15.0086 9.33125 14.7546 9.67323 14.3878 9.72698C14.0256 9.78342 13.679 9.52811 13.6252 9.16059C13.0407 5.21064 10.6985 2.34375 8.05469 2.34375C4.90561 2.34375 2.34375 6.26213 2.34375 11.0781C2.34375 15.8941 4.90561 19.8125 8.05469 19.8125C10.6985 19.8125 13.0407 16.9456 13.6252 12.9957C13.6796 12.6281 14.0256 12.3775 14.3878 12.4293C14.7546 12.4837 15.0086 12.825 14.9542 13.1918C14.2608 17.8809 11.4241 21.1562 8.05469 21.1562ZM39.9674 11.0781C39.9674 16.6352 36.8029 21.1562 32.9127 21.1562C29.5433 21.1562 26.7059 17.8809 26.0126 13.1918C25.9581 12.825 26.2121 12.483 26.579 12.4293C26.9465 12.3722 27.2878 12.6281 27.3422 12.9957C27.9261 16.9456 30.2689 19.8125 32.9127 19.8125C36.0618 19.8125 38.6237 15.8941 38.6237 11.0781C38.6237 6.26213 36.0618 2.34375 32.9127 2.34375C30.2682 2.34375 27.9261 5.21064 27.3422 9.16059C27.2878 9.52811 26.9465 9.78074 26.579 9.72698C26.2121 9.67256 25.9581 9.33125 26.0126 8.96441C26.7059 4.27539 29.5433 1 32.9127 1C36.8029 1 39.9674 5.52105 39.9674 11.0781Z"/>
</mask>
<path d="M23.8505 13.7656C23.8505 11.8689 25.5328 11.754 25.8661 11.75H27.8629C27.8656 11.75 27.8683 11.7513 27.871 11.7513C28.5119 11.7513 28.8351 12.1404 29.3504 12.827C29.8893 13.5453 30.5598 14.4395 31.9036 14.4395C32.2751 14.4395 32.5754 14.1385 32.5754 13.7676C32.5754 13.3968 32.2751 13.0958 31.9036 13.0958C31.2633 13.0958 30.9401 12.7074 30.4254 12.0208C30.3589 11.9327 30.2911 11.8414 30.2198 11.75H30.5578C30.5591 11.75 30.5598 11.7507 30.5612 11.7507C30.5638 11.7507 30.5665 11.75 30.5692 11.75H33.9232C34.2948 11.75 34.5951 11.449 34.5951 11.0781C34.5951 10.7072 34.2948 10.4062 33.9232 10.4062H32.9107C32.9812 10.3155 33.0491 10.2248 33.115 10.1375C33.6303 9.45084 33.9528 9.0625 34.5931 9.0625C34.9646 9.0625 35.265 8.7615 35.265 8.39062C35.265 8.01975 34.9646 7.71875 34.5931 7.71875C33.2493 7.71875 32.5788 8.61302 32.04 9.33125C31.526 10.0166 31.2028 10.4042 30.5652 10.4062H25.8661C24.7044 10.4062 22.5067 11.1084 22.5067 13.7656C22.5067 15.1651 23.6113 16.9449 24.8892 19.0069C26.2921 21.2685 27.8817 23.831 27.8817 25.8594C27.8817 27.1413 27.4161 28.0651 26.5064 28.6288C26.2565 25.9541 23.6536 23.8424 20.4844 23.8424C17.3158 23.8424 14.713 25.9534 14.4624 28.6275C13.5573 28.0651 13.0938 27.1413 13.0938 25.8594C13.0938 23.831 14.6834 21.2685 16.0863 19.0069C17.3642 16.9449 18.4688 15.1651 18.4688 13.7656C18.4688 11.1084 16.271 10.4062 15.1094 10.4062H10.4029C9.76461 10.4042 9.44211 10.0166 8.92812 9.33125C8.38928 8.61302 7.71875 7.71875 6.375 7.71875C6.00413 7.71875 5.70312 8.01975 5.70312 8.39062C5.70312 8.7615 6.00413 9.0625 6.375 9.0625C7.01597 9.0625 7.33847 9.45084 7.85313 10.1375C7.91897 10.2248 7.98683 10.3155 8.05737 10.4062H7.04688C6.676 10.4062 6.375 10.7072 6.375 11.0781C6.375 11.449 6.676 11.75 7.04688 11.75H10.3989C10.4015 11.75 10.4042 11.7507 10.4069 11.7507C10.4083 11.7507 10.4089 11.75 10.4103 11.75H10.7482C10.677 11.8414 10.6085 11.9327 10.5426 12.0208C10.0273 12.7074 9.70481 13.0958 9.06452 13.0958C8.69364 13.0958 8.39264 13.3968 8.39264 13.7676C8.39264 14.1385 8.69364 14.4395 9.06452 14.4395C10.4083 14.4395 11.0788 13.5453 11.6176 12.827C12.133 12.1404 12.4555 11.7513 13.0964 11.7513C13.0991 11.7513 13.1018 11.75 13.1045 11.75H15.106C15.4433 11.754 17.125 11.8689 17.125 13.7656C17.125 14.7822 16.0164 16.5694 14.9441 18.2988C13.4472 20.7121 11.75 23.4487 11.75 25.8594C11.75 28.5711 13.3578 29.7032 14.5537 30.1715C14.9656 32.3759 16.4518 35.3449 18.4688 36.6336V40.64C18.4688 41.0115 18.7698 41.3118 19.1406 41.3118C19.5115 41.3118 19.8125 41.0115 19.8125 40.64V37.2073C20.0329 37.253 20.2566 37.2806 20.4844 37.2806C20.7121 37.2806 20.9359 37.253 21.1562 37.2073V40.64C21.1562 41.0115 21.4566 41.3118 21.8281 41.3118C22.1997 41.3118 22.5 41.0115 22.5 40.64V36.6336C24.5176 35.3456 26.0032 32.3766 26.415 30.1721C27.6136 29.7025 29.2255 28.5704 29.2255 25.8594C29.2255 23.4487 27.529 20.7121 26.0314 18.2988C24.9591 16.5694 23.8505 14.7822 23.8505 13.7656ZM20.4844 35.9362C18.0065 35.9362 15.7812 31.2586 15.7812 29.0494C15.7812 26.9189 17.8909 25.1862 20.4844 25.1862C23.0771 25.1862 25.1875 26.9189 25.1875 29.0494C25.1875 31.2586 22.9622 35.9362 20.4844 35.9362ZM8.05469 21.1562C4.16453 21.1562 1 16.6352 1 11.0781C1 5.52105 4.16453 1 8.05469 1C11.4241 1 14.2608 4.27539 14.9542 8.96441C15.0086 9.33125 14.7546 9.67323 14.3878 9.72698C14.0256 9.78342 13.679 9.52811 13.6252 9.16059C13.0407 5.21064 10.6985 2.34375 8.05469 2.34375C4.90561 2.34375 2.34375 6.26213 2.34375 11.0781C2.34375 15.8941 4.90561 19.8125 8.05469 19.8125C10.6985 19.8125 13.0407 16.9456 13.6252 12.9957C13.6796 12.6281 14.0256 12.3775 14.3878 12.4293C14.7546 12.4837 15.0086 12.825 14.9542 13.1918C14.2608 17.8809 11.4241 21.1562 8.05469 21.1562ZM39.9674 11.0781C39.9674 16.6352 36.8029 21.1562 32.9127 21.1562C29.5433 21.1562 26.7059 17.8809 26.0126 13.1918C25.9581 12.825 26.2121 12.483 26.579 12.4293C26.9465 12.3722 27.2878 12.6281 27.3422 12.9957C27.9261 16.9456 30.2689 19.8125 32.9127 19.8125C36.0618 19.8125 38.6237 15.8941 38.6237 11.0781C38.6237 6.26213 36.0618 2.34375 32.9127 2.34375C30.2682 2.34375 27.9261 5.21064 27.3422 9.16059C27.2878 9.52811 26.9465 9.78074 26.579 9.72698C26.2121 9.67256 25.9581 9.33125 26.0126 8.96441C26.7059 4.27539 29.5433 1 32.9127 1C36.8029 1 39.9674 5.52105 39.9674 11.0781Z" fill="#AAC0D9"/>
<path d="M23.8505 13.7656C23.8505 11.8689 25.5328 11.754 25.8661 11.75H27.8629C27.8656 11.75 27.8683 11.7513 27.871 11.7513C28.5119 11.7513 28.8351 12.1404 29.3504 12.827C29.8893 13.5453 30.5598 14.4395 31.9036 14.4395C32.2751 14.4395 32.5754 14.1385 32.5754 13.7676C32.5754 13.3968 32.2751 13.0958 31.9036 13.0958C31.2633 13.0958 30.9401 12.7074 30.4254 12.0208C30.3589 11.9327 30.2911 11.8414 30.2198 11.75H30.5578C30.5591 11.75 30.5598 11.7507 30.5612 11.7507C30.5638 11.7507 30.5665 11.75 30.5692 11.75H33.9232C34.2948 11.75 34.5951 11.449 34.5951 11.0781C34.5951 10.7072 34.2948 10.4062 33.9232 10.4062H32.9107C32.9812 10.3155 33.0491 10.2248 33.115 10.1375C33.6303 9.45084 33.9528 9.0625 34.5931 9.0625C34.9646 9.0625 35.265 8.7615 35.265 8.39062C35.265 8.01975 34.9646 7.71875 34.5931 7.71875C33.2493 7.71875 32.5788 8.61302 32.04 9.33125C31.526 10.0166 31.2028 10.4042 30.5652 10.4062H25.8661C24.7044 10.4062 22.5067 11.1084 22.5067 13.7656C22.5067 15.1651 23.6113 16.9449 24.8892 19.0069C26.2921 21.2685 27.8817 23.831 27.8817 25.8594C27.8817 27.1413 27.4161 28.0651 26.5064 28.6288C26.2565 25.9541 23.6536 23.8424 20.4844 23.8424C17.3158 23.8424 14.713 25.9534 14.4624 28.6275C13.5573 28.0651 13.0938 27.1413 13.0938 25.8594C13.0938 23.831 14.6834 21.2685 16.0863 19.0069C17.3642 16.9449 18.4688 15.1651 18.4688 13.7656C18.4688 11.1084 16.271 10.4062 15.1094 10.4062H10.4029C9.76461 10.4042 9.44211 10.0166 8.92812 9.33125C8.38928 8.61302 7.71875 7.71875 6.375 7.71875C6.00413 7.71875 5.70312 8.01975 5.70312 8.39062C5.70312 8.7615 6.00413 9.0625 6.375 9.0625C7.01597 9.0625 7.33847 9.45084 7.85313 10.1375C7.91897 10.2248 7.98683 10.3155 8.05737 10.4062H7.04688C6.676 10.4062 6.375 10.7072 6.375 11.0781C6.375 11.449 6.676 11.75 7.04688 11.75H10.3989C10.4015 11.75 10.4042 11.7507 10.4069 11.7507C10.4083 11.7507 10.4089 11.75 10.4103 11.75H10.7482C10.677 11.8414 10.6085 11.9327 10.5426 12.0208C10.0273 12.7074 9.70481 13.0958 9.06452 13.0958C8.69364 13.0958 8.39264 13.3968 8.39264 13.7676C8.39264 14.1385 8.69364 14.4395 9.06452 14.4395C10.4083 14.4395 11.0788 13.5453 11.6176 12.827C12.133 12.1404 12.4555 11.7513 13.0964 11.7513C13.0991 11.7513 13.1018 11.75 13.1045 11.75H15.106C15.4433 11.754 17.125 11.8689 17.125 13.7656C17.125 14.7822 16.0164 16.5694 14.9441 18.2988C13.4472 20.7121 11.75 23.4487 11.75 25.8594C11.75 28.5711 13.3578 29.7032 14.5537 30.1715C14.9656 32.3759 16.4518 35.3449 18.4688 36.6336V40.64C18.4688 41.0115 18.7698 41.3118 19.1406 41.3118C19.5115 41.3118 19.8125 41.0115 19.8125 40.64V37.2073C20.0329 37.253 20.2566 37.2806 20.4844 37.2806C20.7121 37.2806 20.9359 37.253 21.1562 37.2073V40.64C21.1562 41.0115 21.4566 41.3118 21.8281 41.3118C22.1997 41.3118 22.5 41.0115 22.5 40.64V36.6336C24.5176 35.3456 26.0032 32.3766 26.415 30.1721C27.6136 29.7025 29.2255 28.5704 29.2255 25.8594C29.2255 23.4487 27.529 20.7121 26.0314 18.2988C24.9591 16.5694 23.8505 14.7822 23.8505 13.7656ZM20.4844 35.9362C18.0065 35.9362 15.7812 31.2586 15.7812 29.0494C15.7812 26.9189 17.8909 25.1862 20.4844 25.1862C23.0771 25.1862 25.1875 26.9189 25.1875 29.0494C25.1875 31.2586 22.9622 35.9362 20.4844 35.9362ZM8.05469 21.1562C4.16453 21.1562 1 16.6352 1 11.0781C1 5.52105 4.16453 1 8.05469 1C11.4241 1 14.2608 4.27539 14.9542 8.96441C15.0086 9.33125 14.7546 9.67323 14.3878 9.72698C14.0256 9.78342 13.679 9.52811 13.6252 9.16059C13.0407 5.21064 10.6985 2.34375 8.05469 2.34375C4.90561 2.34375 2.34375 6.26213 2.34375 11.0781C2.34375 15.8941 4.90561 19.8125 8.05469 19.8125C10.6985 19.8125 13.0407 16.9456 13.6252 12.9957C13.6796 12.6281 14.0256 12.3775 14.3878 12.4293C14.7546 12.4837 15.0086 12.825 14.9542 13.1918C14.2608 17.8809 11.4241 21.1562 8.05469 21.1562ZM39.9674 11.0781C39.9674 16.6352 36.8029 21.1562 32.9127 21.1562C29.5433 21.1562 26.7059 17.8809 26.0126 13.1918C25.9581 12.825 26.2121 12.483 26.579 12.4293C26.9465 12.3722 27.2878 12.6281 27.3422 12.9957C27.9261 16.9456 30.2689 19.8125 32.9127 19.8125C36.0618 19.8125 38.6237 15.8941 38.6237 11.0781C38.6237 6.26213 36.0618 2.34375 32.9127 2.34375C30.2682 2.34375 27.9261 5.21064 27.3422 9.16059C27.2878 9.52811 26.9465 9.78074 26.579 9.72698C26.2121 9.67256 25.9581 9.33125 26.0126 8.96441C26.7059 4.27539 29.5433 1 32.9127 1C36.8029 1 39.9674 5.52105 39.9674 11.0781Z" stroke="#AAC0D9" stroke-width="0.6" mask="url(#path-1-outside-1_208_2736)"/>
</svg>
