<svg width="119" height="65" viewBox="0 0 119 65" fill="none" xmlns="http://www.w3.org/2000/svg">
<g clip-path="url(#clip0_274_320)">
<path d="M49.5256 20.299H43.8125V18.3948H47.6214V16.4905H43.8125V14.5859H49.5256V20.299Z" fill="white"/>
<path d="M49.5256 24.1115H43.8125V22.2073H47.6214V20.3027H43.8125V18.3984H49.5256V24.1115Z" fill="white"/>
<path d="M53.3344 19.3471H51.4302V14.5859H58.0952V16.4905H53.3344V19.3471Z" fill="white"/>
<path d="M58.0952 24.1115H51.4302V18.3984H58.0952V24.1115ZM53.3344 22.2073H56.191V20.3027H53.3344V22.2073Z" fill="white"/>
<path d="M66.6651 24.1079H60V14.5859H66.6651V24.1079ZM61.9043 22.2036H64.7608V16.4905H61.9043V22.2036Z" fill="white"/>
<path d="M70.4741 14.5859H68.5698V16.4905H70.4741V14.5859Z" fill="white"/>
<path d="M62.9041 38.7157L61.1069 38.0731L63.3326 31.7884L57.0483 29.5745L57.6791 27.7773L65.7606 30.6339L62.9041 38.7157Z" fill="white"/>
<path d="M69.4386 27.99L68.1648 26.5736C74.1397 21.2057 77.9367 14.7785 78.0794 9.8032C78.139 7.6845 77.5201 6.01806 76.2347 4.86386C75.0683 3.81637 73.4375 3.24485 71.3784 3.17371C66.189 2.98297 59.1906 5.97064 53.1442 10.9933C52.8349 11.2433 52.5371 11.5052 52.2278 11.7671L50.978 10.3388C51.2873 10.0651 51.6088 9.79135 51.93 9.52947C58.3335 4.22086 65.8201 1.04315 71.4617 1.26911C73.9731 1.36431 76.0203 2.1025 77.5201 3.44744C79.2102 4.97091 80.0673 7.18481 79.9958 9.85063C79.841 15.3378 75.7943 22.2769 69.4386 27.99Z" fill="white"/>
<path d="M48.9783 37.4421C48.8238 37.4421 48.6808 37.4421 48.5379 37.4303C46.0265 37.3351 43.9793 36.5972 42.4799 35.2523C40.7898 33.7288 39.9326 31.5149 40.0041 28.8487C40.0278 27.9442 40.159 26.9801 40.3968 25.9922L42.2536 26.4326C42.0514 27.2897 41.9321 28.1227 41.9084 28.9084C41.8488 31.0271 42.4677 32.6932 43.7534 33.8477C44.9198 34.8952 46.5503 35.4664 48.6094 35.5379C51.2518 35.6093 55.4533 34.5737 58.8095 32.9432L64.1182 30.3604L64.9512 32.0742L59.6429 34.6452C56.7268 36.0616 52.3704 37.4421 48.9783 37.4421Z" fill="white"/>
</g>
<path d="M1.37402 51.0059H4.19727C5.52344 51.0059 6.48275 51.2041 7.0752 51.6006C7.66764 51.9971 7.96387 52.6237 7.96387 53.4805C7.96387 54.0729 7.79753 54.5628 7.46484 54.9502C7.13672 55.333 6.65592 55.5814 6.02246 55.6953V55.7637C7.54004 56.0234 8.29883 56.821 8.29883 58.1562C8.29883 59.0495 7.99577 59.7467 7.38965 60.248C6.78809 60.7493 5.94499 61 4.86035 61H1.37402V51.0059ZM2.53613 55.2852H4.4502C5.27051 55.2852 5.86068 55.1576 6.2207 54.9023C6.58073 54.6426 6.76074 54.2074 6.76074 53.5967C6.76074 53.0361 6.56022 52.6328 6.15918 52.3867C5.75814 52.1361 5.12012 52.0107 4.24512 52.0107H2.53613V55.2852ZM2.53613 56.2695V60.0088H4.62109C5.42773 60.0088 6.03385 59.8538 6.43945 59.5439C6.84961 59.2295 7.05469 58.7396 7.05469 58.0742C7.05469 57.4544 6.84505 56.9987 6.42578 56.707C6.01107 56.4154 5.3776 56.2695 4.52539 56.2695H2.53613ZM11.3477 53.5078V58.2588L11.2998 59.5029L11.2793 59.8926L15.333 53.5078H16.748V61H15.6885V56.4199L15.709 55.5176L15.7432 54.6289L11.6963 61H10.2812V53.5078H11.3477ZM22.6406 61.1367C22.153 61.1367 21.7064 61.0479 21.3008 60.8701C20.8997 60.6878 20.5625 60.4098 20.2891 60.0361H20.207C20.2617 60.4736 20.2891 60.8883 20.2891 61.2803V64.3633H19.1543V53.5078H20.0771L20.2344 54.5332H20.2891C20.5807 54.123 20.9202 53.8268 21.3076 53.6445C21.695 53.4622 22.1393 53.3711 22.6406 53.3711C23.6341 53.3711 24.3997 53.7106 24.9375 54.3896C25.4798 55.0687 25.751 56.0212 25.751 57.2471C25.751 58.4775 25.4753 59.4346 24.9238 60.1182C24.377 60.7972 23.6159 61.1367 22.6406 61.1367ZM22.4766 54.335C21.7109 54.335 21.1572 54.5469 20.8154 54.9707C20.4736 55.3945 20.2982 56.069 20.2891 56.9941V57.2471C20.2891 58.2998 20.4645 59.054 20.8154 59.5098C21.1663 59.9609 21.7292 60.1865 22.5039 60.1865C23.151 60.1865 23.6569 59.9245 24.0215 59.4004C24.3906 58.8763 24.5752 58.154 24.5752 57.2334C24.5752 56.2992 24.3906 55.5837 24.0215 55.0869C23.6569 54.5856 23.1419 54.335 22.4766 54.335ZM32.792 54.4785H30.3584V61H29.2236V54.4785H26.8174V53.5078H32.792V54.4785ZM33.0859 53.5078H34.3027L35.9434 57.7803C36.3034 58.7555 36.5267 59.4596 36.6133 59.8926H36.668C36.7272 59.6602 36.8503 59.2637 37.0371 58.7031C37.2285 58.138 37.8483 56.4062 38.8965 53.5078H40.1133L36.8936 62.0391C36.5745 62.8822 36.2008 63.4792 35.7725 63.8301C35.3486 64.1855 34.8268 64.3633 34.207 64.3633C33.8607 64.3633 33.5189 64.3245 33.1816 64.2471V63.3379C33.4323 63.3926 33.7126 63.4199 34.0225 63.4199C34.8018 63.4199 35.3577 62.9824 35.6904 62.1074L36.1074 61.041L33.0859 53.5078ZM45.9375 61L45.7119 59.9336H45.6572C45.2835 60.403 44.9098 60.722 44.5361 60.8906C44.167 61.0547 43.7044 61.1367 43.1484 61.1367C42.4056 61.1367 41.8223 60.9453 41.3984 60.5625C40.9792 60.1797 40.7695 59.6351 40.7695 58.9287C40.7695 57.4157 41.9795 56.6227 44.3994 56.5498L45.6709 56.5088V56.0439C45.6709 55.4561 45.5433 55.0231 45.2881 54.7451C45.0374 54.4626 44.6341 54.3213 44.0781 54.3213C43.4538 54.3213 42.7474 54.5127 41.959 54.8955L41.6104 54.0273C41.9795 53.8268 42.3828 53.6696 42.8203 53.5557C43.2624 53.4417 43.7044 53.3848 44.1465 53.3848C45.0397 53.3848 45.7005 53.583 46.1289 53.9795C46.5618 54.376 46.7783 55.0117 46.7783 55.8867V61H45.9375ZM43.374 60.2002C44.0804 60.2002 44.6341 60.0065 45.0352 59.6191C45.4408 59.2318 45.6436 58.6895 45.6436 57.9922V57.3154L44.5088 57.3633C43.6064 57.3952 42.9548 57.5365 42.5537 57.7871C42.1572 58.0332 41.959 58.4183 41.959 58.9424C41.959 59.3525 42.082 59.6647 42.3281 59.8789C42.5788 60.0931 42.9274 60.2002 43.374 60.2002ZM54.708 61H53.5596V54.4785H51.3105C51.1875 56.1009 51.0166 57.3883 50.7979 58.3408C50.5791 59.2933 50.2943 59.9906 49.9434 60.4326C49.597 60.8747 49.1549 61.0957 48.6172 61.0957C48.3711 61.0957 48.1751 61.0684 48.0293 61.0137V60.1729C48.1296 60.2002 48.2435 60.2139 48.3711 60.2139C48.8952 60.2139 49.3122 59.6602 49.6221 58.5527C49.932 57.4453 50.1667 55.7637 50.3262 53.5078H54.708V61ZM58.2559 56.6045H60.5664C62.4805 56.6045 63.4375 57.3086 63.4375 58.7168C63.4375 59.4551 63.1868 60.0202 62.6855 60.4121C62.1888 60.804 61.4596 61 60.498 61H57.1211V53.5078H58.2559V56.6045ZM58.2559 57.582V60.0498H60.4434C61.0449 60.0498 61.5052 59.945 61.8242 59.7354C62.1432 59.5257 62.3027 59.209 62.3027 58.7852C62.3027 58.3704 62.1546 58.0674 61.8584 57.876C61.5667 57.68 61.0837 57.582 60.4092 57.582H58.2559ZM66.541 53.5078V56.6455H70.7383V53.5078H71.873V61H70.7383V57.623H66.541V61H65.4062V53.5078H66.541ZM75.4141 56.6045H77.458C78.4105 56.6045 79.1146 56.7822 79.5703 57.1377C80.0306 57.4886 80.2607 58.015 80.2607 58.7168C80.2607 59.4688 80.0169 60.0384 79.5293 60.4258C79.0462 60.8086 78.333 61 77.3896 61H74.2793V53.5078H75.4141V56.6045ZM82.6533 61H81.5186V53.5078H82.6533V61ZM75.4141 57.582V60.0498H77.335C78.5381 60.0498 79.1396 59.6283 79.1396 58.7852C79.1396 58.3659 79.0007 58.0605 78.7227 57.8691C78.4447 57.6777 77.9707 57.582 77.3008 57.582H75.4141ZM86.1328 53.5078V58.2588L86.085 59.5029L86.0645 59.8926L90.1182 53.5078H91.5332V61H90.4736V56.4199L90.4941 55.5176L90.5283 54.6289L86.4814 61H85.0664V53.5078H86.1328ZM88.2725 52.5166C87.4294 52.5166 86.8141 52.3548 86.4268 52.0312C86.0394 51.7031 85.8229 51.1654 85.7773 50.418H86.8438C86.8848 50.8919 87.0078 51.2223 87.2129 51.4092C87.4225 51.596 87.7848 51.6895 88.2998 51.6895C88.7692 51.6895 89.1156 51.5892 89.3389 51.3887C89.5667 51.1882 89.7057 50.8646 89.7559 50.418H90.8291C90.7744 51.138 90.5443 51.6689 90.1387 52.0107C89.7331 52.348 89.111 52.5166 88.2725 52.5166ZM102.628 54.4785H100.194V61H99.0596V54.4785H96.6533V53.5078H102.628V54.4785ZM102.922 53.5078H104.139L105.779 57.7803C106.139 58.7555 106.363 59.4596 106.449 59.8926H106.504C106.563 59.6602 106.686 59.2637 106.873 58.7031C107.064 58.138 107.684 56.4062 108.732 53.5078H109.949L106.729 62.0391C106.41 62.8822 106.037 63.4792 105.608 63.8301C105.185 64.1855 104.663 64.3633 104.043 64.3633C103.697 64.3633 103.355 64.3245 103.018 64.2471V63.3379C103.268 63.3926 103.549 63.4199 103.858 63.4199C104.638 63.4199 105.194 62.9824 105.526 62.1074L105.943 61.041L102.922 53.5078ZM114.652 61.1367C114.165 61.1367 113.718 61.0479 113.312 60.8701C112.911 60.6878 112.574 60.4098 112.301 60.0361H112.219C112.273 60.4736 112.301 60.8883 112.301 61.2803V64.3633H111.166V53.5078H112.089L112.246 54.5332H112.301C112.592 54.123 112.932 53.8268 113.319 53.6445C113.707 53.4622 114.151 53.3711 114.652 53.3711C115.646 53.3711 116.411 53.7106 116.949 54.3896C117.492 55.0687 117.763 56.0212 117.763 57.2471C117.763 58.4775 117.487 59.4346 116.936 60.1182C116.389 60.7972 115.628 61.1367 114.652 61.1367ZM114.488 54.335C113.723 54.335 113.169 54.5469 112.827 54.9707C112.485 55.3945 112.31 56.069 112.301 56.9941V57.2471C112.301 58.2998 112.476 59.054 112.827 59.5098C113.178 59.9609 113.741 60.1865 114.516 60.1865C115.163 60.1865 115.669 59.9245 116.033 59.4004C116.402 58.8763 116.587 58.154 116.587 57.2334C116.587 56.2992 116.402 55.5837 116.033 55.0869C115.669 54.5856 115.154 54.335 114.488 54.335Z" fill="white"/>
<defs>
<clipPath id="clip0_274_320">
<rect width="40" height="40" fill="white" transform="translate(40)"/>
</clipPath>
</defs>
</svg>
