<svg width="14" height="14" viewBox="0 0 14 14" fill="none" xmlns="http://www.w3.org/2000/svg">
<path fill-rule="evenodd" clip-rule="evenodd" d="M7 0C3.1402 0 0 3.14024 0 7.00004C0 10.8598 3.1402 14 7 14C10.8598 14 14 10.8598 14 7.00004C14 3.14024 10.8598 0 7 0ZM7 12.7273C3.84194 12.7273 1.27273 10.1581 1.27273 7.00004C1.27273 3.84202 3.84194 1.27273 7 1.27273C10.1581 1.27273 12.7273 3.84202 12.7273 7.00004C12.7273 10.1581 10.158 12.7273 7 12.7273ZM6.99992 2.96974C6.53215 2.96974 6.15161 3.35054 6.15161 3.8186C6.15161 4.28625 6.53215 4.66671 6.99992 4.66671C7.46769 4.66671 7.84824 4.28625 7.84824 3.8186C7.84824 3.35054 7.46769 2.96974 6.99992 2.96974ZM6.36367 6.57569C6.36367 6.22425 6.64859 5.93933 7.00003 5.93933C7.35148 5.93933 7.6364 6.22425 7.6364 6.57569V10.3939C7.6364 10.7453 7.35148 11.0302 7.00003 11.0302C6.64859 11.0302 6.36367 10.7453 6.36367 10.3939V6.57569Z" fill="#B90D06"/>
</svg>
