<svg width="19" height="18" viewBox="0 0 19 18" fill="none" xmlns="http://www.w3.org/2000/svg">
<path d="M8.14019 9.72291C8.14019 8.7115 7.31736 7.88867 6.30595 7.88867C5.29455 7.88867 4.47168 8.7115 4.47168 9.72291H5.58496C5.58496 9.32537 5.90841 9.00195 6.30595 9.00195C6.70349 9.00195 7.02691 9.32537 7.02691 9.72291H8.14019Z" fill="#AAC0D9"/>
<path d="M12.6941 7.88867C11.6827 7.88867 10.8599 8.7115 10.8599 9.72291H11.9731C11.9731 9.32537 12.2966 9.00195 12.6941 9.00195C13.0916 9.00195 13.4151 9.32537 13.4151 9.72291H14.5284C14.5284 8.7115 13.7055 7.88867 12.6941 7.88867Z" fill="#AAC0D9"/>
<path d="M9.50002 12.9812C8.79619 12.9812 8.13625 12.6038 7.77765 11.9961L6.81885 12.5619C7.37669 13.5072 8.40405 14.0945 9.49998 14.0945C10.5959 14.0945 11.6233 13.5072 12.1811 12.5619L11.2223 11.9961C10.8638 12.6037 10.2038 12.9812 9.50002 12.9812Z" fill="#AAC0D9"/>
<path d="M18.2757 7.75097C17.9211 7.39683 17.4759 7.16267 16.9926 7.07097C15.949 3.84589 12.9215 1.62538 9.5 1.62538H9.12679C8.23055 1.62538 7.50141 0.896202 7.50141 0H6.38813C6.38813 0.608157 6.58763 1.17043 6.92427 1.62538H6.57156C5.67532 1.62538 4.94618 0.896202 4.94618 0H3.8329C3.8329 1.20959 4.62141 2.23782 5.71114 2.59943C3.98764 3.54696 2.63675 5.12616 2.00742 7.07097C1.52415 7.16267 1.07881 7.39691 0.723961 7.75138C0.257104 8.21872 0 8.83972 0 9.5C0 10.1522 0.251584 10.7675 0.708453 11.2326C1.06551 11.5961 1.51645 11.836 2.00742 11.9291C3.051 15.1541 6.07849 17.3746 9.5 17.3746C12.9215 17.3746 15.949 15.1541 16.9926 11.9291C17.4835 11.836 17.9345 11.5961 18.2915 11.2326C18.7484 10.7675 19 10.1522 19 9.5C19 8.83972 18.7429 8.21872 18.2757 7.75097V7.75097ZM16.554 10.859L16.1363 10.8669L16.0272 11.2703C15.2325 14.2089 12.5484 16.2613 9.49996 16.2613C6.45152 16.2613 3.76749 14.2089 2.97282 11.2703L2.86374 10.8669L2.446 10.859C1.71111 10.8451 1.11324 10.2355 1.11324 9.5C1.11324 9.13686 1.25469 8.79526 1.51108 8.53857C1.76113 8.28879 2.09314 8.14757 2.44588 8.14096L2.8637 8.13311L2.97278 7.72971C3.76749 4.7911 6.45155 2.7387 9.5 2.7387C10.5061 2.7387 11.3247 3.55725 11.3247 4.5634C11.3247 5.56954 10.5061 6.38813 9.5 6.38813C8.49385 6.38813 7.6753 5.56958 7.6753 4.56343H6.56202C6.56202 6.18345 7.87999 7.50141 9.5 7.50141C11.12 7.50141 12.438 6.18345 12.438 4.56343C12.438 4.1024 12.331 3.66603 12.1409 3.27731C14.008 4.07153 15.4745 5.68621 16.0272 7.72975L16.1363 8.13315L16.5541 8.141C16.9069 8.1476 17.2388 8.28883 17.4885 8.53816C17.7453 8.7953 17.8868 9.13689 17.8868 9.50004C17.8867 10.2355 17.2889 10.8451 16.554 10.859V10.859Z" fill="#AAC0D9"/>
</svg>
