<svg width="14" height="14" viewBox="0 0 14 14" fill="none" xmlns="http://www.w3.org/2000/svg">
<path d="M1.00417 12.9973C1.04481 13.038 1.09306 13.0702 1.14617 13.0922C1.19928 13.1143 1.25621 13.1256 1.31371 13.1256C1.3712 13.1256 1.42813 13.1143 1.48124 13.0922C1.53435 13.0702 1.58261 13.038 1.62324 12.9973L7.00011 7.6204L12.3792 12.9973C12.4613 13.0794 12.5726 13.1255 12.6887 13.1255C12.8048 13.1255 12.9161 13.0794 12.9982 12.9973C13.0803 12.9152 13.1264 12.8038 13.1264 12.6877C13.1264 12.5716 13.0803 12.4603 12.9982 12.3782L7.61917 7.00134L12.996 1.62227C13.0781 1.54018 13.1243 1.42884 13.1243 1.31274C13.1243 1.19665 13.0781 1.0853 12.996 1.00321C12.914 0.921119 12.8026 0.875 12.6865 0.875C12.5704 0.875 12.4591 0.921119 12.377 1.00321L7.00011 6.38227L1.62105 1.0054C1.53736 0.933726 1.4297 0.896273 1.31959 0.900526C1.20948 0.904779 1.10503 0.950424 1.02712 1.02834C0.9492 1.10626 0.903554 1.21071 0.899301 1.32081C0.895048 1.43092 0.932501 1.53858 1.00417 1.62227L6.38105 7.00134L1.00417 12.3804C0.92269 12.4624 0.876953 12.5733 0.876953 12.6888C0.876953 12.8044 0.92269 12.9153 1.00417 12.9973Z" fill="#8EA8B8"/>
</svg>
