<svg width="40" height="40" viewBox="0 0 40 40" fill="none" xmlns="http://www.w3.org/2000/svg">
<path d="M20 40C31.0457 40 40 31.0457 40 20C40 8.95431 31.0457 0 20 0C8.95431 0 0 8.95431 0 20C0 31.0457 8.95431 40 20 40Z" fill="white"/>
<path d="M19.966 17.5686V18.6614H19.166V19.9972H19.966V23.9677H21.6105V19.9972H22.7136C22.7136 19.9972 22.8176 19.3567 22.8676 18.6558H21.6168V17.7432C21.6168 17.6058 21.7962 17.4225 21.9739 17.4225H22.8692V16.0312H21.651C19.9255 16.0312 19.966 17.3686 19.966 17.5686Z" fill="black"/>
<path d="M16.239 13.6498C15.8181 13.6498 15.4143 13.8171 15.1166 14.1147C14.8189 14.4124 14.6517 14.8161 14.6517 15.2371V24.7609C14.6517 25.1819 14.8189 25.5856 15.1166 25.8834C15.4143 26.181 15.8181 26.3482 16.239 26.3482H25.7628C26.1838 26.3482 26.5875 26.181 26.8852 25.8834C27.1828 25.5856 27.3501 25.1819 27.3501 24.7609V15.2371C27.3501 14.8161 27.1828 14.4124 26.8852 14.1147C26.5875 13.8171 26.1838 13.6498 25.7628 13.6498H16.239ZM16.239 12.0625H25.7628C26.6047 12.0625 27.4123 12.397 28.0076 12.9923C28.6029 13.5876 28.9374 14.3952 28.9374 15.2371V24.7609C28.9374 25.6029 28.6029 26.4103 28.0076 27.0057C27.4123 27.6011 26.6047 27.9355 25.7628 27.9355H16.239C15.397 27.9355 14.5896 27.6011 13.9943 27.0057C13.3989 26.4103 13.0645 25.6029 13.0645 24.7609V15.2371C13.0645 14.3952 13.3989 13.5876 13.9943 12.9923C14.5896 12.397 15.397 12.0625 16.239 12.0625Z" fill="black"/>
</svg>
