<svg width="18" height="17" viewBox="0 0 18 17" fill="none" xmlns="http://www.w3.org/2000/svg">
<path d="M15.6115 10.0951L13.1381 9.30362V8.68206C14.0543 8.11257 14.6658 7.09693 14.6658 5.94099V2.88562C14.6658 1.29449 13.3713 0 11.7801 0H7.70631C7.42508 0 7.19708 0.227998 7.19708 0.509228V1.52768C7.19708 2.35888 7.59754 3.09821 8.21554 3.5632V5.94099C8.21554 7.09693 8.82695 8.11257 9.74322 8.68206V9.30362L7.2698 10.0951C6.85193 10.2288 6.47703 10.4692 6.18087 10.7879V10.128C6.75871 9.66086 7.12919 8.94686 7.12919 8.14764V6.45021C7.12919 5.04627 5.98699 3.90408 4.58305 3.90408C3.17911 3.90408 2.03691 5.04627 2.03691 6.45021V8.14764C2.03691 8.94686 2.40739 9.66086 2.98526 10.128V10.8387L1.72401 11.269C0.692821 11.6208 0 12.5892 0 13.6787V16.1255C0 16.4068 0.227998 16.6348 0.509228 16.6348H16.8724C17.1536 16.6348 17.3816 16.4068 17.3816 16.1255V12.5201C17.3816 11.4085 16.6703 10.4339 15.6115 10.0951ZM8.21554 1.52768V1.01846H11.7801C12.8097 1.01846 13.6473 1.85607 13.6473 2.88562V3.05537H9.74322C8.90086 3.05537 8.21554 2.37005 8.21554 1.52768ZM9.23399 5.94099V4.02259C9.39857 4.05613 9.56886 4.07382 9.74322 4.07382H13.6473V5.94099C13.6473 7.15774 12.6574 8.14764 11.4406 8.14764C10.2239 8.14764 9.23399 7.15774 9.23399 5.94099ZM12.1196 9.09395V9.51481L11.4406 10.4848L10.7617 9.51481V9.09395C10.9807 9.14108 11.2078 9.16609 11.4406 9.16609C11.6735 9.16609 11.9006 9.14108 12.1196 9.09395ZM4.58305 4.92253C5.37527 4.92253 6.02861 5.52875 6.10357 6.30166L4.81077 5.65524C4.73911 5.61939 4.66106 5.6015 4.58305 5.6015C4.50503 5.6015 4.42699 5.61943 4.35532 5.65524L3.06253 6.30166C3.13749 5.52875 3.79083 4.92253 4.58305 4.92253ZM3.05537 7.44392L4.58305 6.68008L6.11073 7.44392V8.14764C6.11073 8.99 5.42541 9.67532 4.58305 9.67532C3.74068 9.67532 3.05537 8.99 3.05537 8.14764V7.44392ZM5.16238 10.6265V11.034L4.58305 11.811L4.00372 11.034V10.6265C4.18996 10.67 4.38374 10.6938 4.58305 10.6938C4.78236 10.6938 4.97614 10.67 5.16238 10.6265ZM8.14764 15.6163H1.01846V13.6787C1.01846 13.025 1.43415 12.444 2.05287 12.2329L3.30794 11.8047L4.17482 12.9672C4.37847 13.2403 4.78762 13.2403 4.99124 12.9672L5.85815 11.8047L7.11323 12.2329C7.73194 12.444 8.14764 13.025 8.14764 13.6787V15.6163ZM16.3632 15.6163H15.0052V14.4281C15.0052 14.1469 14.7772 13.9189 14.496 13.9189C14.2148 13.9189 13.9868 14.1469 13.9868 14.4281V15.6163H9.1661V13.6787C9.1661 12.5892 8.47327 11.6208 7.44209 11.269L7.264 11.2082C7.36316 11.149 7.46908 11.1007 7.58019 11.0651L10.0504 10.2746L11.0235 11.6647C11.2262 11.9544 11.6551 11.9544 11.8578 11.6647L12.8309 10.2746L15.3011 11.0651C15.9364 11.2684 16.3632 11.8531 16.3632 12.5201V15.6163Z" fill="#AAC0D9"/>
</svg>
