<svg width="40" height="40" viewBox="0 0 40 40" fill="none" xmlns="http://www.w3.org/2000/svg">
<path d="M20 40C31.0457 40 40 31.0457 40 20C40 8.95431 31.0457 0 20 0C8.95431 0 0 8.95431 0 20C0 31.0457 8.95431 40 20 40Z" fill="white"/>
<path d="M20.001 16.1828C17.8898 16.1828 16.1858 17.8867 16.1858 19.9979C16.1858 22.1092 17.8898 23.8131 20.001 23.8131C22.1122 23.8131 23.816 22.1092 23.816 19.9979C23.816 17.8867 22.1122 16.1828 20.001 16.1828ZM20.001 22.4774C18.6357 22.4774 17.5215 21.3632 17.5215 19.9979C17.5215 18.6326 18.6357 17.5184 20.001 17.5184C21.3663 17.5184 22.4805 18.6326 22.4805 19.9979C22.4805 21.3632 21.3663 22.4774 20.001 22.4774ZM23.9723 15.1374C23.4794 15.1374 23.0814 15.5354 23.0814 16.0284C23.0814 16.5213 23.4794 16.9194 23.9723 16.9194C24.4653 16.9194 24.8634 16.5232 24.8634 16.0284C24.8635 15.9113 24.8405 15.7954 24.7958 15.6872C24.7511 15.5792 24.6855 15.4809 24.6027 15.3981C24.5199 15.3152 24.4217 15.2496 24.3135 15.205C24.2053 15.1602 24.0894 15.1372 23.9723 15.1374ZM27.4378 19.9979C27.4378 18.9712 27.4471 17.9536 27.3894 16.9287C27.3317 15.7382 27.0601 14.6817 26.1896 13.8112C25.3172 12.9388 24.2625 12.6691 23.072 12.6113C22.0453 12.5537 21.0278 12.5631 20.0028 12.5631C18.976 12.5631 17.9586 12.5537 16.9337 12.6113C15.7432 12.6691 14.6866 12.9406 13.816 13.8112C12.9437 14.6835 12.6739 15.7382 12.6163 16.9287C12.5586 17.9555 12.5679 18.973 12.5679 19.9979C12.5679 21.0229 12.5586 22.0422 12.6163 23.0672C12.6739 24.2576 12.9456 25.3141 13.816 26.1847C14.6885 27.0571 15.7432 27.3268 16.9337 27.3845C17.9604 27.4421 18.9779 27.4328 20.0028 27.4328C21.0297 27.4328 22.0471 27.4421 23.072 27.3845C24.2625 27.3268 25.3191 27.0553 26.1896 26.1847C27.062 25.3123 27.3317 24.2576 27.3894 23.0672C27.4489 22.0422 27.4378 21.0247 27.4378 19.9979ZM25.8008 24.3841C25.6651 24.7226 25.5014 24.9756 25.2391 25.236C24.9768 25.4983 24.7257 25.662 24.3872 25.7977C23.4087 26.1866 21.0855 26.0992 20.001 26.0992C18.9165 26.0992 16.5914 26.1866 15.613 25.7996C15.2744 25.6638 15.0215 25.5001 14.761 25.2379C14.4987 24.9756 14.3351 24.7245 14.1993 24.3859C13.8123 23.4056 13.8998 21.0824 13.8998 19.9979C13.8998 18.9134 13.8123 16.5883 14.1993 15.6099C14.3351 15.2713 14.4987 15.0184 14.761 14.7579C15.0233 14.4975 15.2744 14.332 15.613 14.1962C16.5914 13.8093 18.9165 13.8967 20.001 13.8967C21.0855 13.8967 23.4106 13.8093 24.389 14.1962C24.7276 14.332 24.9805 14.4957 25.2409 14.7579C25.5032 15.0202 25.6669 15.2713 25.8027 15.6099C26.1896 16.5883 26.1021 18.9134 26.1021 19.9979C26.1021 21.0824 26.1896 23.4056 25.8008 24.3841Z" fill="black"/>
</svg>
