<svg width="134" height="53" viewBox="0 0 134 53" fill="none" xmlns="http://www.w3.org/2000/svg">
<g opacity="0.66">
<path opacity="0.66" d="M129.656 4.76897V2.15234H130.639C131.069 2.15234 131.561 2.35027 131.561 2.91145C131.561 3.43822 131.131 3.64413 130.724 3.66626L131.725 4.76897H131.609L130.615 3.66995H129.751V4.76897H129.656ZM129.75 3.58021H130.643C131.029 3.58021 131.466 3.41609 131.466 2.91145C131.466 2.40681 131.029 2.24208 130.643 2.24208H129.75V3.58021Z" fill="white" stroke="white" stroke-miterlimit="10"/>
<path opacity="0.66" d="M133.741 2.07844C133.578 1.67145 133.339 1.29943 133.036 0.982499C132.739 0.673909 132.384 0.428084 131.991 0.259653C131.582 0.0882677 131.143 0 130.7 0C130.257 0 129.818 0.0882677 129.409 0.259653C129.012 0.428505 128.653 0.674166 128.351 0.982499C128.044 1.29785 127.801 1.67066 127.638 2.07967C127.463 2.51346 127.375 2.97728 127.38 3.44484C127.376 3.91514 127.464 4.38165 127.638 4.81862C127.8 5.23099 128.043 5.60705 128.351 5.92501C128.655 6.2341 129.016 6.48235 129.413 6.65646C129.818 6.83271 130.256 6.92366 130.698 6.92366C131.14 6.92366 131.577 6.83271 131.983 6.65646C132.378 6.48382 132.736 6.23532 133.036 5.92501C133.34 5.6051 133.58 5.22941 133.741 4.81862C133.915 4.38169 134.003 3.91518 134 3.44484C134.004 2.97724 133.916 2.51341 133.741 2.07967L133.741 2.07844ZM133.233 4.60471C133.098 4.94933 132.901 5.26667 132.653 5.54146C132.41 5.80879 132.116 6.02415 131.787 6.17457C131.446 6.32725 131.077 6.40618 130.703 6.40618C130.33 6.40618 129.96 6.32725 129.619 6.17457C129.286 6.02445 128.985 5.8092 128.736 5.54146C128.483 5.26889 128.283 4.95112 128.147 4.60471C128.002 4.23542 127.929 3.84167 127.932 3.44484C127.93 3.05389 128.003 2.66618 128.147 2.3028C128.415 1.61084 128.945 1.05261 129.622 0.749541C129.963 0.597157 130.333 0.518395 130.706 0.518395C131.08 0.518395 131.449 0.597157 131.79 0.749541C132.117 0.899239 132.411 1.11162 132.656 1.37465C132.906 1.64528 133.103 1.96031 133.236 2.30341C133.38 2.66691 133.452 3.05463 133.449 3.44546C133.453 3.84217 133.381 4.23591 133.236 4.60533" fill="white"/>
</g>
<path d="M22.3062 28.0922H5.83997L2.85271 33.9591H0.010498L13.0254 8.60547H15.1589L28.1369 33.9591H25.2935L22.3062 28.0922ZM6.98018 25.8517H21.1679L14.0925 11.9124L6.98018 25.8517Z" fill="white"/>
<path d="M127.74 28.0922H111.276L108.289 33.9591H105.445L118.458 8.60547H120.592L133.571 33.9591H130.729L127.74 28.0922ZM112.412 25.8517H126.599L119.526 11.9124L112.412 25.8517Z" fill="white"/>
<path d="M76.8184 33.9591V8.60547H98.047V11.0949H79.3784V20.0554H95.9129V22.5448H79.3784V33.9591H76.8184Z" fill="white"/>
<path d="M62.8433 33.9591H41.614V8.60547H44.1753V31.5048H62.8433V33.9591Z" fill="white"/>
<path d="M0.00242382 45.884C-0.0132176 45.3609 0.0756525 44.84 0.26383 44.3517C0.452008 43.8634 0.735712 43.4176 1.09833 43.0403C1.46095 42.6631 1.89519 42.3619 2.37563 42.1546C2.85608 41.9472 3.37306 41.8378 3.89632 41.8327C4.55835 41.8336 5.20911 42.0042 5.78643 42.3282C6.36376 42.6522 6.84837 43.1188 7.194 43.6835V38.6758H7.96233V49.7539H7.194V48.0236C6.85502 48.5987 6.37356 49.0768 5.79606 49.4118C5.21855 49.7467 4.56449 49.9272 3.89694 49.9358C3.37278 49.9335 2.85443 49.8259 2.37263 49.6195C1.89084 49.4131 1.45541 49.112 1.09218 48.7341C0.728958 48.3562 0.445333 47.9092 0.258135 47.4196C0.0709377 46.93 -0.016019 46.4078 0.00242382 45.884ZM7.24071 45.8692C7.24582 45.4362 7.16526 45.0064 7.00367 44.6047C6.84208 44.2029 6.60264 43.8371 6.29913 43.5282C5.99562 43.2193 5.63403 42.9735 5.23517 42.8049C4.8363 42.6363 4.40803 42.5482 3.975 42.5457C2.23181 42.5457 0.834679 43.775 0.834679 45.884C0.810408 46.3121 0.873516 46.7408 1.02016 47.1438C1.16681 47.5468 1.39393 47.9158 1.6877 48.2282C1.98147 48.5407 2.33575 48.7901 2.72897 48.9613C3.12219 49.1325 3.54613 49.2219 3.975 49.224C4.40994 49.2193 4.83966 49.1287 5.23948 48.9574C5.6393 48.7861 6.00133 48.5375 6.30479 48.2259C6.60824 47.9143 6.84714 47.5458 7.00775 47.1415C7.16837 46.7373 7.24754 46.3053 7.24071 45.8704" fill="white"/>
<path d="M15.2903 38.9805H16.2479V39.9971H15.2903V38.9805ZM15.3849 42.0157H16.1508V49.7555H15.3831L15.3849 42.0157Z" fill="white"/>
<path d="M22.4678 47.4787C22.4678 45.8708 23.8963 44.9586 25.9714 44.9586C26.8669 44.9501 27.7595 45.0625 28.6249 45.293V44.9586C28.6249 43.3955 27.6359 42.5909 25.9867 42.5909C25.112 42.596 24.2511 42.8092 23.4752 43.213L23.1918 42.5608C24.0774 42.1314 25.0475 41.9048 26.0316 41.8976C26.9528 41.8397 27.8601 42.1448 28.5591 42.7477C28.8402 43.0349 29.0581 43.3777 29.1987 43.7541C29.3394 44.1306 29.3998 44.5323 29.376 44.9334V49.7585H28.6224V48.4677C28.2677 48.9408 27.8043 49.3215 27.2714 49.5777C26.7385 49.8338 26.1517 49.9578 25.5608 49.9392C24.0696 49.9392 22.4678 49.1205 22.4678 47.4806V47.4787ZM28.6378 46.8585V45.9765C27.7505 45.7473 26.838 45.6303 25.9216 45.628C24.2263 45.628 23.2834 46.3564 23.2834 47.464C23.2834 48.587 24.3831 49.2385 25.6075 49.2385C27.2406 49.2385 28.6378 48.268 28.6378 46.8561" fill="white"/>
<path d="M36.3702 51.0272L36.825 50.4205C37.7549 51.1282 38.8909 51.5118 40.0594 51.5128C41.8966 51.5128 43.1991 50.4961 43.1991 48.5077V47.3853C42.8327 47.9365 42.3356 48.3885 41.7522 48.7011C41.1688 49.0137 40.5172 49.1772 39.8553 49.1771C39.3592 49.1993 38.8637 49.1208 38.3987 48.9462C37.9338 48.7717 37.509 48.5048 37.15 48.1615C36.7911 47.8183 36.5054 47.4059 36.3102 46.9492C36.115 46.4926 36.0144 46.0011 36.0144 45.5044C36.0144 45.0078 36.115 44.5163 36.3102 44.0596C36.5054 43.6029 36.7911 43.1905 37.15 42.8473C37.509 42.5041 37.9338 42.2372 38.3987 42.0626C38.8637 41.8881 39.3592 41.8096 39.8553 41.8318C40.5118 41.8248 41.1599 41.9789 41.743 42.2806C42.326 42.5822 42.8262 43.0223 43.1997 43.5621V42.0131H43.9693V48.5532C43.9893 49.0375 43.9089 49.5208 43.7333 49.9726C43.5578 50.4245 43.2907 50.8352 42.9489 51.179C42.1499 51.8846 41.1092 52.2543 40.044 52.211C38.7247 52.2182 37.4376 51.8034 36.3708 51.0272H36.3702ZM43.2464 45.4891C43.2464 43.6979 41.5979 42.5448 39.9334 42.5448C39.5323 42.5211 39.1306 42.5804 38.7535 42.719C38.3764 42.8576 38.0319 43.0725 37.7416 43.3502C37.4513 43.628 37.2214 43.9627 37.0664 44.3334C36.9113 44.704 36.8344 45.1027 36.8404 45.5044C36.8449 45.9031 36.929 46.2969 37.0878 46.6626C37.2465 47.0283 37.4766 47.3587 37.7647 47.6343C38.0528 47.9099 38.393 48.1252 38.7654 48.2676C39.1378 48.41 39.5349 48.4765 39.9334 48.4634C41.5973 48.4634 43.2464 47.2796 43.2464 45.4891Z" fill="white"/>
<path d="M51.1184 42.0138H51.888V43.4558C52.1711 42.9435 52.5914 42.5202 53.1017 42.2333C53.6119 41.9465 54.192 41.8075 54.7769 41.8319C55.204 41.8013 55.6327 41.8627 56.0341 42.0118C56.4354 42.1609 56.8002 42.3944 57.1037 42.6964C57.4073 42.9984 57.6425 43.362 57.7937 43.7626C57.9448 44.1633 58.0083 44.5916 57.9799 45.0189V49.7518H57.2103V45.1553C57.2103 43.5621 56.284 42.5123 54.6675 42.5123C54.3009 42.5012 53.936 42.5649 53.5949 42.6995C53.2538 42.8342 52.9437 43.037 52.6837 43.2955C52.4236 43.554 52.2189 43.8629 52.0822 44.2031C51.9455 44.5434 51.8796 44.908 51.8886 45.2746V49.7512H51.119L51.1184 42.0138Z" fill="white"/>
<path d="M64.6216 45.883C64.6092 45.0662 64.8404 44.2641 65.2856 43.5791C65.7308 42.8941 66.3699 42.3572 67.1214 42.0367C67.8729 41.7163 68.7028 41.6268 69.5053 41.7798C70.3078 41.9327 71.0466 42.3212 71.6275 42.8956C72.2085 43.47 72.6052 44.2043 72.7673 45.0051C72.9293 45.8058 72.8492 46.6367 72.5373 47.3917C72.2254 48.1468 71.6957 48.7919 71.0158 49.2448C70.3359 49.6978 69.5365 49.938 68.7195 49.9349C68.1841 49.9389 67.6532 49.8372 67.1572 49.6356C66.6612 49.434 66.2098 49.1364 65.8291 48.76C65.4484 48.3835 65.1457 47.9356 64.9385 47.4419C64.7313 46.9482 64.6236 46.4185 64.6216 45.883ZM72.0166 45.883C72.0025 45.2364 71.7977 44.6083 71.4279 44.0776C71.0581 43.547 70.5397 43.1374 69.9379 42.9004C69.336 42.6634 68.6776 42.6094 68.0452 42.7454C67.4129 42.8813 66.8348 43.2011 66.3835 43.6645C65.9322 44.1279 65.628 44.7143 65.5089 45.35C65.3898 45.9858 65.4612 46.6425 65.7141 47.2378C65.967 47.8332 66.3902 48.3405 66.9305 48.6961C67.4708 49.0517 68.1041 49.2398 68.7509 49.2366C69.6272 49.2205 70.4617 48.8592 71.0732 48.2313C71.6847 47.6033 72.0237 46.7595 72.0166 45.883Z" fill="white"/>
<path d="M79.8164 48.7832L80.2719 48.1913C81.0935 48.8336 82.1021 49.1905 83.1448 49.2079C84.2279 49.2079 85.0761 48.632 85.0761 47.7057C85.0761 46.7954 84.0711 46.4616 82.9567 46.1579C81.653 45.7941 80.2092 45.4148 80.2092 44.0029C80.2092 42.7588 81.2922 41.8633 82.8467 41.8633C83.8536 41.883 84.836 42.1769 85.6883 42.7134L85.2796 43.3354C84.5462 42.8527 83.6924 42.5846 82.8148 42.5615C81.7157 42.5615 80.9935 43.1381 80.9935 43.9427C80.9935 44.8075 82.0772 45.1265 83.2229 45.4449C84.51 45.7941 85.861 46.2489 85.861 47.6454C85.861 49.026 84.636 49.9068 83.0951 49.9068C81.9101 49.889 80.7613 49.4958 79.814 48.7838" fill="white"/>
<path d="M93.641 47.7639V42.6954H92.4792V42.0131H93.641V39.5391H94.4105V42.0131H97.2208V42.696H94.4105V47.6889C94.4105 48.7953 95.0867 49.1911 96.0123 49.1911C96.4202 49.1881 96.8224 49.0949 97.19 48.9182V49.6165C96.7811 49.8031 96.3358 49.8963 95.8863 49.8894C94.6459 49.8894 93.6416 49.2372 93.6416 47.7651" fill="white"/>
<path d="M104.843 38.9805H105.8V39.9971H104.843V38.9805ZM104.937 42.0157H105.706V49.7555H104.937V42.0157Z" fill="white"/>
<path d="M112.398 45.8844C112.399 45.3499 112.505 44.8208 112.711 44.3276C112.916 43.8343 113.218 43.3865 113.597 43.01C113.976 42.6335 114.426 42.3356 114.921 42.1336C115.416 41.9315 115.946 41.8292 116.48 41.8325C117.085 41.8235 117.684 41.948 118.235 42.1973C118.786 42.4466 119.275 42.8144 119.667 43.2745L119.133 43.8056C118.802 43.4186 118.393 43.1053 117.933 42.8857C117.473 42.6662 116.973 42.5453 116.463 42.5307C115.589 42.5611 114.761 42.9318 114.156 43.5639C113.551 44.196 113.217 45.0394 113.225 45.9143C113.233 46.7892 113.582 47.6264 114.199 48.2473C114.815 48.8682 115.65 49.2237 116.525 49.238C117.036 49.22 117.537 49.0928 117.995 48.8651C118.452 48.6374 118.856 48.3143 119.178 47.9177L119.744 48.4033C119.348 48.8864 118.85 49.2748 118.285 49.54C117.719 49.8052 117.102 49.9404 116.478 49.9356C115.942 49.9415 115.411 49.8409 114.915 49.6397C114.42 49.4386 113.969 49.1408 113.589 48.7638C113.209 48.3868 112.908 47.938 112.703 47.4436C112.498 46.9491 112.394 46.4189 112.396 45.8837" fill="white"/>
<path d="M125.175 47.4788C125.175 45.8708 126.604 44.9586 128.676 44.9586C129.571 44.95 130.464 45.0625 131.33 45.293V44.9586C131.33 43.3955 130.34 42.5909 128.692 42.5909C127.817 42.596 126.956 42.8092 126.179 43.213L125.897 42.5608C126.783 42.131 127.754 41.9044 128.739 41.8976C129.66 41.8396 130.568 42.1448 131.267 42.7477C131.548 43.035 131.766 43.3778 131.906 43.7543C132.047 44.1307 132.107 44.5323 132.083 44.9334V49.7585H131.33V48.4677C130.975 48.9409 130.511 49.3216 129.978 49.5778C129.445 49.8339 128.858 49.9579 128.267 49.9393C126.777 49.9393 125.175 49.1205 125.175 47.4806V47.4788ZM131.345 46.8586V45.9765C130.458 45.7473 129.545 45.6303 128.629 45.628C126.933 45.628 125.991 46.3564 125.991 47.464C125.991 48.587 127.09 49.2385 128.315 49.2385C129.948 49.2385 131.345 48.268 131.345 46.8561" fill="white"/>
</svg>
