<svg width="17" height="17" viewBox="0 0 17 17" fill="none" xmlns="http://www.w3.org/2000/svg">
<path d="M16.0556 11.8056C14.8797 11.8056 13.7417 11.6167 12.6839 11.2672C12.3581 11.1633 11.985 11.2389 11.7253 11.4986L9.64754 13.5811C6.97004 12.2211 4.78364 10.0347 3.42364 7.36197L5.5014 5.27474C5.76114 5.015 5.83667 4.64197 5.73281 4.31614C5.38338 3.25838 5.19447 2.12031 5.19447 0.944474C5.19443 0.420263 4.77417 0 4.25 0H0.94443C0.425 0 0 0.420263 0 0.94443C0 9.81276 7.18724 17 16.0556 17C16.5797 17 17 16.5797 17 16.0556V12.75C17 12.2258 16.5797 11.8056 16.0556 11.8056Z" fill="black"/>
</svg>
