<svg width="21" height="21" viewBox="0 0 21 21" fill="none" xmlns="http://www.w3.org/2000/svg">
<path d="M19.8334 14.5834C18.3809 14.5834 16.975 14.35 15.6684 13.9184C15.2659 13.79 14.805 13.8834 14.4842 14.2042L11.9176 16.7767C8.61005 15.0967 5.9092 12.3959 4.2292 9.0942L6.79585 6.51585C7.1167 6.195 7.21 5.7342 7.0817 5.3317C6.65005 4.02505 6.4167 2.6192 6.4167 1.1667C6.41665 0.519148 5.8975 0 5.25 0H1.16665C0.525 0 0 0.519148 0 1.16665C0 12.1216 8.87835 21 19.8334 21C20.4809 21 21 20.4809 21 19.8334V15.75C21 15.1025 20.4809 14.5834 19.8334 14.5834Z" fill="#B90D06"/>
</svg>
