<svg width="19" height="19" viewBox="0 0 19 19" fill="none" xmlns="http://www.w3.org/2000/svg">
<path d="M18.3611 17.3889L13.3705 12.3982C14.4647 11.0863 15.125 9.40053 15.125 7.5625C15.125 3.39247 11.7325 0 7.5625 0C3.39247 0 0 3.39247 0 7.5625C0 11.7325 3.39247 15.125 7.5625 15.125C9.40053 15.125 11.0863 14.4647 12.3982 13.3705L17.3889 18.3612C17.5232 18.4955 17.6992 18.5627 17.875 18.5627C18.0508 18.5627 18.2268 18.4955 18.3611 18.3612C18.6297 18.0926 18.6297 17.6574 18.3611 17.3889ZM1.375 7.5625C1.375 4.15078 4.15044 1.375 7.5625 1.375C10.9746 1.375 13.75 4.15078 13.75 7.5625C13.75 10.9742 10.9746 13.75 7.5625 13.75C4.15044 13.75 1.375 10.9742 1.375 7.5625Z" fill="#BA0E0C"/>
</svg>
