<svg width="13" height="15" viewBox="0 0 13 15" fill="none" xmlns="http://www.w3.org/2000/svg">
<path d="M10.4033 9.54558C9.99487 9.54658 9.59247 9.64902 9.22895 9.84453C8.86543 10.04 8.5511 10.3231 8.31162 10.6706L5.05599 8.39129C5.26115 7.81675 5.26115 7.18359 5.05599 6.60906L8.31162 4.32979C8.67704 4.85009 9.20715 5.21649 9.8067 5.36315C10.4063 5.50981 11.036 5.42711 11.5827 5.12992C12.1294 4.83274 12.5573 4.34053 12.7894 3.74175C13.0216 3.14296 13.0429 2.47685 12.8494 1.86307C12.6559 1.2493 12.2604 0.728104 11.7339 0.393124C11.2073 0.0581448 10.5843 -0.0686602 9.97678 0.0354917C9.36922 0.139644 8.81694 0.467925 8.41916 0.961356C8.02137 1.45479 7.80417 2.08102 7.80656 2.72755C7.81077 2.8269 7.82031 2.92592 7.83513 3.02414L4.3354 5.47454C3.96244 5.12142 3.49999 4.88946 3.00407 4.80673C2.50815 4.724 2.00002 4.79405 1.54124 5.00841C1.08245 5.22277 0.692682 5.57224 0.419136 6.01449C0.145589 6.45674 0 6.9728 0 7.50017C0 8.02754 0.145589 8.5436 0.419136 8.98585C0.692682 9.4281 1.08245 9.77757 1.54124 9.99193C2.00002 10.2063 2.50815 10.2763 3.00407 10.1936C3.49999 10.1109 3.96244 9.87892 4.3354 9.52581L7.83513 11.9762C7.82031 12.0744 7.81077 12.1734 7.80656 12.2728C7.80656 12.8122 7.95886 13.3395 8.24419 13.7879C8.52952 14.2364 8.93507 14.586 9.40956 14.7924C9.88405 14.9988 10.4062 15.0528 10.9099 14.9476C11.4136 14.8424 11.8763 14.5826 12.2394 14.2012C12.6026 13.8198 12.8499 13.3339 12.9501 12.8048C13.0503 12.2758 12.9989 11.7275 12.8023 11.2291C12.6058 10.7308 12.273 10.3049 11.8459 10.0052C11.4189 9.70553 10.9169 9.54558 10.4033 9.54558ZM10.4033 1.36395C10.6601 1.36395 10.9111 1.44392 11.1246 1.59376C11.3381 1.74359 11.5045 1.95656 11.6028 2.20572C11.7011 2.45489 11.7268 2.72907 11.6767 2.99358C11.6266 3.25809 11.5029 3.50106 11.3214 3.69177C11.1398 3.88247 10.9084 4.01234 10.6566 4.06496C10.4047 4.11757 10.1437 4.09057 9.90642 3.98736C9.66918 3.88415 9.4664 3.70938 9.32373 3.48513C9.18107 3.26089 9.10492 2.99725 9.10492 2.72755C9.10492 2.3659 9.24171 2.01906 9.4852 1.76334C9.72869 1.50761 10.0589 1.36395 10.4033 1.36395ZM2.61313 8.86378C2.35634 8.86378 2.10531 8.7838 1.8918 8.63397C1.67828 8.48413 1.51187 8.27117 1.4136 8.022C1.31533 7.77283 1.28962 7.49866 1.33971 7.23414C1.38981 6.96963 1.51347 6.72666 1.69505 6.53596C1.87663 6.34525 2.10797 6.21538 2.35983 6.16277C2.61169 6.11015 2.87274 6.13716 3.10999 6.24036C3.34723 6.34357 3.55001 6.51835 3.69267 6.74259C3.83534 6.96684 3.91149 7.23048 3.91149 7.50017C3.91149 7.86182 3.77469 8.20866 3.5312 8.46439C3.28772 8.72011 2.95747 8.86378 2.61313 8.86378ZM10.4033 13.6364C10.1465 13.6364 9.89546 13.5564 9.68195 13.4066C9.46844 13.2567 9.30202 13.0438 9.20375 12.7946C9.10548 12.5455 9.07977 12.2713 9.12987 12.0068C9.17997 11.7422 9.30362 11.4993 9.4852 11.3086C9.66678 11.1179 9.89813 10.988 10.15 10.9354C10.4018 10.8828 10.6629 10.9098 10.9001 11.013C11.1374 11.1162 11.3402 11.291 11.4828 11.5152C11.6255 11.7395 11.7016 12.0031 11.7016 12.2728C11.7016 12.6344 11.5648 12.9813 11.3214 13.237C11.0779 13.4927 10.7476 13.6364 10.4033 13.6364Z" fill="black"/>
</svg>
