<svg width="25" height="25" viewBox="0 0 25 25" fill="none" xmlns="http://www.w3.org/2000/svg">
<path d="M12.5 25C19.4036 25 25 19.4036 25 12.5C25 5.59644 19.4036 0 12.5 0C5.59644 0 0 5.59644 0 12.5C0 19.4036 5.59644 25 12.5 25Z" fill="#665CAC"/>
<path d="M13.8159 5.92188H11.1844C9.96297 5.92188 8.79161 6.40707 7.92795 7.27073C7.0643 8.13438 6.5791 9.30575 6.5791 10.5271V12.5008C6.57874 13.3726 6.82584 14.2266 7.29169 14.9636C7.75754 15.7005 8.42299 16.29 9.21068 16.6637V18.8627C9.21147 18.9056 9.22476 18.9473 9.24892 18.9828C9.27309 19.0182 9.30708 19.0458 9.34672 19.0623C9.38636 19.0787 9.42993 19.0832 9.47209 19.0752C9.51425 19.0672 9.55315 19.0471 9.58404 19.0173L11.4952 17.1061H13.8159C15.0373 17.1061 16.2087 16.6209 17.0724 15.7572C17.936 14.8936 18.4212 13.7222 18.4212 12.5008V10.5271C18.4212 9.30575 17.936 8.13438 17.0724 7.27073C16.2087 6.40707 15.0373 5.92188 13.8159 5.92188ZM15.5396 14.5535L14.8817 15.2113C14.1811 15.8972 12.3521 15.1143 10.7403 13.4679C9.12844 11.8215 8.42121 9.97451 9.09555 9.28865L9.75344 8.63076C9.88238 8.51501 10.05 8.45182 10.2233 8.45364C10.3966 8.45547 10.5628 8.52219 10.6893 8.64062L11.6498 9.62747C11.7261 9.70619 11.7811 9.80302 11.8097 9.90885C11.8383 10.0147 11.8394 10.126 11.8131 10.2325C11.7868 10.3389 11.7339 10.4368 11.6593 10.5172C11.5847 10.5975 11.4909 10.6575 11.3867 10.6916C11.2322 10.739 11.102 10.844 11.023 10.9849C10.944 11.1258 10.9222 11.2917 10.9623 11.4482C11.1268 12.1785 12.0544 13.0929 12.7452 13.2722C12.901 13.3093 13.0649 13.2884 13.2063 13.2133C13.3477 13.1382 13.4568 13.0141 13.5133 12.8643C13.5498 12.7598 13.6126 12.6665 13.6956 12.5933C13.7786 12.5201 13.879 12.4695 13.9872 12.4464C14.0955 12.4232 14.2078 12.4284 14.3135 12.4612C14.4192 12.4941 14.5146 12.5536 14.5906 12.634L15.5495 13.6209C15.6647 13.7495 15.7275 13.9165 15.7257 14.0891C15.7239 14.2617 15.6575 14.4273 15.5396 14.5535ZM13.0988 9.04688C13.0334 9.04656 12.968 9.05041 12.9031 9.05839C12.8745 9.06152 12.8455 9.05898 12.8179 9.05093C12.7903 9.04287 12.7645 9.02944 12.742 9.01142C12.7196 8.9934 12.7009 8.97113 12.6871 8.94589C12.6732 8.92065 12.6645 8.89293 12.6613 8.86431C12.6582 8.83569 12.6607 8.80674 12.6688 8.7791C12.6769 8.75146 12.6903 8.72568 12.7083 8.70323C12.7263 8.68077 12.7486 8.66209 12.7738 8.64825C12.7991 8.6344 12.8268 8.62566 12.8554 8.62253C12.9362 8.61323 13.0175 8.60884 13.0988 8.60938C13.6809 8.60894 14.2393 8.83963 14.6514 9.25074C15.0634 9.66186 15.2953 10.2198 15.2962 10.8018C15.2967 10.8831 15.2924 10.9644 15.283 11.0452C15.2799 11.0738 15.2712 11.1016 15.2573 11.1268C15.2435 11.1521 15.2248 11.1743 15.2024 11.1923C15.1799 11.2104 15.1541 11.2238 15.1265 11.2318C15.0988 11.2399 15.0699 11.2424 15.0413 11.2393C15.0127 11.2362 14.9849 11.2274 14.9597 11.2136C14.9345 11.1997 14.9122 11.1811 14.8942 11.1586C14.8761 11.1362 14.8627 11.1104 14.8547 11.0827C14.8466 11.0551 14.8441 11.0262 14.8472 10.9975C14.8544 10.9325 14.8582 10.8672 14.8587 10.8018C14.8578 10.3358 14.672 9.88917 14.342 9.5601C14.012 9.23103 13.5649 9.04644 13.0988 9.04688ZM14.4146 10.8018C14.4099 10.8568 14.3847 10.9079 14.344 10.9452C14.3034 10.9825 14.2502 11.0032 14.1951 11.0032C14.1399 11.0032 14.0867 10.9825 14.0461 10.9452C14.0054 10.9079 13.9802 10.8568 13.9755 10.8018C13.9755 10.5693 13.8831 10.3463 13.7187 10.1819C13.5543 10.0175 13.3313 9.92516 13.0988 9.92516C13.0684 9.9278 13.0378 9.92408 13.0088 9.91424C12.9799 9.90441 12.9534 9.88867 12.9309 9.86802C12.9083 9.84737 12.8904 9.82227 12.8781 9.79431C12.8658 9.76635 12.8594 9.73614 12.8594 9.70559C12.8594 9.67505 12.8658 9.64483 12.8781 9.61687C12.8904 9.58891 12.9083 9.56381 12.9309 9.54316C12.9534 9.52252 12.9799 9.50678 13.0088 9.49694C13.0378 9.4871 13.0684 9.48338 13.0988 9.48602C13.4478 9.48602 13.7825 9.62465 14.0292 9.87141C14.276 10.1182 14.4146 10.4528 14.4146 10.8018ZM16.0873 11.514C16.0825 11.5439 16.0715 11.5725 16.0551 11.5979C16.0387 11.6234 16.0172 11.6452 15.992 11.662C15.9668 11.6788 15.9384 11.6902 15.9086 11.6955C15.8787 11.7009 15.8481 11.7 15.8187 11.693C15.7892 11.6859 15.7615 11.6729 15.7373 11.6547C15.7131 11.6365 15.6929 11.6135 15.678 11.5871C15.6631 11.5608 15.6537 11.5316 15.6506 11.5015C15.6474 11.4713 15.6505 11.4409 15.6597 11.412C15.7072 11.2132 15.7309 11.0095 15.7304 10.8051C15.7304 10.1072 15.4532 9.43781 14.9596 8.94429C14.4661 8.45077 13.7968 8.17352 13.0988 8.17352C13.0314 8.17352 12.9623 8.17352 12.8949 8.17352C12.8662 8.17568 12.8373 8.17216 12.8099 8.16316C12.7826 8.15417 12.7572 8.13986 12.7354 8.12108C12.6913 8.08314 12.6641 8.02923 12.6597 7.97122C12.6553 7.9132 12.6742 7.85583 12.7121 7.81172C12.7501 7.76761 12.804 7.74038 12.862 7.73602C12.9409 7.72944 13.0199 7.72615 13.0988 7.72615C13.9137 7.72746 14.6947 8.05208 15.2705 8.62873C15.8462 9.20539 16.1696 9.98695 16.1696 10.8018C16.1696 11.0416 16.1421 11.2805 16.0873 11.514Z" fill="white"/>
</svg>
