<svg width="26" height="25" viewBox="0 0 26 25" fill="none" xmlns="http://www.w3.org/2000/svg">
<path d="M13 25C20.1797 25 26 19.4036 26 12.5C26 5.59644 20.1797 0 13 0C5.8203 0 0 5.59644 0 12.5C0 19.4036 5.8203 25 13 25Z" fill="#4CAF50"/>
<path d="M12.9997 5.92188C11.7391 5.92234 10.5033 6.25761 9.42838 6.8907C8.35349 7.52379 7.48137 8.43009 6.90826 9.5096C6.33515 10.5891 6.08331 11.7999 6.18054 13.0083C6.27778 14.2167 6.72029 15.3758 7.45927 16.3577L6.60401 18.8018L9.23651 17.9926C10.1271 18.5575 11.1427 18.9142 12.2022 19.0344C13.2617 19.1547 14.3358 19.035 15.3386 18.6849C16.3415 18.3349 17.2453 17.7642 17.9779 17.0185C18.7105 16.2727 19.2516 15.3726 19.5579 14.3899C19.8643 13.4073 19.9274 12.3694 19.7423 11.3591C19.5571 10.3488 19.1288 9.39419 18.4916 8.57143C17.8544 7.74866 17.0259 7.08058 16.0724 6.62053C15.1188 6.16049 14.0665 5.92123 12.9997 5.92188ZM16.6362 15.2262L15.9076 15.9268C15.1412 16.6637 13.1091 15.8528 11.308 14.1176C9.50677 12.3824 8.6994 10.4334 9.42808 9.70477L10.1568 9.00411C10.2979 8.8794 10.4825 8.81019 10.6742 8.81019C10.8659 8.81019 11.0505 8.8794 11.1916 9.00411L12.2658 10.0337C12.3534 10.1156 12.4177 10.2177 12.4525 10.3303C12.4872 10.443 12.4913 10.5623 12.4644 10.6768C12.4374 10.7914 12.3803 10.8974 12.2985 10.9847C12.2167 11.0719 12.113 11.1375 11.9973 11.1752C11.8266 11.2276 11.6835 11.3413 11.5978 11.4927C11.5121 11.644 11.4904 11.8213 11.5372 11.9877C11.7287 12.7607 12.7636 13.7196 13.5316 13.9038C13.7037 13.9385 13.883 13.9124 14.0367 13.8302C14.1903 13.748 14.308 13.6153 14.3681 13.4564C14.4068 13.3435 14.4753 13.2422 14.5669 13.1624C14.6585 13.0826 14.77 13.0269 14.8906 13.0009C15.0113 12.9749 15.1368 12.9794 15.2551 13.014C15.3734 13.0486 15.4803 13.112 15.5655 13.1982L16.638 14.2311C16.7674 14.367 16.8391 14.5447 16.8388 14.7289C16.8385 14.9132 16.7662 15.0907 16.6362 15.2262Z" fill="white"/>
</svg>
