<svg width="37" height="36" viewBox="0 0 37 36" fill="none" xmlns="http://www.w3.org/2000/svg">
<path d="M20.7673 30.4388C12.4747 29.6096 6.37211 24.226 6.52613 15.8132C6.60514 11.4992 4.40252 9.54763 2.89796 8.00993C2.4672 7.56961 1.76879 7.56961 1.33796 8.00993C0.907202 8.45018 0.907202 9.16403 1.33796 9.60428C2.76538 11.0631 4.38156 12.4289 4.32034 15.7711C4.14557 25.314 11.032 31.731 20.5524 32.6829C22.916 32.9193 24.6199 33.3991 26.335 35.1519C26.79 35.6169 27.0536 35.9988 27.6205 35.9988C28.5944 35.9988 29.0975 34.7865 28.4004 34.0742C26.327 31.9548 24.7275 30.8349 20.7673 30.4388Z" fill="white"/>
<path d="M35.9112 26.3983L35.412 25.8881C33.5563 23.9914 32.8462 21.1257 32.5774 19.0557C31.3667 9.73266 25.7519 3.2189 16.6022 3.20903C14.3251 3.20657 12.6394 2.61391 11.4488 1.39709L10.4088 0.334093C9.97799 -0.106156 9.27952 -0.106156 8.84876 0.334093C8.41793 0.774414 8.41793 1.4882 8.84876 1.92845C10.3646 3.47771 11.9475 5.4589 16.5999 5.46383C24.6399 5.4725 29.3282 11.1728 30.3904 19.3523C30.8403 22.8164 32.0373 25.6277 33.852 27.4824L34.3512 27.9926C34.7819 28.4328 35.4804 28.4329 35.9112 27.9926C36.3421 27.5524 36.3421 26.8386 35.9112 26.3983Z" fill="white"/>
<path d="M28.5347 23.376C28.1086 14.205 22.8999 8.83736 13.4716 7.85357C11.841 7.6834 8.6538 5.41246 7.02803 4.02118C6.60817 3.66147 5.99353 3.67126 5.58483 4.04422C5.17606 4.41711 5.09712 5.04014 5.39944 5.50716C6.27138 6.85448 8.53432 10.799 8.53432 12.8443C8.53432 22.1415 14.4395 28.0262 23.8197 28.2256C24.9035 28.2487 26.3794 28.9459 28.0878 30.242C30.5227 32.0893 30.4577 32.6896 31.2774 32.6896C32.1597 32.6896 32.69 31.6713 32.1857 30.9227C30.8151 28.8885 28.612 25.0408 28.5347 23.376V23.376ZM25.8428 19.8979C23.8071 19.3932 22.1514 18.7383 20.8403 17.9161C21.4376 16.7801 22.173 15.3704 22.8152 14.1378C24.2712 15.6413 25.284 17.5696 25.8428 19.8979V19.8979ZM21.1552 23.965C20.9495 24.664 20.5434 25.2029 20.0097 25.489C18.7141 25.1732 17.3003 24.5542 16.2557 23.9476C16.5157 23.2605 19.7134 20.9334 20.926 21.0105C21.3304 22.0033 21.4189 23.0689 21.1552 23.965V23.965ZM17.0096 10.8132C18.5541 11.263 19.9125 11.8855 21.076 12.6783C20.4068 13.9636 19.6167 15.4777 19.0781 16.504C17.6542 15.0253 16.9754 13.1575 17.0096 10.8132V10.8132ZM15.9975 21.0908C15.9469 19.6593 16.1372 18.2005 16.5346 16.9032C17.1888 17.8453 17.9839 18.6245 18.8852 19.2911C17.8264 19.7278 16.8678 20.3426 15.9975 21.0908ZM14.8206 10.3128C14.7742 10.7863 14.7955 11.8915 14.9402 12.8302C13.5549 12.4747 12.0901 12.4732 10.7403 12.8365C10.7383 11.6005 10.2328 10.0665 9.60468 8.63633C12.3131 10.2492 13.1157 10.0199 14.8206 10.3128ZM10.8854 15.1506C11.9845 14.7651 13.4227 14.6733 14.8206 15.1381C14.0761 16.9181 13.6053 19.3967 13.8387 21.9558C12.2536 20.1967 11.2423 17.9009 10.8854 15.1506V15.1506ZM22.6904 25.912C23.4853 24.635 23.6779 23.0339 23.3815 21.5298C23.9258 21.7109 25.8166 22.2648 26.2424 22.2858C26.3797 23.6314 26.1837 24.3873 27.4688 27.1411C25.1037 25.7971 24.0265 26.0189 22.6904 25.912Z" fill="white"/>
</svg>
