<svg width="37" height="36" viewBox="0 0 37 36" fill="none" xmlns="http://www.w3.org/2000/svg">
<path d="M20.7312 35.9846C18.5565 35.9846 16.3562 35.441 15.2043 34.8786C11.7937 33.2119 11.904 29.0385 9.81572 28.3295C8.48992 27.8793 6.05554 28.5692 2.58136 30.3803C1.84979 30.7615 0.979004 30.2185 0.979004 29.3783V25.1418C0.979004 24.8007 1.13054 24.4781 1.39099 24.2645C5.48308 20.9099 9.43781 20.307 13.1455 22.4725C17.1953 24.6126 21.1988 16.1963 16.5774 9.80891C14.3502 6.85806 14.0622 3.41876 14.2129 1.05191C14.2506 0.46018 14.7315 0 15.3122 0H19.7227C20.3555 0 20.858 0.543709 20.8226 1.18803C20.7694 2.1555 20.9037 3.04415 21.2315 3.8781C28.778 -0.835567 37.1582 4.64736 36.1362 20.171C35.9777 22.8016 35.1471 25.9857 33.6537 28.546C30.8269 33.3926 25.8878 35.9845 20.7312 35.9846ZM16.129 32.8362C19.606 34.2872 24.0098 33.9907 27.5061 31.814C31.5933 29.2697 33.5332 24.8431 33.9388 20.0102C34.8054 6.79499 28.3477 1.19007 21.4841 6.41883C20.9712 6.80933 20.2401 6.67314 19.8962 6.12114C19.1455 4.91665 18.7272 3.64137 18.6299 2.24986H16.3836C16.4133 4.85886 17.126 6.77769 18.3416 8.46113C21.8803 13.3423 21.4137 19.5847 18.5894 22.9531C16.6755 25.2355 14.0668 25.6054 12.068 24.435C9.61365 22.9945 6.77273 22.9237 3.18212 25.6914V27.5823C6.49038 26.037 8.78851 25.6098 10.5108 26.1946C13.8481 27.3276 13.5435 31.5441 16.129 32.8362V32.8362Z" fill="white"/>
</svg>
