<svg width="37" height="36" viewBox="0 0 37 36" fill="none" xmlns="http://www.w3.org/2000/svg">
<path d="M27.8389 27.4855C25.8809 22.9316 18.6953 22.4878 17.4843 27.1772C17.4778 27.2025 17.4721 27.228 17.4674 27.2537C17.113 29.1673 17.3937 30.3276 17.6191 31.26C17.8583 32.2492 18.0164 32.9027 17.3736 34.4406C17.0644 35.1805 17.6081 36.0004 18.4124 36.0004H25.1744C25.7961 36.0004 26.3001 35.4965 26.3001 34.8747V33.1917C26.3001 32.2389 28.4726 30.1803 27.9022 27.6797C27.8871 27.6132 27.8658 27.5482 27.8389 27.4855V27.4855ZM24.9384 30.6827C23.988 32.4082 24.0487 32.7255 24.0487 33.7489H19.953C20.4951 31.1904 19.1664 30.5128 19.6738 27.7047C20.3424 25.2647 24.5434 25.7519 25.7256 28.2748C25.8487 29.0299 25.406 29.8338 24.9384 30.6827Z" fill="white"/>
<path d="M31.2913 19.2221C30.4364 17.9484 28.5426 17.9452 27.6856 19.2221C26.3269 21.2468 26.3268 23.8888 27.6856 25.9136C28.5404 27.1872 30.4342 27.1907 31.2913 25.9136C32.6499 23.889 32.65 21.2467 31.2913 19.2221ZM29.4884 24.5559C28.729 23.3412 28.7274 21.797 29.4884 20.5796C30.2478 21.7943 30.2495 23.3387 29.4884 24.5559Z" fill="white"/>
<path d="M1.66644 8.90004C8.55822 11.814 13.8462 15.7911 17.8326 21.0587C19.258 22.9422 21.9257 23.4129 23.9048 22.1393C25.7773 20.9342 27.397 18.7156 27.8436 16.744C28.2613 14.8999 27.1414 13.042 25.294 12.5141C18.5471 10.5866 12.7928 7.14717 8.92064 1.32979C8.52473 0.73504 7.68492 0.657434 7.18537 1.15966L1.30677 7.06915C0.745087 7.63378 0.932243 8.58954 1.66644 8.90004V8.90004ZM7.83471 3.69935C12.0515 9.38854 17.9727 12.764 24.6754 14.679C25.3745 14.8788 25.8016 15.5673 25.6477 16.2466C25.326 17.6668 24.0806 19.3487 22.6863 20.2459C21.6889 20.888 20.3454 20.6482 19.6279 19.7C15.6959 14.5043 10.592 10.5004 4.05902 7.49489L7.83471 3.69935Z" fill="white"/>
<path d="M31.4827 11.9787L16.2992 0.23533C15.8074 -0.145033 15.1004 -0.054762 14.7199 0.43705C14.3396 0.928863 14.4299 1.6359 14.9217 2.01627L30.1052 13.7597C33.1407 16.1074 34.5784 19.9681 33.7525 23.7306L31.4212 34.5632C31.27 35.2652 31.8059 35.926 32.5228 35.926C33.0418 35.926 33.5086 35.5648 33.6222 35.0369L35.9526 24.2088C36.9579 19.6292 35.2287 14.8759 31.4827 11.9787V11.9787Z" fill="white"/>
<path d="M13.8292 20.9207L2.80833 12.0985C2.32299 11.71 1.61447 11.7885 1.22595 12.2738C0.837423 12.7592 0.915874 13.4677 1.40128 13.8562L12.4222 22.6784C13.2966 23.3784 13.7968 24.4577 13.7601 25.5653L13.4531 34.8385C13.4321 35.4745 13.9416 36.0015 14.579 36.0015C15.1834 36.0015 15.6833 35.5217 15.7034 34.9129L16.0104 25.6397C16.0704 23.8263 15.2551 22.0622 13.8292 20.9207V20.9207Z" fill="white"/>
</svg>
