<svg width="40" height="40" viewBox="0 0 40 40" fill="none" xmlns="http://www.w3.org/2000/svg">
<path d="M32.8013 2.01953H16.4063C8.45106 2.01953 1.979 8.65141 1.979 16.8031V34.2615C1.979 38.4545 7.71683 39.494 9.10151 35.4545C10.3372 36.8737 12.135 37.7067 14.0135 37.7067H14.7051C16.9058 37.7067 18.6963 35.8873 18.6963 33.651V27.1501C19.9539 26.8802 21.2604 26.3363 22.4767 25.1603C23.5117 24.4026 24.3234 23.4464 24.996 22.4013C25.4302 22.9283 25.6922 23.6066 25.6922 24.3461V36.5791C25.6922 37.2019 26.189 37.7067 26.8019 37.7067C27.4147 37.7067 27.9115 37.2019 27.9115 36.5791V24.3461C27.9115 22.7551 27.2157 21.327 26.1182 20.3566C27.5036 17.4467 28.3622 14.2131 30.0656 13.0383C31.3396 12.1596 33.1046 11.3847 34.6475 10.6611C38.976 8.63097 37.5392 2.01953 32.8013 2.01953V2.01953ZM16.477 33.6509C16.477 34.6437 15.6821 35.4515 14.7051 35.4515H14.0135C12.6486 35.4515 11.3479 34.7867 10.5341 33.6732L9.975 32.9082C11.9241 27.4587 12.9627 27.6264 16.477 27.4191V33.6509ZM33.7175 8.61356C32.071 9.3856 30.2561 10.1814 28.8192 11.1724C26.4667 12.7948 25.6082 16.2092 24.1702 19.2711C23.7056 19.1325 23.2146 19.0567 22.7064 19.0567C21.5716 19.0567 20.5176 18.3867 20.0213 17.3496L19.3987 16.0489C19.8569 15.6078 20.2196 15.0664 20.4528 14.4619C21.1997 12.526 22.3732 11.2236 24.0404 10.4802C24.6016 10.2299 24.8569 9.56482 24.6107 8.99454C24.3645 8.42427 23.7101 8.16485 23.1487 8.41504C20.9474 9.39653 19.3452 11.1541 18.3866 13.6388C18.2066 14.1054 17.8853 14.4737 17.4868 14.708C15.7447 15.6331 16.1825 13.846 10.1324 15.9199C9.55175 16.119 9.23973 16.7587 9.43565 17.3487C9.59183 17.8194 10.0238 18.1163 10.487 18.1163C11.1113 18.1163 13.6683 16.8362 15.6936 17.1857C16.2789 17.2866 16.8761 17.2632 17.4457 17.1242L18.0256 18.3359C18.8909 20.1437 20.7282 21.3118 22.7065 21.3118C22.817 21.3118 22.9261 21.3185 23.0335 21.3304C22.0329 22.8268 21.1936 23.2835 20.9931 23.4813C17.7641 26.6697 13.2822 23.6172 10.241 27.4028C8.74657 29.263 7.84756 32.2559 6.99204 34.7532C6.45137 36.331 4.19833 35.9407 4.19833 34.2613V16.8031C4.19833 9.89492 9.67485 4.2747 16.4063 4.2747H32.8013C35.1922 4.2747 35.8609 7.60818 33.7175 8.61356V8.61356Z" fill="white"/>
</svg>
