<svg width="40" height="40" viewBox="0 0 40 40" fill="none" xmlns="http://www.w3.org/2000/svg">
<path d="M20.4075 24.1023V23.3767C20.4042 21.0851 20.8556 18.8157 21.7356 16.6998C20.07 18.8096 19.162 21.4181 19.1575 24.1061C19.1569 24.1933 19.1381 24.2795 19.1023 24.359C19.0665 24.4386 19.0144 24.5098 18.9493 24.568C18.7606 24.7367 18.6275 24.9588 18.5678 25.2048C18.508 25.4508 18.5244 25.7092 18.6147 25.9457C18.705 26.1823 18.865 26.3858 19.0736 26.5294C19.2821 26.673 19.5293 26.7498 19.7825 26.7498C20.0357 26.7498 20.2829 26.673 20.4914 26.5294C20.6999 26.3858 20.8599 26.1823 20.9502 25.9457C21.0406 25.7092 21.0569 25.4508 20.9972 25.2048C20.9374 24.9588 20.8043 24.7367 20.6156 24.568C20.5501 24.5093 20.4977 24.4376 20.4619 24.3573C20.426 24.2771 20.4075 24.1902 20.4075 24.1023Z" fill="#B90D06"/>
<path d="M29.1575 24.6267V25.3523C29.1575 25.4402 29.176 25.5271 29.2119 25.6073C29.2477 25.6876 29.3001 25.7593 29.3656 25.818C29.5543 25.9867 29.6874 26.2088 29.7472 26.4548C29.8069 26.7008 29.7906 26.9592 29.7002 27.1957C29.6099 27.4323 29.4499 27.6358 29.2414 27.7794C29.0329 27.923 28.7857 27.9998 28.5325 27.9998C28.2793 27.9998 28.0321 27.923 27.8236 27.7794C27.615 27.6358 27.455 27.4323 27.3647 27.1957C27.2744 26.9592 27.258 26.7008 27.3178 26.4548C27.3775 26.2088 27.5106 25.9867 27.6993 25.818C27.7644 25.7598 27.8165 25.6886 27.8523 25.609C27.8881 25.5295 27.9069 25.4433 27.9075 25.3561C27.912 22.6681 28.82 20.0596 30.4856 17.9498C29.6056 20.0657 29.1542 22.3351 29.1575 24.6267Z" fill="#B90D06"/>
<path d="M26.6768 24.783C26.5526 24.7376 26.4307 24.6859 26.3118 24.628C25.6543 24.2991 24.9337 24.1153 24.199 24.0891C23.4642 24.0629 22.7324 24.1949 22.0531 24.4761C21.9529 24.2484 21.8195 24.0367 21.6575 23.848V23.3767C21.6575 22.8292 21.6943 22.288 21.7481 21.7517H27.1675C26.8871 22.7404 26.7225 23.7582 26.6768 24.7848V24.783Z" fill="#B90D06"/>
<path fill-rule="evenodd" clip-rule="evenodd" d="M21.5931 5.41266C22.7082 5.1397 23.852 5.00163 25 5.00141C28.2163 5.00018 31.34 6.07788 33.8713 8.06205C36.4026 10.0462 38.1952 12.8222 38.9621 15.9457C39.7291 19.0692 39.4261 22.3597 38.1017 25.2906C36.7773 28.2215 34.5079 30.6234 31.6569 32.112L31.875 34.7283V39.3764H30.625V34.7802L30.4487 32.6777C29.4507 33.0882 28.4092 33.3839 27.3444 33.5589C27.5377 34.2778 27.6838 35.0085 27.7819 35.7464L28.2063 39.3139L26.9625 39.4389L26.8781 38.5927L26.5413 35.9014C26.4438 35.1598 26.2936 34.426 26.0919 33.7058C25.7313 33.7333 25.3675 33.7514 25 33.7514C24.7219 33.7514 24.4469 33.7414 24.1725 33.7258L24.375 39.3764H23.125V39.1552L22.9175 33.6014C20.7478 33.2836 18.6804 32.471 16.875 31.2264V32.2802H15.625V30.2602C14.2237 29.0527 13.067 27.5877 12.2175 25.9445C11.971 25.9982 11.7197 26.0269 11.4675 26.0302H8.23125C8.19561 26.0289 8.16011 26.0251 8.125 26.0189V26.5489C8.95102 28.6436 9.44814 30.8535 9.59875 33.1002V33.1627L9.375 39.1789V39.3764H8.125V39.1552L8.34813 33.1483C8.25984 31.9111 8.05965 30.6844 7.75 29.4833C7.61479 30.2269 7.40001 30.9537 7.10938 31.6514C6.52896 33.0073 6.14164 34.4379 5.95875 35.9014L5.5375 39.4389L4.29375 39.3139L4.37813 38.4683L4.71812 35.7464C4.91541 34.1669 5.33388 32.6231 5.96125 31.1602C6.46738 29.772 6.76723 28.3172 6.85125 26.842L6.875 26.622V25.5139C6.14829 25.1643 5.47982 24.7047 4.89313 24.1514L3.21438 21.352L4.28562 20.7089L5.93062 23.4458C6.65479 23.9817 7.4406 24.4289 8.27125 24.7777H11.4675C11.5152 24.7777 11.5626 24.7727 11.6099 24.7678C11.632 24.7655 11.6541 24.7632 11.6762 24.7614C10.5228 21.9141 10.3123 18.7721 11.0756 15.7964L9.23938 15.3883L9.51062 14.1677L11.4444 14.597C11.6888 13.9045 11.9859 13.2317 12.3331 12.5845C11.9876 12.8129 11.6047 12.9789 11.2019 13.0752L5.83188 14.3139C4.71206 14.5726 3.71226 15.2015 2.99419 16.0989C2.27613 16.9962 1.8818 18.1096 1.875 19.2589L2.5 25.3427V27.2802L1.875 34.832V39.3764H0.625V34.7802L1.25 27.2295V25.4389L0.625 19.3527V19.2902C0.625178 17.8532 1.11227 16.4588 2.00681 15.3343C2.90136 14.2098 4.15055 13.4216 5.55062 13.0983L10.9194 11.8595C11.3495 11.7602 11.7416 11.5385 12.0485 11.2212C12.3553 10.9039 12.5638 10.5046 12.6488 10.0714L12.53 7.88828L11.5112 7.16516C11.3913 7.08023 11.3054 6.95556 11.2688 6.81328L10.0188 2.03453C10.0094 1.99974 10.0031 1.96418 10 1.92828C9.95058 1.44924 9.95582 0.966135 10.0156 0.488281L11.2344 0.764531C11.2074 1.09976 11.2105 1.43674 11.2437 1.77141L12.4269 6.28266L15.36 8.36391C15.4665 8.40003 15.5752 8.42885 15.6856 8.45016C17.0171 7.31134 18.5456 6.42553 20.1956 5.83641L21.2581 1.77391C21.2913 1.43924 21.2945 1.10226 21.2675 0.767031L22.4862 0.490781C22.5452 0.967882 22.5499 1.45014 22.5 1.92828C22.4964 1.96529 22.4895 2.00189 22.4794 2.03766L21.5931 5.41266ZM14.6637 9.40328L13.8338 8.81391L13.9025 10.0783C13.905 10.1242 13.9025 10.1704 13.895 10.2158C13.893 10.2278 13.8897 10.2393 13.8865 10.2508C13.8836 10.2608 13.8808 10.2709 13.8787 10.2814C14.1281 9.97766 14.3912 9.68578 14.6637 9.40328ZM32.4513 24.0991C33.1422 24.1401 33.8176 24.3207 34.4368 24.6298L33.8756 25.7486C33.3918 25.5071 32.8629 25.3692 32.3227 25.3438C31.7826 25.3184 31.243 25.406 30.7387 25.6011C30.9335 25.9687 31.0335 26.379 31.0296 26.795C31.0258 27.2109 30.9182 27.6194 30.7166 27.9833C30.515 28.3471 30.2258 28.655 29.8752 28.8788C29.5246 29.1027 29.1236 29.2356 28.7087 29.2653C28.2938 29.2951 27.878 29.2209 27.499 29.0494C27.12 28.8779 26.7898 28.6145 26.5383 28.2832C26.2869 27.9518 26.122 27.5629 26.0588 27.1518C25.9955 26.7406 26.0359 26.3202 26.1762 25.9286C26.0331 25.8736 25.8893 25.8173 25.7518 25.7486C25.2457 25.4951 24.6903 25.355 24.1244 25.3383C23.5585 25.3216 22.9958 25.4285 22.4756 25.6517L22.2568 25.7455C22.1978 26.3748 21.9016 26.9582 21.4282 27.3771C20.9548 27.796 20.3397 28.019 19.7078 28.001C19.076 27.9829 18.4747 27.7251 18.026 27.2799C17.5772 26.8346 17.3148 26.2353 17.2918 25.6036C16.3429 25.2343 15.287 25.2516 14.3506 25.6517L13.8562 24.5011C15.0314 23.9977 16.3523 23.9513 17.56 24.3711C17.6528 24.181 17.7696 24.0035 17.9075 23.843L17.9106 23.8448C17.9276 23.1425 18.0004 22.4426 18.1281 21.7517H15.0887L15.1125 20.5017H18.4175C19.2783 17.4737 21.1905 14.8517 23.8106 13.1067C23.9322 13.0255 24.0785 12.9895 24.2239 13.005C24.3694 13.0205 24.5048 13.0865 24.6066 13.1916C24.7084 13.2966 24.7701 13.434 24.781 13.5799C24.7919 13.7258 24.7512 13.8708 24.6662 13.9898C23.2793 15.9297 22.3422 18.1542 21.9231 20.5017H27.5893C28.5821 17.995 30.3164 15.8511 32.5606 14.3567C32.6822 14.2755 32.8285 14.2395 32.9739 14.255C33.1194 14.2705 33.2548 14.3365 33.3566 14.4416C33.4584 14.5466 33.5201 14.684 33.531 14.8299C33.5419 14.9758 33.5012 15.1208 33.4162 15.2398C32.2815 16.8295 31.4458 18.6126 30.95 20.5017H34.3537L34.0943 21.7517H30.6731C30.5156 22.623 30.4299 23.5058 30.4168 24.3911C31.0683 24.1574 31.7604 24.058 32.4513 24.0991Z" fill="#B90D06"/>
<path d="M15.625 33.5302H16.875V37.9052H15.625V33.5302Z" fill="#B90D06"/>
</svg>
