<svg width="40" height="40" viewBox="0 0 40 40" fill="none" xmlns="http://www.w3.org/2000/svg">
<path d="M18.9331 12.9433C19.0503 13.0605 19.2092 13.1263 19.375 13.1263C20.038 13.1263 20.6739 13.3897 21.1428 13.8586C21.6116 14.3274 21.875 14.9633 21.875 15.6263V16.8138C22.3281 16.7209 22.7549 16.5288 23.125 16.2513L24.375 15.3138V8.75134C24.375 8.58558 24.3092 8.42661 24.1919 8.3094C24.0747 8.19219 23.9158 8.12634 23.75 8.12634C23.5842 8.12634 23.4253 8.19219 23.3081 8.3094C23.1908 8.42661 23.125 8.58558 23.125 8.75134V11.2513C23.125 11.4171 23.0592 11.5761 22.9419 11.6933C22.8247 11.8105 22.6658 11.8763 22.5 11.8763H19.375C19.2092 11.8763 19.0503 11.9422 18.9331 12.0594C18.8158 12.1766 18.75 12.3356 18.75 12.5013C18.75 12.6671 18.8158 12.8261 18.9331 12.9433Z" fill="#B90D06"/>
<path d="M30 22.6476V19.2182C29.9992 18.4319 29.6866 17.6781 29.1308 17.1219C28.575 16.5657 27.8213 16.2527 27.035 16.2513H25.21L25.085 16.3438L26.0481 18.7513H28.125V20.0013H25.9594L24.8969 21.5982L23.8569 20.9045L24.9244 19.3032L24.0494 17.1207L23.875 17.2513C23.2873 17.6882 22.5999 17.9713 21.875 18.0751V22.1313C21.8754 22.6687 22.0214 23.196 22.2975 23.657L23.83 26.2107L25.8194 25.7138L26.3156 24.7207L27.4344 25.2795L27.1313 25.8851L28.3225 26.282L27.9275 27.4695L26.225 26.902L24.5044 27.332C24.8414 27.8839 25.3496 28.3105 25.9515 28.5469C26.5535 28.7832 27.2162 28.8162 27.8387 28.6409C28.4611 28.4657 29.0092 28.0917 29.3994 27.576C29.7896 27.0603 30.0005 26.4311 30 25.7845V24.1051L27.4725 22.5888L26.5294 23.0607L25.9706 21.942L27.2206 21.317C27.3147 21.27 27.4192 21.2476 27.5243 21.2517C27.6294 21.2559 27.7318 21.2865 27.8219 21.3407L30 22.6476Z" fill="#B90D06"/>
<path d="M27.5 12.5013H30C30.1658 12.5013 30.3247 12.4355 30.4419 12.3183C30.5592 12.2011 30.625 12.0421 30.625 11.8763C30.625 11.7106 30.5592 11.5516 30.4419 11.4344C30.3247 11.3172 30.1658 11.2513 30 11.2513H25.625V15.0013H26.3869L26.8937 12.9745C26.9276 12.8393 27.0057 12.7193 27.1155 12.6336C27.2253 12.5479 27.3607 12.5013 27.5 12.5013Z" fill="#B90D06"/>
<path fill-rule="evenodd" clip-rule="evenodd" d="M21.5931 5.41266C22.7082 5.1397 23.852 5.00163 25 5.00141C28.2163 5.00018 31.34 6.07788 33.8713 8.06205C36.4026 10.0462 38.1952 12.8222 38.9621 15.9457C39.7291 19.0692 39.4261 22.3597 38.1017 25.2906C36.7773 28.2215 34.5079 30.6234 31.6569 32.112L31.875 34.7289V39.3764H30.625V34.7808L30.4487 32.6777C29.4507 33.0882 28.4092 33.3839 27.3444 33.5589C27.5378 34.2777 27.684 35.0085 27.7819 35.7464L28.2063 39.3139L26.9625 39.4389L26.8781 38.5933L26.5413 35.9014C26.4436 35.1598 26.2935 34.4261 26.0919 33.7058C25.7306 33.7333 25.3675 33.7514 25 33.7514C24.7219 33.7514 24.4469 33.7414 24.1725 33.7258L24.375 39.3764H23.125V39.1558L22.9175 33.6014C20.7478 33.2836 18.6804 32.471 16.875 31.2264V32.2808H15.625V30.2602C14.2237 29.0527 13.067 27.5877 12.2175 25.9445C11.9711 25.9987 11.7198 26.0276 11.4675 26.0308H8.23125C8.1956 26.0293 8.1601 26.0253 8.125 26.0189V26.5495C8.95073 28.6439 9.44785 30.8533 9.59875 33.0995V33.162L9.375 39.1789V39.3764H8.125V39.1558L8.34813 33.1483C8.25933 31.9111 8.05914 30.6845 7.75 29.4833C7.61479 30.2269 7.40001 30.9537 7.10938 31.6514C6.5288 33.0072 6.14148 34.4379 5.95875 35.9014L5.5375 39.4389L4.29375 39.3139L4.37813 38.4683L4.71812 35.7464C4.91541 34.1669 5.33388 32.6231 5.96125 31.1602C6.46725 29.7724 6.7671 28.318 6.85125 26.8433L6.875 26.622V25.5145C6.14804 25.1645 5.47953 24.7043 4.89313 24.1502L3.21438 21.3527L4.28562 20.7089L5.93062 23.4483C6.65492 23.9842 7.44071 24.4315 8.27125 24.7808H11.4675C11.5172 24.7808 11.5665 24.7754 11.6158 24.7701C11.636 24.7679 11.6561 24.7657 11.6762 24.7639C10.5228 21.9166 10.3123 18.7746 11.0756 15.7989L9.23938 15.3908L9.51062 14.1708L11.4437 14.6002C11.6883 13.9073 11.9856 13.2343 12.3331 12.587C11.9878 12.8159 11.6049 12.9819 11.2019 13.0777L5.83188 14.317C4.71226 14.5752 3.71252 15.2036 2.99443 16.1006C2.27634 16.9975 1.88192 18.1106 1.875 19.2595L2.5 25.3433V27.2808L1.875 34.8327V39.3764H0.625V34.7808L1.25 27.2302V25.4389L0.625 19.3527V19.2902C0.624982 17.8533 1.11201 16.4588 2.0066 15.3343C2.90119 14.2099 4.1505 13.4219 5.55062 13.0989L10.9187 11.8595C11.349 11.7604 11.7413 11.5387 12.0483 11.2214C12.3553 10.9041 12.5638 10.5047 12.6488 10.0714L12.53 7.88828L11.5112 7.16516C11.3914 7.08046 11.3055 6.956 11.2688 6.81391L10.0188 2.03453C10.0094 1.99973 10.0032 1.96417 10 1.92828C9.95058 1.44924 9.95582 0.966135 10.0156 0.488281L11.2344 0.764531C11.2074 1.09997 11.2105 1.43715 11.2437 1.77203L12.4269 6.28266L15.36 8.36391C15.4663 8.40026 15.5752 8.42887 15.6856 8.44953C17.0174 7.3113 18.5458 6.42575 20.1956 5.83641L21.2581 1.77391C21.2913 1.43924 21.2945 1.10226 21.2675 0.767031L22.4862 0.490781C22.5452 0.967882 22.5499 1.45014 22.5 1.92828C22.4964 1.96529 22.4895 2.00189 22.4794 2.03766L21.5931 5.41266ZM14.6637 9.40328L13.8338 8.81391L13.9025 10.0783C13.905 10.124 13.9025 10.1699 13.895 10.2152C13.8931 10.2264 13.89 10.2375 13.8869 10.2486C13.8837 10.2597 13.8806 10.2708 13.8787 10.282C14.1275 9.97766 14.3912 9.68578 14.6637 9.40328ZM25.625 10.0013H30C30.4973 10.0013 30.9742 10.1989 31.3258 10.5505C31.6775 10.9021 31.875 11.3791 31.875 11.8763C31.875 12.3736 31.6775 12.8505 31.3258 13.2022C30.9742 13.5538 30.4973 13.7513 30 13.7513H27.9881L27.6625 15.0538C28.6595 15.2047 29.5694 15.7077 30.2275 16.4716C30.8856 17.2355 31.2484 18.2099 31.25 19.2182V25.7845C31.2502 26.7067 30.9481 27.6035 30.3899 28.3376C29.8317 29.0717 29.0483 29.6025 28.1595 29.8488C27.2708 30.095 26.3259 30.0431 25.4695 29.7009C24.6131 29.3588 23.8925 28.7453 23.4181 27.9545L21.2256 24.3007C20.8328 23.6453 20.6253 22.8955 20.625 22.1313V15.6263C20.625 15.2948 20.4933 14.9769 20.2589 14.7425C20.0245 14.508 19.7065 14.3763 19.375 14.3763C18.8777 14.3763 18.4008 14.1788 18.0492 13.8272C17.6975 13.4755 17.5 12.9986 17.5 12.5013C17.5 12.0041 17.6975 11.5271 18.0492 11.1755C18.4008 10.8239 18.8777 10.6263 19.375 10.6263H21.875V8.75134C21.875 8.25406 22.0725 7.77715 22.4242 7.42552C22.7758 7.07389 23.2527 6.87634 23.75 6.87634C24.2473 6.87634 24.7242 7.07389 25.0758 7.42552C25.4275 7.77715 25.625 8.25406 25.625 8.75134V10.0013Z" fill="#B90D06"/>
<path d="M16.875 33.5308H15.625V37.9058H16.875V33.5308Z" fill="#B90D06"/>
</svg>
