<svg width="40" height="40" viewBox="0 0 40 40" fill="none" xmlns="http://www.w3.org/2000/svg">
<path d="M4.375 20.0016L3.75 27.5534V39.3766H2.5V27.5016L3.125 19.9497V18.1591L2.5 12.0116C2.49984 10.5746 2.98681 9.17994 3.8814 8.05537C4.776 6.93079 6.02539 6.14268 7.42562 5.81969L12.7956 4.58031C13.2128 4.48382 13.5945 4.27227 13.8975 3.96969C14.0325 3.85855 14.1442 3.72183 14.2261 3.56737C14.3081 3.41291 14.3587 3.24377 14.375 3.06969L14.4094 0.617188L15.6594 0.634688L15.6163 3.22844C15.5472 3.85421 15.2502 4.43266 14.7819 4.85344C14.3134 5.32212 13.7226 5.64959 13.0769 5.79844L7.70625 7.03781C6.58665 7.29613 5.58697 7.92469 4.86899 8.82176C4.15101 9.71884 3.75675 10.8319 3.75 11.9809L4.375 18.1266V20.0016Z" fill="#B90D06"/>
<path d="M16.6911 23.5694C16.4087 23.8523 16.2501 24.2357 16.2501 24.6354V26.206C16.2432 26.3357 16.2752 26.4645 16.342 26.5758C16.4089 26.6872 16.5074 26.776 16.6251 26.831C16.7397 26.8806 16.8667 26.8944 16.9894 26.8707C17.112 26.8469 17.2247 26.7867 17.3126 26.6979C17.3755 26.6394 17.4249 26.5679 17.4573 26.4883C17.4897 26.4088 17.5043 26.3231 17.5001 26.2373C17.4908 26.0019 17.5297 25.7672 17.6144 25.5474C17.6991 25.3276 17.8278 25.1274 17.9926 24.9591C18.1701 24.7752 18.3828 24.6289 18.6181 24.5288C18.8533 24.4287 19.1063 24.377 19.3619 24.3766H20.1626C20.2926 24.3761 20.4196 24.4162 20.5258 24.4912C20.632 24.5663 20.7121 24.6726 20.7551 24.7954C20.8921 25.1811 21.1345 25.5207 21.455 25.7755C21.7754 26.0303 22.1609 26.1901 22.5676 26.2366C22.6488 26.2468 22.7307 26.2518 22.8126 26.2516H26.5626C27.4739 26.2506 28.3477 25.8882 28.9921 25.2437C29.6366 24.5993 29.9991 23.7255 30.0001 22.8141V15.9391C30.0051 15.1487 29.7348 14.3812 29.2358 13.7683C28.7367 13.1554 28.0398 12.7353 27.2648 12.5801C26.4898 12.4249 25.6849 12.5442 24.9883 12.9176C24.2917 13.2911 23.7467 13.8953 23.4469 14.6266C23.3984 14.7379 23.3184 14.8327 23.2168 14.8993C23.1153 14.9659 22.9965 15.0014 22.8751 15.0016H20.6251C20.4593 15.0016 20.3003 14.9358 20.1831 14.8186C20.0659 14.7014 20.0001 14.5424 20.0001 14.3766V13.1985C20.0065 13.0335 19.9523 12.8717 19.8478 12.7439C19.7433 12.616 19.5956 12.5307 19.4326 12.5041C19.3426 12.4941 19.2516 12.5049 19.1666 12.5357C19.0815 12.5665 19.0046 12.6164 18.9419 12.6816C18.8812 12.7387 18.8329 12.8077 18.7999 12.8842C18.7669 12.9608 18.7499 13.0433 18.7501 13.1266V15.8079C18.7498 15.8662 18.7611 15.924 18.7833 15.978C18.8055 16.0319 18.8382 16.081 18.8795 16.1222C18.9207 16.1635 18.9697 16.1961 19.0237 16.2184C19.0776 16.2406 19.1355 16.2519 19.1938 16.2516H22.5001C22.6658 16.2516 22.8248 16.3175 22.942 16.4347C23.0592 16.5519 23.1251 16.7109 23.1251 16.8766V18.3223C23.1085 19.1069 22.9369 19.8805 22.6202 20.5985C22.3034 21.3165 21.8478 21.9648 21.2794 22.506C21.1734 22.6104 21.0782 22.7251 20.9951 22.8485C20.938 22.9341 20.8606 23.0042 20.7699 23.0527C20.6792 23.1013 20.5779 23.1266 20.4751 23.1266H17.7563C17.3566 23.1273 16.9735 23.2865 16.6911 23.5694Z" fill="#B90D06"/>
<path fill-rule="evenodd" clip-rule="evenodd" d="M11.1144 8.11156L11.3856 6.89156L14.82 7.65469C17.71 5.60138 21.2571 4.68924 24.7791 5.09375C28.3011 5.49826 31.5491 7.19083 33.8983 9.84587C36.2476 12.5009 37.532 15.9309 37.5046 19.4759C37.4772 23.0209 36.1399 26.4306 33.75 29.0491V39.3766H32.5V30.2603C31.7522 30.9067 30.94 31.4747 30.0763 31.9553L30.625 37.4391C30.6194 37.5256 30.6313 37.6123 30.66 37.6941C30.6886 37.776 30.7334 37.8512 30.7917 37.9153C30.85 37.9795 30.9207 38.0312 30.9994 38.0675C31.0781 38.1038 31.1634 38.1239 31.25 38.1266H31.875V39.3766H30.625V39.2697C30.2597 39.1399 29.9434 38.9004 29.7197 38.5838C29.4959 38.2673 29.3755 37.8892 29.375 37.5016L28.875 32.5472C28.0298 32.9175 27.1507 33.2049 26.25 33.4053V39.3766H25V36.5497L20.7681 38.2428C20.1225 38.5002 19.4425 38.6615 18.75 38.7216V39.3766H17.5V38.7216C16.8076 38.6619 16.1279 38.5005 15.4825 38.2428L11.25 36.5497V39.3766H10V31.8778H10.0056V31.8572C10.0271 31.184 10.0522 30.4139 10.0771 29.6481L10.0775 29.6379C10.1351 27.8691 10.1919 26.1256 10.2019 25.6578C9.84981 24.9337 9.55981 24.181 9.335 23.4078C9.23772 23.7353 9.12255 24.0573 8.99 24.3722C8.40858 25.7278 8.02082 27.1585 7.83813 28.6222L7.5 31.3291L6.875 37.5641C6.86754 37.9425 6.74349 38.3095 6.51978 38.6148C6.29607 38.9202 5.9836 39.1491 5.625 39.2703V39.3766H4.375V38.1266H5C5.16576 38.1266 5.32473 38.0607 5.44194 37.9435C5.55915 37.8263 5.625 37.6673 5.625 37.5016L6.25312 31.1891L6.59375 28.4684C6.79088 26.8889 7.20936 25.345 7.83687 23.8822C8.34386 22.4921 8.64394 21.0351 8.7275 19.5578L8.75187 19.3341C8.7525 19.0528 8.76313 18.7741 8.78 18.4972C8.10506 18.1711 7.49097 17.7319 6.96437 17.1984L5.08937 14.0734L6.16063 13.4297L8.01312 16.5172C8.30234 16.7437 8.6075 16.949 8.92625 17.1316C9.44669 13.8556 11.0848 10.8607 13.5625 8.65531L11.1144 8.11156ZM20.3037 37.0822L25 35.2034V33.6266C22.4024 33.9737 19.7594 33.601 17.3591 32.549C14.9588 31.497 12.8934 29.8062 11.3881 27.6609C11.3613 28.5166 11.3225 29.7016 11.2669 31.3766L13.3537 31.8291C13.9318 31.994 14.5177 32.1298 15.1094 32.2359L14.8906 33.4659C14.27 33.3559 13.6554 33.2138 13.0494 33.0403L11.25 32.6509V35.2034L15.9475 37.0822C16.6386 37.3639 17.3787 37.5062 18.125 37.5009H18.1287C18.8738 37.5014 19.6121 37.3593 20.3037 37.0822ZM16.8819 28.1266C16.6459 28.1261 16.4119 28.0838 16.1907 28.0016C15.8338 27.8588 15.5287 27.6108 15.3161 27.2905C15.1034 26.9703 14.9932 26.5929 15.0001 26.2085V24.6354C14.9997 23.9039 15.2899 23.2022 15.8067 22.6845C16.3236 22.1668 17.0248 21.8756 17.7563 21.8748H20.1626C20.2317 21.7918 20.3053 21.7112 20.3832 21.6329C20.838 21.2064 21.204 20.6942 21.46 20.1257C21.7161 19.5572 21.8571 18.9436 21.8751 18.3204V17.5016H19.1938C18.9713 17.502 18.7509 17.4584 18.5452 17.3734C18.3396 17.2884 18.1528 17.1636 17.9954 17.0063C17.8381 16.8489 17.7133 16.6621 17.6283 16.4564C17.5433 16.2508 17.4997 16.0304 17.5001 15.8079V13.1266C17.5015 12.8671 17.5566 12.6107 17.6618 12.3734C17.767 12.1362 17.92 11.9232 18.1114 11.7479C18.3027 11.5725 18.5282 11.4386 18.7737 11.3545C19.0193 11.2704 19.2795 11.2379 19.5382 11.2591C20.0132 11.3119 20.4515 11.5394 20.768 11.8976C21.0844 12.2557 21.2562 12.7188 21.2501 13.1966V13.7516H22.4863C22.9677 12.8256 23.7471 12.0887 24.6987 11.6599C25.6502 11.2311 26.7185 11.1354 27.7311 11.3881C28.7438 11.6409 29.6418 12.2274 30.2802 13.0531C30.9186 13.8788 31.2603 14.8955 31.2501 15.9391V22.8141C31.2487 24.0569 30.7544 25.2484 29.8757 26.1272C28.9969 27.006 27.8054 27.5003 26.5626 27.5016H22.8126C22.6816 27.5018 22.5507 27.4939 22.4207 27.4779C21.8574 27.4135 21.3188 27.2107 20.8528 26.8877C20.3868 26.5647 20.008 26.1315 19.7501 25.6266H19.3619C19.2747 25.6277 19.1885 25.646 19.1084 25.6806C19.0283 25.7151 18.9558 25.7652 18.8951 25.8279C18.8475 25.875 18.8101 25.9314 18.7851 25.9935C18.7602 26.0556 18.7483 26.1222 18.7501 26.1891C18.7572 26.4397 18.7143 26.6891 18.6238 26.9229C18.5333 27.1567 18.3971 27.37 18.2231 27.5505C18.0492 27.7309 17.8409 27.8748 17.6106 27.9737C17.3803 28.0727 17.1326 28.1247 16.8819 28.1266Z" fill="#B90D06"/>
<path d="M20.6337 3.23031C20.6714 3.49643 20.7428 3.75665 20.8463 4.00469L21.9894 3.49844C21.9341 3.36044 21.8957 3.21627 21.875 3.06906L21.8412 0.617812L20.5912 0.635312L20.625 3.13531L20.6337 3.23031Z" fill="#B90D06"/>
<path d="M18.4044 5.56094C18.3176 5.60419 18.222 5.62665 18.125 5.62656C18.0283 5.62762 17.9327 5.60623 17.8456 5.56406L16.5956 4.93906L17.1544 3.81719L18.125 4.30281L19.0956 3.81719L19.6544 4.93594L18.4044 5.56094Z" fill="#B90D06"/>
</svg>
