<svg width="40" height="40" viewBox="0 0 40 40" fill="none" xmlns="http://www.w3.org/2000/svg">
<path d="M19.375 0.617188H18.125V2.49844H19.375V0.617188Z" fill="#B90D06"/>
<path d="M23.75 11.7534H23.125V21.1284H23.75V11.7534Z" fill="#B90D06"/>
<path d="M23.125 25.5034H23.75V24.2534H23.125V25.5034Z" fill="#B90D06"/>
<path d="M22.5 23.0034H24.375C24.4071 23.0072 24.4388 23.0134 24.47 23.0222L24.0406 22.3784H22.8343L22.405 23.0222C22.4361 23.0134 22.4678 23.0072 22.5 23.0034Z" fill="#B90D06"/>
<path fill-rule="evenodd" clip-rule="evenodd" d="M34.375 1.30281L33.75 8.43594C35.6245 10.2499 36.9697 12.54 37.6411 15.0605C38.3126 17.5811 38.285 20.2369 37.5614 22.743C36.8377 25.249 35.4453 27.5107 33.5336 29.2853C31.6218 31.06 29.2629 32.2805 26.71 32.8159L26.25 38.7966L25 38.7009L25.4375 33.0209C24.8775 33.0879 24.314 33.1221 23.75 33.1234C22.265 33.1242 20.789 32.8937 19.375 32.4403V39.3734H18.125V31.9759C15.7446 30.9574 13.6815 29.3182 12.1512 27.2297L12.5 38.7297L11.25 38.7672L10.8362 25.0528C9.88323 23.1041 9.3843 20.9648 9.37694 18.7955C9.36957 16.6263 9.85398 14.4836 10.7938 12.5284C10.625 11.7847 10.4412 11.0366 10.25 10.3353C10.1144 11.0771 9.89988 11.8023 9.61 12.4984C9.02911 13.8527 8.64136 15.2819 8.45813 16.7441C8.45502 16.7682 8.45064 16.7922 8.445 16.8159L6.88812 23.1478L7.28562 25.5378C7.34888 25.9167 7.28065 26.3059 7.09228 26.6407C6.9039 26.9755 6.6067 27.2358 6.25 27.3784V29.0609C6.25 29.6411 6.01953 30.1975 5.6093 30.6077C5.19906 31.018 4.64266 31.2484 4.0625 31.2484C3.48234 31.2484 2.92594 31.018 2.5157 30.6077C2.10547 30.1975 1.875 29.6411 1.875 29.0609V23.3541C1.8756 18.1943 2.50525 13.0539 3.75 8.04656V6.32531L2.51875 1.39969L3.73125 1.09719L4.98125 6.09719C4.99375 6.14663 5.00005 6.19744 5 6.24844V8.12344C5.00005 8.17444 4.99375 8.22524 4.98125 8.27469C3.74899 13.2065 3.12559 18.2707 3.125 23.3541V29.0609C3.125 29.3096 3.22377 29.548 3.39959 29.7239C3.5754 29.8997 3.81386 29.9984 4.0625 29.9984C4.31114 29.9984 4.5496 29.8997 4.72541 29.7239C4.90123 29.548 5 29.3096 5 29.0609V26.8734C5 26.7077 5.06585 26.5487 5.18306 26.4315C5.30027 26.3143 5.45924 26.2484 5.625 26.2484C5.68817 26.2484 5.75057 26.2346 5.80785 26.208C5.86514 26.1814 5.91593 26.1426 5.95669 26.0943C5.99745 26.0461 6.02719 25.9895 6.04384 25.9286C6.0605 25.8677 6.06367 25.8038 6.05313 25.7416L5.63375 23.2241C5.61962 23.141 5.62282 23.0559 5.64313 22.9741L7.2225 16.5516C7.42214 14.9849 7.83907 13.4538 8.46125 12.0022C8.96799 10.6123 9.26806 9.15549 9.35188 7.67844L9.375 7.46406V6.46406C8.71155 6.20164 8.10518 5.81324 7.58937 5.32031L5.71437 2.19531L6.78688 1.55281L8.625 4.61531C9.25143 5.03811 9.93054 5.37703 10.645 5.62344H13.75C14.2764 5.62225 14.7892 5.45613 15.2163 5.14844L17.0581 3.30656L17.9412 4.19031L16.0662 6.06531C16.0454 6.086 16.0232 6.10541 16 6.12344C15.3501 6.6087 14.5611 6.87169 13.75 6.87344H10.625V7.38531C11.0476 8.54602 11.4055 9.7293 11.6969 10.9297C13.6429 7.9346 16.6309 5.76795 20.0825 4.84906L19.5163 4.15594L20.4837 3.36531L21.4594 4.56094C23.7125 4.19468 26.0206 4.3721 28.1912 5.07844C28.9069 4.51594 29.3519 4.14094 29.4825 4.01594L30.6888 1.59406L31.8075 2.15281L30.5575 4.65281L30.5569 4.65373C30.4815 4.77839 30.4098 4.89703 29.5444 5.59781C30.6287 6.07832 31.6495 6.69087 32.5837 7.42156L33.125 1.19406L34.375 1.30281ZM27.1218 24.2534C28.4678 24.2547 29.7839 23.8562 30.9031 23.1084L31.5956 24.1453C30.4098 24.9361 29.0352 25.3974 27.6125 25.4822L28.1125 26.2322C28.2575 26.4418 28.4658 26.5996 28.7069 26.6823C28.948 26.7651 29.2092 26.7685 29.4525 26.6922L31.0525 26.1584L31.4475 27.3459L29.8487 27.8791C29.3456 28.047 28.8013 28.0448 28.2995 27.8728C27.7978 27.7008 27.3667 27.3685 27.0725 26.9272L25 23.8178V26.1303C25 26.2961 24.9341 26.455 24.8169 26.5723C24.6997 26.6895 24.5407 26.7553 24.375 26.7553H22.5C22.3342 26.7553 22.1752 26.6895 22.058 26.5723C21.9408 26.455 21.875 26.2961 21.875 26.1303V23.8178L19.8012 26.9284C19.5069 27.3698 19.0756 27.7021 18.5738 27.8741C18.072 28.0461 17.5275 28.0483 17.0243 27.8803L15.4262 27.3472L15.8212 26.1597L17.4206 26.6934C17.6639 26.7696 17.9252 26.7661 18.1664 26.6834C18.4075 26.6006 18.6159 26.443 18.7612 26.2334L19.2612 25.4834C17.8385 25.3987 16.4638 24.9373 15.2781 24.1466L15.9718 23.1066C17.091 23.8543 18.4071 24.2528 19.7531 24.2516H20.0825L21.875 21.5641V21.0459L19.5581 22.5866C19.2438 22.7963 18.8853 22.9306 18.5106 22.9792C18.1359 23.0278 17.755 22.9892 17.3976 22.8666C17.0402 22.744 16.716 22.5405 16.45 22.2721C16.1841 22.0037 15.9837 21.6776 15.8643 21.3191L15.6575 20.6972L16.845 20.3016L17.0525 20.9266C17.1109 21.1025 17.2092 21.2627 17.3396 21.3945C17.47 21.5264 17.629 21.6264 17.8043 21.6868C17.9796 21.7473 18.1665 21.7665 18.3504 21.7431C18.5344 21.7196 18.7104 21.6541 18.865 21.5516L21.875 19.5447V18.4822L20.2087 19.4847C19.7571 19.7555 19.238 19.8926 18.7116 19.8801C18.1852 19.8676 17.6732 19.706 17.235 19.4141L15.9031 18.5259L16.5968 17.4859L17.9287 18.3734C18.1713 18.5309 18.4528 18.6179 18.7419 18.6249C19.031 18.6318 19.3163 18.5584 19.5662 18.4128L21.875 17.0272V16.4984C21.4875 16.6939 21.0697 16.822 20.6393 16.8772C20.593 16.8768 20.5469 16.8713 20.5018 16.8609L17.9881 16.4009C17.495 16.2986 17.0525 16.0289 16.7357 15.6374C16.4189 15.246 16.2472 14.757 16.25 14.2534H17.5C17.4983 14.4661 17.569 14.6729 17.7004 14.8401C17.8318 15.0073 18.0161 15.1248 18.2231 15.1734L20.6481 15.6172C21.0651 15.4778 21.4747 15.3167 21.875 15.1347V13.9241L20.8556 14.3291C20.7794 14.3584 20.6985 14.3734 20.6168 14.3734C19.9227 14.2675 19.2471 14.064 18.61 13.7691C18.3147 13.6864 18.0513 13.5163 17.8545 13.2812C17.6577 13.046 17.5367 12.7568 17.5074 12.4516C17.4781 12.1463 17.5419 11.8394 17.6904 11.5711C17.8389 11.3028 18.0651 11.0857 18.3393 10.9484L19.0956 10.5697L19.6543 11.6878L18.8981 12.0666C18.8493 12.0913 18.8093 12.1303 18.7833 12.1784C18.7573 12.2264 18.7466 12.2813 18.7526 12.3356C18.7586 12.3899 18.7809 12.4411 18.8168 12.4824C18.8526 12.5236 18.9001 12.553 18.9531 12.5666C18.9769 12.5723 19.0002 12.5796 19.0231 12.5884C19.5812 12.7966 20.2656 13.0366 20.5443 13.1091L21.875 12.5791V11.6159L20.4781 11.2672C20.1719 11.1909 19.8987 11.0172 19.6997 10.7723C19.5007 10.5274 19.3866 10.2245 19.3746 9.9092C19.3625 9.59387 19.4532 9.28315 19.6329 9.02378C19.8126 8.7644 20.0717 8.5704 20.3712 8.47094L21.1875 8.19844C21.4445 8.11164 21.7208 8.09871 21.9849 8.16114C22.2489 8.22357 22.4902 8.35883 22.6812 8.55156L22.9412 8.81094L22.0587 9.69594L21.7975 9.43531C21.77 9.4079 21.7355 9.38866 21.6978 9.37972C21.66 9.37078 21.6205 9.3725 21.5837 9.38469L20.7675 9.65656C20.7246 9.67057 20.6875 9.69816 20.6617 9.73516C20.6359 9.77215 20.6229 9.81653 20.6246 9.8616C20.6263 9.90666 20.6426 9.94994 20.6711 9.98489C20.6996 10.0198 20.7387 10.0446 20.7825 10.0553L22.5756 10.5034H24.3012L26.095 10.0553C26.1385 10.0444 26.1773 10.0196 26.2056 9.98473C26.2339 9.94985 26.2501 9.90674 26.2518 9.86188C26.2534 9.81701 26.2405 9.7728 26.215 9.7359C26.1894 9.69899 26.1526 9.67137 26.11 9.65719L25.2924 9.38406C25.2559 9.37245 25.2169 9.37097 25.1796 9.37977C25.1423 9.38858 25.1081 9.40734 25.0806 9.43406L24.8181 9.69594L23.9356 8.81094L24.1968 8.55031C24.3875 8.35814 24.6283 8.22326 24.8917 8.16096C25.1552 8.09865 25.4309 8.11142 25.6875 8.19781L26.5031 8.47156C26.8023 8.5712 27.0611 8.76523 27.2406 9.02452C27.4201 9.2838 27.5107 9.59434 27.4986 9.90948C27.4866 10.2246 27.3726 10.5273 27.1738 10.7722C26.975 11.017 26.7022 11.1907 26.3962 11.2672L25 11.6159V12.5791L26.3318 13.1066C26.6118 13.0341 27.295 12.7972 27.8512 12.5866C27.8743 12.5779 27.8979 12.5705 27.9218 12.5647C27.9748 12.5511 28.0223 12.5218 28.0581 12.4805C28.094 12.4392 28.1163 12.388 28.1223 12.3337C28.1283 12.2794 28.1176 12.2246 28.0916 12.1765C28.0656 12.1284 28.0256 12.0894 27.9768 12.0647L27.2206 11.6859L27.7793 10.5691L28.5356 10.9478C28.8098 11.0851 29.036 11.3021 29.1845 11.5704C29.333 11.8387 29.3968 12.1457 29.3675 12.4509C29.3382 12.7562 29.2172 13.0454 29.0204 13.2806C28.8236 13.5157 28.5602 13.6858 28.2649 13.7684C27.6269 14.064 26.9508 14.2693 26.2562 14.3784C26.1865 14.3788 26.1174 14.3661 26.0525 14.3409L25 13.9234V15.1347C25.3994 15.3167 25.8081 15.4777 26.2243 15.6172L28.6618 15.1716C28.8667 15.1211 29.0485 15.003 29.1779 14.8364C29.3073 14.6698 29.3767 14.4644 29.375 14.2534H30.625C30.6286 14.7558 30.4586 15.244 30.1437 15.6355C29.8288 16.0269 29.3883 16.2976 28.8968 16.4016L26.3625 16.8653C26.3201 16.8755 26.2767 16.8808 26.2331 16.8809C25.8034 16.8237 25.3865 16.6944 25 16.4984V17.0241L27.3093 18.4128C27.559 18.5587 27.8443 18.6323 28.1334 18.6254C28.4224 18.6184 28.7039 18.5312 28.9462 18.3734L30.2781 17.4822L30.9718 18.5222L29.64 19.4103C29.2019 19.7023 28.6899 19.8639 28.1636 19.8764C27.6373 19.8889 27.1183 19.7518 26.6668 19.4809L25 18.4809V19.5434L28.0093 21.5497C28.1636 21.6524 28.3395 21.7182 28.5233 21.7419C28.7071 21.7656 28.8939 21.7467 29.0692 21.6865C29.2445 21.6264 29.4036 21.5266 29.5341 21.3951C29.6646 21.2635 29.7631 21.1036 29.8218 20.9278L30.03 20.3028L31.2175 20.6984L31.01 21.3234C30.8906 21.6819 30.6902 22.008 30.4243 22.2763C30.1584 22.5446 29.8342 22.748 29.4768 22.8706C29.1195 22.9932 28.7387 23.0316 28.3641 22.983C27.9894 22.9344 27.631 22.8 27.3168 22.5903L25 21.0459V21.5641L26.7925 24.2534H27.1218Z" fill="#B90D06"/>
</svg>
