<svg width="40" height="40" viewBox="0 0 40 40" fill="none" xmlns="http://www.w3.org/2000/svg">
<path d="M4.375 19.9983L3.75 27.5502V39.3733H2.5V27.4983L3.125 19.9464V18.1558L2.5 12.0083C2.49984 10.5713 2.98681 9.17666 3.8814 8.05208C4.776 6.92751 6.02539 6.1394 7.42562 5.81641L12.795 4.57703C13.2126 4.48042 13.5948 4.26866 13.8981 3.96578C14.0328 3.85457 14.1443 3.7179 14.2261 3.56357C14.3079 3.40925 14.3585 3.2403 14.375 3.06641L14.4088 0.613281L15.6588 0.630781L15.6163 3.22516C15.5474 3.85084 15.2506 4.42928 14.7825 4.85016C14.3136 5.31862 13.7227 5.64604 13.0769 5.79516L7.70688 7.03453C6.58716 7.29273 5.58734 7.92123 4.86924 8.81832C4.15114 9.71541 3.75678 10.8286 3.75 11.9777L4.375 18.1233V19.9983Z" fill="#B90D06"/>
<path d="M33.0269 19.4458C33.0905 19.3625 33.1249 19.2606 33.125 19.1558C33.1252 19.042 33.0844 18.932 33.01 18.8458L29.5 14.8396C29.2637 14.9438 29.0083 14.9979 28.75 14.9983H27.5V21.0552L32.7731 19.6171C32.8742 19.5893 32.9633 19.5291 33.0269 19.4458Z" fill="#B90D06"/>
<path d="M28.75 12.4983H16.875C16.7092 12.4983 16.5503 12.5642 16.4331 12.6814C16.3159 12.7986 16.25 12.9576 16.25 13.1233C16.25 13.2891 16.3159 13.4481 16.4331 13.5653C16.5503 13.6825 16.7092 13.7483 16.875 13.7483H25C25.1658 13.7483 25.3247 13.8142 25.4419 13.9314C25.5592 14.0486 25.625 14.2076 25.625 14.3733V19.6858C25.625 19.7687 25.6579 19.8482 25.7165 19.9068C25.7751 19.9654 25.8546 19.9983 25.9375 19.9983C26.0204 19.9983 26.0999 19.9654 26.1585 19.9068C26.2171 19.8482 26.25 19.7687 26.25 19.6858V14.3733C26.25 14.2076 26.3159 14.0486 26.4331 13.9314C26.5503 13.8142 26.7092 13.7483 26.875 13.7483H28.75C28.9158 13.7483 29.0747 13.6825 29.1919 13.5653C29.3092 13.4481 29.375 13.2891 29.375 13.1233C29.375 12.9576 29.3092 12.7986 29.1919 12.6814C29.0747 12.5642 28.9158 12.4983 28.75 12.4983Z" fill="#B90D06"/>
<path d="M14.7411 15.3644C14.5067 15.5989 14.375 15.9168 14.375 16.2483V22.9571L16.4213 26.5383C16.4736 26.6218 16.5432 26.693 16.6254 26.7472C16.7077 26.8014 16.8006 26.8373 16.8979 26.8525C16.9952 26.8677 17.0946 26.8617 17.1894 26.8351C17.2843 26.8085 17.3723 26.7619 17.4475 26.6983L24.4788 20.2321C24.4116 20.0577 24.3765 19.8727 24.375 19.6858V14.9983H15.625C15.2935 14.9983 14.9755 15.13 14.7411 15.3644Z" fill="#B90D06"/>
<path fill-rule="evenodd" clip-rule="evenodd" d="M11.1144 8.10828L11.3856 6.88828L14.82 7.65141C17.7099 5.59872 21.2568 4.68704 24.7784 5.09172C28.3 5.49641 31.5476 7.18887 33.8966 9.84359C36.2456 12.4983 37.5301 15.9278 37.503 19.4725C37.476 23.0171 36.1393 26.4266 33.75 29.0452V39.3733H32.5V30.257C31.7523 30.9034 30.9404 31.4713 30.0769 31.952L30.625 37.4358C30.6195 37.5223 30.6315 37.609 30.6601 37.6908C30.6888 37.7726 30.7336 37.8477 30.7919 37.9119C30.8502 37.976 30.9208 38.0278 30.9995 38.0641C31.0782 38.1004 31.1634 38.1205 31.25 38.1233H31.875V39.3733H30.625V39.2664C30.2597 39.1367 29.9434 38.8971 29.7197 38.5805C29.4959 38.264 29.3755 37.886 29.375 37.4983L28.875 32.5433C28.03 32.9142 27.1508 33.2018 26.25 33.402V39.3733H25V36.5464L20.7681 38.2395C20.1226 38.4973 19.4426 38.6586 18.75 38.7183V39.3733H17.5V38.7183C16.8091 38.6581 16.1309 38.4968 15.4869 38.2395L11.255 36.5464V39.3733H10.005V31.8539L10.0533 30.3734C10.1185 28.3773 10.1901 26.1881 10.2025 25.6545C9.84996 24.9305 9.55975 24.1778 9.335 23.4045C9.23789 23.7322 9.1225 24.0542 8.98938 24.3689C8.4088 25.7247 8.02148 27.1554 7.83875 28.6189L7.5 31.3258L6.875 37.5608C6.86754 37.9392 6.74349 38.3062 6.51978 38.6115C6.29607 38.9169 5.9836 39.1458 5.625 39.267V39.3733H4.375V38.1233H5C5.16576 38.1233 5.32473 38.0574 5.44194 37.9402C5.55915 37.823 5.625 37.664 5.625 37.4983L6.25313 31.1858L6.59062 28.4652C6.78791 26.8857 7.20638 25.3418 7.83375 23.8789C8.33981 22.4912 8.63966 21.0368 8.72375 19.562L8.74875 19.3308C8.74938 19.0495 8.76 18.7708 8.77688 18.4939C8.10312 18.1674 7.49012 17.7282 6.96437 17.1952L5.08937 14.0702L6.16063 13.4264L8.01312 16.5133C8.30227 16.74 8.60744 16.9456 8.92625 17.1283C9.44669 13.8523 11.0848 10.8574 13.5625 8.65203L11.1144 8.10828ZM20.3031 37.0789L25 35.2002V33.6233C22.4024 33.9704 19.7594 33.5977 17.3591 32.5457C14.9588 31.4937 12.8934 29.8029 11.3881 27.6577C11.3613 28.5127 11.3225 29.6983 11.2669 31.3733L13.3537 31.8258C13.9318 31.9907 14.5177 32.1265 15.1094 32.2327L14.8906 33.4627C14.27 33.3526 13.6554 33.2105 13.0494 33.037L11.25 32.6477V35.2002L15.9469 37.0789C16.6378 37.356 17.3755 37.4982 18.12 37.4977C18.1229 37.497 18.1259 37.497 18.1287 37.4977C18.8736 37.4983 19.6118 37.3562 20.3031 37.0789ZM13.125 23.1233V16.2483C13.1257 15.6714 13.3258 15.1124 13.6912 14.6659C14.0567 14.2195 14.5652 13.913 15.1306 13.7983C15.0185 13.5147 14.9776 13.208 15.0116 12.9049C15.0456 12.6018 15.1534 12.3117 15.3256 12.06C15.4977 11.8083 15.729 11.6027 15.9992 11.4612C16.2693 11.3197 16.5701 11.2466 16.875 11.2483H28.75C29.2473 11.2483 29.7242 11.4459 30.0758 11.7975C30.4275 12.1491 30.625 12.626 30.625 13.1233C30.6228 13.422 30.5484 13.7158 30.4081 13.9796L33.9544 18.0264C34.1453 18.2473 34.2771 18.513 34.3375 18.7986C34.3979 19.0843 34.3849 19.3806 34.2998 19.6598C34.2147 19.9391 34.0601 20.1922 33.8506 20.3956C33.6412 20.5989 33.3836 20.7459 33.1019 20.8227L27.0394 22.4764C26.9858 22.4908 26.9305 22.4982 26.875 22.4983C26.7092 22.4983 26.5503 22.4325 26.4331 22.3153C26.3159 22.1981 26.25 22.0391 26.25 21.8733V21.2164C25.9533 21.278 25.6451 21.25 25.3644 21.1358L18.2925 27.6227C18.0806 27.8169 17.8278 27.9608 17.5527 28.044C17.2777 28.1271 16.9874 28.1473 16.7035 28.103C16.4195 28.0587 16.1492 27.9511 15.9125 27.7881C15.6759 27.6251 15.4789 27.4109 15.3363 27.1614L13.2075 23.4358C13.1529 23.3408 13.1244 23.2329 13.125 23.1233Z" fill="#B90D06"/>
<path d="M20.6338 3.22641C20.6708 3.49263 20.7423 3.75292 20.8463 4.00078L21.99 3.49578C21.9345 3.35783 21.8959 3.21365 21.875 3.06641L21.8412 0.614531L20.5912 0.632031L20.625 3.13203L20.6338 3.22641Z" fill="#B90D06"/>
<path d="M18.4044 5.55766C18.3176 5.6009 18.222 5.62337 18.125 5.62328C18.0283 5.62434 17.9327 5.60295 17.8456 5.56078L16.5956 4.93578L17.1544 3.81391L18.125 4.29953L19.0956 3.81391L19.6544 4.93266L18.4044 5.55766Z" fill="#B90D06"/>
</svg>
