<svg width="40" height="40" viewBox="0 0 40 40" fill="none" xmlns="http://www.w3.org/2000/svg">
<path d="M4.375 20.0016L3.75 27.5534V39.3766H2.5V27.5016L3.125 19.9497V18.1591L2.5 12.0116C2.49984 10.5746 2.98681 9.17994 3.8814 8.05537C4.776 6.93079 6.02539 6.14268 7.42562 5.81969L12.7956 4.58031C13.2128 4.48382 13.5945 4.27227 13.8975 3.96969C14.0325 3.85855 14.1442 3.72183 14.2261 3.56737C14.3081 3.41291 14.3587 3.24377 14.375 3.06969L14.4094 0.617188L15.6594 0.634688L15.6163 3.22844C15.5472 3.85421 15.2502 4.43266 14.7819 4.85344C14.3134 5.32212 13.7226 5.64959 13.0769 5.79844L7.70625 7.03781C6.58665 7.29613 5.58697 7.92469 4.86899 8.82176C4.15101 9.71884 3.75675 10.8319 3.75 11.9809L4.375 18.1266V20.0016Z" fill="#B90D06"/>
<path d="M24.7175 22.9128L25.0625 22.2222C25.1143 22.1185 25.1939 22.0313 25.2925 21.9702C25.3911 21.9092 25.5047 21.8768 25.6206 21.8766C25.5051 21.8759 25.392 21.8433 25.2939 21.7823C25.1959 21.7213 25.1166 21.6343 25.065 21.531L24.775 20.9503C24.7303 20.8707 24.6683 20.8022 24.5935 20.7498C24.5187 20.6975 24.4331 20.6627 24.343 20.648C24.2529 20.6334 24.1606 20.6392 24.0731 20.6652C23.9856 20.6911 23.905 20.7365 23.8375 20.7978L22.9418 21.6935C22.8544 21.7808 22.7431 21.8403 22.6219 21.8645C22.5006 21.8886 22.375 21.8762 22.2608 21.8289C22.1466 21.7816 22.049 21.7015 21.9803 21.5988C21.9117 21.496 21.875 21.3752 21.875 21.2516C21.875 21.0858 21.8091 20.9269 21.6919 20.8096C21.5747 20.6924 21.4157 20.6266 21.25 20.6266C21.0842 20.6266 20.9252 20.6924 20.808 20.8096C20.6908 20.9269 20.625 21.0858 20.625 21.2516V22.5016C20.6253 22.6179 20.5931 22.7321 20.532 22.8311C20.4709 22.9302 20.3834 23.0102 20.2793 23.0622L19.8681 23.2678C19.7199 23.3418 19.5952 23.4556 19.508 23.5965C19.4209 23.7373 19.3747 23.8997 19.3747 24.0653C19.3747 24.231 19.4209 24.3934 19.508 24.5342C19.5952 24.6751 19.7199 24.7889 19.8681 24.8628L20.2793 25.0685C20.3678 25.1128 20.4444 25.1775 20.5029 25.2572C20.5615 25.3369 20.6003 25.4293 20.6161 25.5269C20.632 25.6246 20.6245 25.7245 20.5942 25.8187C20.5639 25.9128 20.5117 25.9984 20.4418 26.0685L20.1712 26.3391C20.1057 26.4048 20.0568 26.4851 20.0284 26.5734C20 26.6617 19.993 26.7555 20.0079 26.847C20.0229 26.9386 20.0594 27.0252 20.1144 27.0999C20.1694 27.1746 20.2414 27.2352 20.3243 27.2766L20.9043 27.5666C20.9643 27.597 21.0192 27.6367 21.0668 27.6841L21.25 27.8672C21.4183 28.0281 21.6421 28.1179 21.875 28.1179C22.1078 28.1179 22.3317 28.0281 22.5 27.8672L22.6831 27.6847C22.7308 27.6373 22.7856 27.5976 22.8456 27.5672L23.5362 27.2222C23.6005 27.1902 23.6545 27.1409 23.6923 27.0798C23.73 27.0187 23.75 26.9484 23.75 26.8766C23.75 26.8048 23.73 26.7344 23.6923 26.6734C23.6545 26.6123 23.6005 26.563 23.5362 26.531L22.8456 26.186C22.7858 26.1556 22.731 26.1161 22.6831 26.0691C22.426 25.8135 22.2222 25.5094 22.0835 25.1744C21.9448 24.8395 21.8739 24.4804 21.875 24.1178C21.8763 23.7801 21.9559 23.4472 22.1075 23.1453L22.5687 22.2222C22.6206 22.1182 22.7004 22.0307 22.7992 21.9696C22.898 21.9084 23.0119 21.876 23.1281 21.876C23.2443 21.876 23.3582 21.9084 23.457 21.9696C23.5558 22.0307 23.6356 22.1182 23.6875 22.2222L24.0262 22.9128C24.0616 22.9731 24.112 23.0231 24.1727 23.0579C24.2333 23.0926 24.302 23.1109 24.3718 23.1109C24.4417 23.1109 24.5104 23.0926 24.571 23.0579C24.6316 23.0231 24.6821 22.9731 24.7175 22.9128Z" fill="#B90D06"/>
<path d="M16.4475 14.3447L15.8493 14.5441C15.6018 14.6263 15.3865 14.7845 15.2341 14.9961C15.0816 15.2077 14.9997 15.462 15 15.7228C14.9936 15.9485 15.0516 16.1712 15.1673 16.3651C15.283 16.5589 15.4515 16.7157 15.6531 16.8172L15.9031 16.9422C16.0071 16.994 16.0946 17.0739 16.1557 17.1727C16.2169 17.2715 16.2493 17.3854 16.2493 17.5016C16.2493 17.6178 16.2169 17.7317 16.1557 17.8305C16.0946 17.9293 16.0071 18.0091 15.9031 18.061L15.4918 18.2666C15.355 18.3351 15.238 18.4377 15.1523 18.5644C15.0666 18.6912 15.015 18.838 15.0024 18.9905C14.9898 19.143 15.0168 19.2962 15.0806 19.4353C15.1444 19.5744 15.243 19.6948 15.3668 19.7847C15.4467 19.8426 15.5118 19.9186 15.5566 20.0065C15.6015 20.0944 15.6249 20.1917 15.625 20.2903V22.1947C15.625 22.2776 15.6579 22.3571 15.7165 22.4157C15.7751 22.4743 15.8546 22.5072 15.9375 22.5072C16.0203 22.5072 16.0998 22.4743 16.1584 22.4157C16.217 22.3571 16.25 22.2776 16.25 22.1947V20.6322C16.25 20.4665 16.3158 20.3075 16.433 20.1903C16.5502 20.0731 16.7092 20.0072 16.875 20.0072H17.2425C17.2938 20.0073 17.3439 19.9921 17.3866 19.9636C17.4292 19.9351 17.4624 19.8945 17.482 19.8471C17.5016 19.7997 17.5066 19.7475 17.4964 19.6972C17.4863 19.647 17.4614 19.6008 17.425 19.5647L17.0593 19.1991C17.0011 19.141 16.955 19.0721 16.9235 18.9961C16.8919 18.9202 16.8757 18.8388 16.8757 18.7566C16.8757 18.6744 16.8919 18.593 16.9235 18.517C16.955 18.4411 17.0011 18.3721 17.0593 18.3141L17.1218 18.2516C17.3143 18.0585 17.4412 17.8097 17.4844 17.5404C17.5275 17.2712 17.4849 16.9952 17.3625 16.7516L16.9406 15.9047C16.8818 15.7874 16.8614 15.6545 16.8824 15.5249C16.9034 15.3953 16.9646 15.2756 17.0574 15.1828C17.1503 15.09 17.2699 15.0288 17.3995 15.0078C17.5291 14.9868 17.662 15.0072 17.7793 15.066C18.0259 15.1896 18.3052 15.2324 18.5775 15.1883C18.8498 15.1442 19.1013 15.0155 19.2962 14.8203C19.4125 14.7105 19.5091 14.5816 19.5818 14.4391L20.0656 13.4741C20.1099 13.3857 20.1746 13.309 20.2543 13.2505C20.334 13.1919 20.4264 13.1531 20.5241 13.1373C20.6217 13.1214 20.7217 13.1289 20.8158 13.1593C20.91 13.1896 20.9956 13.2418 21.0656 13.3116L21.7831 14.0297C21.9168 14.1631 22.0804 14.2629 22.2602 14.3207C22.44 14.3785 22.6311 14.3927 22.8175 14.3622C23.0039 14.3317 23.1804 14.2573 23.3324 14.1451C23.4845 14.033 23.6076 13.8863 23.6918 13.7172L23.8168 13.4722C23.8611 13.3838 23.9257 13.3071 24.0054 13.2485C24.0851 13.1898 24.1775 13.151 24.2752 13.1351C24.3728 13.1191 24.4728 13.1266 24.5669 13.1569C24.6611 13.1871 24.7468 13.2393 24.8168 13.3091L25 13.4922C25.1683 13.6531 25.3921 13.7429 25.625 13.7429C25.8578 13.7429 26.0817 13.6531 26.25 13.4922L26.4331 13.3097C26.5503 13.1925 26.7092 13.1266 26.875 13.1266H27.5C27.6657 13.1266 27.8247 13.1924 27.9419 13.3096C28.0591 13.4269 28.125 13.5858 28.125 13.7516V14.3766C28.125 14.4588 28.1089 14.5401 28.0775 14.6161C28.046 14.692 28 14.761 27.9418 14.8191C27.8013 14.9587 27.6898 15.1249 27.614 15.3079C27.5381 15.4909 27.4994 15.6872 27.5 15.8853V15.9928C27.4987 16.1906 27.5367 16.3867 27.6116 16.5697C27.6866 16.7527 27.7972 16.9191 27.9368 17.0591C27.995 17.1171 28.0411 17.1861 28.0725 17.2619C28.104 17.3378 28.1201 17.4191 28.1201 17.5013C28.1201 17.5834 28.104 17.6647 28.0725 17.7406C28.0411 17.8165 27.995 17.8854 27.9368 17.9435C27.199 18.6811 26.6757 19.6056 26.4231 20.6178L26.2262 21.4035C26.1952 21.5273 26.127 21.6387 26.0308 21.7226C25.9346 21.8065 25.815 21.8589 25.6881 21.8728C25.6673 21.8752 25.6465 21.8765 25.6256 21.8766C25.7413 21.8772 25.8545 21.9098 25.9527 21.971C26.0509 22.0321 26.1303 22.1193 26.1818 22.2228L26.3068 22.4685C26.3914 22.6372 26.5149 22.7835 26.6671 22.8953C26.8192 23.007 26.9958 23.081 27.1821 23.1112C27.3685 23.1414 27.5593 23.1269 27.739 23.069C27.9187 23.011 28.082 22.9112 28.2156 22.7778L28.9331 22.0597C28.9808 22.0123 29.0356 21.9726 29.0956 21.9422L29.6756 21.6522C29.7586 21.6108 29.8306 21.5502 29.8856 21.4756C29.9406 21.4009 29.9771 21.3142 29.992 21.2226C30.007 21.1311 30 21.0373 29.9716 20.949C29.9432 20.8607 29.8942 20.7804 29.8287 20.7147L28.9331 19.8191C28.8159 19.7019 28.7501 19.5429 28.7501 19.3772C28.7501 19.2115 28.8159 19.0525 28.9331 18.9353L29.9243 17.9441C30.3729 17.4953 30.625 16.8868 30.625 16.2522C30.625 15.6177 30.3729 15.0091 29.9243 14.5603L29.5581 14.1941C29.4653 14.1014 29.404 13.9819 29.383 13.8524C29.3619 13.723 29.382 13.5902 29.4406 13.4728L29.6706 13.0135C29.727 12.9006 29.7465 12.7729 29.7263 12.6484C29.7062 12.5238 29.6473 12.4088 29.5581 12.3196C29.469 12.2303 29.354 12.1714 29.2295 12.1511C29.105 12.1309 28.9772 12.1503 28.8643 12.2066L28.4043 12.4366C28.287 12.4952 28.1542 12.5153 28.0248 12.4942C27.8953 12.4731 27.7758 12.4119 27.6831 12.3191L26.875 11.511C26.7067 11.3501 26.4828 11.2602 26.25 11.2602C26.0171 11.2602 25.7933 11.3501 25.625 11.511L24.8168 12.3191C24.6996 12.4363 24.5407 12.5021 24.375 12.5021C24.2092 12.5021 24.0503 12.4363 23.9331 12.3191L23.75 12.136C23.5817 11.9751 23.3578 11.8852 23.125 11.8852C22.8921 11.8852 22.6683 11.9751 22.5 12.136L22.3156 12.3185C22.2456 12.3883 22.16 12.4405 22.0658 12.4708C21.9717 12.5011 21.8717 12.5086 21.7741 12.4928C21.6764 12.4769 21.584 12.4381 21.5043 12.3796C21.4246 12.321 21.3599 12.2444 21.3156 12.156L21.11 11.7447C21.036 11.5965 20.9222 11.4718 20.7814 11.3847C20.6405 11.2975 20.4781 11.2514 20.3125 11.2514C20.1468 11.2514 19.9845 11.2975 19.8436 11.3847C19.7027 11.4718 19.5889 11.5965 19.515 11.7447L19.3093 12.156C19.2727 12.2294 19.2219 12.295 19.1599 12.3488C19.0979 12.4027 19.0259 12.4438 18.948 12.4698C18.8701 12.4958 18.7878 12.5062 18.7059 12.5004C18.624 12.4946 18.544 12.4727 18.4706 12.436L18.02 12.2103C17.8481 12.1246 17.6537 12.095 17.4641 12.1259C17.2745 12.1567 17.0995 12.2464 16.9637 12.3822C16.8279 12.518 16.7382 12.693 16.7074 12.8826C16.6765 13.0722 16.7061 13.2666 16.7918 13.4385C16.8333 13.521 16.8571 13.6112 16.8617 13.7034C16.8664 13.7957 16.8517 13.8878 16.8187 13.9741C16.7866 14.0586 16.7369 14.1354 16.6729 14.1993C16.6089 14.2632 16.5321 14.3127 16.4475 14.3447Z" fill="#B90D06"/>
<path fill-rule="evenodd" clip-rule="evenodd" d="M11.1144 8.11156L11.3856 6.89156L14.82 7.65469C17.71 5.60138 21.2571 4.68924 24.7791 5.09375C28.3011 5.49826 31.5491 7.19083 33.8983 9.84587C36.2476 12.5009 37.532 15.9309 37.5046 19.4759C37.4772 23.0209 36.1399 26.4306 33.75 29.0491V39.3766H32.5V30.2603C31.7522 30.9067 30.94 31.4747 30.0763 31.9553L30.625 37.4391C30.6194 37.5256 30.6313 37.6123 30.66 37.6941C30.6886 37.776 30.7334 37.8512 30.7917 37.9153C30.85 37.9795 30.9207 38.0312 30.9994 38.0675C31.0781 38.1038 31.1634 38.1239 31.25 38.1266H31.875V39.3766H30.625V39.2697C30.2597 39.1399 29.9434 38.9004 29.7197 38.5838C29.4959 38.2673 29.3755 37.8892 29.375 37.5016L28.875 32.5472C28.0298 32.9175 27.1507 33.2049 26.25 33.4053V39.3766H25V36.5497L20.7681 38.2428C20.1225 38.5002 19.4425 38.6615 18.75 38.7216V39.3766H17.5V38.7216C16.8076 38.6619 16.1279 38.5005 15.4825 38.2428L11.25 36.5497V39.3766H10V31.8778H10.0056V31.8572C10.0271 31.184 10.0522 30.4139 10.0771 29.6481L10.0775 29.6379C10.1351 27.8691 10.1919 26.1256 10.2019 25.6578C9.84981 24.9337 9.55981 24.181 9.335 23.4078C9.23772 23.7353 9.12255 24.0573 8.99 24.3722C8.40858 25.7278 8.02082 27.1585 7.83813 28.6222L7.5 31.3291L6.875 37.5641C6.86754 37.9425 6.74349 38.3095 6.51978 38.6148C6.29607 38.9202 5.9836 39.1491 5.625 39.2703V39.3766H4.375V38.1266H5C5.16576 38.1266 5.32473 38.0607 5.44194 37.9435C5.55915 37.8263 5.625 37.6673 5.625 37.5016L6.25312 31.1891L6.59375 28.4684C6.79088 26.8889 7.20936 25.345 7.83687 23.8822C8.34386 22.4921 8.64394 21.0351 8.7275 19.5578L8.75187 19.3341C8.7525 19.0528 8.76313 18.7741 8.78 18.4972C8.10506 18.1711 7.49097 17.7319 6.96437 17.1984L5.08937 14.0734L6.16063 13.4297L8.01312 16.5172C8.30234 16.7437 8.6075 16.949 8.92625 17.1316C9.44669 13.8556 11.0848 10.8607 13.5625 8.65531L11.1144 8.11156ZM20.3037 37.0822L25 35.2034V33.6266C22.4024 33.9737 19.7594 33.601 17.3591 32.549C14.9588 31.497 12.8934 29.8062 11.3881 27.6609C11.3613 28.5166 11.3225 29.7016 11.2669 31.3766L13.3537 31.8291C13.9318 31.994 14.5177 32.1298 15.1094 32.2359L14.8906 33.4659C14.27 33.3559 13.6554 33.2138 13.0494 33.0403L11.25 32.6509V35.2034L15.9469 37.0822C16.6379 37.3592 17.3755 37.5014 18.12 37.5009C18.1229 37.5006 18.1258 37.5006 18.1287 37.5009C18.8738 37.5014 19.6121 37.3593 20.3037 37.0822ZM13.9317 16.6877C13.8107 16.3936 13.749 16.0784 13.75 15.7603C13.7431 15.2311 13.9043 14.7133 14.2105 14.2816C14.5167 13.8498 14.952 13.5264 15.4537 13.3578L15.475 13.351C15.4162 12.9688 15.4611 12.5778 15.605 12.2189C15.7489 11.86 15.9865 11.5463 16.293 11.3105C16.5995 11.0748 16.9636 10.9256 17.3475 10.8787C17.7313 10.8317 18.1207 10.8886 18.475 11.0435C18.6581 10.7374 18.9148 10.4819 19.2217 10.3002C19.5286 10.1185 19.876 10.0163 20.2324 10.0029C20.5888 9.98945 20.943 10.0653 21.2626 10.2234C21.5823 10.3815 21.8575 10.617 22.0631 10.9085C22.4171 10.712 22.8187 10.6178 23.2232 10.6366C23.6276 10.6554 24.0188 10.7863 24.3531 11.0147L24.7412 10.6266C25.148 10.2391 25.6882 10.023 26.25 10.023C26.8117 10.023 27.352 10.2391 27.7587 10.6266L28.2481 11.116L28.305 11.0878C28.6525 10.9141 29.0459 10.854 29.4294 10.9163C29.813 10.9785 30.1672 11.1598 30.442 11.4346C30.7167 11.7093 30.8981 12.0636 30.9603 12.4471C31.0225 12.8307 30.9625 13.2241 30.7887 13.5716L30.7606 13.6278L30.8081 13.676C31.4912 14.3591 31.8749 15.2855 31.8749 16.2516C31.8749 17.2176 31.4912 18.1441 30.8081 18.8272L30.2587 19.3766L30.7143 19.8322C30.9195 20.0379 31.0729 20.2894 31.162 20.566C31.251 20.8425 31.2731 21.1363 31.2265 21.423C31.1799 21.7098 31.0659 21.9814 30.8938 22.2155C30.7218 22.4496 30.4966 22.6396 30.2368 22.7697L29.7475 23.0147L29.1012 23.661C28.6512 24.1103 28.0438 24.3666 27.4079 24.3756C26.7719 24.3846 26.1575 24.1455 25.695 23.7091C25.5516 23.904 25.3667 24.0648 25.1538 24.1797C24.9408 24.2946 24.705 24.3609 24.4633 24.3738C24.2216 24.3866 23.9801 24.3457 23.7562 24.254C23.5322 24.1623 23.3314 24.0221 23.1681 23.8435C23.1407 23.9321 23.1268 24.0244 23.1268 24.1172C23.1249 24.4853 23.2584 24.8412 23.5018 25.1172L24.095 25.4128C24.3667 25.5489 24.5952 25.7578 24.7549 26.0163C24.9146 26.2749 24.9992 26.5727 24.9992 26.8766C24.9992 27.1805 24.9146 27.4783 24.7549 27.7368C24.5952 27.9954 24.3667 28.2043 24.095 28.3403L23.495 28.6403L23.3831 28.7516C22.9829 29.1517 22.4402 29.3765 21.8743 29.3765C21.3085 29.3765 20.7657 29.1517 20.3656 28.7516L20.2537 28.6403L19.7643 28.3953C19.5377 28.2817 19.337 28.1225 19.1749 27.9276C19.0128 27.7327 18.8927 27.5063 18.8223 27.2628C18.7518 27.0193 18.7325 26.7638 18.7656 26.5124C18.7986 26.2611 18.8833 26.0193 19.0143 25.8022C18.7153 25.5867 18.4769 25.2977 18.3223 24.9631C18.1676 24.6284 18.102 24.2596 18.1317 23.8922C18.1613 23.5247 18.2853 23.1712 18.4916 22.8657C18.6979 22.5603 18.9796 22.3132 19.3093 22.1485L19.375 22.1153V21.2516C19.376 20.8594 19.4999 20.4775 19.7293 20.1594C19.9587 19.8414 20.2821 19.6033 20.6539 19.4786C21.0257 19.3539 21.4272 19.349 21.802 19.4644C22.1768 19.5799 22.5059 19.8099 22.7431 20.1222L22.9506 19.9141C23.2736 19.6102 23.6926 19.4286 24.1352 19.4006C24.5778 19.3726 25.0163 19.5001 25.375 19.761C25.661 18.9221 26.1034 18.1451 26.6787 17.471C26.3973 17.0295 26.2485 16.5164 26.25 15.9928V15.8853C26.2494 15.5254 26.3195 15.1689 26.4562 14.836C26.148 14.9625 25.8149 15.0167 25.4825 14.9944C25.1501 14.972 24.8272 14.8738 24.5387 14.7072C24.3244 14.9763 24.0557 15.1971 23.7502 15.3552C23.4447 15.5133 23.1093 15.605 22.7658 15.6245C22.4224 15.644 22.0787 15.5907 21.7573 15.4682C21.4358 15.3456 21.1439 15.1566 20.9006 14.9135L20.7962 14.8085L20.7 15.0016C20.5774 15.247 20.4161 15.4711 20.2225 15.6653C19.7869 16.1076 19.2102 16.3831 18.5925 16.4441C18.7301 16.8154 18.7792 17.2138 18.7358 17.6074C18.6924 18.0011 18.5577 18.3792 18.3425 18.7116C18.5284 18.9102 18.6572 19.1554 18.7152 19.4212C18.7731 19.687 18.7582 19.9635 18.6718 20.2215C18.5855 20.4795 18.431 20.7094 18.2247 20.8867C18.0184 21.0641 17.768 21.1824 17.5 21.2291V22.1891C17.5 22.6035 17.3353 23.0009 17.0423 23.2939C16.7493 23.587 16.3519 23.7516 15.9375 23.7516C15.5231 23.7516 15.1256 23.587 14.8326 23.2939C14.5396 23.0009 14.375 22.6035 14.375 22.1891V20.576C14.1702 20.3705 14.0093 20.1256 13.9019 19.8561C13.7946 19.5867 13.7431 19.2982 13.7506 19.0082C13.7581 18.7182 13.8244 18.4328 13.9455 18.1692C14.0665 17.9056 14.2399 17.6693 14.455 17.4747C14.2305 17.2493 14.0527 16.9819 13.9317 16.6877Z" fill="#B90D06"/>
<path d="M20.6337 3.23031C20.6714 3.49643 20.7428 3.75665 20.8463 4.00469L21.9894 3.49844C21.9341 3.36044 21.8957 3.21627 21.875 3.06906L21.8412 0.617812L20.5912 0.635312L20.625 3.13531L20.6337 3.23031Z" fill="#B90D06"/>
<path d="M18.4044 5.56094C18.3176 5.60419 18.222 5.62665 18.125 5.62656C18.0283 5.62762 17.9327 5.60623 17.8456 5.56406L16.5956 4.93906L17.1544 3.81719L18.125 4.30281L19.0956 3.81719L19.6544 4.93594L18.4044 5.56094Z" fill="#B90D06"/>
</svg>
