<svg width="40" height="40" viewBox="0 0 40 40" fill="none" xmlns="http://www.w3.org/2000/svg">
<path d="M17.3947 24.721C17.4633 24.6183 17.5 24.4974 17.5 24.3738C17.5 24.2081 17.4342 24.0491 17.3169 23.9319C17.1997 23.8147 17.0408 23.7488 16.875 23.7488C16.7514 23.7488 16.6305 23.7855 16.5278 23.8541C16.425 23.9228 16.3449 24.0204 16.2976 24.1346C16.2503 24.2488 16.2379 24.3745 16.262 24.4957C16.2861 24.617 16.3456 24.7283 16.4331 24.8158C16.5205 24.9032 16.6318 24.9627 16.7531 24.9868C16.8743 25.0109 17 24.9985 17.1142 24.9512C17.2284 24.9039 17.326 24.8238 17.3947 24.721Z" fill="#B90D06"/>
<path d="M30.2778 24.8935C30.3806 24.9622 30.5014 24.9988 30.625 24.9988C30.7908 24.9988 30.9497 24.933 31.0669 24.8158C31.1842 24.6985 31.25 24.5396 31.25 24.3738C31.25 24.2502 31.2133 24.1294 31.1447 24.0266C31.076 23.9238 30.9784 23.8437 30.8642 23.7964C30.75 23.7491 30.6243 23.7367 30.5031 23.7608C30.3818 23.7849 30.2705 23.8445 30.1831 23.9319C30.0956 24.0193 30.0361 24.1306 30.012 24.2519C29.9879 24.3731 30.0003 24.4988 30.0476 24.613C30.0949 24.7272 30.175 24.8248 30.2778 24.8935Z" fill="#B90D06"/>
<path d="M26.3037 20.5512C26.6765 20.0242 26.8762 19.3943 26.875 18.7488C26.8757 18.1758 26.719 17.6137 26.4218 17.1238C26.1246 16.634 25.6984 16.2353 25.1899 15.9712C24.6814 15.7072 24.1101 15.5881 23.5384 15.6269C22.9668 15.6657 22.4168 15.8609 21.9486 16.1912C21.4804 16.5215 21.1121 16.9741 20.8838 17.4996C20.6555 18.0252 20.5761 18.6033 20.6542 19.1709C20.7323 19.7385 20.965 20.2737 21.3268 20.718C21.6886 21.1623 22.1656 21.4986 22.7056 21.6901C22.8281 21.7327 22.9343 21.8125 23.0094 21.9182C23.0846 22.0239 23.125 22.1504 23.125 22.2801V24.3738C23.125 24.5396 23.1908 24.6985 23.3081 24.8158C23.4253 24.933 23.5842 24.9988 23.75 24.9988C23.9158 24.9988 24.0747 24.933 24.1919 24.8158C24.3092 24.6985 24.375 24.5396 24.375 24.3738V22.2801C24.375 22.1504 24.4154 22.0239 24.4906 21.9182C24.5657 21.8125 24.6719 21.7327 24.7944 21.6901C25.4035 21.4762 25.9309 21.0782 26.3037 20.5512Z" fill="#B90D06"/>
<path fill-rule="evenodd" clip-rule="evenodd" d="M5.60933 26.233C5.1991 26.6433 4.6427 26.8737 4.06254 26.8737C3.48237 26.8737 2.92598 26.6433 2.51574 26.233C2.1055 25.8228 1.87504 25.2664 1.87504 24.6862V18.1238C1.87461 18.0856 1.87796 18.0475 1.88504 18.01L5.01004 1.135L6.23941 1.3625L3.12504 18.1812V24.6862C3.12504 24.9349 3.22381 25.1733 3.39962 25.3492C3.57544 25.525 3.81389 25.6237 4.06254 25.6237C4.31118 25.6237 4.54963 25.525 4.72545 25.3492C4.90126 25.1733 5.00004 24.9349 5.00004 24.6862V21.8737C5.00004 21.708 5.06588 21.549 5.18309 21.4318C5.3003 21.3146 5.45928 21.2487 5.62504 21.2487C5.92402 21.2487 6.21309 21.1415 6.43979 20.9465C6.66649 20.7516 6.81581 20.4819 6.86066 20.1862L5.12504 17.8738C5.06559 17.7943 5.02592 17.7019 5.00929 17.604C4.99266 17.5062 4.99956 17.4059 5.02941 17.3113L8.63566 6.00313C8.24363 5.19255 8.07288 4.29273 8.14071 3.39489C8.20854 2.49705 8.51255 1.6331 9.02191 0.890625L10.0475 1.60438C9.6217 2.24022 9.38887 2.98566 9.37711 3.75083C9.36536 4.51601 9.57518 5.26825 9.98129 5.91687C10.2157 6.32871 10.558 6.66883 10.9713 6.90063C11.6251 7.2835 12.3674 7.48963 13.125 7.49875V8.74875C12.5974 8.74491 12.0734 8.66255 11.57 8.50437L12.0463 11.0469C13.4773 9.03929 15.3977 7.4307 17.625 6.37375C17.1364 5.58526 16.8767 4.67638 16.875 3.74875H18.125C18.1296 4.50968 18.3664 5.25106 18.8038 5.87375C20.9076 5.10139 23.1635 4.83442 25.3894 5.09437C25.6027 4.52093 25.6748 3.90453 25.5994 3.29735C25.524 2.69018 25.3034 2.11011 24.9563 1.60625L25.9813 0.890625C26.4234 1.52348 26.7133 2.24989 26.8284 3.01322C26.9435 3.77655 26.8808 4.55616 26.645 5.29125C27.4559 5.45929 28.2506 5.69769 29.02 6.00375L28.75 1.28437L30 1.21312L30.3057 6.59C32.9991 7.9694 35.1883 10.1639 36.5612 12.8607C37.934 15.5575 38.4205 18.6188 37.9511 21.6083C37.4818 24.5978 36.0806 27.3628 33.9474 29.5092C31.8142 31.6555 29.0578 33.0736 26.0713 33.5613L24.9875 38.8738L23.7625 38.6237L24.7644 33.7088C24.4288 33.7325 24.0913 33.7487 23.75 33.7487C21.8167 33.7507 19.9031 33.3603 18.125 32.6012V38.7487H16.875V31.9944C13.6549 30.2314 11.2268 27.3087 10.0838 23.82C9.35397 26.7864 9.34669 29.8846 10.0625 32.8544L11.2375 38.6237L10.0125 38.8738L8.84066 33.1237C7.94908 29.4215 8.11584 25.5433 9.32191 21.9313C9.32988 21.9077 9.33906 21.8845 9.34941 21.8619L9.53066 21.4788C9.42749 20.7818 9.37548 20.0783 9.37504 19.3738C9.37302 17.0177 9.95404 14.6977 11.0663 12.6206L10.1763 7.87063C9.93845 7.722 9.71755 7.54784 9.51754 7.35125L6.31816 17.3813L8.00004 19.6237C8.08117 19.7319 8.12504 19.8635 8.12504 19.9988C8.12421 20.5529 7.93974 21.0911 7.60048 21.5292C7.26122 21.9673 6.7863 22.2805 6.25004 22.42V24.6862C6.25004 25.2664 6.01957 25.8228 5.60933 26.233ZM14.9869 24.38C14.9963 23.9255 15.1666 23.489 15.4675 23.1482C14.3434 21.0732 13.7532 18.7512 13.75 16.3913C13.7503 15.5588 14.018 14.7484 14.5136 14.0795C15.0092 13.4106 15.7065 12.9186 16.5029 12.6759C17.2992 12.4332 18.1524 12.4527 18.9369 12.7315C19.7213 13.0103 20.3954 13.5336 20.86 14.2244L21.4144 15.0551C22.112 14.6098 22.9224 14.3732 23.75 14.3732C24.5776 14.3732 25.388 14.6098 26.0856 15.0551L26.64 14.2244C27.0164 13.659 27.5347 13.2024 28.1432 12.9004C28.7516 12.5985 29.4288 12.4617 30.1067 12.504C30.7846 12.5462 31.4396 12.7659 32.0059 13.141C32.5721 13.5161 33.0298 14.0335 33.3331 14.6413C33.6058 15.1845 33.7485 15.7836 33.75 16.3913C33.747 18.7512 33.1568 21.0733 32.0325 23.1482C32.3267 23.4849 32.4923 23.9149 32.4998 24.3619C32.5074 24.809 32.3564 25.2443 32.0737 25.5908C31.791 25.9372 31.3949 26.1724 30.9553 26.2547C30.5158 26.337 30.0614 26.261 29.6725 26.0403C29.2836 25.8196 28.9854 25.4684 28.8308 25.0488C28.6761 24.6293 28.6749 24.1686 28.8274 23.7482C28.9799 23.3279 29.2762 22.9751 29.6639 22.7524C30.0517 22.5296 30.5057 22.4513 30.9456 22.5313C31.9629 20.6444 32.497 18.5349 32.5 16.3913C32.4999 15.827 32.3187 15.2776 31.983 14.824C31.6474 14.3704 31.1749 14.0364 30.6353 13.8714C30.0957 13.7063 29.5173 13.7188 28.9853 13.907C28.4533 14.0952 27.9958 14.4492 27.68 14.9169L27.0412 15.8738C27.4872 16.3817 27.8092 16.9862 27.9816 17.6398C28.1541 18.2933 28.1724 18.9779 28.0351 19.6398C27.8977 20.3016 27.6086 20.9224 27.1903 21.4534C26.7721 21.9844 26.2362 22.4109 25.625 22.6994V24.3738C25.625 24.8711 25.4275 25.348 25.0758 25.6996C24.7242 26.0513 24.2473 26.2488 23.75 26.2488C23.2527 26.2488 22.7758 26.0513 22.4242 25.6996C22.0725 25.348 21.875 24.8711 21.875 24.3738V22.6994C21.2638 22.4109 20.7279 21.9844 20.3097 21.4534C19.8914 20.9224 19.6023 20.3016 19.4649 19.6398C19.3276 18.9779 19.3459 18.2933 19.5184 17.6398C19.6908 16.9862 20.0128 16.3817 20.4588 15.8738L19.82 14.9188C19.5651 14.5357 19.214 14.2262 18.8018 14.0216C18.3896 13.8169 17.9309 13.7243 17.4716 13.7528C17.0123 13.7814 16.5685 13.9302 16.1849 14.1843C15.8012 14.4384 15.4911 14.7889 15.2856 15.2007C15.0988 15.5698 15.001 15.9776 15 16.3913C15.0032 18.5349 15.5372 20.6444 16.5544 22.5313C17.0013 22.4477 17.4633 22.5253 17.8584 22.7502C18.2534 22.9752 18.5559 23.3329 18.7121 23.7599C18.8682 24.1869 18.8679 24.6554 18.7112 25.0822C18.5544 25.5089 18.2514 25.8663 17.8561 26.0907C17.4607 26.3151 16.9985 26.392 16.5518 26.3078C16.105 26.2235 15.7026 25.9836 15.4161 25.6306C15.1295 25.2777 14.9775 24.8345 14.9869 24.38Z" fill="#B90D06"/>
</svg>
