<svg width="40" height="40" viewBox="0 0 40 40" fill="none" xmlns="http://www.w3.org/2000/svg">
<path d="M4.375 20.0016L3.75 27.5534V39.3766H2.5V27.5016L3.125 19.9497V18.1591L2.5 12.0116C2.49984 10.5746 2.98681 9.17994 3.8814 8.05537C4.776 6.93079 6.02539 6.14268 7.42562 5.81969L12.7956 4.58031C13.2128 4.48382 13.5945 4.27227 13.8975 3.96969C14.0325 3.85855 14.1442 3.72183 14.2261 3.56737C14.3081 3.41291 14.3587 3.24377 14.375 3.06969L14.4094 0.617188L15.6594 0.634688L15.6163 3.22844C15.5472 3.85421 15.2502 4.43266 14.7819 4.85344C14.3134 5.32212 13.7226 5.64959 13.0769 5.79844L7.70625 7.03781C6.58665 7.29613 5.58697 7.92469 4.86899 8.82176C4.15101 9.71884 3.75675 10.8319 3.75 11.9809L4.375 18.1266V20.0016Z" fill="#B90D06"/>
<path d="M26.3662 12.9436C26.294 13.0164 26.2534 13.1147 26.2531 13.2172V22.7378C26.2533 22.8409 26.2943 22.9397 26.3671 23.0125C26.44 23.0854 26.5388 23.1264 26.6418 23.1266C26.9949 23.1268 27.3384 23.2415 27.6209 23.4533C27.9033 23.6651 28.1096 23.9627 28.2087 24.3016C28.3365 24.7231 28.6087 25.0861 28.9774 25.327C29.3461 25.5679 29.7878 25.6714 30.2252 25.6192C30.6625 25.567 31.0675 25.3625 31.3692 25.0416C31.6708 24.7207 31.8499 24.3038 31.875 23.8641C31.8751 23.8262 31.8705 23.7884 31.8612 23.7516L29.5306 13.8491C29.5146 13.7817 29.4811 13.7198 29.4333 13.6697C29.3855 13.6197 29.3252 13.5832 29.2587 13.5641L26.7487 12.8435C26.7129 12.8334 26.6759 12.8282 26.6387 12.8278C26.5362 12.8291 26.4383 12.8707 26.3662 12.9436Z" fill="#B90D06"/>
<path d="M17.2733 25.3238C17.6417 25.0828 17.9136 24.7198 18.0412 24.2985C18.1411 23.9604 18.3477 23.6638 18.6301 23.4528C18.9125 23.2418 19.2556 23.1278 19.6081 23.1278C19.6681 23.1268 19.727 23.1116 19.78 23.0835C18.0103 22.9016 16.3498 22.1421 15.055 20.9222L14.3887 23.7516C14.3794 23.7884 14.3748 23.8262 14.375 23.8641C14.4006 24.3036 14.5801 24.7201 14.882 25.0405C15.1839 25.3609 15.589 25.5649 16.0262 25.6167C16.4634 25.6685 16.9049 25.5648 17.2733 25.3238Z" fill="#B90D06"/>
<path d="M15.6075 19.7247L15.7325 19.8497C16.875 20.9977 18.3865 21.705 20 21.8466V16.9091C18.8337 18.2466 17.3098 19.2234 15.6075 19.7247Z" fill="#B90D06"/>
<path d="M16.8164 13.6705C16.7687 13.7206 16.7352 13.7824 16.7193 13.8497L15.65 18.3991C17.3113 17.8167 18.7375 16.7087 19.7125 15.2428L19.9956 14.8185V13.2216C19.9958 13.1613 19.982 13.1018 19.9552 13.0478C19.9284 12.9938 19.8895 12.9467 19.8414 12.9103C19.7933 12.874 19.7375 12.8493 19.6782 12.8382C19.6189 12.8271 19.5579 12.83 19.5 12.8466L16.9906 13.5647C16.9242 13.5839 16.8641 13.6204 16.8164 13.6705Z" fill="#B90D06"/>
<path fill-rule="evenodd" clip-rule="evenodd" d="M11.1144 8.11156L11.3856 6.89156L14.82 7.65469C17.71 5.60138 21.2571 4.68924 24.7791 5.09375C28.3011 5.49826 31.5491 7.19083 33.8983 9.84587C36.2476 12.5009 37.532 15.9309 37.5046 19.4759C37.4772 23.0209 36.1399 26.4306 33.75 29.0491V39.3766H32.5V30.2603C31.7522 30.9067 30.94 31.4747 30.0763 31.9553L30.625 37.4391C30.6194 37.5256 30.6313 37.6123 30.66 37.6941C30.6886 37.776 30.7334 37.8512 30.7917 37.9153C30.85 37.9795 30.9207 38.0312 30.9994 38.0675C31.0781 38.1038 31.1634 38.1239 31.25 38.1266H31.875V39.3766H30.625V39.2697C30.2597 39.1399 29.9434 38.9004 29.7197 38.5838C29.4959 38.2673 29.3755 37.8892 29.375 37.5016L28.875 32.5472C28.0298 32.9175 27.1507 33.2049 26.25 33.4053V39.3766H25V36.5497L20.7681 38.2428C20.1225 38.5002 19.4425 38.6615 18.75 38.7216V39.3766H17.5V38.7216C16.8076 38.6619 16.1279 38.5005 15.4825 38.2428L11.25 36.5497V39.3766H10V31.8778H10.0056V31.8572C10.0271 31.184 10.0522 30.4139 10.0771 29.6481L10.0775 29.6379C10.1351 27.8691 10.1919 26.1256 10.2019 25.6578C9.84981 24.9337 9.55981 24.181 9.335 23.4078C9.23772 23.7353 9.12255 24.0573 8.99 24.3722C8.40858 25.7278 8.02082 27.1585 7.83813 28.6222L7.5 31.3291L6.875 37.5641C6.86754 37.9425 6.74349 38.3095 6.51978 38.6148C6.29607 38.9202 5.9836 39.1491 5.625 39.2703V39.3766H4.375V38.1266H5C5.16576 38.1266 5.32473 38.0607 5.44194 37.9435C5.55915 37.8263 5.625 37.6673 5.625 37.5016L6.25313 31.1891L6.59375 28.4684C6.79088 26.8889 7.20936 25.345 7.83687 23.8822C8.34386 22.4921 8.64394 21.0351 8.7275 19.5578L8.75187 19.3341C8.7525 19.0528 8.76313 18.7741 8.78 18.4972C8.10506 18.1711 7.49097 17.7319 6.96437 17.1984L5.08937 14.0734L6.16063 13.4297L8.01312 16.5172C8.30234 16.7437 8.6075 16.949 8.92625 17.1316C9.44669 13.8556 11.0848 10.8607 13.5625 8.65531L11.1144 8.11156ZM20.3037 37.0822L25 35.2034V33.6266C22.4024 33.9737 19.7594 33.601 17.3591 32.549C14.9588 31.497 12.8934 29.8062 11.3881 27.6609C11.3613 28.5166 11.3225 29.7016 11.2669 31.3766L13.3537 31.8291C13.9318 31.994 14.5177 32.1298 15.1094 32.2359L14.8906 33.4659C14.27 33.3559 13.6554 33.2138 13.0494 33.0403L11.25 32.6509V35.2034L15.9469 37.0822C16.6379 37.3592 17.3755 37.5014 18.12 37.5009H18.1287C18.8738 37.5014 19.6121 37.3593 20.3037 37.0822ZM13.1275 23.9353C13.1198 23.778 13.1345 23.6204 13.1712 23.4672L13.1718 23.466L15.5 13.5641C15.5668 13.2798 15.7083 13.0185 15.91 12.8072C16.1116 12.5959 16.366 12.4423 16.6468 12.3622L19.1581 11.6447C19.402 11.5751 19.6587 11.563 19.908 11.6094C20.1573 11.6558 20.3925 11.7595 20.595 11.9122C20.7974 12.0649 20.9617 12.2626 21.0748 12.4896C21.1879 12.7166 21.2468 12.9667 21.2468 13.2203V15.371L22.5 14.1178V8.12659H23.75V14.1178L25.0056 15.3722V13.2216C25.0056 12.968 25.0645 12.7178 25.1776 12.4908C25.2907 12.2638 25.455 12.0662 25.6575 11.9134C25.8599 11.7607 26.0951 11.6571 26.3444 11.6106C26.5938 11.5642 26.8505 11.5763 27.0943 11.646L29.605 12.3635C29.8853 12.4437 30.1392 12.5973 30.3405 12.8083C30.5417 13.0193 30.6831 13.2802 30.75 13.5641L33.0812 23.4672C33.1179 23.62 33.1326 23.7772 33.125 23.9341C33.0843 24.668 32.7862 25.3641 32.2832 25.9C31.7801 26.4359 31.1043 26.7773 30.3744 26.8642C29.6445 26.9512 28.9074 26.7781 28.2925 26.3753C27.6776 25.9726 27.2244 25.366 27.0125 24.6622C26.9898 24.581 26.9415 24.5092 26.8747 24.4578C26.8078 24.4063 26.7262 24.3778 26.6418 24.3766C26.2074 24.3761 25.7908 24.2033 25.4836 23.8961C25.1764 23.5888 25.0036 23.1723 25.0031 22.7378V17.1385L23.125 15.2635L21.2468 17.1385V22.7378C21.2463 23.1723 21.0735 23.5888 20.7663 23.8961C20.4591 24.2033 20.0426 24.3761 19.6081 24.3766C19.5238 24.3778 19.4422 24.4062 19.3754 24.4575C19.3086 24.5089 19.2602 24.5805 19.2375 24.6616C19.0244 25.3636 18.571 25.9683 17.9569 26.3697C17.3427 26.7711 16.6069 26.9437 15.8783 26.8571C15.1498 26.7705 14.4749 26.4303 13.972 25.8961C13.469 25.3619 13.1701 24.6678 13.1275 23.9353Z" fill="#B90D06"/>
<path d="M20.6338 3.23031C20.6714 3.49643 20.7428 3.75665 20.8463 4.00469L21.9894 3.49844C21.9341 3.36044 21.8957 3.21627 21.875 3.06906L21.8412 0.617812L20.5912 0.635312L20.625 3.13531L20.6338 3.23031Z" fill="#B90D06"/>
<path d="M18.4044 5.56094C18.3176 5.60419 18.222 5.62665 18.125 5.62656C18.0283 5.62762 17.9327 5.60623 17.8456 5.56406L16.5956 4.93906L17.1544 3.81719L18.125 4.30281L19.0956 3.81719L19.6544 4.93594L18.4044 5.56094Z" fill="#B90D06"/>
</svg>
