<svg width="40" height="40" viewBox="0 0 40 40" fill="none" xmlns="http://www.w3.org/2000/svg">
<path d="M3.75 39.3733H2.5V27.4983L3.125 19.9464V18.1558L2.5 12.0083C2.49984 10.5713 2.98681 9.17666 3.8814 8.05208C4.776 6.92751 6.02539 6.1394 7.42562 5.81641L12.795 4.57703C13.2126 4.48042 13.5948 4.26866 13.8981 3.96578C14.0328 3.85457 14.1443 3.7179 14.2261 3.56357C14.3079 3.40925 14.3585 3.2403 14.375 3.06641L14.4088 0.613281L15.6588 0.630781L15.6163 3.22516C15.5474 3.85084 15.2506 4.42928 14.7825 4.85016C14.3136 5.31862 13.7227 5.64604 13.0769 5.79516L7.70688 7.03453C6.58716 7.29273 5.58734 7.92123 4.86924 8.81832C4.15114 9.71541 3.75678 10.8286 3.75 11.9777L4.375 18.1233V19.9983L3.75 27.5502V39.3733Z" fill="#B90D06"/>
<path d="M28.1251 13.1233C27.6278 13.1233 27.1509 13.3208 26.7993 13.6725C26.4477 14.0241 26.2501 14.501 26.2501 14.9983C26.2501 15.4956 26.4477 15.9725 26.7993 16.3241C27.1509 16.6757 27.6278 16.8733 28.1251 16.8733C28.6224 16.8733 29.0993 16.6757 29.4509 16.3241C29.8026 15.9725 30.0001 15.4956 30.0001 14.9983H31.2501C31.2485 15.7311 30.9895 16.44 30.5182 17.0012C30.047 17.5623 29.3935 17.9401 28.672 18.0683V20.6783C29.3935 20.8065 30.047 21.1842 30.5182 21.7454C30.9895 22.3066 31.2485 23.0155 31.2501 23.7483H30.0001C30.0001 23.3775 29.8901 23.0149 29.6841 22.7066C29.4781 22.3983 29.1853 22.1579 28.8426 22.016C28.5 21.8741 28.123 21.837 27.7593 21.9093C27.3956 21.9817 27.0615 22.1602 26.7993 22.4225C26.5371 22.6847 26.3585 23.0188 26.2861 23.3825C26.2138 23.7462 26.2509 24.1232 26.3928 24.4658C26.5348 24.8084 26.7751 25.1013 27.0834 25.3073C27.3918 25.5133 27.7543 25.6233 28.1251 25.6233C28.9608 25.6233 29.7813 25.3998 30.5017 24.9761C31.222 24.5523 31.8159 23.9437 32.222 23.2133L33.1595 21.5214C33.5118 20.888 33.7121 20.1813 33.7446 19.4572C33.7771 18.7332 33.641 18.0114 33.347 17.3489L32.827 16.1789C32.4223 15.2698 31.7628 14.4973 30.9284 13.9551C30.094 13.4128 29.1203 13.1239 28.1251 13.1233Z" fill="#B90D06"/>
<path d="M22.6832 9.55635C22.566 9.67356 22.5001 9.83253 22.5001 9.99829V28.7483C22.5001 28.9141 22.566 29.073 22.6832 29.1902C22.8004 29.3074 22.9594 29.3733 23.1251 29.3733C23.2909 29.3733 23.4498 29.3074 23.5671 29.1902C23.6843 29.073 23.7501 28.9141 23.7501 28.7483V9.99829C23.7501 9.83253 23.6843 9.67356 23.5671 9.55635C23.4498 9.43914 23.2909 9.37329 23.1251 9.37329C22.9594 9.37329 22.8004 9.43914 22.6832 9.55635Z" fill="#B90D06"/>
<path d="M18.7501 19.9902V20.6777C19.356 20.7858 19.9164 21.0704 20.3612 21.4958C20.8059 21.9212 21.1152 22.4684 21.2501 23.0689V19.9902H18.7501Z" fill="#B90D06"/>
<path d="M21.2501 18.7583V15.6752C21.1159 16.2764 20.807 16.8246 20.3622 17.2509C19.9174 17.6771 19.3566 17.9624 18.7501 18.0708V18.7583H21.2501Z" fill="#B90D06"/>
<path d="M13.502 16.1783L12.982 17.3477C12.688 18.0102 12.5525 18.7325 12.585 19.4566C12.6175 20.1807 12.8178 20.8873 13.1701 21.5208L14.1076 23.2127C14.5135 23.9431 15.1073 24.5518 15.8276 24.9756C16.5478 25.3995 17.3682 25.6231 18.2039 25.6233C18.5747 25.6233 18.9372 25.5133 19.2456 25.3073C19.5539 25.1013 19.7942 24.8084 19.9361 24.4658C20.0781 24.1232 20.1152 23.7462 20.0428 23.3825C19.9705 23.0188 19.7919 22.6847 19.5297 22.4225C19.2675 22.1602 18.9334 21.9817 18.5697 21.9093C18.2059 21.837 17.8289 21.8741 17.4863 22.016C17.1437 22.1579 16.8509 22.3983 16.6449 22.7066C16.4388 23.0149 16.3289 23.3775 16.3289 23.7483H15.0789C15.0802 23.0428 15.3202 22.3586 15.7598 21.8069C16.1994 21.2552 16.8128 20.8684 17.5001 20.7095V18.0358C16.813 17.877 16.1998 17.4904 15.7602 16.9389C15.3206 16.3875 15.0805 15.7035 15.0789 14.9983H16.3289C16.3289 15.3691 16.4388 15.7316 16.6449 16.04C16.8509 16.3483 17.1437 16.5887 17.4863 16.7306C17.8289 16.8725 18.2059 16.9096 18.5697 16.8373C18.9334 16.7649 19.2675 16.5863 19.5297 16.3241C19.7919 16.0619 19.9705 15.7278 20.0428 15.3641C20.1152 15.0004 20.0781 14.6234 19.9361 14.2808C19.7942 13.9381 19.5539 13.6453 19.2456 13.4393C18.9372 13.2333 18.5747 13.1233 18.2039 13.1233C17.2087 13.1237 16.235 13.4124 15.4006 13.9546C14.5661 14.4968 13.9067 15.2692 13.502 16.1783Z" fill="#B90D06"/>
<path fill-rule="evenodd" clip-rule="evenodd" d="M11.1144 8.1083L11.3856 6.88831L14.82 7.65143C17.7099 5.59874 21.2568 4.68706 24.7784 5.09175C28.3 5.49643 31.5476 7.18889 33.8966 9.84361C36.2456 12.4983 37.5301 15.9278 37.503 19.4725C37.476 23.0171 36.1393 26.4266 33.75 29.0452V39.3733H32.5V30.2571C31.7523 30.9034 30.9404 31.4714 30.0769 31.9521L30.625 37.4358C30.6195 37.5223 30.6315 37.609 30.6601 37.6908C30.6888 37.7726 30.7336 37.8478 30.7919 37.9119C30.8502 37.976 30.9208 38.0278 30.9995 38.0641C31.0782 38.1004 31.1634 38.1205 31.25 38.1233H31.875V39.3733H30.625V39.2664C30.2597 39.1367 29.9434 38.8971 29.7197 38.5806C29.4959 38.264 29.3755 37.886 29.375 37.4983L28.875 32.5433C28.03 32.9142 27.1508 33.2018 26.25 33.4021V39.3733H25V36.5464L20.7681 38.2396C20.1226 38.4974 19.4426 38.6587 18.75 38.7183V39.3733H17.5V38.7183C16.8091 38.6581 16.1309 38.4968 15.4869 38.2396L11.255 36.5464V39.3733H10.005V31.8539L10.0533 30.3734C10.1185 28.3773 10.1901 26.1882 10.2025 25.6546C9.84996 24.9306 9.55975 24.1778 9.335 23.4046C9.23789 23.7322 9.1225 24.0542 8.98938 24.3689C8.4088 25.7248 8.02148 27.1554 7.83875 28.6189L7.5 31.3258L6.875 37.5608C6.86754 37.9393 6.74349 38.3062 6.51978 38.6116C6.29607 38.9169 5.9836 39.1458 5.625 39.2671V39.3733H4.375V38.1233H5C5.16576 38.1233 5.32473 38.0575 5.44194 37.9402C5.55915 37.823 5.625 37.6641 5.625 37.4983L6.25312 31.1858L6.59062 28.4652C6.78791 26.8857 7.20638 25.3418 7.83375 23.8789C8.33981 22.4912 8.63966 21.0368 8.72375 19.5621L8.74875 19.3308C8.74938 19.0496 8.76 18.7708 8.77688 18.4939C8.10312 18.1675 7.49012 17.7282 6.96437 17.1952L5.08937 14.0702L6.16063 13.4264L8.01312 16.5133C8.30227 16.7401 8.60744 16.9456 8.92625 17.1283C9.44669 13.8523 11.0848 10.8574 13.5625 8.65205L11.1144 8.1083ZM20.3031 37.0789L25 35.2002V33.6233C22.4024 33.9704 19.7594 33.5977 17.3591 32.5457C14.9588 31.4938 12.8934 29.803 11.3881 27.6577C11.3613 28.5127 11.3225 29.6983 11.2669 31.3733L13.3537 31.8258C13.9318 31.9907 14.5177 32.1265 15.1094 32.2327L14.8906 33.4627C14.27 33.3526 13.6554 33.2105 13.0494 33.0371L11.25 32.6477V35.2002L15.9469 37.0789C16.6378 37.3561 17.3755 37.4982 18.12 37.4977C18.1229 37.4971 18.1259 37.4971 18.1287 37.4977C18.8736 37.4983 19.6118 37.3562 20.3031 37.0789ZM11.3289 19.2483C11.3276 18.4185 11.5018 17.5978 11.8401 16.8402L12.3595 15.6708C12.8626 14.5408 13.6823 13.5808 14.7195 12.9069C15.7567 12.233 16.967 11.8739 18.2039 11.8733C18.9141 11.8743 19.6028 12.1172 20.1566 12.5619C20.7103 13.0067 21.096 13.6268 21.2501 14.3202V9.99829C21.2501 9.50101 21.4477 9.0241 21.7993 8.67247C22.1509 8.32083 22.6278 8.12329 23.1251 8.12329C23.6224 8.12329 24.0993 8.32083 24.4509 8.67247C24.8026 9.0241 25.0001 9.50101 25.0001 9.99829V18.7483H27.422V18.0364C26.6743 17.8645 26.0161 17.4233 25.5731 16.7969C25.1301 16.1706 24.9333 15.403 25.0203 14.6407C25.1072 13.8785 25.4719 13.175 26.0446 12.6645C26.6173 12.154 27.3579 11.8724 28.1251 11.8733C29.3615 11.8746 30.571 12.2341 31.6075 12.9081C32.6439 13.5821 33.463 14.5419 33.9657 15.6714L34.4857 16.8408C34.8586 17.6802 35.0314 18.5947 34.9905 19.5123C34.9496 20.4299 34.6961 21.3254 34.2501 22.1283L33.3126 23.8202C32.7985 24.7452 32.0465 25.516 31.1344 26.0528C30.2224 26.5896 29.1834 26.8729 28.1251 26.8733C27.3579 26.8742 26.6173 26.5925 26.0446 26.0821C25.4719 25.5716 25.1072 24.8681 25.0203 24.1058C24.9333 23.3436 25.1301 22.576 25.5731 21.9497C26.0161 21.3233 26.6743 20.8821 27.422 20.7102V19.9983H25.0001V28.7483C25.0001 29.2456 24.8026 29.7225 24.4509 30.0741C24.0993 30.4257 23.6224 30.6233 23.1251 30.6233C22.6278 30.6233 22.1509 30.4257 21.7993 30.0741C21.4477 29.7225 21.2501 29.2456 21.2501 28.7483V24.4252C21.0962 25.1187 20.7106 25.7391 20.1569 26.1842C19.6031 26.6292 18.9143 26.8723 18.2039 26.8733C17.1448 26.8734 16.105 26.5903 15.1922 26.0532C14.2794 25.5162 13.5269 24.7447 13.0126 23.8189L12.0751 22.1277C11.5863 21.2466 11.3296 20.2558 11.3289 19.2483Z" fill="#B90D06"/>
<path d="M20.8463 3.99828L21.99 3.49328C21.9347 3.35612 21.896 3.2128 21.875 3.06641L21.8412 0.614531L20.5912 0.632031L20.625 3.13203L20.6337 3.22641C20.6711 3.49177 20.7425 3.75121 20.8463 3.99828Z" fill="#B90D06"/>
<path d="M17.1544 3.81391L18.125 4.29953L19.0956 3.81703L19.6544 4.93578L18.4044 5.56078C18.3176 5.60413 18.222 5.6267 18.125 5.6267C18.028 5.6267 17.9324 5.60413 17.8456 5.56078L16.5956 4.93578L17.1544 3.81391Z" fill="#B90D06"/>
</svg>
