<svg width="40" height="40" viewBox="0 0 40 40" fill="none" xmlns="http://www.w3.org/2000/svg">
<path d="M21.1805 14.7893C21.3861 14.9267 21.6278 15 21.875 15C22.2065 15 22.5245 14.8683 22.7589 14.6339C22.9933 14.3995 23.125 14.0815 23.125 13.75C23.125 13.5028 23.0517 13.2611 22.9143 13.0555C22.777 12.85 22.5818 12.6898 22.3534 12.5952C22.1249 12.5005 21.8736 12.4758 21.6311 12.524C21.3887 12.5723 21.1659 12.6913 20.9911 12.8661C20.8163 13.0409 20.6973 13.2637 20.649 13.5061C20.6008 13.7486 20.6255 13.9999 20.7202 14.2284C20.8148 14.4568 20.975 14.652 21.1805 14.7893Z" fill="#B90D06"/>
<path d="M28.125 15C27.8778 15 27.6361 14.9267 27.4305 14.7893C27.225 14.652 27.0648 14.4568 26.9702 14.2284C26.8755 13.9999 26.8508 13.7486 26.899 13.5061C26.9473 13.2637 27.0663 13.0409 27.2411 12.8661C27.4159 12.6913 27.6387 12.5722 27.8811 12.524C28.1236 12.4758 28.3749 12.5005 28.6034 12.5951C28.8318 12.6898 29.027 12.85 29.1643 13.0555C29.3017 13.2611 29.375 13.5028 29.375 13.75C29.375 14.0815 29.2433 14.3995 29.0089 14.6339C28.7745 14.8683 28.4565 15 28.125 15Z" fill="#B90D06"/>
<path fill-rule="evenodd" clip-rule="evenodd" d="M30.6249 17.275C30.6249 17.1513 30.6617 17.0303 30.7305 16.9275L30.7293 16.93C31.3802 15.9505 31.7691 14.8203 31.8585 13.6476C31.948 12.4749 31.7351 11.2989 31.2402 10.2319C30.7453 9.16498 29.985 8.24284 29.032 7.55367C28.0789 6.8645 26.965 6.43135 25.7968 6.29563C25.5291 6.26527 25.2599 6.25004 24.9905 6.25C23.7476 6.25117 22.5283 6.58925 21.4623 7.22826C20.3962 7.86728 19.5234 8.78333 18.9365 9.87896C18.3497 10.9746 18.0709 12.2088 18.1297 13.4503C18.1885 14.6918 18.5827 15.8941 19.2705 16.9294C19.3386 17.0318 19.3749 17.152 19.3749 17.275V17.5C19.3749 17.9973 19.5724 18.4742 19.9241 18.8258C20.2757 19.1775 20.7526 19.375 21.2499 19.375C21.4157 19.375 21.5746 19.4409 21.6918 19.5581C21.809 19.6753 21.8749 19.8342 21.8749 20C21.8749 20.4973 22.0724 20.9742 22.4241 21.3258C22.7757 21.6775 23.2526 21.875 23.7499 21.875H26.2499C26.7472 21.875 27.2241 21.6775 27.5757 21.3258C27.9273 20.9742 28.1249 20.4973 28.1249 20C28.1249 19.8342 28.1907 19.6753 28.308 19.5581C28.4252 19.4409 28.5841 19.375 28.7499 19.375C29.2472 19.375 29.7241 19.1775 30.0757 18.8258C30.4273 18.4742 30.6249 17.9973 30.6249 17.5V17.275ZM23.9537 12.3611C24.2284 12.7722 24.375 13.2555 24.375 13.75C24.375 14.413 24.1116 15.0489 23.6428 15.5178C23.1739 15.9866 22.538 16.25 21.875 16.25C21.3805 16.25 20.8972 16.1034 20.4861 15.8287C20.075 15.554 19.7545 15.1635 19.5653 14.7067C19.3761 14.2499 19.3266 13.7472 19.423 13.2623C19.5195 12.7773 19.7576 12.3319 20.1072 11.9822C20.4569 11.6326 20.9023 11.3945 21.3873 11.298C21.8722 11.2016 22.3749 11.2511 22.8317 11.4403C23.2885 11.6295 23.679 11.95 23.9537 12.3611ZM28.125 11.25C27.6305 11.25 27.1472 11.3966 26.7361 11.6713C26.325 11.946 26.0045 12.3365 25.8153 12.7933C25.6261 13.2501 25.5766 13.7528 25.673 14.2377C25.7695 14.7227 26.0076 15.1681 26.3572 15.5178C26.7069 15.8674 27.1523 16.1055 27.6373 16.202C28.1222 16.2984 28.6249 16.2489 29.0817 16.0597C29.5385 15.8705 29.929 15.55 30.2037 15.1389C30.4784 14.7278 30.625 14.2445 30.625 13.75C30.625 13.087 30.3616 12.4511 29.8928 11.9822C29.4239 11.5134 28.788 11.25 28.125 11.25ZM23.3081 17.6831L24.5581 16.4331C24.6753 16.3159 24.8343 16.2501 25 16.2501C25.1657 16.2501 25.3247 16.3159 25.4419 16.4331L26.6919 17.6831L25.8081 18.5669L25 17.7587L24.1919 18.5669L23.3081 17.6831Z" fill="#B90D06"/>
<path fill-rule="evenodd" clip-rule="evenodd" d="M25 0.625002C21.7466 0.629521 18.5907 1.73588 16.0466 3.76375C13.5026 5.79162 11.7204 8.62141 10.9906 11.7919C10.6031 12.0031 10.0619 12.34 9.85812 12.4681C9.13206 12.9512 8.53678 13.6064 8.12534 14.3753C7.71389 15.1442 7.49906 16.0029 7.5 16.875L8.825 22.25L10.0319 23.1063L10.1506 25.2894C10.066 25.7227 9.85759 26.1221 9.55068 26.4395C9.24376 26.7568 8.85147 26.9784 8.42125 27.0775L3.05063 28.3181C2.28035 28.4951 1.55005 28.8148 0.897501 29.2606C0.813407 29.3181 0.744622 29.3952 0.69713 29.4853C0.649637 29.5753 0.624876 29.6757 0.625 29.7775V38.75C0.625 38.9158 0.690849 39.0747 0.808059 39.1919C0.925269 39.3092 1.08424 39.375 1.25 39.375H28.75C28.9158 39.375 29.0747 39.3092 29.1919 39.1919C29.3092 39.0747 29.375 38.9158 29.375 38.75V34.3606C29.3397 32.9697 28.8514 31.6282 27.9844 30.54L27.0081 31.3213C27.702 32.191 28.094 33.2628 28.125 34.375V38.125H26.2287L26.7856 37.1969L25.7144 36.5531L24.7712 38.125H1.875V30.1194C2.32748 29.8507 2.81897 29.654 3.33188 29.5363L8.70187 28.2969C9.384 28.1396 10.0041 27.7834 10.4835 27.2734C10.963 26.7633 11.2802 26.1224 11.395 25.4319C11.4025 25.3869 11.405 25.3412 11.4025 25.2956L11.3337 24.0319L12.1887 24.6388L12.3044 24.7013C13.0222 25.0162 13.8247 25.0822 14.5844 24.8888C16.2224 26.6146 18.2634 27.9066 20.5241 28.649C22.7847 29.3913 25.1944 29.5607 27.5367 29.1419C29.879 28.7232 32.0806 27.7293 33.944 26.2496C35.8074 24.77 37.2742 22.8507 38.2128 20.6643C39.1514 18.4778 39.5324 16.0924 39.3216 13.7223C39.1107 11.3523 38.3147 9.07162 37.0049 7.08513C35.6951 5.09864 33.9126 3.46846 31.8173 2.34092C29.7219 1.21338 27.3794 0.623765 25 0.625002ZM12.855 23.5788L9.925 21.5L8.75 16.8006C8.76061 16.1497 8.92876 15.511 9.24005 14.9393C9.55135 14.3675 9.99653 13.8797 10.5375 13.5175L10.5456 13.5124C10.6005 13.4778 10.6573 13.442 10.715 13.4069C10.298 17.0939 11.3312 20.7985 13.5962 23.7375C13.3424 23.7239 13.0922 23.6703 12.855 23.5788ZM21.4911 5.79717C22.8733 5.13473 24.4147 4.87658 25.9374 5.0525C27.3023 5.21044 28.6048 5.71192 29.7232 6.51005C30.8416 7.30818 31.7393 8.37689 32.3324 9.61625C32.9255 10.8556 33.1946 12.2251 33.1146 13.5968C33.0346 14.9684 32.6081 16.2974 31.8749 17.4594V17.5C31.8739 18.2293 31.6183 18.9353 31.1523 19.4962C30.6863 20.0572 30.0391 20.4378 29.3224 20.5725C29.1877 21.2892 28.8071 21.9364 28.2461 22.4024C27.6852 22.8685 26.9792 23.124 26.2499 23.125H23.7499C23.0206 23.124 22.3146 22.8685 21.7537 22.4024C21.1927 21.9364 20.8121 21.2892 20.6774 20.5725C19.9607 20.4378 19.3135 20.0572 18.8475 19.4962C18.3814 18.9353 18.1259 18.2293 18.1249 17.5V17.4594C17.3082 16.1622 16.8749 14.6607 16.875 13.1279C16.8751 11.595 17.3085 10.0935 18.1252 8.79642C18.942 7.49934 20.1088 6.45961 21.4911 5.79717Z" fill="#B90D06"/>
<path d="M13.75 26.8013L14.7206 26.3156L15.2794 27.4344L14.0294 28.0594C13.9426 28.1027 13.847 28.1253 13.75 28.1253C13.653 28.1253 13.5574 28.1027 13.4706 28.0594L12.2206 27.4344L12.7794 26.3156L13.75 26.8013Z" fill="#B90D06"/>
<path d="M16.0512 32.4206L21.3856 31.2331L21.1144 30.0119L15.4894 31.2619C15.3985 31.2821 15.3134 31.3223 15.24 31.3796C15.1667 31.4369 15.1071 31.5098 15.0656 31.5931L14.4406 32.8431L15.5594 33.4019L16.0512 32.4206Z" fill="#B90D06"/>
<path d="M12.0106 31.2644L6.38563 30.0144L6.11438 31.2356L11.4488 32.4231L11.9406 33.4069L13.0594 32.8481L12.4344 31.5981C12.3931 31.5144 12.3337 31.4409 12.2604 31.3832C12.187 31.3254 12.1017 31.2848 12.0106 31.2644Z" fill="#B90D06"/>
<path d="M14.375 36.875V34.375H13.125V36.875H14.375Z" fill="#B90D06"/>
</svg>
