<svg width="36" height="36" viewBox="0 0 36 36" fill="none" xmlns="http://www.w3.org/2000/svg">
<path d="M19.7673 30.4388C11.4747 29.6096 5.37211 24.226 5.52613 15.8132C5.60514 11.4992 3.40252 9.54763 1.89796 8.00993C1.4672 7.56961 0.768794 7.56961 0.337964 8.00993C-0.0927978 8.45018 -0.0927978 9.16403 0.337964 9.60428C1.76538 11.0631 3.38156 12.4289 3.32034 15.7711C3.14557 25.314 10.032 31.731 19.5524 32.6829C21.916 32.9193 23.6199 33.3991 25.335 35.1519C25.79 35.6169 26.0536 35.9988 26.6205 35.9988C27.5944 35.9988 28.0975 34.7865 27.4004 34.0742C25.327 31.9548 23.7275 30.8349 19.7673 30.4388Z" fill="#0C4C91"/>
<path d="M34.9112 26.3983L34.412 25.8881C32.5563 23.9914 31.8462 21.1257 31.5774 19.0557C30.3667 9.73266 24.7519 3.2189 15.6022 3.20903C13.3251 3.20657 11.6394 2.61391 10.4488 1.39709L9.40875 0.334093C8.97799 -0.106156 8.27952 -0.106156 7.84876 0.334093C7.41793 0.774414 7.41793 1.4882 7.84876 1.92845C9.36456 3.47771 10.9475 5.4589 15.5999 5.46383C23.6399 5.4725 28.3282 11.1728 29.3904 19.3523C29.8403 22.8164 31.0373 25.6277 32.852 27.4824L33.3512 27.9926C33.7819 28.4328 34.4804 28.4329 34.9112 27.9926C35.3421 27.5524 35.3421 26.8386 34.9112 26.3983Z" fill="#0C4C91"/>
<path d="M27.5347 23.376C27.1086 14.205 21.8999 8.83736 12.4716 7.85357C10.841 7.6834 7.6538 5.41246 6.02803 4.02118C5.60817 3.66147 4.99353 3.67126 4.58483 4.04422C4.17606 4.41711 4.09712 5.04014 4.39944 5.50716C5.27138 6.85448 7.53432 10.799 7.53432 12.8443C7.53432 22.1415 13.4395 28.0262 22.8197 28.2256C23.9035 28.2487 25.3794 28.9459 27.0878 30.242C29.5227 32.0893 29.4577 32.6896 30.2774 32.6896C31.1597 32.6896 31.69 31.6713 31.1857 30.9227C29.8151 28.8885 27.612 25.0408 27.5347 23.376V23.376ZM24.8428 19.8979C22.8071 19.3932 21.1514 18.7383 19.8403 17.9161C20.4376 16.7801 21.173 15.3704 21.8152 14.1378C23.2712 15.6413 24.284 17.5696 24.8428 19.8979V19.8979ZM20.1552 23.965C19.9495 24.664 19.5434 25.2029 19.0097 25.489C17.7141 25.1732 16.3003 24.5542 15.2557 23.9476C15.5157 23.2605 18.7134 20.9334 19.926 21.0105C20.3304 22.0033 20.4189 23.0689 20.1552 23.965V23.965ZM16.0096 10.8132C17.5541 11.263 18.9125 11.8855 20.076 12.6783C19.4068 13.9636 18.6167 15.4777 18.0781 16.504C16.6542 15.0253 15.9754 13.1575 16.0096 10.8132V10.8132ZM14.9975 21.0908C14.9469 19.6593 15.1372 18.2005 15.5346 16.9032C16.1888 17.8453 16.9839 18.6245 17.8852 19.2911C16.8264 19.7278 15.8678 20.3426 14.9975 21.0908ZM13.8206 10.3128C13.7742 10.7863 13.7955 11.8915 13.9402 12.8302C12.5549 12.4747 11.0901 12.4732 9.74032 12.8365C9.73825 11.6005 9.23282 10.0665 8.60468 8.63633C11.3131 10.2492 12.1157 10.0199 13.8206 10.3128ZM9.88545 15.1506C10.9845 14.7651 12.4227 14.6733 13.8206 15.1381C13.0761 16.9181 12.6053 19.3967 12.8387 21.9558C11.2536 20.1967 10.2423 17.9009 9.88545 15.1506V15.1506ZM21.6904 25.912C22.4853 24.635 22.6779 23.0339 22.3815 21.5298C22.9258 21.7109 24.8166 22.2648 25.2424 22.2858C25.3797 23.6314 25.1837 24.3873 26.4688 27.1411C24.1037 25.7971 23.0265 26.0189 21.6904 25.912Z" fill="#0C4C91"/>
</svg>
