<svg width="37" height="36" viewBox="0 0 37 36" fill="none" xmlns="http://www.w3.org/2000/svg">
<path d="M34.9294 9.27258C32.4295 2.39596 26.6584 0.488375 21.2316 3.8781C20.9037 3.04422 20.7694 2.1555 20.8226 1.18803C20.8582 0.542795 20.3548 0 19.7228 0H15.3122C14.7316 0 14.2507 0.460251 14.213 1.05191C14.0623 3.41876 14.3503 6.85806 16.5774 9.80891C21.2405 16.2538 17.1529 24.5901 13.1455 22.4725C9.43781 20.3071 5.48308 20.9099 1.39106 24.2645C1.13054 24.4781 0.979004 24.8008 0.979004 25.1419V29.3783C0.979004 30.217 1.84848 30.7623 2.58136 30.3803C6.05554 28.5693 8.48992 27.8793 9.81572 28.3296C11.9053 29.039 11.791 33.2107 15.2043 34.8787C15.2227 34.8876 15.2412 34.8961 15.2601 34.904C23.4077 38.3328 34.9992 33.7939 36.1348 20.1911C36.4121 16.7397 36.1414 12.6065 34.9294 9.27258V9.27258Z" fill="#0C4C91" fill-opacity="0.31"/>
<path d="M34.9267 25.8311C33.6227 25.1249 32.2473 24.3433 31.1358 23.6264C28.0571 21.6407 26.0318 23.9574 17.201 26.5222C11.4491 28.1928 7.58788 24.5281 5.5944 21.7695C4.21284 22.2703 2.81014 23.1025 1.39099 24.2659C1.13054 24.4794 0.979004 24.8021 0.979004 25.1432V29.3796C0.979004 30.2183 1.84848 30.7635 2.58136 30.3816C6.05554 28.5706 8.48992 27.8806 9.81572 28.3309C11.9053 29.0403 11.791 33.212 15.2043 34.88C15.2227 34.8889 15.2412 34.8974 15.2601 34.9053C21.9802 37.7335 31.5012 35.1252 34.9267 25.8311Z" fill="#0C4C91" fill-opacity="0.45"/>
<path d="M32.6751 10.0561C33.2505 9.26203 33.8259 8.5628 34.38 7.95075C31.6521 2.16893 26.3021 0.710906 21.2317 3.8781C20.9037 3.04422 20.7695 2.1555 20.8227 1.18803C20.8582 0.542795 20.3548 0 19.7229 0H15.3123C14.7316 0 14.2507 0.460251 14.2131 1.05191C14.0624 3.41876 14.3504 6.85806 16.5775 9.80891C16.9663 10.3463 17.2858 10.8832 17.5474 11.4114C19.4172 11.5588 21.2858 12.1038 22.5481 13.4517C26.0318 17.1715 29.6775 14.193 32.6751 10.0561V10.0561Z" fill="#0C4C91" fill-opacity="0.45"/>
<path d="M20.7312 35.9846C18.5565 35.9846 16.3562 35.441 15.2043 34.8786C11.7937 33.2119 11.904 29.0385 9.81572 28.3295C8.48992 27.8793 6.05554 28.5692 2.58136 30.3803C1.84979 30.7615 0.979004 30.2185 0.979004 29.3783V25.1418C0.979004 24.8007 1.13054 24.4781 1.39099 24.2645C5.48308 20.9099 9.43781 20.307 13.1455 22.4725C17.1953 24.6126 21.1988 16.1963 16.5774 9.80891C14.3502 6.85806 14.0622 3.41876 14.2129 1.05191C14.2506 0.46018 14.7315 0 15.3122 0H19.7227C20.3555 0 20.858 0.543709 20.8226 1.18803C20.7694 2.1555 20.9037 3.04415 21.2315 3.8781C28.778 -0.835567 37.1582 4.64736 36.1362 20.171C35.9777 22.8016 35.1471 25.9857 33.6537 28.546C30.8269 33.3926 25.8878 35.9845 20.7312 35.9846ZM16.129 32.8362C19.606 34.2872 24.0098 33.9907 27.5061 31.814C31.5933 29.2697 33.5332 24.8431 33.9388 20.0102C34.8054 6.79499 28.3477 1.19007 21.4841 6.41883C20.9712 6.80933 20.2401 6.67314 19.8962 6.12114C19.1455 4.91665 18.7272 3.64137 18.6299 2.24986H16.3836C16.4133 4.85886 17.126 6.77769 18.3416 8.46113C21.8803 13.3423 21.4137 19.5847 18.5894 22.9531C16.6755 25.2355 14.0668 25.6054 12.068 24.435C9.61365 22.9945 6.77273 22.9237 3.18212 25.6914V27.5823C6.49038 26.037 8.78851 25.6098 10.5108 26.1946C13.8481 27.3276 13.5435 31.5441 16.129 32.8362V32.8362Z" fill="#0C4C91"/>
</svg>
