<svg width="37" height="36" viewBox="0 0 37 36" fill="none" xmlns="http://www.w3.org/2000/svg">
<path d="M31.8013 0.0195312H15.4063C7.45106 0.0195312 0.979004 6.65141 0.979004 14.8031V32.2615C0.979004 36.4545 6.71683 37.494 8.10151 33.4545C9.33716 34.8737 11.135 35.7067 13.0135 35.7067H13.7051C15.9058 35.7067 17.6963 33.8873 17.6963 31.651V25.1501C18.9539 24.8802 20.2604 24.3363 21.4767 23.1603C22.5117 22.4026 23.3234 21.4464 23.996 20.4013C24.4302 20.9283 24.6922 21.6066 24.6922 22.3461V34.5791C24.6922 35.2019 25.189 35.7067 25.8019 35.7067C26.4147 35.7067 26.9115 35.2019 26.9115 34.5791V22.3461C26.9115 20.7551 26.2157 19.327 25.1182 18.3566C26.5036 15.4467 27.3622 12.2131 29.0655 11.0383C30.3396 10.1596 32.1046 9.38473 33.6475 8.66111C37.976 6.63097 36.5392 0.0195312 31.8013 0.0195312ZM15.477 31.6509C15.477 32.6437 14.6821 33.4515 13.7051 33.4515H13.0135C11.6486 33.4515 10.3479 32.7867 9.53411 31.6732L8.975 30.9082C10.9241 25.4587 11.9627 25.6264 15.477 25.4191V31.6509ZM32.7175 6.61356C31.071 7.3856 29.2561 8.18139 27.8192 9.1724C25.4667 10.7948 24.6082 14.2092 23.1702 17.2711C22.7056 17.1325 22.2146 17.0567 21.7064 17.0567C20.5716 17.0567 19.5176 16.3867 19.0213 15.3496L18.3987 14.0489C18.8569 13.6078 19.2196 13.0664 19.4528 12.4619C20.1997 10.526 21.3732 9.22356 23.0404 8.4802C23.6016 8.22995 23.8569 7.56482 23.6107 6.99454C23.3645 6.42427 22.7101 6.16485 22.1487 6.41504C19.9474 7.39653 18.3452 9.15407 17.3866 11.6388C17.2066 12.1054 16.8853 12.4737 16.4868 12.708C14.7447 13.6331 15.1825 11.846 9.13243 13.9199C8.55175 14.119 8.23973 14.7586 8.43565 15.3487C8.59183 15.8194 9.02382 16.1163 9.48696 16.1163C10.1113 16.1163 12.6683 14.8362 14.6936 15.1857C15.2789 15.2866 15.8761 15.2632 16.4457 15.1242L17.0256 16.3359C17.8909 18.1437 19.7282 19.3118 21.7065 19.3118C21.817 19.3118 21.9261 19.3185 22.0335 19.3304C21.0329 20.8268 20.1936 21.2835 19.9931 21.4813C16.7641 24.6697 12.2822 21.6172 9.24103 25.4028C7.74657 27.263 6.84756 30.2559 5.99204 32.7532C5.45137 34.331 3.19833 33.9407 3.19833 32.2613V14.8031C3.19833 7.89492 8.67485 2.2747 15.4063 2.2747H31.8013C34.1922 2.2747 34.8609 5.60818 32.7175 6.61356Z" fill="#0C4C91"/>
</svg>
