<svg width="86" height="21" viewBox="0 0 86 21" fill="none" xmlns="http://www.w3.org/2000/svg">
<path d="M28.5731 9.45621L30.158 5.79458L28.7748 2.54682L28.748 2.48387H28.8175H29.3738H29.4047L29.4167 2.51213L30.5531 5.22752L31.6896 2.51213L31.7016 2.48387H31.7325H32.2888H32.3583L32.3315 2.54682L30.9484 5.79443L32.5551 9.4567L35.5391 2.45737L35.5511 2.42927H35.5818H36.2049H36.2751L36.2474 2.4927L32.8653 10.2462L32.8532 10.2738H32.8228H32.2999H32.2693L32.2572 10.2462L30.5641 6.35779L28.8602 10.2463L28.8481 10.2738H28.8175H28.2946H28.2642L28.2521 10.2462L24.8809 2.4927L24.8535 2.42926H24.9236H25.5356H25.5663L25.5783 2.45721L28.5731 9.45621V9.45621ZM12.3288 1.98714C12.1534 2.12702 12.0685 2.13248 12.1226 2.22547C12.1781 2.32086 12.1955 2.36165 12.0569 2.3684C11.9183 2.3753 11.8211 2.35491 11.8663 2.42284C11.9113 2.49093 11.9875 2.57252 11.7483 2.60994C11.5093 2.64736 10.861 2.87878 10.4693 2.90945C10.0776 2.93996 9.92154 3.09992 9.86967 3.22583C9.81764 3.35174 9.32876 3.5626 9.20049 3.37213C9.07238 3.18166 8.91629 2.88906 8.99253 2.7291C9.36279 1.95261 8.5313 2.53703 8.30993 2.22691C9.61018 1.85465 11.1621 1.65197 12.3288 1.98714L12.3288 1.98714ZM14.6366 2.67466C17.6443 3.89616 19.2332 6.89371 19.673 8.58914C19.1445 8.99947 18.1258 9.88982 18.0152 9.29224C17.9045 8.69449 17.7117 9.31713 17.5177 8.82715C17.3235 8.33733 16.5193 7.90178 17.1016 8.63668C17.6841 9.37157 17.2665 9.04716 17.5437 9.42826C17.821 9.80936 18.0707 10.0271 18.5143 9.89095C18.958 9.75492 18.8749 10.1632 18.4866 10.5714C18.0984 10.9798 17.322 11.7145 17.3497 12.64C17.3775 13.5656 17.6546 13.511 17.0447 14.001C16.4346 14.4909 16.9059 14.627 16.49 15.0081C16.0741 15.3892 16.185 15.8247 15.4363 16.1512C14.6876 16.4778 14.9372 16.4778 14.7153 15.7703C14.4934 15.0625 13.9389 14.7087 13.9944 13.8376C14.0499 12.9667 14.4103 12.3134 13.9666 11.8507C13.523 11.388 13.9944 10.517 13.3288 10.5714C12.6632 10.6258 11.8314 11.1974 11.1936 10.1359C10.5559 9.07446 10.1953 8.20339 10.8609 7.79515C11.5264 7.38691 11.4986 6.7609 11.6927 6.59757C11.8869 6.43425 12.3861 6.84248 13.4952 6.54313C14.6044 6.24362 13.8835 6.67916 14.6044 7.00581C15.3254 7.33247 15.5473 7.06026 15.7137 6.95137C15.8799 6.84249 17.2111 6.65186 16.3514 6.32536C15.3717 5.9531 15.0798 6.16733 14.9589 5.57425C14.8482 5.02998 13.4823 5.24839 13.9491 5.44545C14.416 5.64234 14.8262 5.88982 14.6322 5.93061C14.4381 5.97141 14.2662 6.21021 14.1186 6.1585C13.9712 6.10663 14.5073 5.99871 14.2163 5.80808C13.925 5.61761 13.731 5.65856 13.6338 5.46793C13.5368 5.27746 13.523 5.23651 13.523 5.23651C13.523 5.23651 13.1902 5.04604 12.7742 5.64491C12.3583 6.24362 11.776 6.46139 11.6096 5.83538C11.4432 5.20937 13.107 5.26381 12.4137 4.85557C11.7205 4.44734 13.0793 4.28385 13.4121 4.25671C13.7447 4.22957 14.6044 3.33134 14.0221 3.46737C13.4398 3.60339 13.1902 3.68514 12.6911 3.35848C12.1997 3.03697 14.1263 3.16384 14.6366 2.67466L14.6366 2.67466ZM1.96117 8.95289C2.4278 6.77181 5.10405 3.23401 7.3855 2.66807C7.9678 2.66807 7.74823 3.48776 8.05321 4.00489C8.35819 4.52201 7.96993 4.82152 6.69439 5.01199C5.41884 5.20262 5.61305 6.04624 5.00294 6.31861C4.39282 6.59067 4.06002 7.32556 3.86598 6.99891C3.67193 6.67241 3.06181 6.72685 2.67355 7.7884C2.28529 8.84979 2.73213 8.67362 3.04708 8.5877C3.36204 8.50194 3.28351 8.94454 3.58849 9.43437C3.89346 9.92435 4.58703 9.66643 5.25246 9.47596C5.91804 9.28533 6.88861 9.77531 7.08265 10.2924C7.27686 10.8096 7.08265 11.218 8.41366 11.6806C9.74466 12.1433 9.32876 12.3067 9.13471 12.8782C8.9405 13.4499 8.85738 13.7764 8.46912 14.3209C8.08103 14.8651 8.66333 15.1918 8.08103 15.464C7.49856 15.7362 6.83314 16.2262 6.86079 16.7433C6.8886 17.2604 7.33232 18.1315 6.52799 17.5327C5.72383 16.9338 5.44666 15.8722 5.33573 14.348C5.2248 12.8238 4.80873 13.6131 4.22642 12.9598C3.64412 12.3067 3.68584 11.4492 3.92144 11.0137C4.15721 10.5783 4.32361 10.0747 3.83833 10.0202C3.35305 9.96579 3.14509 9.84341 2.95088 9.35343C2.75683 8.86344 2.68746 9.1901 2.25765 9.122C2.10483 9.09792 2.01157 9.04781 1.96118 8.9529L1.96117 8.95289ZM24.9096 17.8134H60.351V17.8158H60.3736V17.8063C60.6144 17.7944 60.8217 17.7027 60.9968 17.5325C61.1846 17.3497 61.2785 17.1255 61.2785 16.8617C61.2785 16.6041 61.1863 16.3831 60.9983 16.2003C60.898 16.1001 60.6938 15.9554 60.3862 15.7616C60.0233 15.5692 59.7723 15.4054 59.6329 15.2687C59.4143 15.054 59.3058 14.7966 59.3058 14.4959C59.3058 14.1908 59.4143 13.9316 59.6329 13.7154C59.8238 13.5253 60.0511 13.4188 60.3113 13.3958C60.3113 13.3872 61.6005 13.3912 61.7231 13.3912V13.798C61.2784 13.798 60.8275 13.7962 60.4484 13.7933C60.2589 13.792 60.067 13.8808 59.931 14.0127C59.7949 14.1447 59.727 14.3053 59.727 14.4959C59.727 14.6821 59.7949 14.841 59.931 14.9745C60.0104 15.0524 60.1787 15.1701 60.4346 15.3291C60.8396 15.5469 61.1279 15.7393 61.298 15.9061C61.5668 16.1732 61.7013 16.4912 61.7013 16.8617C61.7013 17.2401 61.5668 17.5627 61.298 17.8283C61.0292 18.0938 60.7036 18.2256 60.3198 18.2256C60.2753 18.2256 60.2317 18.2239 60.1887 18.2203H24.9095V17.8134L24.9096 17.8134ZM10.8548 0C13.8085 0 16.483 1.17541 18.4189 3.0756C20.3544 4.97564 21.5521 7.60076 21.5521 10.5002C21.5521 13.3996 20.3544 16.0247 18.4189 17.9248C16.483 19.8248 13.8085 21.0002 10.8548 21.0002C7.90104 21.0002 5.22642 19.825 3.2907 17.9248C1.35481 16.0247 0.157471 13.3995 0.157471 10.5002C0.157471 7.60091 1.35481 4.97562 3.2907 3.0756C5.22644 1.17541 7.90104 0 10.8548 0ZM17.9126 3.57249C16.1065 1.7995 13.611 0.702938 10.8548 0.702938C8.09837 0.702938 5.6029 1.7995 3.79677 3.57249C1.99062 5.34517 0.873456 7.7946 0.873456 10.5002C0.873456 13.2058 1.99062 15.6552 3.79677 17.4279C5.60291 19.2009 8.09837 20.2974 10.8548 20.2974C13.611 20.2974 16.1065 19.2007 17.9126 17.4279C19.7186 15.655 20.8359 13.2056 20.8359 10.5002C20.8359 7.7946 19.7186 5.34516 17.9126 3.57249ZM63.6482 13.5405V11.5929H64.0741V13.5405H65.0232V13.9601H64.0741V18.1143H63.6482V13.9601H62.6991V13.5405H63.6482ZM68.0844 18.1795C67.503 18.1795 67.0381 18.011 66.6947 17.6723C66.3498 17.3338 66.1716 16.9061 66.162 16.3911V13.5405H66.5895V16.3544C66.5895 16.7423 66.7336 17.073 67.0219 17.3465C67.307 17.6216 67.6584 17.7598 68.0795 17.7598C68.4716 17.7598 68.8117 17.623 69.0967 17.3481C69.3834 17.073 69.5275 16.7423 69.5275 16.3544V13.5405H69.9536V16.3911C69.9438 16.9061 69.7672 17.3338 69.4223 17.6723C69.0773 18.011 68.6319 18.1795 68.0844 18.1795V18.1795ZM76.4079 18.1143H75.9803V17.1828C75.8977 17.2909 75.8087 17.3958 75.7099 17.4944C75.2014 17.9951 74.5859 18.2447 73.865 18.2447C73.1459 18.2447 72.532 17.9951 72.0235 17.4944C71.5133 16.9951 71.2589 16.3925 71.2589 15.6883C71.2589 14.9792 71.5133 14.3751 72.0235 13.8759C72.532 13.3766 73.1459 13.1256 73.865 13.1256C74.5859 13.1256 75.2014 13.3766 75.7099 13.8759C75.8087 13.9746 75.8977 14.0794 75.9803 14.1875V10.6613H76.4079V18.1143V18.1143ZM75.9803 16.1017V15.2733C75.901 14.8631 75.7034 14.5039 75.3876 14.1923C74.9664 13.779 74.4594 13.5739 73.865 13.5739C73.2689 13.5739 72.762 13.779 72.3409 14.1923C71.9198 14.6057 71.7108 15.1032 71.7108 15.6883C71.7108 16.2717 71.9198 16.7693 72.3409 17.1812C72.762 17.5914 73.2689 17.7981 73.865 17.7981C74.4594 17.7981 74.9664 17.5914 75.3876 17.178C75.7034 16.8679 75.901 16.5086 75.9803 16.1017V16.1017ZM78.3531 13.5405V18.1143H77.9256V13.5405H78.3531ZM78.1394 11.9205C78.2559 11.9205 78.3564 11.9602 78.4406 12.0413C78.5249 12.1208 78.5669 12.2194 78.5669 12.3339C78.5669 12.4514 78.5249 12.5517 78.4406 12.6328C78.3564 12.7137 78.2559 12.7535 78.1394 12.7535C78.0228 12.7535 77.9223 12.7137 77.8382 12.6328C77.7539 12.5517 77.7117 12.4514 77.7117 12.3339C77.7117 12.2194 77.7539 12.1208 77.8382 12.0413C77.9223 11.9602 78.0228 11.9205 78.1394 11.9205ZM82.1918 13.1256C82.9126 13.1256 83.5281 13.3766 84.035 13.8759C84.5436 14.3751 84.7962 14.9792 84.7962 15.6883C84.7962 16.3925 84.5436 16.9951 84.035 17.4944C83.5281 17.9951 82.9125 18.2447 82.1918 18.2447C81.4742 18.2447 80.8603 17.9951 80.3502 17.4944C79.8417 16.9951 79.5874 16.3925 79.5874 15.6883C79.5874 14.9792 79.8417 14.3751 80.3502 13.8759C80.8603 13.3766 81.4742 13.1256 82.1918 13.1256ZM82.1918 13.5739C81.5974 13.5739 81.0887 13.7789 80.6692 14.1923C80.2482 14.6057 80.0377 15.1032 80.0377 15.6883C80.0377 16.2717 80.2482 16.7693 80.6692 17.1812C81.0887 17.5914 81.5974 17.7981 82.1918 17.7981C82.7862 17.7981 83.2948 17.5914 83.7159 17.1812C84.1354 16.7693 84.346 16.2717 84.346 15.6883C84.346 15.1032 84.1354 14.6057 83.7159 14.1923C83.2948 13.7789 82.7862 13.5739 82.1918 13.5739ZM39.7206 10.3375C40.0006 10.3357 40.2676 10.301 40.5235 10.232C40.7794 10.1628 41.0166 10.0645 41.2336 9.9389C41.4506 9.81154 41.6397 9.66219 41.801 9.48938C41.9623 9.31642 42.0885 9.12708 42.1793 8.91782L41.5229 8.74309C41.4303 8.94881 41.2948 9.12708 41.1132 9.28189C40.9314 9.43478 40.7238 9.55491 40.4864 9.63858C40.2491 9.72418 40.0006 9.76786 39.7427 9.76963C39.4628 9.76786 39.1995 9.71502 38.953 9.61128C38.7044 9.50577 38.4837 9.35834 38.291 9.16899C38.0981 8.97965 37.9405 8.75578 37.8219 8.49737C37.7031 8.24074 37.6308 7.95873 37.6067 7.65102H42.5576C42.5631 7.62565 42.5687 7.5855 42.5725 7.52736C42.578 7.47083 42.5798 7.4127 42.5798 7.35617C42.5762 6.96302 42.5037 6.59172 42.3647 6.24226C42.2256 5.89296 42.0291 5.58156 41.7752 5.31224C41.5211 5.04292 41.2189 4.82997 40.8702 4.67708C40.5197 4.52242 40.1341 4.44405 39.7095 4.44052C39.2867 4.44228 38.8991 4.5205 38.5469 4.67338C38.1946 4.82627 37.8867 5.03746 37.6272 5.30502C37.3675 5.57434 37.1655 5.88558 37.0226 6.2368C36.8798 6.58819 36.8075 6.96495 36.8057 7.36709C36.8075 7.77484 36.8798 8.15514 37.0226 8.51375C37.1673 8.87044 37.3675 9.18537 37.629 9.45839C37.8904 9.7314 38.1964 9.94612 38.5524 10.1009C38.9065 10.2556 39.2959 10.3338 39.7206 10.3375H39.7206ZM37.5845 7.08315C37.6048 6.78107 37.6735 6.50436 37.7903 6.25318C37.9053 6.00201 38.0591 5.78552 38.2502 5.59987C38.4412 5.41599 38.6617 5.27402 38.9103 5.17204C39.1568 5.07199 39.4238 5.02108 39.7095 5.01931C39.995 5.02108 40.262 5.07022 40.5086 5.17027C40.7571 5.27033 40.9777 5.41229 41.1706 5.59618C41.3635 5.78006 41.5193 5.99847 41.6379 6.24965C41.7565 6.50082 41.8308 6.7793 41.8566 7.08315H37.5845L37.5845 7.08315ZM78.1833 10.3375C78.4633 10.3357 78.7303 10.301 78.9862 10.232C79.2421 10.1628 79.4795 10.0645 79.6963 9.9389C79.9134 9.81154 80.1025 9.66219 80.2637 9.48938C80.4252 9.31642 80.5512 9.12708 80.642 8.91782L79.9856 8.74309C79.893 8.94881 79.7576 9.12708 79.5759 9.28189C79.3941 9.43478 79.1865 9.55491 78.9491 9.63858C78.7118 9.72418 78.4633 9.76786 78.2056 9.76963C77.9255 9.76786 77.6622 9.71502 77.4157 9.61128C77.1671 9.50577 76.9466 9.35834 76.7537 9.16899C76.5609 8.97965 76.4032 8.75578 76.2846 8.49737C76.1658 8.24074 76.0936 7.95873 76.0694 7.65102H81.0202C81.0258 7.62565 81.0314 7.5855 81.0351 7.52736C81.0407 7.47083 81.0427 7.4127 81.0427 7.35617C81.0389 6.96302 80.9666 6.59172 80.8275 6.24226C80.6884 5.89296 80.4918 5.58156 80.2378 5.31224C79.9837 5.04292 79.6816 4.82997 79.3329 4.67708C78.9824 4.52242 78.5968 4.44405 78.1722 4.44052C77.7494 4.44228 77.3618 4.5205 77.0096 4.67338C76.6573 4.82627 76.3494 5.03746 76.0899 5.30502C75.8302 5.57434 75.6282 5.88558 75.4853 6.2368C75.3427 6.58819 75.2703 6.96495 75.2684 7.36709C75.2703 7.77484 75.3427 8.15514 75.4853 8.51375C75.63 8.87044 75.8302 9.18537 76.0917 9.45839C76.3531 9.7314 76.6591 9.94612 77.0151 10.1009C77.3694 10.2556 77.7588 10.3338 78.1833 10.3375H78.1833ZM76.0472 7.08315C76.0676 6.78107 76.1362 6.50436 76.253 6.25318C76.368 6.00201 76.522 5.78552 76.7129 5.59987C76.9039 5.41599 77.1246 5.27402 77.3729 5.17204C77.6197 5.07199 77.8865 5.02108 78.1722 5.01931C78.4577 5.02108 78.7247 5.07022 78.9713 5.17027C79.2198 5.27033 79.4406 5.41229 79.6333 5.59618C79.8262 5.78006 79.9819 5.99847 80.1006 6.24965C80.2192 6.50082 80.2935 6.7793 80.3193 7.08315H76.0472L76.0472 7.08315ZM46.9267 10.3425C46.7773 10.3685 46.6227 10.382 46.4629 10.3828H46.4624C46.3068 10.382 46.1544 10.3677 46.006 10.3402C45.8568 10.3126 45.7109 10.2718 45.5689 10.2178H45.5687C45.4265 10.1632 45.291 10.099 45.1624 10.0245C45.0335 9.94981 44.9115 9.86518 44.7956 9.76994C44.6808 9.67583 44.5751 9.57385 44.4789 9.46449C44.4173 9.39446 44.3598 9.32155 44.3063 9.24591V10.2283V10.2737H44.2598H43.7591H43.7127V10.2283V2.25638V2.21077H43.7591H44.3154H44.3617V2.25638V5.63937C44.428 5.55008 44.4969 5.46448 44.5685 5.38257V5.38241C44.6711 5.2655 44.7796 5.15613 44.8944 5.05463H44.8946C45.0101 4.9533 45.1309 4.86304 45.257 4.78419C45.3837 4.70533 45.5168 4.63708 45.6569 4.58055L45.6567 4.58039C45.7968 4.52289 45.9431 4.47969 46.096 4.45063C46.2482 4.42172 46.4074 4.40694 46.5736 4.40598H46.5741C46.7421 4.40694 46.903 4.42172 47.0569 4.45014C47.2112 4.47873 47.3588 4.52097 47.4997 4.57669H47.4998C47.6392 4.6321 47.7716 4.69843 47.8965 4.77552C48.0208 4.85228 48.1379 4.93997 48.2477 5.03841C48.3577 5.13606 48.4593 5.24141 48.5522 5.35431C48.6447 5.46641 48.7288 5.58637 48.8039 5.71356H48.8037C48.8801 5.84124 48.9469 5.97293 49.0043 6.10815C49.0619 6.24402 49.1103 6.38438 49.1497 6.52908C49.2286 6.81864 49.2682 7.11205 49.2682 7.41076L49.2679 7.41108C49.2671 7.57136 49.2551 7.72842 49.2319 7.88179C49.2088 8.03356 49.1746 8.18259 49.1288 8.32874C49.0825 8.47536 49.0265 8.61685 48.9611 8.75288C48.8963 8.88746 48.8217 9.01706 48.7374 9.1412V9.14136C48.654 9.2647 48.5617 9.38113 48.4611 9.49002C48.3606 9.59874 48.2523 9.69976 48.1365 9.7921L48.1363 9.79226C48.0193 9.88493 47.8966 9.96731 47.7683 10.0393H47.7682C47.6396 10.1114 47.5048 10.1734 47.3634 10.2252C47.2225 10.2773 47.0769 10.3163 46.9267 10.3425V10.3425ZM46.106 9.78199C46.1893 9.79435 46.2709 9.80046 46.3514 9.80046V9.80078C46.4838 9.79981 46.6118 9.78825 46.7351 9.76593C46.8583 9.74376 46.9771 9.71068 47.0911 9.66716L47.0915 9.667C47.206 9.62412 47.3151 9.57273 47.4184 9.51299C47.5221 9.45308 47.6209 9.38419 47.714 9.30726C47.8065 9.22985 47.893 9.1465 47.973 9.05721C48.0529 8.96808 48.1263 8.873 48.1926 8.77134C48.2592 8.67017 48.3181 8.56546 48.3691 8.45722C48.4205 8.34865 48.4644 8.23624 48.5007 8.12028H48.5005C48.5362 8.00433 48.5632 7.88694 48.581 7.76858C48.5989 7.65086 48.6079 7.53137 48.6079 7.41076H48.6082C48.6072 7.25274 48.5935 7.09776 48.5669 6.946C48.5404 6.79423 48.5012 6.64584 48.4493 6.50114C48.3976 6.3566 48.3346 6.21977 48.2605 6.09049C48.1867 5.96185 48.1015 5.84076 48.0051 5.72738L48.0049 5.7269C47.9095 5.61287 47.8052 5.51138 47.6918 5.42176C47.5787 5.33263 47.456 5.25506 47.3241 5.18906C47.1929 5.12321 47.0542 5.07343 46.9087 5.04002C46.7629 5.00646 46.6103 4.98895 46.4516 4.98815C46.33 4.98895 46.2127 4.99923 46.0991 5.0193C45.9859 5.03922 45.8765 5.06909 45.7708 5.10892L45.7706 5.10908C45.6646 5.14826 45.5633 5.19484 45.4668 5.24848C45.3694 5.30276 45.2763 5.36443 45.1878 5.43332L45.1876 5.43349C45.0982 5.5027 45.0136 5.57658 44.9344 5.65511C44.8553 5.73332 44.7804 5.81715 44.7099 5.90629V5.90613C44.6415 5.99365 44.578 6.08439 44.5194 6.17786C44.4617 6.2702 44.4092 6.36431 44.3617 6.45987V8.32586C44.3717 8.40615 44.3899 8.48437 44.4165 8.56049C44.4435 8.63742 44.4792 8.71242 44.5239 8.78517L44.524 8.78549C44.568 8.85856 44.6189 8.92938 44.6763 8.99731C44.7343 9.06573 44.7981 9.13077 44.8673 9.19164L44.8676 9.1918C44.9376 9.25427 45.0114 9.31241 45.0885 9.36604C45.1657 9.41969 45.2466 9.46931 45.3311 9.51476C45.4169 9.56005 45.5038 9.60084 45.5911 9.63649C45.677 9.67134 45.7631 9.70153 45.8488 9.72594V9.72611C45.9359 9.75068 46.0214 9.76931 46.106 9.78199L46.106 9.78199ZM59.0599 6.22315C59.0894 6.4504 59.1039 6.69724 59.1029 6.96302H59.1031V10.2283V10.2737H59.0566H58.5005H58.454V10.2283V7.0613C58.454 6.70751 58.4261 6.39932 58.3698 6.13739C58.314 5.8777 58.2304 5.66346 58.1186 5.49532C58.0084 5.32942 57.8704 5.20496 57.705 5.12241C57.5388 5.03938 57.3441 4.99827 57.1211 4.99907C56.9632 4.99987 56.8113 5.01898 56.6661 5.05592C56.5209 5.09302 56.382 5.1481 56.2498 5.22086C56.1171 5.29393 55.9938 5.38129 55.8799 5.48231C55.7658 5.58365 55.6605 5.69976 55.5638 5.83032L55.5636 5.83065C55.4671 5.96009 55.3828 6.10029 55.3105 6.25061C55.2392 6.39948 55.1793 6.55879 55.1313 6.72855V10.2283V10.2737H55.0849H54.5286H54.4823V10.2283V7.06131H54.4825C54.4833 6.70253 54.4558 6.39161 54.4002 6.12823C54.345 5.86758 54.2622 5.65431 54.1524 5.48809L54.1523 5.48793C54.0436 5.323 53.9073 5.19982 53.7432 5.11872C53.578 5.03713 53.3838 4.99731 53.1606 4.99907H53.1604C53.0066 4.99988 52.8576 5.01867 52.7136 5.0548C52.5695 5.09093 52.4307 5.14474 52.298 5.21556C52.1645 5.28783 52.0402 5.37375 51.925 5.47348V5.47364C51.8093 5.57385 51.7025 5.68804 51.6045 5.81619H51.6046C51.506 5.94612 51.4191 6.08696 51.3446 6.23857C51.2712 6.3876 51.2093 6.54755 51.1594 6.71811V10.2283V10.2737H51.1131H50.5568H50.5104V10.2283V4.54973V4.50413H50.5568H51.0686H51.1151V4.54973V5.729C51.174 5.63104 51.2365 5.53821 51.3026 5.45037C51.4021 5.31836 51.5099 5.19726 51.6261 5.08693V5.08677C51.7421 4.97644 51.8646 4.8796 51.9929 4.79577C52.121 4.71194 52.2558 4.64095 52.3969 4.5825C52.5381 4.52388 52.6838 4.47955 52.8337 4.45016V4.45C52.9829 4.42061 53.1362 4.40584 53.2936 4.40584L53.294 4.406C53.46 4.40696 53.6151 4.42415 53.7596 4.45739C53.9051 4.4908 54.0405 4.54042 54.1663 4.60594L54.1667 4.6061C54.2917 4.67259 54.4042 4.75177 54.505 4.84411C54.6055 4.93613 54.6943 5.04148 54.7716 5.16049H54.7717C54.8475 5.2774 54.9095 5.40492 54.9582 5.54239C54.9933 5.64132 55.0212 5.74538 55.0423 5.85459C55.1649 5.64437 55.2966 5.45711 55.4375 5.29266C55.6045 5.09785 55.7842 4.93485 55.9763 4.80348C56.1696 4.67147 56.3761 4.5719 56.5955 4.50541C56.8138 4.43924 57.0447 4.40584 57.2878 4.40584L57.288 4.406C57.5029 4.40696 57.6976 4.43298 57.8719 4.48389C58.0478 4.53528 58.2032 4.61205 58.3377 4.71403C58.4725 4.81617 58.5889 4.94111 58.6867 5.08822C58.784 5.23468 58.8634 5.40315 58.9248 5.59346V5.59378C58.985 5.78393 59.0301 5.99367 59.0599 6.22316V6.22315ZM62.6131 10.3515C62.458 10.3723 62.2998 10.3831 62.1385 10.3831L62.1383 10.3828C62.0007 10.382 61.8675 10.3699 61.7394 10.3471C61.6103 10.324 61.4862 10.29 61.3674 10.2452H61.3669C61.2489 10.1997 61.1378 10.1451 61.0339 10.0813C60.9299 10.0173 60.8338 9.94451 60.7458 9.86277C60.6561 9.78119 60.5771 9.69237 60.5082 9.59714C60.439 9.50126 60.3795 9.39864 60.3292 9.2896V9.28928C60.2797 9.17991 60.2425 9.06572 60.2176 8.94704C60.1926 8.82772 60.1795 8.70325 60.1787 8.57397V8.57365C60.1795 8.44694 60.1954 8.32569 60.226 8.20974C60.2566 8.09379 60.3022 7.98281 60.3624 7.8765L60.3626 7.87602C60.4236 7.77131 60.4968 7.67334 60.5822 7.58245C60.6673 7.49187 60.7648 7.4082 60.8751 7.33175C60.9848 7.25563 61.1051 7.1877 61.2352 7.1286C61.3649 7.0695 61.5045 7.01907 61.653 6.97747C61.8021 6.9362 61.9593 6.90521 62.1244 6.88433C62.2884 6.86377 62.46 6.85317 62.639 6.85221L62.6391 6.85205C62.7437 6.85205 62.85 6.85526 62.9574 6.86168C63.0647 6.86827 63.1714 6.8779 63.2771 6.89059C63.3841 6.90328 63.4896 6.91854 63.5938 6.9362C63.6977 6.95387 63.8003 6.9741 63.9011 6.99707H63.9013C63.9998 7.01955 64.0952 7.0446 64.1869 7.07158C64.2581 7.09246 64.3275 7.11479 64.3951 7.13839V6.64632H64.3952C64.3944 6.47111 64.3763 6.30714 64.3411 6.15489C64.3061 6.00345 64.254 5.86341 64.1855 5.73573C64.1169 5.60806 64.0338 5.49484 63.9366 5.39639C63.8398 5.29843 63.7285 5.21476 63.6032 5.14634L63.603 5.14602C63.4772 5.07632 63.3396 5.02381 63.1904 4.98831C63.0407 4.95266 62.879 4.93451 62.7059 4.93355V4.93371C62.5631 4.93371 62.4176 4.948 62.2695 4.97659C62.1207 5.00518 61.9687 5.04822 61.8135 5.10555H61.8134C61.6589 5.16192 61.5028 5.23194 61.3459 5.31497C61.1895 5.39768 61.0321 5.49355 60.8746 5.60244L60.8335 5.63071L60.8081 5.58815L60.5856 5.21685L60.5635 5.18007L60.5997 5.1563C60.788 5.032 60.9732 4.92327 61.155 4.83029C61.3378 4.73682 61.5182 4.65845 61.6964 4.59597C61.8731 4.5327 62.0485 4.48532 62.2221 4.45368C62.3972 4.42173 62.5696 4.40583 62.7393 4.40583L62.7394 4.40599C62.976 4.40695 63.1966 4.43056 63.4005 4.47681C63.6048 4.52322 63.7931 4.59244 63.9646 4.68446V4.6843C64.137 4.77536 64.2899 4.88682 64.4229 5.01802C64.5559 5.14923 64.6691 5.30035 64.7622 5.47107C64.8552 5.64211 64.9252 5.82936 64.9723 6.03284C65.0191 6.23519 65.043 6.45441 65.044 6.68984L65.0441 6.69V9.45469C65.0441 9.49693 65.0485 9.53323 65.0574 9.56326C65.0654 9.5912 65.077 9.61385 65.0919 9.63055L65.0924 9.63119C65.1066 9.64789 65.1248 9.66042 65.1466 9.66877C65.1698 9.67776 65.1982 9.68226 65.2315 9.68226H65.2778V9.72771V10.2174V10.2567L65.238 10.2623C65.2189 10.2649 65.1997 10.2673 65.1798 10.2691C65.1593 10.271 65.1407 10.272 65.1238 10.272C65.0883 10.2737 65.0579 10.2737 65.0312 10.2737C64.9821 10.2737 64.9343 10.2678 64.8877 10.2566C64.8412 10.2452 64.7962 10.2285 64.7527 10.2073L64.7524 10.2068C64.7089 10.1849 64.669 10.1586 64.6333 10.1282C64.5978 10.0979 64.566 10.0632 64.5387 10.0247H64.5389C64.5101 9.98434 64.4885 9.94162 64.4739 9.89585C64.4595 9.85024 64.4518 9.80126 64.4509 9.74859L64.4507 9.74778V9.40539C64.382 9.48376 64.3093 9.5578 64.2326 9.62718C64.1256 9.72386 64.0101 9.81218 63.8862 9.89136C63.762 9.97166 63.6318 10.0423 63.4958 10.1032C63.3589 10.1645 63.2165 10.2161 63.069 10.2575C62.9214 10.299 62.7694 10.3304 62.6131 10.3515V10.3515ZM61.8612 9.80913C61.9835 9.83884 62.113 9.85442 62.2497 9.85522V9.85506C62.3918 9.85506 62.5299 9.84623 62.6635 9.82872C62.7985 9.81106 62.9305 9.78456 63.0588 9.74955C63.1861 9.7147 63.307 9.67262 63.4209 9.62316C63.5341 9.57385 63.6405 9.51716 63.7391 9.45325L63.7396 9.45292C63.8386 9.39013 63.9276 9.32091 64.0063 9.24608C64.0857 9.17059 64.155 9.08885 64.2138 9.00197L64.2148 9.00036L64.2166 8.99811C64.2458 8.96326 64.2722 8.92841 64.2948 8.89324C64.3167 8.85888 64.3355 8.82386 64.3502 8.78789C64.3653 8.7516 64.3766 8.71707 64.3841 8.68431C64.3913 8.65235 64.3951 8.62103 64.3951 8.59019V7.61746C64.2686 7.57265 64.1405 7.53282 64.0114 7.49813C63.872 7.46071 63.73 7.42875 63.5862 7.40274V7.4029C63.4391 7.3772 63.2916 7.35745 63.1444 7.34444C63.0007 7.33191 62.8545 7.32533 62.7059 7.32533V7.32517C62.5146 7.32597 62.3353 7.33946 62.1683 7.3658C62.0019 7.39182 61.8477 7.43068 61.7059 7.48239C61.5647 7.53395 61.4394 7.59561 61.3301 7.6674C61.2216 7.73855 61.1285 7.81981 61.0506 7.91119C60.9732 8.00273 60.915 8.10118 60.8762 8.20669C60.8371 8.31236 60.8171 8.42558 60.8163 8.54651C60.8171 8.67017 60.8338 8.78789 60.8657 8.89919C60.8976 9.01064 60.9451 9.11567 61.0077 9.21412V9.21428C61.0711 9.31256 61.1452 9.40122 61.2308 9.47927C61.315 9.55619 61.4102 9.62284 61.5169 9.67857H61.5171C61.6249 9.7359 61.7396 9.77974 61.8612 9.80913L61.8612 9.80913ZM69.1877 10.3288C68.9889 10.3638 68.775 10.382 68.547 10.3828L68.5468 10.3831C68.3963 10.3831 68.2474 10.3748 68.1003 10.3581C67.9532 10.3415 67.8081 10.3166 67.6647 10.2835H67.6646C67.5226 10.2505 67.384 10.2093 67.2487 10.16C67.1138 10.1107 66.983 10.0536 66.8563 9.9882C66.7295 9.92267 66.6088 9.84896 66.4944 9.76737C66.3795 9.68547 66.2702 9.59489 66.167 9.49645L66.138 9.46882L66.1619 9.43702L66.4401 9.06572L66.4704 9.02525L66.5085 9.05882C66.661 9.19324 66.8166 9.30999 66.9751 9.4094C67.1351 9.50977 67.2991 9.59329 67.4664 9.66009V9.66025C67.6332 9.72546 67.8063 9.77428 67.9861 9.80656C68.1656 9.839 68.3524 9.85506 68.5468 9.85506C68.7124 9.85506 68.8673 9.8435 69.0108 9.82069C69.1549 9.79773 69.2886 9.76336 69.4112 9.71791C69.5331 9.67278 69.6417 9.61754 69.7364 9.55217C69.8302 9.48761 69.9105 9.41293 69.9769 9.32878L69.9773 9.3283C70.0439 9.24575 70.0941 9.15373 70.128 9.05287C70.1622 8.95089 70.1797 8.84008 70.1805 8.72124H70.1803C70.1803 8.63661 70.1712 8.5592 70.1525 8.4895C70.1342 8.42044 70.1064 8.35781 70.0692 8.30192L70.0689 8.3016C70.0324 8.24507 69.9863 8.19271 69.9313 8.14454C69.8753 8.09571 69.8101 8.05123 69.7355 8.01124L69.7351 8.01108C69.66 7.97013 69.5749 7.93126 69.4807 7.89465C69.3866 7.85787 69.2821 7.8227 69.1677 7.78929C69.0519 7.75557 68.9282 7.722 68.796 7.68844C68.6648 7.65503 68.5227 7.62099 68.3696 7.58614C68.2043 7.54856 68.0507 7.51114 67.9089 7.47388C67.7665 7.43662 67.6346 7.39904 67.5132 7.36146H67.5131C67.3922 7.32404 67.2806 7.28325 67.1788 7.23876C67.0767 7.19444 66.9861 7.1469 66.9069 7.09615C66.8251 7.04508 66.7536 6.98711 66.6924 6.92271C66.6309 6.85783 66.58 6.78636 66.5399 6.70863H66.54C66.4993 6.63042 66.469 6.54322 66.4492 6.44686C66.4296 6.35114 66.42 6.24659 66.42 6.13321L66.4201 6.13289C66.4209 5.98835 66.4361 5.85281 66.4648 5.72658C66.4941 5.59794 66.5373 5.47894 66.5937 5.36989L66.5939 5.36973C66.651 5.26149 66.7192 5.16208 66.7981 5.07214V5.07198C66.8771 4.98189 66.9672 4.90095 67.0677 4.82948C67.167 4.75817 67.2747 4.6957 67.3902 4.64254C67.5062 4.58923 67.6296 4.54538 67.7598 4.51117V4.51133C67.8882 4.47633 68.0224 4.44999 68.1613 4.43232C68.301 4.41466 68.4447 4.40582 68.5913 4.40582L68.5915 4.40598C68.7452 4.40695 68.8923 4.41562 69.0327 4.43248C69.1739 4.44967 69.3101 4.47504 69.4413 4.50941C69.5722 4.54362 69.6957 4.58441 69.8119 4.63162C69.9282 4.67916 70.0375 4.73344 70.1396 4.79479V4.79495C70.241 4.85533 70.3335 4.92102 70.4169 4.99168C70.5005 5.0625 70.5753 5.13879 70.6412 5.22053L70.6672 5.25281L70.6371 5.2814L70.3256 5.5761L70.2904 5.6095L70.2585 5.57304C70.1962 5.50222 70.1278 5.43718 70.0529 5.3784V5.37856C69.9774 5.3193 69.8953 5.26614 69.8063 5.21941H69.8061C69.7168 5.17203 69.6237 5.13044 69.5267 5.09495C69.4293 5.05945 69.3274 5.02942 69.2207 5.00533C69.1139 4.98108 69.0052 4.96326 68.8951 4.95137C68.7853 4.93965 68.6728 4.93371 68.5579 4.93371C68.4507 4.93371 68.3473 4.93917 68.2482 4.95025C68.1502 4.96101 68.0555 4.97755 67.9645 4.99971C67.8737 5.02171 67.7879 5.04966 67.7076 5.08354C67.6276 5.11727 67.5532 5.15694 67.4843 5.20255C67.416 5.24783 67.3555 5.29923 67.3027 5.35656C67.2493 5.41453 67.2029 5.47926 67.1636 5.55008H67.1637C67.1258 5.62026 67.097 5.69751 67.0775 5.78134C67.0579 5.86646 67.0474 5.95832 67.0466 6.0566H67.0468C67.0468 6.13497 67.0533 6.20628 67.0667 6.26988C67.08 6.33251 67.0998 6.38856 67.1263 6.43722C67.1538 6.487 67.1885 6.53294 67.2302 6.57437C67.2724 6.61613 67.3221 6.65387 67.3799 6.68743C67.4394 6.7218 67.507 6.75456 67.5831 6.78539H67.5833C67.66 6.81671 67.7457 6.84626 67.8406 6.87388C67.937 6.90231 68.0412 6.93106 68.1535 6.9598C68.2645 6.98839 68.3881 7.01842 68.5239 7.04974V7.0499C68.7042 7.09021 68.8745 7.13132 69.0347 7.1726C69.1983 7.21467 69.3518 7.25739 69.4948 7.30011H69.4951C69.6365 7.34315 69.7669 7.38972 69.8863 7.43951C70.0056 7.48913 70.1145 7.54245 70.213 7.59914L70.2135 7.59946C70.411 7.71606 70.5611 7.85979 70.6635 8.03035L70.6636 8.03051C70.715 8.11723 70.754 8.21391 70.7798 8.32006C70.8053 8.42558 70.8183 8.54105 70.8183 8.66663L70.8181 8.66679C70.8173 8.84153 70.7929 9.00485 70.7453 9.15646C70.6975 9.30838 70.6262 9.4489 70.5314 9.57754C70.438 9.70586 70.325 9.81956 70.1929 9.91865C70.0609 10.0177 69.9099 10.1022 69.7402 10.1719C69.5717 10.2413 69.3873 10.2936 69.1877 10.3288V10.3288ZM72.7244 4.9464V2.76244V2.71683H72.7708H73.2584H73.3049V2.76244V4.9464H74.345H74.3914V4.99201V5.47252V5.51797H74.345H73.3049V10.2283V10.2737H73.2584H72.7708H72.7244V10.2283V5.51797H71.6841H71.6378V5.47252V4.99201V4.9464H71.6841H72.7244ZM84.882 4.49063C84.9037 4.48854 84.9284 4.48565 84.9531 4.4826L85.0051 4.47617V4.52773V5.041V5.08484L84.9605 5.08644C84.7884 5.09271 84.6233 5.11375 84.4657 5.14956C84.3086 5.18537 84.1591 5.2358 84.0179 5.30052L84.0177 5.30084C83.8752 5.36572 83.7432 5.44426 83.6213 5.53564C83.4992 5.62702 83.387 5.73189 83.2844 5.84944H83.2846C83.1828 5.96716 83.0933 6.09612 83.0163 6.23632C82.9402 6.37492 82.8762 6.52476 82.8247 6.68583V10.2283V10.2737H82.7782H82.2219H82.1756V10.2283V4.54973V4.50413H82.2219H82.7448H82.7913V4.54973V5.77381C82.8356 5.69785 82.8824 5.62478 82.9318 5.55476C83.0156 5.43591 83.1066 5.32526 83.2042 5.22296L83.2046 5.2228C83.3034 5.12098 83.4073 5.0288 83.5163 4.94673C83.6247 4.86499 83.7386 4.79304 83.8579 4.73169C83.9765 4.66922 84.0976 4.61944 84.2205 4.58186C84.3438 4.54412 84.4696 4.51842 84.5978 4.50445L84.601 4.50413H84.6028C84.6413 4.50413 84.6761 4.50364 84.7054 4.50268C84.7376 4.50156 84.7684 4.49979 84.797 4.49722L84.7985 4.49706C84.8294 4.49513 84.8572 4.49288 84.882 4.49064V4.49063Z" fill="#060709"/>
</svg>
